G75*
%MOIN*%
%OFA0B0*%
%FSLAX25Y25*%
%IPPOS*%
%LPD*%
%AMOC8*
5,1,8,0,0,1.08239X$1,22.5*
%
%ADD10C,0.00000*%
%ADD11C,0.07100*%
%ADD12C,0.06400*%
%ADD13C,0.06737*%
%ADD14C,0.06000*%
%ADD15C,0.12611*%
%ADD16C,0.05156*%
D10*
X0016500Y0005500D02*
X0217500Y0005500D01*
X0217790Y0005504D01*
X0218080Y0005514D01*
X0218369Y0005532D01*
X0218658Y0005556D01*
X0218946Y0005587D01*
X0219234Y0005626D01*
X0219520Y0005671D01*
X0219806Y0005724D01*
X0220089Y0005783D01*
X0220372Y0005849D01*
X0220652Y0005921D01*
X0220931Y0006001D01*
X0221208Y0006087D01*
X0221483Y0006180D01*
X0221755Y0006280D01*
X0222025Y0006386D01*
X0222292Y0006498D01*
X0222557Y0006618D01*
X0222818Y0006743D01*
X0223077Y0006875D01*
X0223332Y0007012D01*
X0223584Y0007156D01*
X0223832Y0007306D01*
X0224076Y0007462D01*
X0224317Y0007624D01*
X0224553Y0007792D01*
X0224786Y0007965D01*
X0225014Y0008144D01*
X0225238Y0008328D01*
X0225457Y0008518D01*
X0225672Y0008713D01*
X0225882Y0008913D01*
X0226087Y0009118D01*
X0226287Y0009328D01*
X0226482Y0009543D01*
X0226672Y0009762D01*
X0226856Y0009986D01*
X0227035Y0010214D01*
X0227208Y0010447D01*
X0227376Y0010683D01*
X0227538Y0010924D01*
X0227694Y0011168D01*
X0227844Y0011416D01*
X0227988Y0011668D01*
X0228125Y0011923D01*
X0228257Y0012182D01*
X0228382Y0012443D01*
X0228502Y0012708D01*
X0228614Y0012975D01*
X0228720Y0013245D01*
X0228820Y0013517D01*
X0228913Y0013792D01*
X0228999Y0014069D01*
X0229079Y0014348D01*
X0229151Y0014628D01*
X0229217Y0014911D01*
X0229276Y0015194D01*
X0229329Y0015480D01*
X0229374Y0015766D01*
X0229413Y0016054D01*
X0229444Y0016342D01*
X0229468Y0016631D01*
X0229486Y0016920D01*
X0229496Y0017210D01*
X0229500Y0017500D01*
X0229500Y0143500D01*
X0229496Y0143790D01*
X0229486Y0144080D01*
X0229468Y0144369D01*
X0229444Y0144658D01*
X0229413Y0144946D01*
X0229374Y0145234D01*
X0229329Y0145520D01*
X0229276Y0145806D01*
X0229217Y0146089D01*
X0229151Y0146372D01*
X0229079Y0146652D01*
X0228999Y0146931D01*
X0228913Y0147208D01*
X0228820Y0147483D01*
X0228720Y0147755D01*
X0228614Y0148025D01*
X0228502Y0148292D01*
X0228382Y0148557D01*
X0228257Y0148818D01*
X0228125Y0149077D01*
X0227988Y0149332D01*
X0227844Y0149584D01*
X0227694Y0149832D01*
X0227538Y0150076D01*
X0227376Y0150317D01*
X0227208Y0150553D01*
X0227035Y0150786D01*
X0226856Y0151014D01*
X0226672Y0151238D01*
X0226482Y0151457D01*
X0226287Y0151672D01*
X0226087Y0151882D01*
X0225882Y0152087D01*
X0225672Y0152287D01*
X0225457Y0152482D01*
X0225238Y0152672D01*
X0225014Y0152856D01*
X0224786Y0153035D01*
X0224553Y0153208D01*
X0224317Y0153376D01*
X0224076Y0153538D01*
X0223832Y0153694D01*
X0223584Y0153844D01*
X0223332Y0153988D01*
X0223077Y0154125D01*
X0222818Y0154257D01*
X0222557Y0154382D01*
X0222292Y0154502D01*
X0222025Y0154614D01*
X0221755Y0154720D01*
X0221483Y0154820D01*
X0221208Y0154913D01*
X0220931Y0154999D01*
X0220652Y0155079D01*
X0220372Y0155151D01*
X0220089Y0155217D01*
X0219806Y0155276D01*
X0219520Y0155329D01*
X0219234Y0155374D01*
X0218946Y0155413D01*
X0218658Y0155444D01*
X0218369Y0155468D01*
X0218080Y0155486D01*
X0217790Y0155496D01*
X0217500Y0155500D01*
X0016500Y0155500D01*
X0016210Y0155496D01*
X0015920Y0155486D01*
X0015631Y0155468D01*
X0015342Y0155444D01*
X0015054Y0155413D01*
X0014766Y0155374D01*
X0014480Y0155329D01*
X0014194Y0155276D01*
X0013911Y0155217D01*
X0013628Y0155151D01*
X0013348Y0155079D01*
X0013069Y0154999D01*
X0012792Y0154913D01*
X0012517Y0154820D01*
X0012245Y0154720D01*
X0011975Y0154614D01*
X0011708Y0154502D01*
X0011443Y0154382D01*
X0011182Y0154257D01*
X0010923Y0154125D01*
X0010668Y0153988D01*
X0010416Y0153844D01*
X0010168Y0153694D01*
X0009924Y0153538D01*
X0009683Y0153376D01*
X0009447Y0153208D01*
X0009214Y0153035D01*
X0008986Y0152856D01*
X0008762Y0152672D01*
X0008543Y0152482D01*
X0008328Y0152287D01*
X0008118Y0152087D01*
X0007913Y0151882D01*
X0007713Y0151672D01*
X0007518Y0151457D01*
X0007328Y0151238D01*
X0007144Y0151014D01*
X0006965Y0150786D01*
X0006792Y0150553D01*
X0006624Y0150317D01*
X0006462Y0150076D01*
X0006306Y0149832D01*
X0006156Y0149584D01*
X0006012Y0149332D01*
X0005875Y0149077D01*
X0005743Y0148818D01*
X0005618Y0148557D01*
X0005498Y0148292D01*
X0005386Y0148025D01*
X0005280Y0147755D01*
X0005180Y0147483D01*
X0005087Y0147208D01*
X0005001Y0146931D01*
X0004921Y0146652D01*
X0004849Y0146372D01*
X0004783Y0146089D01*
X0004724Y0145806D01*
X0004671Y0145520D01*
X0004626Y0145234D01*
X0004587Y0144946D01*
X0004556Y0144658D01*
X0004532Y0144369D01*
X0004514Y0144080D01*
X0004504Y0143790D01*
X0004500Y0143500D01*
X0004500Y0017500D01*
X0004504Y0017210D01*
X0004514Y0016920D01*
X0004532Y0016631D01*
X0004556Y0016342D01*
X0004587Y0016054D01*
X0004626Y0015766D01*
X0004671Y0015480D01*
X0004724Y0015194D01*
X0004783Y0014911D01*
X0004849Y0014628D01*
X0004921Y0014348D01*
X0005001Y0014069D01*
X0005087Y0013792D01*
X0005180Y0013517D01*
X0005280Y0013245D01*
X0005386Y0012975D01*
X0005498Y0012708D01*
X0005618Y0012443D01*
X0005743Y0012182D01*
X0005875Y0011923D01*
X0006012Y0011668D01*
X0006156Y0011416D01*
X0006306Y0011168D01*
X0006462Y0010924D01*
X0006624Y0010683D01*
X0006792Y0010447D01*
X0006965Y0010214D01*
X0007144Y0009986D01*
X0007328Y0009762D01*
X0007518Y0009543D01*
X0007713Y0009328D01*
X0007913Y0009118D01*
X0008118Y0008913D01*
X0008328Y0008713D01*
X0008543Y0008518D01*
X0008762Y0008328D01*
X0008986Y0008144D01*
X0009214Y0007965D01*
X0009447Y0007792D01*
X0009683Y0007624D01*
X0009924Y0007462D01*
X0010168Y0007306D01*
X0010416Y0007156D01*
X0010668Y0007012D01*
X0010923Y0006875D01*
X0011182Y0006743D01*
X0011443Y0006618D01*
X0011708Y0006498D01*
X0011975Y0006386D01*
X0012245Y0006280D01*
X0012517Y0006180D01*
X0012792Y0006087D01*
X0013069Y0006001D01*
X0013348Y0005921D01*
X0013628Y0005849D01*
X0013911Y0005783D01*
X0014194Y0005724D01*
X0014480Y0005671D01*
X0014766Y0005626D01*
X0015054Y0005587D01*
X0015342Y0005556D01*
X0015631Y0005532D01*
X0015920Y0005514D01*
X0016210Y0005504D01*
X0016500Y0005500D01*
X0011094Y0018000D02*
X0011096Y0018153D01*
X0011102Y0018307D01*
X0011112Y0018460D01*
X0011126Y0018612D01*
X0011144Y0018765D01*
X0011166Y0018916D01*
X0011191Y0019067D01*
X0011221Y0019218D01*
X0011255Y0019368D01*
X0011292Y0019516D01*
X0011333Y0019664D01*
X0011378Y0019810D01*
X0011427Y0019956D01*
X0011480Y0020100D01*
X0011536Y0020242D01*
X0011596Y0020383D01*
X0011660Y0020523D01*
X0011727Y0020661D01*
X0011798Y0020797D01*
X0011873Y0020931D01*
X0011950Y0021063D01*
X0012032Y0021193D01*
X0012116Y0021321D01*
X0012204Y0021447D01*
X0012295Y0021570D01*
X0012389Y0021691D01*
X0012487Y0021809D01*
X0012587Y0021925D01*
X0012691Y0022038D01*
X0012797Y0022149D01*
X0012906Y0022257D01*
X0013018Y0022362D01*
X0013132Y0022463D01*
X0013250Y0022562D01*
X0013369Y0022658D01*
X0013491Y0022751D01*
X0013616Y0022840D01*
X0013743Y0022927D01*
X0013872Y0023009D01*
X0014003Y0023089D01*
X0014136Y0023165D01*
X0014271Y0023238D01*
X0014408Y0023307D01*
X0014547Y0023372D01*
X0014687Y0023434D01*
X0014829Y0023492D01*
X0014972Y0023547D01*
X0015117Y0023598D01*
X0015263Y0023645D01*
X0015410Y0023688D01*
X0015558Y0023727D01*
X0015707Y0023763D01*
X0015857Y0023794D01*
X0016008Y0023822D01*
X0016159Y0023846D01*
X0016312Y0023866D01*
X0016464Y0023882D01*
X0016617Y0023894D01*
X0016770Y0023902D01*
X0016923Y0023906D01*
X0017077Y0023906D01*
X0017230Y0023902D01*
X0017383Y0023894D01*
X0017536Y0023882D01*
X0017688Y0023866D01*
X0017841Y0023846D01*
X0017992Y0023822D01*
X0018143Y0023794D01*
X0018293Y0023763D01*
X0018442Y0023727D01*
X0018590Y0023688D01*
X0018737Y0023645D01*
X0018883Y0023598D01*
X0019028Y0023547D01*
X0019171Y0023492D01*
X0019313Y0023434D01*
X0019453Y0023372D01*
X0019592Y0023307D01*
X0019729Y0023238D01*
X0019864Y0023165D01*
X0019997Y0023089D01*
X0020128Y0023009D01*
X0020257Y0022927D01*
X0020384Y0022840D01*
X0020509Y0022751D01*
X0020631Y0022658D01*
X0020750Y0022562D01*
X0020868Y0022463D01*
X0020982Y0022362D01*
X0021094Y0022257D01*
X0021203Y0022149D01*
X0021309Y0022038D01*
X0021413Y0021925D01*
X0021513Y0021809D01*
X0021611Y0021691D01*
X0021705Y0021570D01*
X0021796Y0021447D01*
X0021884Y0021321D01*
X0021968Y0021193D01*
X0022050Y0021063D01*
X0022127Y0020931D01*
X0022202Y0020797D01*
X0022273Y0020661D01*
X0022340Y0020523D01*
X0022404Y0020383D01*
X0022464Y0020242D01*
X0022520Y0020100D01*
X0022573Y0019956D01*
X0022622Y0019810D01*
X0022667Y0019664D01*
X0022708Y0019516D01*
X0022745Y0019368D01*
X0022779Y0019218D01*
X0022809Y0019067D01*
X0022834Y0018916D01*
X0022856Y0018765D01*
X0022874Y0018612D01*
X0022888Y0018460D01*
X0022898Y0018307D01*
X0022904Y0018153D01*
X0022906Y0018000D01*
X0022904Y0017847D01*
X0022898Y0017693D01*
X0022888Y0017540D01*
X0022874Y0017388D01*
X0022856Y0017235D01*
X0022834Y0017084D01*
X0022809Y0016933D01*
X0022779Y0016782D01*
X0022745Y0016632D01*
X0022708Y0016484D01*
X0022667Y0016336D01*
X0022622Y0016190D01*
X0022573Y0016044D01*
X0022520Y0015900D01*
X0022464Y0015758D01*
X0022404Y0015617D01*
X0022340Y0015477D01*
X0022273Y0015339D01*
X0022202Y0015203D01*
X0022127Y0015069D01*
X0022050Y0014937D01*
X0021968Y0014807D01*
X0021884Y0014679D01*
X0021796Y0014553D01*
X0021705Y0014430D01*
X0021611Y0014309D01*
X0021513Y0014191D01*
X0021413Y0014075D01*
X0021309Y0013962D01*
X0021203Y0013851D01*
X0021094Y0013743D01*
X0020982Y0013638D01*
X0020868Y0013537D01*
X0020750Y0013438D01*
X0020631Y0013342D01*
X0020509Y0013249D01*
X0020384Y0013160D01*
X0020257Y0013073D01*
X0020128Y0012991D01*
X0019997Y0012911D01*
X0019864Y0012835D01*
X0019729Y0012762D01*
X0019592Y0012693D01*
X0019453Y0012628D01*
X0019313Y0012566D01*
X0019171Y0012508D01*
X0019028Y0012453D01*
X0018883Y0012402D01*
X0018737Y0012355D01*
X0018590Y0012312D01*
X0018442Y0012273D01*
X0018293Y0012237D01*
X0018143Y0012206D01*
X0017992Y0012178D01*
X0017841Y0012154D01*
X0017688Y0012134D01*
X0017536Y0012118D01*
X0017383Y0012106D01*
X0017230Y0012098D01*
X0017077Y0012094D01*
X0016923Y0012094D01*
X0016770Y0012098D01*
X0016617Y0012106D01*
X0016464Y0012118D01*
X0016312Y0012134D01*
X0016159Y0012154D01*
X0016008Y0012178D01*
X0015857Y0012206D01*
X0015707Y0012237D01*
X0015558Y0012273D01*
X0015410Y0012312D01*
X0015263Y0012355D01*
X0015117Y0012402D01*
X0014972Y0012453D01*
X0014829Y0012508D01*
X0014687Y0012566D01*
X0014547Y0012628D01*
X0014408Y0012693D01*
X0014271Y0012762D01*
X0014136Y0012835D01*
X0014003Y0012911D01*
X0013872Y0012991D01*
X0013743Y0013073D01*
X0013616Y0013160D01*
X0013491Y0013249D01*
X0013369Y0013342D01*
X0013250Y0013438D01*
X0013132Y0013537D01*
X0013018Y0013638D01*
X0012906Y0013743D01*
X0012797Y0013851D01*
X0012691Y0013962D01*
X0012587Y0014075D01*
X0012487Y0014191D01*
X0012389Y0014309D01*
X0012295Y0014430D01*
X0012204Y0014553D01*
X0012116Y0014679D01*
X0012032Y0014807D01*
X0011950Y0014937D01*
X0011873Y0015069D01*
X0011798Y0015203D01*
X0011727Y0015339D01*
X0011660Y0015477D01*
X0011596Y0015617D01*
X0011536Y0015758D01*
X0011480Y0015900D01*
X0011427Y0016044D01*
X0011378Y0016190D01*
X0011333Y0016336D01*
X0011292Y0016484D01*
X0011255Y0016632D01*
X0011221Y0016782D01*
X0011191Y0016933D01*
X0011166Y0017084D01*
X0011144Y0017235D01*
X0011126Y0017388D01*
X0011112Y0017540D01*
X0011102Y0017693D01*
X0011096Y0017847D01*
X0011094Y0018000D01*
X0211094Y0143000D02*
X0211096Y0143153D01*
X0211102Y0143307D01*
X0211112Y0143460D01*
X0211126Y0143612D01*
X0211144Y0143765D01*
X0211166Y0143916D01*
X0211191Y0144067D01*
X0211221Y0144218D01*
X0211255Y0144368D01*
X0211292Y0144516D01*
X0211333Y0144664D01*
X0211378Y0144810D01*
X0211427Y0144956D01*
X0211480Y0145100D01*
X0211536Y0145242D01*
X0211596Y0145383D01*
X0211660Y0145523D01*
X0211727Y0145661D01*
X0211798Y0145797D01*
X0211873Y0145931D01*
X0211950Y0146063D01*
X0212032Y0146193D01*
X0212116Y0146321D01*
X0212204Y0146447D01*
X0212295Y0146570D01*
X0212389Y0146691D01*
X0212487Y0146809D01*
X0212587Y0146925D01*
X0212691Y0147038D01*
X0212797Y0147149D01*
X0212906Y0147257D01*
X0213018Y0147362D01*
X0213132Y0147463D01*
X0213250Y0147562D01*
X0213369Y0147658D01*
X0213491Y0147751D01*
X0213616Y0147840D01*
X0213743Y0147927D01*
X0213872Y0148009D01*
X0214003Y0148089D01*
X0214136Y0148165D01*
X0214271Y0148238D01*
X0214408Y0148307D01*
X0214547Y0148372D01*
X0214687Y0148434D01*
X0214829Y0148492D01*
X0214972Y0148547D01*
X0215117Y0148598D01*
X0215263Y0148645D01*
X0215410Y0148688D01*
X0215558Y0148727D01*
X0215707Y0148763D01*
X0215857Y0148794D01*
X0216008Y0148822D01*
X0216159Y0148846D01*
X0216312Y0148866D01*
X0216464Y0148882D01*
X0216617Y0148894D01*
X0216770Y0148902D01*
X0216923Y0148906D01*
X0217077Y0148906D01*
X0217230Y0148902D01*
X0217383Y0148894D01*
X0217536Y0148882D01*
X0217688Y0148866D01*
X0217841Y0148846D01*
X0217992Y0148822D01*
X0218143Y0148794D01*
X0218293Y0148763D01*
X0218442Y0148727D01*
X0218590Y0148688D01*
X0218737Y0148645D01*
X0218883Y0148598D01*
X0219028Y0148547D01*
X0219171Y0148492D01*
X0219313Y0148434D01*
X0219453Y0148372D01*
X0219592Y0148307D01*
X0219729Y0148238D01*
X0219864Y0148165D01*
X0219997Y0148089D01*
X0220128Y0148009D01*
X0220257Y0147927D01*
X0220384Y0147840D01*
X0220509Y0147751D01*
X0220631Y0147658D01*
X0220750Y0147562D01*
X0220868Y0147463D01*
X0220982Y0147362D01*
X0221094Y0147257D01*
X0221203Y0147149D01*
X0221309Y0147038D01*
X0221413Y0146925D01*
X0221513Y0146809D01*
X0221611Y0146691D01*
X0221705Y0146570D01*
X0221796Y0146447D01*
X0221884Y0146321D01*
X0221968Y0146193D01*
X0222050Y0146063D01*
X0222127Y0145931D01*
X0222202Y0145797D01*
X0222273Y0145661D01*
X0222340Y0145523D01*
X0222404Y0145383D01*
X0222464Y0145242D01*
X0222520Y0145100D01*
X0222573Y0144956D01*
X0222622Y0144810D01*
X0222667Y0144664D01*
X0222708Y0144516D01*
X0222745Y0144368D01*
X0222779Y0144218D01*
X0222809Y0144067D01*
X0222834Y0143916D01*
X0222856Y0143765D01*
X0222874Y0143612D01*
X0222888Y0143460D01*
X0222898Y0143307D01*
X0222904Y0143153D01*
X0222906Y0143000D01*
X0222904Y0142847D01*
X0222898Y0142693D01*
X0222888Y0142540D01*
X0222874Y0142388D01*
X0222856Y0142235D01*
X0222834Y0142084D01*
X0222809Y0141933D01*
X0222779Y0141782D01*
X0222745Y0141632D01*
X0222708Y0141484D01*
X0222667Y0141336D01*
X0222622Y0141190D01*
X0222573Y0141044D01*
X0222520Y0140900D01*
X0222464Y0140758D01*
X0222404Y0140617D01*
X0222340Y0140477D01*
X0222273Y0140339D01*
X0222202Y0140203D01*
X0222127Y0140069D01*
X0222050Y0139937D01*
X0221968Y0139807D01*
X0221884Y0139679D01*
X0221796Y0139553D01*
X0221705Y0139430D01*
X0221611Y0139309D01*
X0221513Y0139191D01*
X0221413Y0139075D01*
X0221309Y0138962D01*
X0221203Y0138851D01*
X0221094Y0138743D01*
X0220982Y0138638D01*
X0220868Y0138537D01*
X0220750Y0138438D01*
X0220631Y0138342D01*
X0220509Y0138249D01*
X0220384Y0138160D01*
X0220257Y0138073D01*
X0220128Y0137991D01*
X0219997Y0137911D01*
X0219864Y0137835D01*
X0219729Y0137762D01*
X0219592Y0137693D01*
X0219453Y0137628D01*
X0219313Y0137566D01*
X0219171Y0137508D01*
X0219028Y0137453D01*
X0218883Y0137402D01*
X0218737Y0137355D01*
X0218590Y0137312D01*
X0218442Y0137273D01*
X0218293Y0137237D01*
X0218143Y0137206D01*
X0217992Y0137178D01*
X0217841Y0137154D01*
X0217688Y0137134D01*
X0217536Y0137118D01*
X0217383Y0137106D01*
X0217230Y0137098D01*
X0217077Y0137094D01*
X0216923Y0137094D01*
X0216770Y0137098D01*
X0216617Y0137106D01*
X0216464Y0137118D01*
X0216312Y0137134D01*
X0216159Y0137154D01*
X0216008Y0137178D01*
X0215857Y0137206D01*
X0215707Y0137237D01*
X0215558Y0137273D01*
X0215410Y0137312D01*
X0215263Y0137355D01*
X0215117Y0137402D01*
X0214972Y0137453D01*
X0214829Y0137508D01*
X0214687Y0137566D01*
X0214547Y0137628D01*
X0214408Y0137693D01*
X0214271Y0137762D01*
X0214136Y0137835D01*
X0214003Y0137911D01*
X0213872Y0137991D01*
X0213743Y0138073D01*
X0213616Y0138160D01*
X0213491Y0138249D01*
X0213369Y0138342D01*
X0213250Y0138438D01*
X0213132Y0138537D01*
X0213018Y0138638D01*
X0212906Y0138743D01*
X0212797Y0138851D01*
X0212691Y0138962D01*
X0212587Y0139075D01*
X0212487Y0139191D01*
X0212389Y0139309D01*
X0212295Y0139430D01*
X0212204Y0139553D01*
X0212116Y0139679D01*
X0212032Y0139807D01*
X0211950Y0139937D01*
X0211873Y0140069D01*
X0211798Y0140203D01*
X0211727Y0140339D01*
X0211660Y0140477D01*
X0211596Y0140617D01*
X0211536Y0140758D01*
X0211480Y0140900D01*
X0211427Y0141044D01*
X0211378Y0141190D01*
X0211333Y0141336D01*
X0211292Y0141484D01*
X0211255Y0141632D01*
X0211221Y0141782D01*
X0211191Y0141933D01*
X0211166Y0142084D01*
X0211144Y0142235D01*
X0211126Y0142388D01*
X0211112Y0142540D01*
X0211102Y0142693D01*
X0211096Y0142847D01*
X0211094Y0143000D01*
D11*
X0132000Y0102500D03*
X0132000Y0088500D03*
X0054500Y0053750D03*
X0054500Y0039750D03*
X0132000Y0032500D03*
X0132000Y0018500D03*
D12*
X0092000Y0070500D03*
X0082000Y0070500D03*
X0072000Y0070500D03*
X0062000Y0070500D03*
X0062000Y0100500D03*
X0072000Y0100500D03*
X0082000Y0100500D03*
X0092000Y0100500D03*
D13*
X0022469Y0113000D02*
X0016531Y0113000D01*
X0016531Y0123000D02*
X0022469Y0123000D01*
X0022469Y0133000D02*
X0016531Y0133000D01*
X0016531Y0143000D02*
X0022469Y0143000D01*
X0022469Y0075500D02*
X0016531Y0075500D01*
X0016531Y0065500D02*
X0022469Y0065500D01*
X0022469Y0050500D02*
X0016531Y0050500D01*
X0016531Y0040500D02*
X0022469Y0040500D01*
X0211531Y0033000D02*
X0217469Y0033000D01*
X0217469Y0023000D02*
X0211531Y0023000D01*
X0211531Y0048000D02*
X0217469Y0048000D01*
X0217469Y0058000D02*
X0211531Y0058000D01*
X0211531Y0085500D02*
X0217469Y0085500D01*
X0217469Y0095500D02*
X0211531Y0095500D01*
X0211531Y0110500D02*
X0217469Y0110500D01*
X0217469Y0120500D02*
X0211531Y0120500D01*
D14*
X0089700Y0115500D02*
X0084500Y0115500D01*
X0084500Y0125500D02*
X0089700Y0125500D01*
X0089700Y0135500D02*
X0084500Y0135500D01*
X0084500Y0145500D02*
X0089700Y0145500D01*
X0054500Y0145500D02*
X0049300Y0145500D01*
X0049300Y0135500D02*
X0054500Y0135500D01*
X0054500Y0125500D02*
X0049300Y0125500D01*
X0049300Y0115500D02*
X0054500Y0115500D01*
D15*
X0017000Y0018000D03*
X0217000Y0143000D03*
D16*
X0179500Y0115500D03*
X0179500Y0105500D03*
X0119500Y0066750D03*
X0089500Y0036750D03*
X0068250Y0018000D03*
X0179500Y0043000D03*
X0179500Y0053000D03*
X0117000Y0138000D03*
M02*
