%
M48
M72
T01C0.02756
T02C0.03200
T03C0.03937
T04C0.11811
%
T01
X68250Y18000
X89500Y36750
X119500Y66750
X117000Y138000
T02
X132000Y18500
X132000Y32500
X92000Y70500
X82000Y70500
X72000Y70500
X62000Y70500
X54500Y53750
X54500Y39750
X62000Y100500
X72000Y100500
X82000Y100500
X92000Y100500
X84500Y115500
X84500Y125500
X84500Y135500
X84500Y145500
X54500Y145500
X54500Y135500
X54500Y125500
X54500Y115500
X132000Y102500
X132000Y88500
T03
X214500Y38000
X214500Y48000
X214500Y100500
X214500Y110500
X19500Y143000
X19500Y133000
X19500Y123000
X19500Y113000
X19500Y75500
X19500Y65500
X19500Y50500
X19500Y40500
T04
X17000Y18000
X217000Y143000
M30
