G75*
%MOIN*%
%OFA0B0*%
%FSLAX25Y25*%
%IPPOS*%
%LPD*%
%AMOC8*
5,1,8,0,0,1.08239X$1,22.5*
%
%ADD10C,0.00000*%
%ADD11C,0.00400*%
%ADD12C,0.00600*%
%ADD13C,0.00800*%
%ADD14R,0.02657X0.09646*%
%ADD15C,0.01000*%
%ADD16C,0.00700*%
%ADD17C,0.00500*%
%ADD18R,0.01181X0.08268*%
%ADD19R,0.01181X0.00591*%
%ADD20R,0.01181X0.01181*%
D10*
X0016500Y0005500D02*
X0217500Y0005500D01*
X0217790Y0005504D01*
X0218080Y0005514D01*
X0218369Y0005532D01*
X0218658Y0005556D01*
X0218946Y0005587D01*
X0219234Y0005626D01*
X0219520Y0005671D01*
X0219806Y0005724D01*
X0220089Y0005783D01*
X0220372Y0005849D01*
X0220652Y0005921D01*
X0220931Y0006001D01*
X0221208Y0006087D01*
X0221483Y0006180D01*
X0221755Y0006280D01*
X0222025Y0006386D01*
X0222292Y0006498D01*
X0222557Y0006618D01*
X0222818Y0006743D01*
X0223077Y0006875D01*
X0223332Y0007012D01*
X0223584Y0007156D01*
X0223832Y0007306D01*
X0224076Y0007462D01*
X0224317Y0007624D01*
X0224553Y0007792D01*
X0224786Y0007965D01*
X0225014Y0008144D01*
X0225238Y0008328D01*
X0225457Y0008518D01*
X0225672Y0008713D01*
X0225882Y0008913D01*
X0226087Y0009118D01*
X0226287Y0009328D01*
X0226482Y0009543D01*
X0226672Y0009762D01*
X0226856Y0009986D01*
X0227035Y0010214D01*
X0227208Y0010447D01*
X0227376Y0010683D01*
X0227538Y0010924D01*
X0227694Y0011168D01*
X0227844Y0011416D01*
X0227988Y0011668D01*
X0228125Y0011923D01*
X0228257Y0012182D01*
X0228382Y0012443D01*
X0228502Y0012708D01*
X0228614Y0012975D01*
X0228720Y0013245D01*
X0228820Y0013517D01*
X0228913Y0013792D01*
X0228999Y0014069D01*
X0229079Y0014348D01*
X0229151Y0014628D01*
X0229217Y0014911D01*
X0229276Y0015194D01*
X0229329Y0015480D01*
X0229374Y0015766D01*
X0229413Y0016054D01*
X0229444Y0016342D01*
X0229468Y0016631D01*
X0229486Y0016920D01*
X0229496Y0017210D01*
X0229500Y0017500D01*
X0229500Y0143500D01*
X0229496Y0143790D01*
X0229486Y0144080D01*
X0229468Y0144369D01*
X0229444Y0144658D01*
X0229413Y0144946D01*
X0229374Y0145234D01*
X0229329Y0145520D01*
X0229276Y0145806D01*
X0229217Y0146089D01*
X0229151Y0146372D01*
X0229079Y0146652D01*
X0228999Y0146931D01*
X0228913Y0147208D01*
X0228820Y0147483D01*
X0228720Y0147755D01*
X0228614Y0148025D01*
X0228502Y0148292D01*
X0228382Y0148557D01*
X0228257Y0148818D01*
X0228125Y0149077D01*
X0227988Y0149332D01*
X0227844Y0149584D01*
X0227694Y0149832D01*
X0227538Y0150076D01*
X0227376Y0150317D01*
X0227208Y0150553D01*
X0227035Y0150786D01*
X0226856Y0151014D01*
X0226672Y0151238D01*
X0226482Y0151457D01*
X0226287Y0151672D01*
X0226087Y0151882D01*
X0225882Y0152087D01*
X0225672Y0152287D01*
X0225457Y0152482D01*
X0225238Y0152672D01*
X0225014Y0152856D01*
X0224786Y0153035D01*
X0224553Y0153208D01*
X0224317Y0153376D01*
X0224076Y0153538D01*
X0223832Y0153694D01*
X0223584Y0153844D01*
X0223332Y0153988D01*
X0223077Y0154125D01*
X0222818Y0154257D01*
X0222557Y0154382D01*
X0222292Y0154502D01*
X0222025Y0154614D01*
X0221755Y0154720D01*
X0221483Y0154820D01*
X0221208Y0154913D01*
X0220931Y0154999D01*
X0220652Y0155079D01*
X0220372Y0155151D01*
X0220089Y0155217D01*
X0219806Y0155276D01*
X0219520Y0155329D01*
X0219234Y0155374D01*
X0218946Y0155413D01*
X0218658Y0155444D01*
X0218369Y0155468D01*
X0218080Y0155486D01*
X0217790Y0155496D01*
X0217500Y0155500D01*
X0016500Y0155500D01*
X0016210Y0155496D01*
X0015920Y0155486D01*
X0015631Y0155468D01*
X0015342Y0155444D01*
X0015054Y0155413D01*
X0014766Y0155374D01*
X0014480Y0155329D01*
X0014194Y0155276D01*
X0013911Y0155217D01*
X0013628Y0155151D01*
X0013348Y0155079D01*
X0013069Y0154999D01*
X0012792Y0154913D01*
X0012517Y0154820D01*
X0012245Y0154720D01*
X0011975Y0154614D01*
X0011708Y0154502D01*
X0011443Y0154382D01*
X0011182Y0154257D01*
X0010923Y0154125D01*
X0010668Y0153988D01*
X0010416Y0153844D01*
X0010168Y0153694D01*
X0009924Y0153538D01*
X0009683Y0153376D01*
X0009447Y0153208D01*
X0009214Y0153035D01*
X0008986Y0152856D01*
X0008762Y0152672D01*
X0008543Y0152482D01*
X0008328Y0152287D01*
X0008118Y0152087D01*
X0007913Y0151882D01*
X0007713Y0151672D01*
X0007518Y0151457D01*
X0007328Y0151238D01*
X0007144Y0151014D01*
X0006965Y0150786D01*
X0006792Y0150553D01*
X0006624Y0150317D01*
X0006462Y0150076D01*
X0006306Y0149832D01*
X0006156Y0149584D01*
X0006012Y0149332D01*
X0005875Y0149077D01*
X0005743Y0148818D01*
X0005618Y0148557D01*
X0005498Y0148292D01*
X0005386Y0148025D01*
X0005280Y0147755D01*
X0005180Y0147483D01*
X0005087Y0147208D01*
X0005001Y0146931D01*
X0004921Y0146652D01*
X0004849Y0146372D01*
X0004783Y0146089D01*
X0004724Y0145806D01*
X0004671Y0145520D01*
X0004626Y0145234D01*
X0004587Y0144946D01*
X0004556Y0144658D01*
X0004532Y0144369D01*
X0004514Y0144080D01*
X0004504Y0143790D01*
X0004500Y0143500D01*
X0004500Y0017500D01*
X0004504Y0017210D01*
X0004514Y0016920D01*
X0004532Y0016631D01*
X0004556Y0016342D01*
X0004587Y0016054D01*
X0004626Y0015766D01*
X0004671Y0015480D01*
X0004724Y0015194D01*
X0004783Y0014911D01*
X0004849Y0014628D01*
X0004921Y0014348D01*
X0005001Y0014069D01*
X0005087Y0013792D01*
X0005180Y0013517D01*
X0005280Y0013245D01*
X0005386Y0012975D01*
X0005498Y0012708D01*
X0005618Y0012443D01*
X0005743Y0012182D01*
X0005875Y0011923D01*
X0006012Y0011668D01*
X0006156Y0011416D01*
X0006306Y0011168D01*
X0006462Y0010924D01*
X0006624Y0010683D01*
X0006792Y0010447D01*
X0006965Y0010214D01*
X0007144Y0009986D01*
X0007328Y0009762D01*
X0007518Y0009543D01*
X0007713Y0009328D01*
X0007913Y0009118D01*
X0008118Y0008913D01*
X0008328Y0008713D01*
X0008543Y0008518D01*
X0008762Y0008328D01*
X0008986Y0008144D01*
X0009214Y0007965D01*
X0009447Y0007792D01*
X0009683Y0007624D01*
X0009924Y0007462D01*
X0010168Y0007306D01*
X0010416Y0007156D01*
X0010668Y0007012D01*
X0010923Y0006875D01*
X0011182Y0006743D01*
X0011443Y0006618D01*
X0011708Y0006498D01*
X0011975Y0006386D01*
X0012245Y0006280D01*
X0012517Y0006180D01*
X0012792Y0006087D01*
X0013069Y0006001D01*
X0013348Y0005921D01*
X0013628Y0005849D01*
X0013911Y0005783D01*
X0014194Y0005724D01*
X0014480Y0005671D01*
X0014766Y0005626D01*
X0015054Y0005587D01*
X0015342Y0005556D01*
X0015631Y0005532D01*
X0015920Y0005514D01*
X0016210Y0005504D01*
X0016500Y0005500D01*
X0011094Y0018000D02*
X0011096Y0018153D01*
X0011102Y0018307D01*
X0011112Y0018460D01*
X0011126Y0018612D01*
X0011144Y0018765D01*
X0011166Y0018916D01*
X0011191Y0019067D01*
X0011221Y0019218D01*
X0011255Y0019368D01*
X0011292Y0019516D01*
X0011333Y0019664D01*
X0011378Y0019810D01*
X0011427Y0019956D01*
X0011480Y0020100D01*
X0011536Y0020242D01*
X0011596Y0020383D01*
X0011660Y0020523D01*
X0011727Y0020661D01*
X0011798Y0020797D01*
X0011873Y0020931D01*
X0011950Y0021063D01*
X0012032Y0021193D01*
X0012116Y0021321D01*
X0012204Y0021447D01*
X0012295Y0021570D01*
X0012389Y0021691D01*
X0012487Y0021809D01*
X0012587Y0021925D01*
X0012691Y0022038D01*
X0012797Y0022149D01*
X0012906Y0022257D01*
X0013018Y0022362D01*
X0013132Y0022463D01*
X0013250Y0022562D01*
X0013369Y0022658D01*
X0013491Y0022751D01*
X0013616Y0022840D01*
X0013743Y0022927D01*
X0013872Y0023009D01*
X0014003Y0023089D01*
X0014136Y0023165D01*
X0014271Y0023238D01*
X0014408Y0023307D01*
X0014547Y0023372D01*
X0014687Y0023434D01*
X0014829Y0023492D01*
X0014972Y0023547D01*
X0015117Y0023598D01*
X0015263Y0023645D01*
X0015410Y0023688D01*
X0015558Y0023727D01*
X0015707Y0023763D01*
X0015857Y0023794D01*
X0016008Y0023822D01*
X0016159Y0023846D01*
X0016312Y0023866D01*
X0016464Y0023882D01*
X0016617Y0023894D01*
X0016770Y0023902D01*
X0016923Y0023906D01*
X0017077Y0023906D01*
X0017230Y0023902D01*
X0017383Y0023894D01*
X0017536Y0023882D01*
X0017688Y0023866D01*
X0017841Y0023846D01*
X0017992Y0023822D01*
X0018143Y0023794D01*
X0018293Y0023763D01*
X0018442Y0023727D01*
X0018590Y0023688D01*
X0018737Y0023645D01*
X0018883Y0023598D01*
X0019028Y0023547D01*
X0019171Y0023492D01*
X0019313Y0023434D01*
X0019453Y0023372D01*
X0019592Y0023307D01*
X0019729Y0023238D01*
X0019864Y0023165D01*
X0019997Y0023089D01*
X0020128Y0023009D01*
X0020257Y0022927D01*
X0020384Y0022840D01*
X0020509Y0022751D01*
X0020631Y0022658D01*
X0020750Y0022562D01*
X0020868Y0022463D01*
X0020982Y0022362D01*
X0021094Y0022257D01*
X0021203Y0022149D01*
X0021309Y0022038D01*
X0021413Y0021925D01*
X0021513Y0021809D01*
X0021611Y0021691D01*
X0021705Y0021570D01*
X0021796Y0021447D01*
X0021884Y0021321D01*
X0021968Y0021193D01*
X0022050Y0021063D01*
X0022127Y0020931D01*
X0022202Y0020797D01*
X0022273Y0020661D01*
X0022340Y0020523D01*
X0022404Y0020383D01*
X0022464Y0020242D01*
X0022520Y0020100D01*
X0022573Y0019956D01*
X0022622Y0019810D01*
X0022667Y0019664D01*
X0022708Y0019516D01*
X0022745Y0019368D01*
X0022779Y0019218D01*
X0022809Y0019067D01*
X0022834Y0018916D01*
X0022856Y0018765D01*
X0022874Y0018612D01*
X0022888Y0018460D01*
X0022898Y0018307D01*
X0022904Y0018153D01*
X0022906Y0018000D01*
X0022904Y0017847D01*
X0022898Y0017693D01*
X0022888Y0017540D01*
X0022874Y0017388D01*
X0022856Y0017235D01*
X0022834Y0017084D01*
X0022809Y0016933D01*
X0022779Y0016782D01*
X0022745Y0016632D01*
X0022708Y0016484D01*
X0022667Y0016336D01*
X0022622Y0016190D01*
X0022573Y0016044D01*
X0022520Y0015900D01*
X0022464Y0015758D01*
X0022404Y0015617D01*
X0022340Y0015477D01*
X0022273Y0015339D01*
X0022202Y0015203D01*
X0022127Y0015069D01*
X0022050Y0014937D01*
X0021968Y0014807D01*
X0021884Y0014679D01*
X0021796Y0014553D01*
X0021705Y0014430D01*
X0021611Y0014309D01*
X0021513Y0014191D01*
X0021413Y0014075D01*
X0021309Y0013962D01*
X0021203Y0013851D01*
X0021094Y0013743D01*
X0020982Y0013638D01*
X0020868Y0013537D01*
X0020750Y0013438D01*
X0020631Y0013342D01*
X0020509Y0013249D01*
X0020384Y0013160D01*
X0020257Y0013073D01*
X0020128Y0012991D01*
X0019997Y0012911D01*
X0019864Y0012835D01*
X0019729Y0012762D01*
X0019592Y0012693D01*
X0019453Y0012628D01*
X0019313Y0012566D01*
X0019171Y0012508D01*
X0019028Y0012453D01*
X0018883Y0012402D01*
X0018737Y0012355D01*
X0018590Y0012312D01*
X0018442Y0012273D01*
X0018293Y0012237D01*
X0018143Y0012206D01*
X0017992Y0012178D01*
X0017841Y0012154D01*
X0017688Y0012134D01*
X0017536Y0012118D01*
X0017383Y0012106D01*
X0017230Y0012098D01*
X0017077Y0012094D01*
X0016923Y0012094D01*
X0016770Y0012098D01*
X0016617Y0012106D01*
X0016464Y0012118D01*
X0016312Y0012134D01*
X0016159Y0012154D01*
X0016008Y0012178D01*
X0015857Y0012206D01*
X0015707Y0012237D01*
X0015558Y0012273D01*
X0015410Y0012312D01*
X0015263Y0012355D01*
X0015117Y0012402D01*
X0014972Y0012453D01*
X0014829Y0012508D01*
X0014687Y0012566D01*
X0014547Y0012628D01*
X0014408Y0012693D01*
X0014271Y0012762D01*
X0014136Y0012835D01*
X0014003Y0012911D01*
X0013872Y0012991D01*
X0013743Y0013073D01*
X0013616Y0013160D01*
X0013491Y0013249D01*
X0013369Y0013342D01*
X0013250Y0013438D01*
X0013132Y0013537D01*
X0013018Y0013638D01*
X0012906Y0013743D01*
X0012797Y0013851D01*
X0012691Y0013962D01*
X0012587Y0014075D01*
X0012487Y0014191D01*
X0012389Y0014309D01*
X0012295Y0014430D01*
X0012204Y0014553D01*
X0012116Y0014679D01*
X0012032Y0014807D01*
X0011950Y0014937D01*
X0011873Y0015069D01*
X0011798Y0015203D01*
X0011727Y0015339D01*
X0011660Y0015477D01*
X0011596Y0015617D01*
X0011536Y0015758D01*
X0011480Y0015900D01*
X0011427Y0016044D01*
X0011378Y0016190D01*
X0011333Y0016336D01*
X0011292Y0016484D01*
X0011255Y0016632D01*
X0011221Y0016782D01*
X0011191Y0016933D01*
X0011166Y0017084D01*
X0011144Y0017235D01*
X0011126Y0017388D01*
X0011112Y0017540D01*
X0011102Y0017693D01*
X0011096Y0017847D01*
X0011094Y0018000D01*
X0211094Y0143000D02*
X0211096Y0143153D01*
X0211102Y0143307D01*
X0211112Y0143460D01*
X0211126Y0143612D01*
X0211144Y0143765D01*
X0211166Y0143916D01*
X0211191Y0144067D01*
X0211221Y0144218D01*
X0211255Y0144368D01*
X0211292Y0144516D01*
X0211333Y0144664D01*
X0211378Y0144810D01*
X0211427Y0144956D01*
X0211480Y0145100D01*
X0211536Y0145242D01*
X0211596Y0145383D01*
X0211660Y0145523D01*
X0211727Y0145661D01*
X0211798Y0145797D01*
X0211873Y0145931D01*
X0211950Y0146063D01*
X0212032Y0146193D01*
X0212116Y0146321D01*
X0212204Y0146447D01*
X0212295Y0146570D01*
X0212389Y0146691D01*
X0212487Y0146809D01*
X0212587Y0146925D01*
X0212691Y0147038D01*
X0212797Y0147149D01*
X0212906Y0147257D01*
X0213018Y0147362D01*
X0213132Y0147463D01*
X0213250Y0147562D01*
X0213369Y0147658D01*
X0213491Y0147751D01*
X0213616Y0147840D01*
X0213743Y0147927D01*
X0213872Y0148009D01*
X0214003Y0148089D01*
X0214136Y0148165D01*
X0214271Y0148238D01*
X0214408Y0148307D01*
X0214547Y0148372D01*
X0214687Y0148434D01*
X0214829Y0148492D01*
X0214972Y0148547D01*
X0215117Y0148598D01*
X0215263Y0148645D01*
X0215410Y0148688D01*
X0215558Y0148727D01*
X0215707Y0148763D01*
X0215857Y0148794D01*
X0216008Y0148822D01*
X0216159Y0148846D01*
X0216312Y0148866D01*
X0216464Y0148882D01*
X0216617Y0148894D01*
X0216770Y0148902D01*
X0216923Y0148906D01*
X0217077Y0148906D01*
X0217230Y0148902D01*
X0217383Y0148894D01*
X0217536Y0148882D01*
X0217688Y0148866D01*
X0217841Y0148846D01*
X0217992Y0148822D01*
X0218143Y0148794D01*
X0218293Y0148763D01*
X0218442Y0148727D01*
X0218590Y0148688D01*
X0218737Y0148645D01*
X0218883Y0148598D01*
X0219028Y0148547D01*
X0219171Y0148492D01*
X0219313Y0148434D01*
X0219453Y0148372D01*
X0219592Y0148307D01*
X0219729Y0148238D01*
X0219864Y0148165D01*
X0219997Y0148089D01*
X0220128Y0148009D01*
X0220257Y0147927D01*
X0220384Y0147840D01*
X0220509Y0147751D01*
X0220631Y0147658D01*
X0220750Y0147562D01*
X0220868Y0147463D01*
X0220982Y0147362D01*
X0221094Y0147257D01*
X0221203Y0147149D01*
X0221309Y0147038D01*
X0221413Y0146925D01*
X0221513Y0146809D01*
X0221611Y0146691D01*
X0221705Y0146570D01*
X0221796Y0146447D01*
X0221884Y0146321D01*
X0221968Y0146193D01*
X0222050Y0146063D01*
X0222127Y0145931D01*
X0222202Y0145797D01*
X0222273Y0145661D01*
X0222340Y0145523D01*
X0222404Y0145383D01*
X0222464Y0145242D01*
X0222520Y0145100D01*
X0222573Y0144956D01*
X0222622Y0144810D01*
X0222667Y0144664D01*
X0222708Y0144516D01*
X0222745Y0144368D01*
X0222779Y0144218D01*
X0222809Y0144067D01*
X0222834Y0143916D01*
X0222856Y0143765D01*
X0222874Y0143612D01*
X0222888Y0143460D01*
X0222898Y0143307D01*
X0222904Y0143153D01*
X0222906Y0143000D01*
X0222904Y0142847D01*
X0222898Y0142693D01*
X0222888Y0142540D01*
X0222874Y0142388D01*
X0222856Y0142235D01*
X0222834Y0142084D01*
X0222809Y0141933D01*
X0222779Y0141782D01*
X0222745Y0141632D01*
X0222708Y0141484D01*
X0222667Y0141336D01*
X0222622Y0141190D01*
X0222573Y0141044D01*
X0222520Y0140900D01*
X0222464Y0140758D01*
X0222404Y0140617D01*
X0222340Y0140477D01*
X0222273Y0140339D01*
X0222202Y0140203D01*
X0222127Y0140069D01*
X0222050Y0139937D01*
X0221968Y0139807D01*
X0221884Y0139679D01*
X0221796Y0139553D01*
X0221705Y0139430D01*
X0221611Y0139309D01*
X0221513Y0139191D01*
X0221413Y0139075D01*
X0221309Y0138962D01*
X0221203Y0138851D01*
X0221094Y0138743D01*
X0220982Y0138638D01*
X0220868Y0138537D01*
X0220750Y0138438D01*
X0220631Y0138342D01*
X0220509Y0138249D01*
X0220384Y0138160D01*
X0220257Y0138073D01*
X0220128Y0137991D01*
X0219997Y0137911D01*
X0219864Y0137835D01*
X0219729Y0137762D01*
X0219592Y0137693D01*
X0219453Y0137628D01*
X0219313Y0137566D01*
X0219171Y0137508D01*
X0219028Y0137453D01*
X0218883Y0137402D01*
X0218737Y0137355D01*
X0218590Y0137312D01*
X0218442Y0137273D01*
X0218293Y0137237D01*
X0218143Y0137206D01*
X0217992Y0137178D01*
X0217841Y0137154D01*
X0217688Y0137134D01*
X0217536Y0137118D01*
X0217383Y0137106D01*
X0217230Y0137098D01*
X0217077Y0137094D01*
X0216923Y0137094D01*
X0216770Y0137098D01*
X0216617Y0137106D01*
X0216464Y0137118D01*
X0216312Y0137134D01*
X0216159Y0137154D01*
X0216008Y0137178D01*
X0215857Y0137206D01*
X0215707Y0137237D01*
X0215558Y0137273D01*
X0215410Y0137312D01*
X0215263Y0137355D01*
X0215117Y0137402D01*
X0214972Y0137453D01*
X0214829Y0137508D01*
X0214687Y0137566D01*
X0214547Y0137628D01*
X0214408Y0137693D01*
X0214271Y0137762D01*
X0214136Y0137835D01*
X0214003Y0137911D01*
X0213872Y0137991D01*
X0213743Y0138073D01*
X0213616Y0138160D01*
X0213491Y0138249D01*
X0213369Y0138342D01*
X0213250Y0138438D01*
X0213132Y0138537D01*
X0213018Y0138638D01*
X0212906Y0138743D01*
X0212797Y0138851D01*
X0212691Y0138962D01*
X0212587Y0139075D01*
X0212487Y0139191D01*
X0212389Y0139309D01*
X0212295Y0139430D01*
X0212204Y0139553D01*
X0212116Y0139679D01*
X0212032Y0139807D01*
X0211950Y0139937D01*
X0211873Y0140069D01*
X0211798Y0140203D01*
X0211727Y0140339D01*
X0211660Y0140477D01*
X0211596Y0140617D01*
X0211536Y0140758D01*
X0211480Y0140900D01*
X0211427Y0141044D01*
X0211378Y0141190D01*
X0211333Y0141336D01*
X0211292Y0141484D01*
X0211255Y0141632D01*
X0211221Y0141782D01*
X0211191Y0141933D01*
X0211166Y0142084D01*
X0211144Y0142235D01*
X0211126Y0142388D01*
X0211112Y0142540D01*
X0211102Y0142693D01*
X0211096Y0142847D01*
X0211094Y0143000D01*
D11*
X0196439Y0143734D02*
X0196439Y0144668D01*
X0195505Y0145602D01*
X0194426Y0144201D02*
X0193959Y0144668D01*
X0193025Y0144668D01*
X0192558Y0144201D01*
X0192558Y0143267D01*
X0193025Y0142800D01*
X0193959Y0142800D01*
X0194426Y0143734D02*
X0192558Y0143734D01*
X0191528Y0142800D02*
X0190594Y0142800D01*
X0191061Y0142800D02*
X0191061Y0145602D01*
X0190594Y0145602D01*
X0190031Y0146666D02*
X0190498Y0147133D01*
X0190498Y0149468D01*
X0189097Y0149468D01*
X0188630Y0149001D01*
X0188630Y0148067D01*
X0189097Y0147600D01*
X0190498Y0147600D01*
X0190031Y0146666D02*
X0189564Y0146666D01*
X0189516Y0144668D02*
X0188114Y0144668D01*
X0187647Y0144201D01*
X0187647Y0143267D01*
X0188114Y0142800D01*
X0189516Y0142800D01*
X0189516Y0142333D02*
X0189516Y0144668D01*
X0186569Y0144201D02*
X0186569Y0142800D01*
X0186569Y0144201D02*
X0186102Y0144668D01*
X0184701Y0144668D01*
X0184701Y0142800D01*
X0183671Y0142800D02*
X0182736Y0142800D01*
X0183204Y0142800D02*
X0183204Y0144668D01*
X0182736Y0144668D01*
X0183204Y0145602D02*
X0183204Y0146069D01*
X0183695Y0147600D02*
X0183228Y0148067D01*
X0183695Y0148534D01*
X0185096Y0148534D01*
X0185096Y0149001D02*
X0185096Y0147600D01*
X0183695Y0147600D01*
X0182149Y0147600D02*
X0182149Y0149001D01*
X0181682Y0149468D01*
X0180748Y0149468D01*
X0180281Y0149001D01*
X0179203Y0149468D02*
X0177802Y0149468D01*
X0177335Y0149001D01*
X0177335Y0148067D01*
X0177802Y0147600D01*
X0179203Y0147600D01*
X0180281Y0147600D02*
X0180281Y0150402D01*
X0183695Y0149468D02*
X0184629Y0149468D01*
X0185096Y0149001D01*
X0186174Y0148534D02*
X0187108Y0149468D01*
X0187575Y0149468D01*
X0186174Y0149468D02*
X0186174Y0147600D01*
X0181658Y0145135D02*
X0181191Y0145602D01*
X0180257Y0145602D01*
X0179790Y0145135D01*
X0179790Y0144668D01*
X0180257Y0144201D01*
X0181191Y0144201D01*
X0181658Y0143734D01*
X0181658Y0143267D01*
X0181191Y0142800D01*
X0180257Y0142800D01*
X0179790Y0143267D01*
X0178760Y0142800D02*
X0177826Y0143734D01*
X0177826Y0144668D01*
X0178760Y0145602D01*
X0175789Y0147600D02*
X0174855Y0147600D01*
X0174388Y0148067D01*
X0174388Y0149001D01*
X0174855Y0149468D01*
X0175789Y0149468D01*
X0176256Y0149001D01*
X0176256Y0148534D01*
X0174388Y0148534D01*
X0173334Y0149468D02*
X0172867Y0149468D01*
X0171933Y0148534D01*
X0171933Y0147600D02*
X0171933Y0149468D01*
X0170854Y0149001D02*
X0170387Y0148534D01*
X0168986Y0148534D01*
X0168986Y0147600D02*
X0168986Y0150402D01*
X0170387Y0150402D01*
X0170854Y0149935D01*
X0170854Y0149001D01*
X0170387Y0145602D02*
X0170854Y0145135D01*
X0170854Y0144668D01*
X0170387Y0144201D01*
X0168986Y0144201D01*
X0168986Y0142800D02*
X0170387Y0142800D01*
X0170854Y0143267D01*
X0170854Y0143734D01*
X0170387Y0144201D01*
X0170387Y0145602D02*
X0168986Y0145602D01*
X0168986Y0142800D01*
X0170950Y0140802D02*
X0170950Y0140335D01*
X0171885Y0139401D01*
X0171885Y0138000D01*
X0171885Y0139401D02*
X0172819Y0140335D01*
X0172819Y0140802D01*
X0173897Y0139868D02*
X0173897Y0138467D01*
X0174364Y0138000D01*
X0175765Y0138000D01*
X0175765Y0139868D01*
X0177311Y0139868D02*
X0178245Y0139868D01*
X0178712Y0139401D01*
X0178712Y0138000D01*
X0177311Y0138000D01*
X0176843Y0138467D01*
X0177311Y0138934D01*
X0178712Y0138934D01*
X0179790Y0138000D02*
X0179790Y0139868D01*
X0181191Y0139868D01*
X0181658Y0139401D01*
X0181658Y0138000D01*
X0181682Y0136002D02*
X0180748Y0136002D01*
X0180281Y0135535D01*
X0179203Y0135535D02*
X0179203Y0133667D01*
X0178736Y0133200D01*
X0177802Y0133200D01*
X0177335Y0133667D01*
X0179203Y0135535D01*
X0178736Y0136002D01*
X0177802Y0136002D01*
X0177335Y0135535D01*
X0177335Y0133667D01*
X0176256Y0133200D02*
X0174388Y0133200D01*
X0176256Y0135068D01*
X0176256Y0135535D01*
X0175789Y0136002D01*
X0174855Y0136002D01*
X0174388Y0135535D01*
X0170363Y0134601D02*
X0170363Y0133200D01*
X0170363Y0134601D02*
X0169896Y0135068D01*
X0168962Y0135068D01*
X0168495Y0134601D01*
X0167417Y0135068D02*
X0166016Y0135068D01*
X0165548Y0134601D01*
X0165548Y0133667D01*
X0166016Y0133200D01*
X0167417Y0133200D01*
X0168495Y0133200D02*
X0168495Y0136002D01*
X0166926Y0138000D02*
X0165057Y0139868D01*
X0163979Y0139401D02*
X0163979Y0138934D01*
X0162111Y0138934D01*
X0162111Y0138467D02*
X0162111Y0139401D01*
X0162578Y0139868D01*
X0163512Y0139868D01*
X0163979Y0139401D01*
X0163512Y0138000D02*
X0162578Y0138000D01*
X0162111Y0138467D01*
X0161081Y0138000D02*
X0160147Y0138000D01*
X0160614Y0138000D02*
X0160614Y0140802D01*
X0160147Y0140802D01*
X0159068Y0139868D02*
X0159068Y0138000D01*
X0159068Y0139401D02*
X0157200Y0139401D01*
X0157200Y0139868D02*
X0158134Y0140802D01*
X0159068Y0139868D01*
X0157200Y0139868D02*
X0157200Y0138000D01*
X0157200Y0136002D02*
X0158134Y0135068D01*
X0159068Y0136002D01*
X0159068Y0133200D01*
X0160147Y0133667D02*
X0160614Y0134134D01*
X0162015Y0134134D01*
X0162015Y0134601D02*
X0162015Y0133200D01*
X0160614Y0133200D01*
X0160147Y0133667D01*
X0160614Y0135068D02*
X0161548Y0135068D01*
X0162015Y0134601D01*
X0163093Y0134134D02*
X0164027Y0135068D01*
X0164494Y0135068D01*
X0163093Y0135068D02*
X0163093Y0133200D01*
X0157200Y0133200D02*
X0157200Y0136002D01*
X0165057Y0138000D02*
X0166926Y0139868D01*
X0164027Y0142800D02*
X0163093Y0143734D01*
X0163093Y0145602D01*
X0162015Y0145602D02*
X0160147Y0145602D01*
X0160147Y0142800D01*
X0162015Y0142800D01*
X0161081Y0144201D02*
X0160147Y0144201D01*
X0159068Y0144201D02*
X0158601Y0143734D01*
X0157200Y0143734D01*
X0157200Y0142800D02*
X0157200Y0145602D01*
X0158601Y0145602D01*
X0159068Y0145135D01*
X0159068Y0144201D01*
X0158134Y0143734D02*
X0159068Y0142800D01*
X0158601Y0147600D02*
X0157667Y0147600D01*
X0157200Y0148067D01*
X0157667Y0149001D02*
X0158601Y0149001D01*
X0159068Y0148534D01*
X0159068Y0148067D01*
X0158601Y0147600D01*
X0160147Y0148067D02*
X0160147Y0149935D01*
X0160614Y0150402D01*
X0161548Y0150402D01*
X0162015Y0149935D01*
X0163093Y0150402D02*
X0163093Y0147600D01*
X0163093Y0148534D02*
X0164494Y0148534D01*
X0164961Y0149001D01*
X0164961Y0149935D01*
X0164494Y0150402D01*
X0163093Y0150402D01*
X0164027Y0148534D02*
X0164961Y0147600D01*
X0164961Y0145602D02*
X0164961Y0143734D01*
X0164027Y0142800D01*
X0161548Y0147600D02*
X0160614Y0147600D01*
X0160147Y0148067D01*
X0161548Y0147600D02*
X0162015Y0148067D01*
X0159068Y0149935D02*
X0158601Y0150402D01*
X0157667Y0150402D01*
X0157200Y0149935D01*
X0157200Y0149468D01*
X0157667Y0149001D01*
X0137015Y0148351D02*
X0137015Y0147417D01*
X0136548Y0146950D01*
X0135614Y0146950D01*
X0135147Y0147417D01*
X0135147Y0148351D02*
X0136081Y0148818D01*
X0136548Y0148818D01*
X0137015Y0148351D01*
X0137015Y0149752D02*
X0135147Y0149752D01*
X0135147Y0148351D01*
X0134068Y0147417D02*
X0134068Y0149285D01*
X0133601Y0149752D01*
X0132200Y0149752D01*
X0132200Y0146950D01*
X0133601Y0146950D01*
X0134068Y0147417D01*
X0127231Y0132819D02*
X0124429Y0132819D01*
X0125830Y0131418D01*
X0125830Y0133286D01*
X0126764Y0130340D02*
X0124896Y0130340D01*
X0124429Y0129873D01*
X0124429Y0128472D01*
X0127231Y0128472D01*
X0127231Y0129873D01*
X0126764Y0130340D01*
X0120765Y0133035D02*
X0118897Y0131167D01*
X0118897Y0130700D01*
X0117818Y0131167D02*
X0117351Y0130700D01*
X0116417Y0130700D01*
X0115950Y0131167D01*
X0115950Y0133035D01*
X0116417Y0133502D01*
X0117351Y0133502D01*
X0117818Y0133035D01*
X0118897Y0133502D02*
X0120765Y0133502D01*
X0120765Y0133035D01*
X0107798Y0118502D02*
X0106864Y0118502D01*
X0106397Y0118035D01*
X0106397Y0117568D01*
X0106864Y0117101D01*
X0108265Y0117101D01*
X0108265Y0116167D02*
X0108265Y0118035D01*
X0107798Y0118502D01*
X0105318Y0118035D02*
X0105318Y0117101D01*
X0104851Y0116634D01*
X0103450Y0116634D01*
X0103450Y0115700D02*
X0103450Y0118502D01*
X0104851Y0118502D01*
X0105318Y0118035D01*
X0104384Y0116634D02*
X0105318Y0115700D01*
X0106397Y0116167D02*
X0106864Y0115700D01*
X0107798Y0115700D01*
X0108265Y0116167D01*
X0108622Y0105302D02*
X0107688Y0104835D01*
X0106753Y0103901D01*
X0108155Y0103901D01*
X0108622Y0103434D01*
X0108622Y0102967D01*
X0108155Y0102500D01*
X0107221Y0102500D01*
X0106753Y0102967D01*
X0106753Y0103901D01*
X0105675Y0103901D02*
X0105208Y0103434D01*
X0103807Y0103434D01*
X0103807Y0102500D02*
X0103807Y0105302D01*
X0105208Y0105302D01*
X0105675Y0104835D01*
X0105675Y0103901D01*
X0104741Y0103434D02*
X0105675Y0102500D01*
X0100800Y0087765D02*
X0100800Y0085897D01*
X0100800Y0086831D02*
X0097998Y0086831D01*
X0098932Y0085897D01*
X0097998Y0084818D02*
X0100333Y0084818D01*
X0100800Y0084351D01*
X0100800Y0083417D01*
X0100333Y0082950D01*
X0097998Y0082950D01*
X0100971Y0078752D02*
X0101905Y0078752D01*
X0102372Y0078285D01*
X0102372Y0076417D01*
X0101905Y0075950D01*
X0100971Y0075950D01*
X0100503Y0076417D01*
X0100503Y0078285D01*
X0100971Y0078752D01*
X0101438Y0076884D02*
X0102372Y0075950D01*
X0103450Y0075950D02*
X0105318Y0077818D01*
X0105318Y0078285D01*
X0104851Y0078752D01*
X0103917Y0078752D01*
X0103450Y0078285D01*
X0103450Y0075950D02*
X0105318Y0075950D01*
X0107667Y0081950D02*
X0107200Y0082417D01*
X0107200Y0084285D01*
X0107667Y0084752D01*
X0108601Y0084752D01*
X0109068Y0084285D01*
X0110147Y0083351D02*
X0110147Y0082417D01*
X0110614Y0081950D01*
X0111548Y0081950D01*
X0112015Y0082417D01*
X0112015Y0082884D01*
X0111548Y0083351D01*
X0110147Y0083351D01*
X0111081Y0084285D01*
X0112015Y0084752D01*
X0109068Y0082417D02*
X0108601Y0081950D01*
X0107667Y0081950D01*
X0115200Y0080285D02*
X0115200Y0078417D01*
X0115667Y0077950D01*
X0116601Y0077950D01*
X0117068Y0078417D01*
X0118147Y0077950D02*
X0120015Y0077950D01*
X0119081Y0077950D02*
X0119081Y0080752D01*
X0118147Y0079818D01*
X0117068Y0080285D02*
X0116601Y0080752D01*
X0115667Y0080752D01*
X0115200Y0080285D01*
X0121093Y0080285D02*
X0121093Y0078417D01*
X0122961Y0080285D01*
X0122961Y0078417D01*
X0122494Y0077950D01*
X0121560Y0077950D01*
X0121093Y0078417D01*
X0121093Y0080285D02*
X0121560Y0080752D01*
X0122494Y0080752D01*
X0122961Y0080285D01*
X0099515Y0066785D02*
X0099515Y0066318D01*
X0099048Y0065851D01*
X0098114Y0065851D01*
X0097647Y0066318D01*
X0097647Y0066785D01*
X0098114Y0067252D01*
X0099048Y0067252D01*
X0099515Y0066785D01*
X0099048Y0065851D02*
X0099515Y0065384D01*
X0099515Y0064917D01*
X0099048Y0064450D01*
X0098114Y0064450D01*
X0097647Y0064917D01*
X0097647Y0065384D01*
X0098114Y0065851D01*
X0096568Y0065851D02*
X0096101Y0065384D01*
X0094700Y0065384D01*
X0094700Y0064450D02*
X0094700Y0067252D01*
X0096101Y0067252D01*
X0096568Y0066785D01*
X0096568Y0065851D01*
X0095634Y0065384D02*
X0096568Y0064450D01*
X0079515Y0065851D02*
X0077647Y0065851D01*
X0079048Y0067252D01*
X0079048Y0064450D01*
X0076568Y0064450D02*
X0075634Y0065384D01*
X0076101Y0065384D02*
X0074700Y0065384D01*
X0074700Y0064450D02*
X0074700Y0067252D01*
X0076101Y0067252D01*
X0076568Y0066785D01*
X0076568Y0065851D01*
X0076101Y0065384D01*
X0065015Y0065285D02*
X0065015Y0064818D01*
X0064548Y0064351D01*
X0065015Y0063884D01*
X0065015Y0063417D01*
X0064548Y0062950D01*
X0063614Y0062950D01*
X0063147Y0063417D01*
X0062068Y0063417D02*
X0061601Y0062950D01*
X0060667Y0062950D01*
X0060200Y0063417D01*
X0060200Y0065285D01*
X0060667Y0065752D01*
X0061601Y0065752D01*
X0062068Y0065285D01*
X0063147Y0065285D02*
X0063614Y0065752D01*
X0064548Y0065752D01*
X0065015Y0065285D01*
X0064548Y0064351D02*
X0064081Y0064351D01*
X0075248Y0051765D02*
X0075248Y0049897D01*
X0076649Y0049897D01*
X0076182Y0050831D01*
X0076182Y0051298D01*
X0076649Y0051765D01*
X0077583Y0051765D01*
X0078050Y0051298D01*
X0078050Y0050364D01*
X0077583Y0049897D01*
X0077583Y0048818D02*
X0078050Y0048351D01*
X0078050Y0047417D01*
X0077583Y0046950D01*
X0075715Y0046950D01*
X0075248Y0047417D01*
X0075248Y0048351D01*
X0075715Y0048818D01*
X0095950Y0047752D02*
X0096884Y0047752D01*
X0096417Y0047752D02*
X0096417Y0044950D01*
X0095950Y0044950D02*
X0096884Y0044950D01*
X0097914Y0045417D02*
X0098381Y0044950D01*
X0099316Y0044950D01*
X0099783Y0045417D01*
X0100861Y0044950D02*
X0102729Y0044950D01*
X0101795Y0044950D02*
X0101795Y0047752D01*
X0100861Y0046818D01*
X0099783Y0047285D02*
X0099316Y0047752D01*
X0098381Y0047752D01*
X0097914Y0047285D01*
X0097914Y0045417D01*
X0107200Y0045384D02*
X0108601Y0045384D01*
X0109068Y0045851D01*
X0109068Y0046785D01*
X0108601Y0047252D01*
X0107200Y0047252D01*
X0107200Y0044450D01*
X0108134Y0045384D02*
X0109068Y0044450D01*
X0110147Y0044450D02*
X0112015Y0044450D01*
X0111081Y0044450D02*
X0111081Y0047252D01*
X0110147Y0046318D01*
X0113093Y0046785D02*
X0113560Y0047252D01*
X0114494Y0047252D01*
X0114961Y0046785D01*
X0113093Y0044917D01*
X0113560Y0044450D01*
X0114494Y0044450D01*
X0114961Y0044917D01*
X0114961Y0046785D01*
X0113093Y0046785D02*
X0113093Y0044917D01*
X0111548Y0041002D02*
X0112015Y0040535D01*
X0112015Y0040068D01*
X0111548Y0039601D01*
X0110614Y0039601D01*
X0110147Y0040068D01*
X0110147Y0040535D01*
X0110614Y0041002D01*
X0111548Y0041002D01*
X0111548Y0039601D02*
X0112015Y0039134D01*
X0112015Y0038667D01*
X0111548Y0038200D01*
X0110614Y0038200D01*
X0110147Y0038667D01*
X0110147Y0039134D01*
X0110614Y0039601D01*
X0109068Y0038667D02*
X0108601Y0038200D01*
X0107667Y0038200D01*
X0107200Y0038667D01*
X0107200Y0040535D01*
X0107667Y0041002D01*
X0108601Y0041002D01*
X0109068Y0040535D01*
X0118215Y0058200D02*
X0120083Y0058200D01*
X0120550Y0058667D01*
X0120550Y0059601D01*
X0120083Y0060068D01*
X0120083Y0061147D02*
X0120550Y0061614D01*
X0120550Y0062548D01*
X0120083Y0063015D01*
X0118215Y0063015D01*
X0117748Y0062548D01*
X0117748Y0061614D01*
X0118215Y0061147D01*
X0118682Y0061147D01*
X0119149Y0061614D01*
X0119149Y0063015D01*
X0118215Y0060068D02*
X0117748Y0059601D01*
X0117748Y0058667D01*
X0118215Y0058200D01*
X0124267Y0058285D02*
X0124267Y0059687D01*
X0124734Y0060154D01*
X0126602Y0060154D01*
X0127069Y0059687D01*
X0127069Y0058285D01*
X0124267Y0058285D01*
X0125668Y0061232D02*
X0125668Y0062633D01*
X0126135Y0063100D01*
X0126602Y0063100D01*
X0127069Y0062633D01*
X0127069Y0061699D01*
X0126602Y0061232D01*
X0125668Y0061232D01*
X0124734Y0062166D01*
X0124267Y0063100D01*
X0148450Y0071950D02*
X0149851Y0071950D01*
X0150318Y0072417D01*
X0150318Y0074285D01*
X0149851Y0074752D01*
X0148450Y0074752D01*
X0148450Y0071950D01*
X0151397Y0071950D02*
X0151397Y0072417D01*
X0153265Y0074285D01*
X0153265Y0074752D01*
X0151397Y0074752D01*
X0191619Y0095887D02*
X0193020Y0095887D01*
X0193488Y0096354D01*
X0193488Y0098222D01*
X0193020Y0098689D01*
X0191619Y0098689D01*
X0191619Y0095887D01*
X0194566Y0096354D02*
X0195033Y0095887D01*
X0195967Y0095887D01*
X0196434Y0096354D01*
X0196434Y0096821D01*
X0195967Y0097288D01*
X0195033Y0097288D01*
X0194566Y0097755D01*
X0194566Y0098222D01*
X0195033Y0098689D01*
X0195967Y0098689D01*
X0196434Y0098222D01*
X0196434Y0097755D01*
X0195967Y0097288D01*
X0195033Y0097288D02*
X0194566Y0096821D01*
X0194566Y0096354D01*
X0146122Y0110467D02*
X0145655Y0110000D01*
X0144721Y0110000D01*
X0144253Y0110467D01*
X0144253Y0111401D02*
X0145188Y0111868D01*
X0145655Y0111868D01*
X0146122Y0111401D01*
X0146122Y0110467D01*
X0144253Y0111401D02*
X0144253Y0112802D01*
X0146122Y0112802D01*
X0143175Y0112335D02*
X0143175Y0111401D01*
X0142708Y0110934D01*
X0141307Y0110934D01*
X0141307Y0110000D02*
X0141307Y0112802D01*
X0142708Y0112802D01*
X0143175Y0112335D01*
X0142241Y0110934D02*
X0143175Y0110000D01*
X0180281Y0133200D02*
X0182149Y0135068D01*
X0182149Y0135535D01*
X0181682Y0136002D01*
X0183228Y0135068D02*
X0184162Y0136002D01*
X0184162Y0133200D01*
X0183228Y0133200D02*
X0185096Y0133200D01*
X0182149Y0133200D02*
X0180281Y0133200D01*
X0188581Y0141866D02*
X0189049Y0141866D01*
X0189516Y0142333D01*
X0194426Y0143734D02*
X0194426Y0144201D01*
X0195505Y0142800D02*
X0196439Y0143734D01*
X0192977Y0147600D02*
X0192043Y0147600D01*
X0191576Y0148067D01*
X0191576Y0149001D01*
X0192043Y0149468D01*
X0192977Y0149468D01*
X0193444Y0149001D01*
X0193444Y0148534D01*
X0191576Y0148534D01*
X0102818Y0147200D02*
X0100950Y0147200D01*
X0101884Y0147200D02*
X0101884Y0150002D01*
X0100950Y0149068D01*
X0099872Y0149535D02*
X0099872Y0147667D01*
X0099405Y0147200D01*
X0098471Y0147200D01*
X0098003Y0147667D01*
X0098003Y0149535D01*
X0098471Y0150002D01*
X0099405Y0150002D01*
X0099872Y0149535D01*
X0098938Y0148134D02*
X0099872Y0147200D01*
X0073461Y0151700D02*
X0071593Y0151700D01*
X0072527Y0151700D02*
X0072527Y0154502D01*
X0071593Y0153568D01*
X0070515Y0154502D02*
X0068647Y0152634D01*
X0069114Y0153101D02*
X0070515Y0151700D01*
X0068647Y0151700D02*
X0068647Y0154502D01*
X0067568Y0154035D02*
X0067568Y0152167D01*
X0067101Y0151700D01*
X0066167Y0151700D01*
X0065700Y0152167D01*
X0065700Y0154035D01*
X0066167Y0154502D01*
X0067101Y0154502D01*
X0067568Y0154035D01*
X0040550Y0100515D02*
X0040550Y0098647D01*
X0040550Y0099581D02*
X0037748Y0099581D01*
X0038682Y0098647D01*
X0039149Y0097568D02*
X0039616Y0097101D01*
X0039616Y0095700D01*
X0040550Y0095700D02*
X0037748Y0095700D01*
X0037748Y0097101D01*
X0038215Y0097568D01*
X0039149Y0097568D01*
X0039616Y0096634D02*
X0040550Y0097568D01*
X0047200Y0096785D02*
X0047200Y0094917D01*
X0047667Y0094450D01*
X0048601Y0094450D01*
X0049068Y0094917D01*
X0050147Y0094450D02*
X0052015Y0096318D01*
X0052015Y0096785D01*
X0051548Y0097252D01*
X0050614Y0097252D01*
X0050147Y0096785D01*
X0049068Y0096785D02*
X0048601Y0097252D01*
X0047667Y0097252D01*
X0047200Y0096785D01*
X0050147Y0094450D02*
X0052015Y0094450D01*
X0039896Y0089654D02*
X0039896Y0088720D01*
X0039429Y0088253D01*
X0039429Y0087175D02*
X0037561Y0087175D01*
X0037094Y0086707D01*
X0037094Y0085306D01*
X0039896Y0085306D01*
X0039896Y0086707D01*
X0039429Y0087175D01*
X0037561Y0088253D02*
X0037094Y0088720D01*
X0037094Y0089654D01*
X0037561Y0090121D01*
X0038028Y0090121D01*
X0038495Y0089654D01*
X0038962Y0090121D01*
X0039429Y0090121D01*
X0039896Y0089654D01*
X0038495Y0089654D02*
X0038495Y0089187D01*
X0141307Y0042802D02*
X0141307Y0040000D01*
X0141307Y0040934D02*
X0142708Y0040934D01*
X0143175Y0041401D01*
X0143175Y0042335D01*
X0142708Y0042802D01*
X0141307Y0042802D01*
X0142241Y0040934D02*
X0143175Y0040000D01*
X0144253Y0040000D02*
X0144253Y0040467D01*
X0146122Y0042335D01*
X0146122Y0042802D01*
X0144253Y0042802D01*
X0113050Y0016765D02*
X0113050Y0014897D01*
X0111182Y0016765D01*
X0110715Y0016765D01*
X0110248Y0016298D01*
X0110248Y0015364D01*
X0110715Y0014897D01*
X0110715Y0013818D02*
X0111649Y0013818D01*
X0112116Y0013351D01*
X0112116Y0011950D01*
X0113050Y0011950D02*
X0110248Y0011950D01*
X0110248Y0013351D01*
X0110715Y0013818D01*
X0109300Y0013818D02*
X0108366Y0012884D01*
X0108366Y0013351D02*
X0108366Y0011950D01*
X0109300Y0011950D02*
X0106498Y0011950D01*
X0106498Y0013351D01*
X0106965Y0013818D01*
X0107899Y0013818D01*
X0108366Y0013351D01*
X0108833Y0014897D02*
X0109300Y0015364D01*
X0109300Y0016298D01*
X0108833Y0016765D01*
X0108366Y0016765D01*
X0107899Y0016298D01*
X0107899Y0015831D01*
X0107899Y0016298D02*
X0107432Y0016765D01*
X0106965Y0016765D01*
X0106498Y0016298D01*
X0106498Y0015364D01*
X0106965Y0014897D01*
X0105550Y0016298D02*
X0102748Y0016298D01*
X0104149Y0014897D01*
X0104149Y0016765D01*
X0105083Y0013818D02*
X0105550Y0013351D01*
X0105550Y0012417D01*
X0105083Y0011950D01*
X0103215Y0011950D01*
X0102748Y0012417D01*
X0102748Y0013351D01*
X0103215Y0013818D01*
X0112116Y0012884D02*
X0113050Y0013818D01*
X0143950Y0012785D02*
X0143950Y0010917D01*
X0144417Y0010450D01*
X0145351Y0010450D01*
X0145818Y0010917D01*
X0146897Y0010450D02*
X0148765Y0010450D01*
X0147831Y0010450D02*
X0147831Y0013252D01*
X0146897Y0012318D01*
X0145818Y0012785D02*
X0145351Y0013252D01*
X0144417Y0013252D01*
X0143950Y0012785D01*
X0149843Y0012318D02*
X0150777Y0013252D01*
X0150777Y0010450D01*
X0149843Y0010450D02*
X0151711Y0010450D01*
X0192472Y0032769D02*
X0193873Y0032769D01*
X0194340Y0033236D01*
X0194340Y0035104D01*
X0193873Y0035571D01*
X0192472Y0035571D01*
X0192472Y0032769D01*
X0195418Y0032769D02*
X0197286Y0032769D01*
X0196352Y0032769D02*
X0196352Y0035571D01*
X0195418Y0034637D01*
X0198365Y0035104D02*
X0198365Y0033236D01*
X0200233Y0035104D01*
X0200233Y0033236D01*
X0199766Y0032769D01*
X0198832Y0032769D01*
X0198365Y0033236D01*
X0198365Y0035104D02*
X0198832Y0035571D01*
X0199766Y0035571D01*
X0200233Y0035104D01*
X0066211Y0010535D02*
X0066211Y0010068D01*
X0065744Y0009601D01*
X0066211Y0009134D01*
X0066211Y0008667D01*
X0065744Y0008200D01*
X0064810Y0008200D01*
X0064343Y0008667D01*
X0063265Y0008200D02*
X0061397Y0008200D01*
X0062331Y0008200D02*
X0062331Y0011002D01*
X0061397Y0010068D01*
X0060318Y0009601D02*
X0059851Y0009134D01*
X0058450Y0009134D01*
X0058450Y0008200D02*
X0058450Y0011002D01*
X0059851Y0011002D01*
X0060318Y0010535D01*
X0060318Y0009601D01*
X0059384Y0009134D02*
X0060318Y0008200D01*
X0064343Y0010535D02*
X0064810Y0011002D01*
X0065744Y0011002D01*
X0066211Y0010535D01*
X0065744Y0009601D02*
X0065277Y0009601D01*
X0057684Y0012137D02*
X0055816Y0012137D01*
X0056750Y0012137D02*
X0056750Y0014939D01*
X0055816Y0014005D01*
X0054738Y0014472D02*
X0054738Y0012604D01*
X0054270Y0012137D01*
X0052869Y0012137D01*
X0052869Y0014939D01*
X0054270Y0014939D01*
X0054738Y0014472D01*
X0050184Y0011972D02*
X0049717Y0012439D01*
X0048783Y0012439D01*
X0048316Y0011972D01*
X0047238Y0011972D02*
X0046770Y0012439D01*
X0045369Y0012439D01*
X0045369Y0009637D01*
X0046770Y0009637D01*
X0047238Y0010104D01*
X0047238Y0011972D01*
X0048316Y0009637D02*
X0050184Y0011505D01*
X0050184Y0011972D01*
X0050184Y0009637D02*
X0048316Y0009637D01*
X0042015Y0009450D02*
X0040147Y0009450D01*
X0041081Y0009450D02*
X0041081Y0012252D01*
X0040147Y0011318D01*
X0039068Y0011785D02*
X0038601Y0012252D01*
X0037667Y0012252D01*
X0037200Y0011785D01*
X0037200Y0009917D01*
X0037667Y0009450D01*
X0038601Y0009450D01*
X0039068Y0009917D01*
D12*
X0003500Y0018000D02*
X0003504Y0018331D01*
X0003516Y0018662D01*
X0003537Y0018993D01*
X0003565Y0019323D01*
X0003602Y0019653D01*
X0003646Y0019981D01*
X0003699Y0020308D01*
X0003759Y0020634D01*
X0003828Y0020958D01*
X0003905Y0021280D01*
X0003989Y0021601D01*
X0004081Y0021919D01*
X0004181Y0022235D01*
X0004289Y0022548D01*
X0004405Y0022859D01*
X0004528Y0023166D01*
X0004658Y0023471D01*
X0004796Y0023772D01*
X0004941Y0024070D01*
X0005094Y0024364D01*
X0005254Y0024654D01*
X0005421Y0024940D01*
X0005594Y0025222D01*
X0005775Y0025500D01*
X0005963Y0025773D01*
X0006157Y0026042D01*
X0006357Y0026306D01*
X0006564Y0026564D01*
X0006778Y0026818D01*
X0006997Y0027066D01*
X0007223Y0027309D01*
X0007454Y0027546D01*
X0007691Y0027777D01*
X0007934Y0028003D01*
X0008182Y0028222D01*
X0008436Y0028436D01*
X0008694Y0028643D01*
X0008958Y0028843D01*
X0009227Y0029037D01*
X0009500Y0029225D01*
X0009778Y0029406D01*
X0010060Y0029579D01*
X0010346Y0029746D01*
X0010636Y0029906D01*
X0010930Y0030059D01*
X0011228Y0030204D01*
X0011529Y0030342D01*
X0011834Y0030472D01*
X0012141Y0030595D01*
X0012452Y0030711D01*
X0012765Y0030819D01*
X0013081Y0030919D01*
X0013399Y0031011D01*
X0013720Y0031095D01*
X0014042Y0031172D01*
X0014366Y0031241D01*
X0014692Y0031301D01*
X0015019Y0031354D01*
X0015347Y0031398D01*
X0015677Y0031435D01*
X0016007Y0031463D01*
X0016338Y0031484D01*
X0016669Y0031496D01*
X0017000Y0031500D01*
X0017331Y0031496D01*
X0017662Y0031484D01*
X0017993Y0031463D01*
X0018323Y0031435D01*
X0018653Y0031398D01*
X0018981Y0031354D01*
X0019308Y0031301D01*
X0019634Y0031241D01*
X0019958Y0031172D01*
X0020280Y0031095D01*
X0020601Y0031011D01*
X0020919Y0030919D01*
X0021235Y0030819D01*
X0021548Y0030711D01*
X0021859Y0030595D01*
X0022166Y0030472D01*
X0022471Y0030342D01*
X0022772Y0030204D01*
X0023070Y0030059D01*
X0023364Y0029906D01*
X0023654Y0029746D01*
X0023940Y0029579D01*
X0024222Y0029406D01*
X0024500Y0029225D01*
X0024773Y0029037D01*
X0025042Y0028843D01*
X0025306Y0028643D01*
X0025564Y0028436D01*
X0025818Y0028222D01*
X0026066Y0028003D01*
X0026309Y0027777D01*
X0026546Y0027546D01*
X0026777Y0027309D01*
X0027003Y0027066D01*
X0027222Y0026818D01*
X0027436Y0026564D01*
X0027643Y0026306D01*
X0027843Y0026042D01*
X0028037Y0025773D01*
X0028225Y0025500D01*
X0028406Y0025222D01*
X0028579Y0024940D01*
X0028746Y0024654D01*
X0028906Y0024364D01*
X0029059Y0024070D01*
X0029204Y0023772D01*
X0029342Y0023471D01*
X0029472Y0023166D01*
X0029595Y0022859D01*
X0029711Y0022548D01*
X0029819Y0022235D01*
X0029919Y0021919D01*
X0030011Y0021601D01*
X0030095Y0021280D01*
X0030172Y0020958D01*
X0030241Y0020634D01*
X0030301Y0020308D01*
X0030354Y0019981D01*
X0030398Y0019653D01*
X0030435Y0019323D01*
X0030463Y0018993D01*
X0030484Y0018662D01*
X0030496Y0018331D01*
X0030500Y0018000D01*
X0030496Y0017669D01*
X0030484Y0017338D01*
X0030463Y0017007D01*
X0030435Y0016677D01*
X0030398Y0016347D01*
X0030354Y0016019D01*
X0030301Y0015692D01*
X0030241Y0015366D01*
X0030172Y0015042D01*
X0030095Y0014720D01*
X0030011Y0014399D01*
X0029919Y0014081D01*
X0029819Y0013765D01*
X0029711Y0013452D01*
X0029595Y0013141D01*
X0029472Y0012834D01*
X0029342Y0012529D01*
X0029204Y0012228D01*
X0029059Y0011930D01*
X0028906Y0011636D01*
X0028746Y0011346D01*
X0028579Y0011060D01*
X0028406Y0010778D01*
X0028225Y0010500D01*
X0028037Y0010227D01*
X0027843Y0009958D01*
X0027643Y0009694D01*
X0027436Y0009436D01*
X0027222Y0009182D01*
X0027003Y0008934D01*
X0026777Y0008691D01*
X0026546Y0008454D01*
X0026309Y0008223D01*
X0026066Y0007997D01*
X0025818Y0007778D01*
X0025564Y0007564D01*
X0025306Y0007357D01*
X0025042Y0007157D01*
X0024773Y0006963D01*
X0024500Y0006775D01*
X0024222Y0006594D01*
X0023940Y0006421D01*
X0023654Y0006254D01*
X0023364Y0006094D01*
X0023070Y0005941D01*
X0022772Y0005796D01*
X0022471Y0005658D01*
X0022166Y0005528D01*
X0021859Y0005405D01*
X0021548Y0005289D01*
X0021235Y0005181D01*
X0020919Y0005081D01*
X0020601Y0004989D01*
X0020280Y0004905D01*
X0019958Y0004828D01*
X0019634Y0004759D01*
X0019308Y0004699D01*
X0018981Y0004646D01*
X0018653Y0004602D01*
X0018323Y0004565D01*
X0017993Y0004537D01*
X0017662Y0004516D01*
X0017331Y0004504D01*
X0017000Y0004500D01*
X0016669Y0004504D01*
X0016338Y0004516D01*
X0016007Y0004537D01*
X0015677Y0004565D01*
X0015347Y0004602D01*
X0015019Y0004646D01*
X0014692Y0004699D01*
X0014366Y0004759D01*
X0014042Y0004828D01*
X0013720Y0004905D01*
X0013399Y0004989D01*
X0013081Y0005081D01*
X0012765Y0005181D01*
X0012452Y0005289D01*
X0012141Y0005405D01*
X0011834Y0005528D01*
X0011529Y0005658D01*
X0011228Y0005796D01*
X0010930Y0005941D01*
X0010636Y0006094D01*
X0010346Y0006254D01*
X0010060Y0006421D01*
X0009778Y0006594D01*
X0009500Y0006775D01*
X0009227Y0006963D01*
X0008958Y0007157D01*
X0008694Y0007357D01*
X0008436Y0007564D01*
X0008182Y0007778D01*
X0007934Y0007997D01*
X0007691Y0008223D01*
X0007454Y0008454D01*
X0007223Y0008691D01*
X0006997Y0008934D01*
X0006778Y0009182D01*
X0006564Y0009436D01*
X0006357Y0009694D01*
X0006157Y0009958D01*
X0005963Y0010227D01*
X0005775Y0010500D01*
X0005594Y0010778D01*
X0005421Y0011060D01*
X0005254Y0011346D01*
X0005094Y0011636D01*
X0004941Y0011930D01*
X0004796Y0012228D01*
X0004658Y0012529D01*
X0004528Y0012834D01*
X0004405Y0013141D01*
X0004289Y0013452D01*
X0004181Y0013765D01*
X0004081Y0014081D01*
X0003989Y0014399D01*
X0003905Y0014720D01*
X0003828Y0015042D01*
X0003759Y0015366D01*
X0003699Y0015692D01*
X0003646Y0016019D01*
X0003602Y0016347D01*
X0003565Y0016677D01*
X0003537Y0017007D01*
X0003516Y0017338D01*
X0003504Y0017669D01*
X0003500Y0018000D01*
X0038500Y0046750D02*
X0038505Y0047143D01*
X0038519Y0047535D01*
X0038543Y0047927D01*
X0038577Y0048318D01*
X0038620Y0048709D01*
X0038673Y0049098D01*
X0038736Y0049485D01*
X0038807Y0049871D01*
X0038889Y0050256D01*
X0038979Y0050638D01*
X0039080Y0051017D01*
X0039189Y0051395D01*
X0039308Y0051769D01*
X0039435Y0052140D01*
X0039572Y0052508D01*
X0039718Y0052873D01*
X0039873Y0053234D01*
X0040036Y0053591D01*
X0040208Y0053944D01*
X0040389Y0054292D01*
X0040579Y0054636D01*
X0040776Y0054976D01*
X0040982Y0055310D01*
X0041196Y0055639D01*
X0041419Y0055963D01*
X0041649Y0056281D01*
X0041886Y0056594D01*
X0042132Y0056900D01*
X0042385Y0057201D01*
X0042645Y0057495D01*
X0042912Y0057783D01*
X0043186Y0058064D01*
X0043467Y0058338D01*
X0043755Y0058605D01*
X0044049Y0058865D01*
X0044350Y0059118D01*
X0044656Y0059364D01*
X0044969Y0059601D01*
X0045287Y0059831D01*
X0045611Y0060054D01*
X0045940Y0060268D01*
X0046274Y0060474D01*
X0046614Y0060671D01*
X0046958Y0060861D01*
X0047306Y0061042D01*
X0047659Y0061214D01*
X0048016Y0061377D01*
X0048377Y0061532D01*
X0048742Y0061678D01*
X0049110Y0061815D01*
X0049481Y0061942D01*
X0049855Y0062061D01*
X0050233Y0062170D01*
X0050612Y0062271D01*
X0050994Y0062361D01*
X0051379Y0062443D01*
X0051765Y0062514D01*
X0052152Y0062577D01*
X0052541Y0062630D01*
X0052932Y0062673D01*
X0053323Y0062707D01*
X0053715Y0062731D01*
X0054107Y0062745D01*
X0054500Y0062750D01*
X0054893Y0062745D01*
X0055285Y0062731D01*
X0055677Y0062707D01*
X0056068Y0062673D01*
X0056459Y0062630D01*
X0056848Y0062577D01*
X0057235Y0062514D01*
X0057621Y0062443D01*
X0058006Y0062361D01*
X0058388Y0062271D01*
X0058767Y0062170D01*
X0059145Y0062061D01*
X0059519Y0061942D01*
X0059890Y0061815D01*
X0060258Y0061678D01*
X0060623Y0061532D01*
X0060984Y0061377D01*
X0061341Y0061214D01*
X0061694Y0061042D01*
X0062042Y0060861D01*
X0062386Y0060671D01*
X0062726Y0060474D01*
X0063060Y0060268D01*
X0063389Y0060054D01*
X0063713Y0059831D01*
X0064031Y0059601D01*
X0064344Y0059364D01*
X0064650Y0059118D01*
X0064951Y0058865D01*
X0065245Y0058605D01*
X0065533Y0058338D01*
X0065814Y0058064D01*
X0066088Y0057783D01*
X0066355Y0057495D01*
X0066615Y0057201D01*
X0066868Y0056900D01*
X0067114Y0056594D01*
X0067351Y0056281D01*
X0067581Y0055963D01*
X0067804Y0055639D01*
X0068018Y0055310D01*
X0068224Y0054976D01*
X0068421Y0054636D01*
X0068611Y0054292D01*
X0068792Y0053944D01*
X0068964Y0053591D01*
X0069127Y0053234D01*
X0069282Y0052873D01*
X0069428Y0052508D01*
X0069565Y0052140D01*
X0069692Y0051769D01*
X0069811Y0051395D01*
X0069920Y0051017D01*
X0070021Y0050638D01*
X0070111Y0050256D01*
X0070193Y0049871D01*
X0070264Y0049485D01*
X0070327Y0049098D01*
X0070380Y0048709D01*
X0070423Y0048318D01*
X0070457Y0047927D01*
X0070481Y0047535D01*
X0070495Y0047143D01*
X0070500Y0046750D01*
X0070495Y0046357D01*
X0070481Y0045965D01*
X0070457Y0045573D01*
X0070423Y0045182D01*
X0070380Y0044791D01*
X0070327Y0044402D01*
X0070264Y0044015D01*
X0070193Y0043629D01*
X0070111Y0043244D01*
X0070021Y0042862D01*
X0069920Y0042483D01*
X0069811Y0042105D01*
X0069692Y0041731D01*
X0069565Y0041360D01*
X0069428Y0040992D01*
X0069282Y0040627D01*
X0069127Y0040266D01*
X0068964Y0039909D01*
X0068792Y0039556D01*
X0068611Y0039208D01*
X0068421Y0038864D01*
X0068224Y0038524D01*
X0068018Y0038190D01*
X0067804Y0037861D01*
X0067581Y0037537D01*
X0067351Y0037219D01*
X0067114Y0036906D01*
X0066868Y0036600D01*
X0066615Y0036299D01*
X0066355Y0036005D01*
X0066088Y0035717D01*
X0065814Y0035436D01*
X0065533Y0035162D01*
X0065245Y0034895D01*
X0064951Y0034635D01*
X0064650Y0034382D01*
X0064344Y0034136D01*
X0064031Y0033899D01*
X0063713Y0033669D01*
X0063389Y0033446D01*
X0063060Y0033232D01*
X0062726Y0033026D01*
X0062386Y0032829D01*
X0062042Y0032639D01*
X0061694Y0032458D01*
X0061341Y0032286D01*
X0060984Y0032123D01*
X0060623Y0031968D01*
X0060258Y0031822D01*
X0059890Y0031685D01*
X0059519Y0031558D01*
X0059145Y0031439D01*
X0058767Y0031330D01*
X0058388Y0031229D01*
X0058006Y0031139D01*
X0057621Y0031057D01*
X0057235Y0030986D01*
X0056848Y0030923D01*
X0056459Y0030870D01*
X0056068Y0030827D01*
X0055677Y0030793D01*
X0055285Y0030769D01*
X0054893Y0030755D01*
X0054500Y0030750D01*
X0054107Y0030755D01*
X0053715Y0030769D01*
X0053323Y0030793D01*
X0052932Y0030827D01*
X0052541Y0030870D01*
X0052152Y0030923D01*
X0051765Y0030986D01*
X0051379Y0031057D01*
X0050994Y0031139D01*
X0050612Y0031229D01*
X0050233Y0031330D01*
X0049855Y0031439D01*
X0049481Y0031558D01*
X0049110Y0031685D01*
X0048742Y0031822D01*
X0048377Y0031968D01*
X0048016Y0032123D01*
X0047659Y0032286D01*
X0047306Y0032458D01*
X0046958Y0032639D01*
X0046614Y0032829D01*
X0046274Y0033026D01*
X0045940Y0033232D01*
X0045611Y0033446D01*
X0045287Y0033669D01*
X0044969Y0033899D01*
X0044656Y0034136D01*
X0044350Y0034382D01*
X0044049Y0034635D01*
X0043755Y0034895D01*
X0043467Y0035162D01*
X0043186Y0035436D01*
X0042912Y0035717D01*
X0042645Y0036005D01*
X0042385Y0036299D01*
X0042132Y0036600D01*
X0041886Y0036906D01*
X0041649Y0037219D01*
X0041419Y0037537D01*
X0041196Y0037861D01*
X0040982Y0038190D01*
X0040776Y0038524D01*
X0040579Y0038864D01*
X0040389Y0039208D01*
X0040208Y0039556D01*
X0040036Y0039909D01*
X0039873Y0040266D01*
X0039718Y0040627D01*
X0039572Y0040992D01*
X0039435Y0041360D01*
X0039308Y0041731D01*
X0039189Y0042105D01*
X0039080Y0042483D01*
X0038979Y0042862D01*
X0038889Y0043244D01*
X0038807Y0043629D01*
X0038736Y0044015D01*
X0038673Y0044402D01*
X0038620Y0044791D01*
X0038577Y0045182D01*
X0038543Y0045573D01*
X0038519Y0045965D01*
X0038505Y0046357D01*
X0038500Y0046750D01*
X0057500Y0058750D02*
X0060500Y0058750D01*
X0059000Y0060250D02*
X0059000Y0057250D01*
X0057000Y0074000D02*
X0057000Y0097000D01*
X0097000Y0097000D01*
X0097000Y0089500D01*
X0096874Y0089498D01*
X0096749Y0089492D01*
X0096624Y0089482D01*
X0096499Y0089468D01*
X0096374Y0089451D01*
X0096250Y0089429D01*
X0096127Y0089404D01*
X0096005Y0089374D01*
X0095884Y0089341D01*
X0095764Y0089304D01*
X0095645Y0089264D01*
X0095528Y0089219D01*
X0095411Y0089171D01*
X0095297Y0089119D01*
X0095184Y0089064D01*
X0095073Y0089005D01*
X0094964Y0088943D01*
X0094857Y0088877D01*
X0094752Y0088808D01*
X0094649Y0088736D01*
X0094548Y0088661D01*
X0094450Y0088582D01*
X0094355Y0088500D01*
X0094262Y0088416D01*
X0094172Y0088328D01*
X0094084Y0088238D01*
X0094000Y0088145D01*
X0093918Y0088050D01*
X0093839Y0087952D01*
X0093764Y0087851D01*
X0093692Y0087748D01*
X0093623Y0087643D01*
X0093557Y0087536D01*
X0093495Y0087427D01*
X0093436Y0087316D01*
X0093381Y0087203D01*
X0093329Y0087089D01*
X0093281Y0086972D01*
X0093236Y0086855D01*
X0093196Y0086736D01*
X0093159Y0086616D01*
X0093126Y0086495D01*
X0093096Y0086373D01*
X0093071Y0086250D01*
X0093049Y0086126D01*
X0093032Y0086001D01*
X0093018Y0085876D01*
X0093008Y0085751D01*
X0093002Y0085626D01*
X0093000Y0085500D01*
X0093002Y0085374D01*
X0093008Y0085249D01*
X0093018Y0085124D01*
X0093032Y0084999D01*
X0093049Y0084874D01*
X0093071Y0084750D01*
X0093096Y0084627D01*
X0093126Y0084505D01*
X0093159Y0084384D01*
X0093196Y0084264D01*
X0093236Y0084145D01*
X0093281Y0084028D01*
X0093329Y0083911D01*
X0093381Y0083797D01*
X0093436Y0083684D01*
X0093495Y0083573D01*
X0093557Y0083464D01*
X0093623Y0083357D01*
X0093692Y0083252D01*
X0093764Y0083149D01*
X0093839Y0083048D01*
X0093918Y0082950D01*
X0094000Y0082855D01*
X0094084Y0082762D01*
X0094172Y0082672D01*
X0094262Y0082584D01*
X0094355Y0082500D01*
X0094450Y0082418D01*
X0094548Y0082339D01*
X0094649Y0082264D01*
X0094752Y0082192D01*
X0094857Y0082123D01*
X0094964Y0082057D01*
X0095073Y0081995D01*
X0095184Y0081936D01*
X0095297Y0081881D01*
X0095411Y0081829D01*
X0095528Y0081781D01*
X0095645Y0081736D01*
X0095764Y0081696D01*
X0095884Y0081659D01*
X0096005Y0081626D01*
X0096127Y0081596D01*
X0096250Y0081571D01*
X0096374Y0081549D01*
X0096499Y0081532D01*
X0096624Y0081518D01*
X0096749Y0081508D01*
X0096874Y0081502D01*
X0097000Y0081500D01*
X0097000Y0074000D01*
X0057000Y0074000D01*
X0044435Y0108300D02*
X0044435Y0111703D01*
X0042166Y0111703D02*
X0044435Y0108300D01*
X0042166Y0108300D02*
X0042166Y0111703D01*
X0040752Y0111703D02*
X0040752Y0108867D01*
X0040185Y0108300D01*
X0039050Y0108300D01*
X0038483Y0108867D01*
X0038483Y0111703D01*
X0037069Y0111136D02*
X0037069Y0110001D01*
X0036501Y0109434D01*
X0034800Y0109434D01*
X0034800Y0108300D02*
X0034800Y0111703D01*
X0036501Y0111703D01*
X0037069Y0111136D01*
X0035934Y0109434D02*
X0037069Y0108300D01*
X0058000Y0110500D02*
X0081000Y0110500D01*
X0081000Y0150500D01*
X0073500Y0150500D01*
X0073498Y0150374D01*
X0073492Y0150249D01*
X0073482Y0150124D01*
X0073468Y0149999D01*
X0073451Y0149874D01*
X0073429Y0149750D01*
X0073404Y0149627D01*
X0073374Y0149505D01*
X0073341Y0149384D01*
X0073304Y0149264D01*
X0073264Y0149145D01*
X0073219Y0149028D01*
X0073171Y0148911D01*
X0073119Y0148797D01*
X0073064Y0148684D01*
X0073005Y0148573D01*
X0072943Y0148464D01*
X0072877Y0148357D01*
X0072808Y0148252D01*
X0072736Y0148149D01*
X0072661Y0148048D01*
X0072582Y0147950D01*
X0072500Y0147855D01*
X0072416Y0147762D01*
X0072328Y0147672D01*
X0072238Y0147584D01*
X0072145Y0147500D01*
X0072050Y0147418D01*
X0071952Y0147339D01*
X0071851Y0147264D01*
X0071748Y0147192D01*
X0071643Y0147123D01*
X0071536Y0147057D01*
X0071427Y0146995D01*
X0071316Y0146936D01*
X0071203Y0146881D01*
X0071089Y0146829D01*
X0070972Y0146781D01*
X0070855Y0146736D01*
X0070736Y0146696D01*
X0070616Y0146659D01*
X0070495Y0146626D01*
X0070373Y0146596D01*
X0070250Y0146571D01*
X0070126Y0146549D01*
X0070001Y0146532D01*
X0069876Y0146518D01*
X0069751Y0146508D01*
X0069626Y0146502D01*
X0069500Y0146500D01*
X0069374Y0146502D01*
X0069249Y0146508D01*
X0069124Y0146518D01*
X0068999Y0146532D01*
X0068874Y0146549D01*
X0068750Y0146571D01*
X0068627Y0146596D01*
X0068505Y0146626D01*
X0068384Y0146659D01*
X0068264Y0146696D01*
X0068145Y0146736D01*
X0068028Y0146781D01*
X0067911Y0146829D01*
X0067797Y0146881D01*
X0067684Y0146936D01*
X0067573Y0146995D01*
X0067464Y0147057D01*
X0067357Y0147123D01*
X0067252Y0147192D01*
X0067149Y0147264D01*
X0067048Y0147339D01*
X0066950Y0147418D01*
X0066855Y0147500D01*
X0066762Y0147584D01*
X0066672Y0147672D01*
X0066584Y0147762D01*
X0066500Y0147855D01*
X0066418Y0147950D01*
X0066339Y0148048D01*
X0066264Y0148149D01*
X0066192Y0148252D01*
X0066123Y0148357D01*
X0066057Y0148464D01*
X0065995Y0148573D01*
X0065936Y0148684D01*
X0065881Y0148797D01*
X0065829Y0148911D01*
X0065781Y0149028D01*
X0065736Y0149145D01*
X0065696Y0149264D01*
X0065659Y0149384D01*
X0065626Y0149505D01*
X0065596Y0149627D01*
X0065571Y0149750D01*
X0065549Y0149874D01*
X0065532Y0149999D01*
X0065518Y0150124D01*
X0065508Y0150249D01*
X0065502Y0150374D01*
X0065500Y0150500D01*
X0058000Y0150500D01*
X0058000Y0110500D01*
X0033667Y0149550D02*
X0032533Y0149550D01*
X0031966Y0150117D01*
X0031966Y0152386D01*
X0032533Y0152953D01*
X0033667Y0152953D01*
X0034234Y0152386D01*
X0034234Y0151251D02*
X0033100Y0151251D01*
X0034234Y0151251D02*
X0034234Y0150117D01*
X0033667Y0149550D01*
X0030551Y0149550D02*
X0030551Y0152953D01*
X0030551Y0151251D02*
X0028283Y0151251D01*
X0028283Y0149550D02*
X0028283Y0152953D01*
X0026868Y0152386D02*
X0026301Y0152953D01*
X0025167Y0152953D01*
X0024599Y0152386D01*
X0024599Y0150117D01*
X0025167Y0149550D01*
X0026301Y0149550D01*
X0026868Y0150117D01*
X0023185Y0149550D02*
X0020916Y0149550D01*
X0020916Y0152953D01*
X0023185Y0152953D01*
X0022051Y0151251D02*
X0020916Y0151251D01*
X0019502Y0151251D02*
X0018935Y0150684D01*
X0017233Y0150684D01*
X0017233Y0149550D02*
X0017233Y0152953D01*
X0018935Y0152953D01*
X0019502Y0152386D01*
X0019502Y0151251D01*
X0018367Y0150684D02*
X0019502Y0149550D01*
X0015819Y0151251D02*
X0015819Y0152386D01*
X0015251Y0152953D01*
X0013550Y0152953D01*
X0013550Y0149550D01*
X0013550Y0150684D02*
X0015251Y0150684D01*
X0015819Y0151251D01*
X0116000Y0095500D02*
X0116005Y0095893D01*
X0116019Y0096285D01*
X0116043Y0096677D01*
X0116077Y0097068D01*
X0116120Y0097459D01*
X0116173Y0097848D01*
X0116236Y0098235D01*
X0116307Y0098621D01*
X0116389Y0099006D01*
X0116479Y0099388D01*
X0116580Y0099767D01*
X0116689Y0100145D01*
X0116808Y0100519D01*
X0116935Y0100890D01*
X0117072Y0101258D01*
X0117218Y0101623D01*
X0117373Y0101984D01*
X0117536Y0102341D01*
X0117708Y0102694D01*
X0117889Y0103042D01*
X0118079Y0103386D01*
X0118276Y0103726D01*
X0118482Y0104060D01*
X0118696Y0104389D01*
X0118919Y0104713D01*
X0119149Y0105031D01*
X0119386Y0105344D01*
X0119632Y0105650D01*
X0119885Y0105951D01*
X0120145Y0106245D01*
X0120412Y0106533D01*
X0120686Y0106814D01*
X0120967Y0107088D01*
X0121255Y0107355D01*
X0121549Y0107615D01*
X0121850Y0107868D01*
X0122156Y0108114D01*
X0122469Y0108351D01*
X0122787Y0108581D01*
X0123111Y0108804D01*
X0123440Y0109018D01*
X0123774Y0109224D01*
X0124114Y0109421D01*
X0124458Y0109611D01*
X0124806Y0109792D01*
X0125159Y0109964D01*
X0125516Y0110127D01*
X0125877Y0110282D01*
X0126242Y0110428D01*
X0126610Y0110565D01*
X0126981Y0110692D01*
X0127355Y0110811D01*
X0127733Y0110920D01*
X0128112Y0111021D01*
X0128494Y0111111D01*
X0128879Y0111193D01*
X0129265Y0111264D01*
X0129652Y0111327D01*
X0130041Y0111380D01*
X0130432Y0111423D01*
X0130823Y0111457D01*
X0131215Y0111481D01*
X0131607Y0111495D01*
X0132000Y0111500D01*
X0132393Y0111495D01*
X0132785Y0111481D01*
X0133177Y0111457D01*
X0133568Y0111423D01*
X0133959Y0111380D01*
X0134348Y0111327D01*
X0134735Y0111264D01*
X0135121Y0111193D01*
X0135506Y0111111D01*
X0135888Y0111021D01*
X0136267Y0110920D01*
X0136645Y0110811D01*
X0137019Y0110692D01*
X0137390Y0110565D01*
X0137758Y0110428D01*
X0138123Y0110282D01*
X0138484Y0110127D01*
X0138841Y0109964D01*
X0139194Y0109792D01*
X0139542Y0109611D01*
X0139886Y0109421D01*
X0140226Y0109224D01*
X0140560Y0109018D01*
X0140889Y0108804D01*
X0141213Y0108581D01*
X0141531Y0108351D01*
X0141844Y0108114D01*
X0142150Y0107868D01*
X0142451Y0107615D01*
X0142745Y0107355D01*
X0143033Y0107088D01*
X0143314Y0106814D01*
X0143588Y0106533D01*
X0143855Y0106245D01*
X0144115Y0105951D01*
X0144368Y0105650D01*
X0144614Y0105344D01*
X0144851Y0105031D01*
X0145081Y0104713D01*
X0145304Y0104389D01*
X0145518Y0104060D01*
X0145724Y0103726D01*
X0145921Y0103386D01*
X0146111Y0103042D01*
X0146292Y0102694D01*
X0146464Y0102341D01*
X0146627Y0101984D01*
X0146782Y0101623D01*
X0146928Y0101258D01*
X0147065Y0100890D01*
X0147192Y0100519D01*
X0147311Y0100145D01*
X0147420Y0099767D01*
X0147521Y0099388D01*
X0147611Y0099006D01*
X0147693Y0098621D01*
X0147764Y0098235D01*
X0147827Y0097848D01*
X0147880Y0097459D01*
X0147923Y0097068D01*
X0147957Y0096677D01*
X0147981Y0096285D01*
X0147995Y0095893D01*
X0148000Y0095500D01*
X0147995Y0095107D01*
X0147981Y0094715D01*
X0147957Y0094323D01*
X0147923Y0093932D01*
X0147880Y0093541D01*
X0147827Y0093152D01*
X0147764Y0092765D01*
X0147693Y0092379D01*
X0147611Y0091994D01*
X0147521Y0091612D01*
X0147420Y0091233D01*
X0147311Y0090855D01*
X0147192Y0090481D01*
X0147065Y0090110D01*
X0146928Y0089742D01*
X0146782Y0089377D01*
X0146627Y0089016D01*
X0146464Y0088659D01*
X0146292Y0088306D01*
X0146111Y0087958D01*
X0145921Y0087614D01*
X0145724Y0087274D01*
X0145518Y0086940D01*
X0145304Y0086611D01*
X0145081Y0086287D01*
X0144851Y0085969D01*
X0144614Y0085656D01*
X0144368Y0085350D01*
X0144115Y0085049D01*
X0143855Y0084755D01*
X0143588Y0084467D01*
X0143314Y0084186D01*
X0143033Y0083912D01*
X0142745Y0083645D01*
X0142451Y0083385D01*
X0142150Y0083132D01*
X0141844Y0082886D01*
X0141531Y0082649D01*
X0141213Y0082419D01*
X0140889Y0082196D01*
X0140560Y0081982D01*
X0140226Y0081776D01*
X0139886Y0081579D01*
X0139542Y0081389D01*
X0139194Y0081208D01*
X0138841Y0081036D01*
X0138484Y0080873D01*
X0138123Y0080718D01*
X0137758Y0080572D01*
X0137390Y0080435D01*
X0137019Y0080308D01*
X0136645Y0080189D01*
X0136267Y0080080D01*
X0135888Y0079979D01*
X0135506Y0079889D01*
X0135121Y0079807D01*
X0134735Y0079736D01*
X0134348Y0079673D01*
X0133959Y0079620D01*
X0133568Y0079577D01*
X0133177Y0079543D01*
X0132785Y0079519D01*
X0132393Y0079505D01*
X0132000Y0079500D01*
X0131607Y0079505D01*
X0131215Y0079519D01*
X0130823Y0079543D01*
X0130432Y0079577D01*
X0130041Y0079620D01*
X0129652Y0079673D01*
X0129265Y0079736D01*
X0128879Y0079807D01*
X0128494Y0079889D01*
X0128112Y0079979D01*
X0127733Y0080080D01*
X0127355Y0080189D01*
X0126981Y0080308D01*
X0126610Y0080435D01*
X0126242Y0080572D01*
X0125877Y0080718D01*
X0125516Y0080873D01*
X0125159Y0081036D01*
X0124806Y0081208D01*
X0124458Y0081389D01*
X0124114Y0081579D01*
X0123774Y0081776D01*
X0123440Y0081982D01*
X0123111Y0082196D01*
X0122787Y0082419D01*
X0122469Y0082649D01*
X0122156Y0082886D01*
X0121850Y0083132D01*
X0121549Y0083385D01*
X0121255Y0083645D01*
X0120967Y0083912D01*
X0120686Y0084186D01*
X0120412Y0084467D01*
X0120145Y0084755D01*
X0119885Y0085049D01*
X0119632Y0085350D01*
X0119386Y0085656D01*
X0119149Y0085969D01*
X0118919Y0086287D01*
X0118696Y0086611D01*
X0118482Y0086940D01*
X0118276Y0087274D01*
X0118079Y0087614D01*
X0117889Y0087958D01*
X0117708Y0088306D01*
X0117536Y0088659D01*
X0117373Y0089016D01*
X0117218Y0089377D01*
X0117072Y0089742D01*
X0116935Y0090110D01*
X0116808Y0090481D01*
X0116689Y0090855D01*
X0116580Y0091233D01*
X0116479Y0091612D01*
X0116389Y0091994D01*
X0116307Y0092379D01*
X0116236Y0092765D01*
X0116173Y0093152D01*
X0116120Y0093541D01*
X0116077Y0093932D01*
X0116043Y0094323D01*
X0116019Y0094715D01*
X0116005Y0095107D01*
X0116000Y0095500D01*
X0135000Y0107500D02*
X0138000Y0107500D01*
X0136500Y0109000D02*
X0136500Y0106000D01*
X0188886Y0126300D02*
X0188888Y0126375D01*
X0188894Y0126449D01*
X0188904Y0126523D01*
X0188917Y0126596D01*
X0188935Y0126669D01*
X0188956Y0126740D01*
X0188981Y0126811D01*
X0189010Y0126880D01*
X0189043Y0126947D01*
X0189079Y0127012D01*
X0189118Y0127076D01*
X0189160Y0127137D01*
X0189206Y0127196D01*
X0189255Y0127253D01*
X0189307Y0127306D01*
X0189361Y0127357D01*
X0189418Y0127406D01*
X0189478Y0127450D01*
X0189540Y0127492D01*
X0189604Y0127531D01*
X0189670Y0127566D01*
X0189737Y0127597D01*
X0189807Y0127625D01*
X0189877Y0127649D01*
X0189949Y0127670D01*
X0190022Y0127686D01*
X0190095Y0127699D01*
X0190170Y0127708D01*
X0190244Y0127713D01*
X0190319Y0127714D01*
X0190393Y0127711D01*
X0190468Y0127704D01*
X0190541Y0127693D01*
X0190615Y0127679D01*
X0190687Y0127660D01*
X0190758Y0127638D01*
X0190828Y0127612D01*
X0190897Y0127582D01*
X0190963Y0127549D01*
X0191028Y0127512D01*
X0191091Y0127472D01*
X0191152Y0127428D01*
X0191210Y0127382D01*
X0191266Y0127332D01*
X0191319Y0127280D01*
X0191370Y0127225D01*
X0191417Y0127167D01*
X0191461Y0127107D01*
X0191502Y0127044D01*
X0191540Y0126980D01*
X0191574Y0126914D01*
X0191605Y0126845D01*
X0191632Y0126776D01*
X0191655Y0126705D01*
X0191674Y0126633D01*
X0191690Y0126560D01*
X0191702Y0126486D01*
X0191710Y0126412D01*
X0191714Y0126337D01*
X0191714Y0126263D01*
X0191710Y0126188D01*
X0191702Y0126114D01*
X0191690Y0126040D01*
X0191674Y0125967D01*
X0191655Y0125895D01*
X0191632Y0125824D01*
X0191605Y0125755D01*
X0191574Y0125686D01*
X0191540Y0125620D01*
X0191502Y0125556D01*
X0191461Y0125493D01*
X0191417Y0125433D01*
X0191370Y0125375D01*
X0191319Y0125320D01*
X0191266Y0125268D01*
X0191210Y0125218D01*
X0191152Y0125172D01*
X0191091Y0125128D01*
X0191028Y0125088D01*
X0190963Y0125051D01*
X0190897Y0125018D01*
X0190828Y0124988D01*
X0190758Y0124962D01*
X0190687Y0124940D01*
X0190615Y0124921D01*
X0190541Y0124907D01*
X0190468Y0124896D01*
X0190393Y0124889D01*
X0190319Y0124886D01*
X0190244Y0124887D01*
X0190170Y0124892D01*
X0190095Y0124901D01*
X0190022Y0124914D01*
X0189949Y0124930D01*
X0189877Y0124951D01*
X0189807Y0124975D01*
X0189737Y0125003D01*
X0189670Y0125034D01*
X0189604Y0125069D01*
X0189540Y0125108D01*
X0189478Y0125150D01*
X0189418Y0125194D01*
X0189361Y0125243D01*
X0189307Y0125294D01*
X0189255Y0125347D01*
X0189206Y0125404D01*
X0189160Y0125463D01*
X0189118Y0125524D01*
X0189079Y0125588D01*
X0189043Y0125653D01*
X0189010Y0125720D01*
X0188981Y0125789D01*
X0188956Y0125860D01*
X0188935Y0125931D01*
X0188917Y0126004D01*
X0188904Y0126077D01*
X0188894Y0126151D01*
X0188888Y0126225D01*
X0188886Y0126300D01*
X0203500Y0143000D02*
X0203504Y0143331D01*
X0203516Y0143662D01*
X0203537Y0143993D01*
X0203565Y0144323D01*
X0203602Y0144653D01*
X0203646Y0144981D01*
X0203699Y0145308D01*
X0203759Y0145634D01*
X0203828Y0145958D01*
X0203905Y0146280D01*
X0203989Y0146601D01*
X0204081Y0146919D01*
X0204181Y0147235D01*
X0204289Y0147548D01*
X0204405Y0147859D01*
X0204528Y0148166D01*
X0204658Y0148471D01*
X0204796Y0148772D01*
X0204941Y0149070D01*
X0205094Y0149364D01*
X0205254Y0149654D01*
X0205421Y0149940D01*
X0205594Y0150222D01*
X0205775Y0150500D01*
X0205963Y0150773D01*
X0206157Y0151042D01*
X0206357Y0151306D01*
X0206564Y0151564D01*
X0206778Y0151818D01*
X0206997Y0152066D01*
X0207223Y0152309D01*
X0207454Y0152546D01*
X0207691Y0152777D01*
X0207934Y0153003D01*
X0208182Y0153222D01*
X0208436Y0153436D01*
X0208694Y0153643D01*
X0208958Y0153843D01*
X0209227Y0154037D01*
X0209500Y0154225D01*
X0209778Y0154406D01*
X0210060Y0154579D01*
X0210346Y0154746D01*
X0210636Y0154906D01*
X0210930Y0155059D01*
X0211228Y0155204D01*
X0211529Y0155342D01*
X0211834Y0155472D01*
X0212141Y0155595D01*
X0212452Y0155711D01*
X0212765Y0155819D01*
X0213081Y0155919D01*
X0213399Y0156011D01*
X0213720Y0156095D01*
X0214042Y0156172D01*
X0214366Y0156241D01*
X0214692Y0156301D01*
X0215019Y0156354D01*
X0215347Y0156398D01*
X0215677Y0156435D01*
X0216007Y0156463D01*
X0216338Y0156484D01*
X0216669Y0156496D01*
X0217000Y0156500D01*
X0217331Y0156496D01*
X0217662Y0156484D01*
X0217993Y0156463D01*
X0218323Y0156435D01*
X0218653Y0156398D01*
X0218981Y0156354D01*
X0219308Y0156301D01*
X0219634Y0156241D01*
X0219958Y0156172D01*
X0220280Y0156095D01*
X0220601Y0156011D01*
X0220919Y0155919D01*
X0221235Y0155819D01*
X0221548Y0155711D01*
X0221859Y0155595D01*
X0222166Y0155472D01*
X0222471Y0155342D01*
X0222772Y0155204D01*
X0223070Y0155059D01*
X0223364Y0154906D01*
X0223654Y0154746D01*
X0223940Y0154579D01*
X0224222Y0154406D01*
X0224500Y0154225D01*
X0224773Y0154037D01*
X0225042Y0153843D01*
X0225306Y0153643D01*
X0225564Y0153436D01*
X0225818Y0153222D01*
X0226066Y0153003D01*
X0226309Y0152777D01*
X0226546Y0152546D01*
X0226777Y0152309D01*
X0227003Y0152066D01*
X0227222Y0151818D01*
X0227436Y0151564D01*
X0227643Y0151306D01*
X0227843Y0151042D01*
X0228037Y0150773D01*
X0228225Y0150500D01*
X0228406Y0150222D01*
X0228579Y0149940D01*
X0228746Y0149654D01*
X0228906Y0149364D01*
X0229059Y0149070D01*
X0229204Y0148772D01*
X0229342Y0148471D01*
X0229472Y0148166D01*
X0229595Y0147859D01*
X0229711Y0147548D01*
X0229819Y0147235D01*
X0229919Y0146919D01*
X0230011Y0146601D01*
X0230095Y0146280D01*
X0230172Y0145958D01*
X0230241Y0145634D01*
X0230301Y0145308D01*
X0230354Y0144981D01*
X0230398Y0144653D01*
X0230435Y0144323D01*
X0230463Y0143993D01*
X0230484Y0143662D01*
X0230496Y0143331D01*
X0230500Y0143000D01*
X0230496Y0142669D01*
X0230484Y0142338D01*
X0230463Y0142007D01*
X0230435Y0141677D01*
X0230398Y0141347D01*
X0230354Y0141019D01*
X0230301Y0140692D01*
X0230241Y0140366D01*
X0230172Y0140042D01*
X0230095Y0139720D01*
X0230011Y0139399D01*
X0229919Y0139081D01*
X0229819Y0138765D01*
X0229711Y0138452D01*
X0229595Y0138141D01*
X0229472Y0137834D01*
X0229342Y0137529D01*
X0229204Y0137228D01*
X0229059Y0136930D01*
X0228906Y0136636D01*
X0228746Y0136346D01*
X0228579Y0136060D01*
X0228406Y0135778D01*
X0228225Y0135500D01*
X0228037Y0135227D01*
X0227843Y0134958D01*
X0227643Y0134694D01*
X0227436Y0134436D01*
X0227222Y0134182D01*
X0227003Y0133934D01*
X0226777Y0133691D01*
X0226546Y0133454D01*
X0226309Y0133223D01*
X0226066Y0132997D01*
X0225818Y0132778D01*
X0225564Y0132564D01*
X0225306Y0132357D01*
X0225042Y0132157D01*
X0224773Y0131963D01*
X0224500Y0131775D01*
X0224222Y0131594D01*
X0223940Y0131421D01*
X0223654Y0131254D01*
X0223364Y0131094D01*
X0223070Y0130941D01*
X0222772Y0130796D01*
X0222471Y0130658D01*
X0222166Y0130528D01*
X0221859Y0130405D01*
X0221548Y0130289D01*
X0221235Y0130181D01*
X0220919Y0130081D01*
X0220601Y0129989D01*
X0220280Y0129905D01*
X0219958Y0129828D01*
X0219634Y0129759D01*
X0219308Y0129699D01*
X0218981Y0129646D01*
X0218653Y0129602D01*
X0218323Y0129565D01*
X0217993Y0129537D01*
X0217662Y0129516D01*
X0217331Y0129504D01*
X0217000Y0129500D01*
X0216669Y0129504D01*
X0216338Y0129516D01*
X0216007Y0129537D01*
X0215677Y0129565D01*
X0215347Y0129602D01*
X0215019Y0129646D01*
X0214692Y0129699D01*
X0214366Y0129759D01*
X0214042Y0129828D01*
X0213720Y0129905D01*
X0213399Y0129989D01*
X0213081Y0130081D01*
X0212765Y0130181D01*
X0212452Y0130289D01*
X0212141Y0130405D01*
X0211834Y0130528D01*
X0211529Y0130658D01*
X0211228Y0130796D01*
X0210930Y0130941D01*
X0210636Y0131094D01*
X0210346Y0131254D01*
X0210060Y0131421D01*
X0209778Y0131594D01*
X0209500Y0131775D01*
X0209227Y0131963D01*
X0208958Y0132157D01*
X0208694Y0132357D01*
X0208436Y0132564D01*
X0208182Y0132778D01*
X0207934Y0132997D01*
X0207691Y0133223D01*
X0207454Y0133454D01*
X0207223Y0133691D01*
X0206997Y0133934D01*
X0206778Y0134182D01*
X0206564Y0134436D01*
X0206357Y0134694D01*
X0206157Y0134958D01*
X0205963Y0135227D01*
X0205775Y0135500D01*
X0205594Y0135778D01*
X0205421Y0136060D01*
X0205254Y0136346D01*
X0205094Y0136636D01*
X0204941Y0136930D01*
X0204796Y0137228D01*
X0204658Y0137529D01*
X0204528Y0137834D01*
X0204405Y0138141D01*
X0204289Y0138452D01*
X0204181Y0138765D01*
X0204081Y0139081D01*
X0203989Y0139399D01*
X0203905Y0139720D01*
X0203828Y0140042D01*
X0203759Y0140366D01*
X0203699Y0140692D01*
X0203646Y0141019D01*
X0203602Y0141347D01*
X0203565Y0141677D01*
X0203537Y0142007D01*
X0203516Y0142338D01*
X0203504Y0142669D01*
X0203500Y0143000D01*
X0204117Y0094203D02*
X0203550Y0093636D01*
X0203550Y0093069D01*
X0204117Y0092501D01*
X0205251Y0092501D01*
X0205819Y0091934D01*
X0205819Y0091367D01*
X0205251Y0090800D01*
X0204117Y0090800D01*
X0203550Y0091367D01*
X0204117Y0094203D02*
X0205251Y0094203D01*
X0205819Y0093636D01*
X0207233Y0093636D02*
X0207233Y0091367D01*
X0207800Y0090800D01*
X0208935Y0090800D01*
X0209502Y0091367D01*
X0210916Y0090800D02*
X0210916Y0094203D01*
X0212618Y0094203D01*
X0213185Y0093636D01*
X0213185Y0092501D01*
X0212618Y0091934D01*
X0210916Y0091934D01*
X0212051Y0091934D02*
X0213185Y0090800D01*
X0214599Y0090233D02*
X0216868Y0090233D01*
X0218283Y0090800D02*
X0220551Y0090800D01*
X0219417Y0090800D02*
X0219417Y0094203D01*
X0218283Y0093069D01*
X0209502Y0093636D02*
X0208935Y0094203D01*
X0207800Y0094203D01*
X0207233Y0093636D01*
X0188886Y0063800D02*
X0188888Y0063875D01*
X0188894Y0063949D01*
X0188904Y0064023D01*
X0188917Y0064096D01*
X0188935Y0064169D01*
X0188956Y0064240D01*
X0188981Y0064311D01*
X0189010Y0064380D01*
X0189043Y0064447D01*
X0189079Y0064512D01*
X0189118Y0064576D01*
X0189160Y0064637D01*
X0189206Y0064696D01*
X0189255Y0064753D01*
X0189307Y0064806D01*
X0189361Y0064857D01*
X0189418Y0064906D01*
X0189478Y0064950D01*
X0189540Y0064992D01*
X0189604Y0065031D01*
X0189670Y0065066D01*
X0189737Y0065097D01*
X0189807Y0065125D01*
X0189877Y0065149D01*
X0189949Y0065170D01*
X0190022Y0065186D01*
X0190095Y0065199D01*
X0190170Y0065208D01*
X0190244Y0065213D01*
X0190319Y0065214D01*
X0190393Y0065211D01*
X0190468Y0065204D01*
X0190541Y0065193D01*
X0190615Y0065179D01*
X0190687Y0065160D01*
X0190758Y0065138D01*
X0190828Y0065112D01*
X0190897Y0065082D01*
X0190963Y0065049D01*
X0191028Y0065012D01*
X0191091Y0064972D01*
X0191152Y0064928D01*
X0191210Y0064882D01*
X0191266Y0064832D01*
X0191319Y0064780D01*
X0191370Y0064725D01*
X0191417Y0064667D01*
X0191461Y0064607D01*
X0191502Y0064544D01*
X0191540Y0064480D01*
X0191574Y0064414D01*
X0191605Y0064345D01*
X0191632Y0064276D01*
X0191655Y0064205D01*
X0191674Y0064133D01*
X0191690Y0064060D01*
X0191702Y0063986D01*
X0191710Y0063912D01*
X0191714Y0063837D01*
X0191714Y0063763D01*
X0191710Y0063688D01*
X0191702Y0063614D01*
X0191690Y0063540D01*
X0191674Y0063467D01*
X0191655Y0063395D01*
X0191632Y0063324D01*
X0191605Y0063255D01*
X0191574Y0063186D01*
X0191540Y0063120D01*
X0191502Y0063056D01*
X0191461Y0062993D01*
X0191417Y0062933D01*
X0191370Y0062875D01*
X0191319Y0062820D01*
X0191266Y0062768D01*
X0191210Y0062718D01*
X0191152Y0062672D01*
X0191091Y0062628D01*
X0191028Y0062588D01*
X0190963Y0062551D01*
X0190897Y0062518D01*
X0190828Y0062488D01*
X0190758Y0062462D01*
X0190687Y0062440D01*
X0190615Y0062421D01*
X0190541Y0062407D01*
X0190468Y0062396D01*
X0190393Y0062389D01*
X0190319Y0062386D01*
X0190244Y0062387D01*
X0190170Y0062392D01*
X0190095Y0062401D01*
X0190022Y0062414D01*
X0189949Y0062430D01*
X0189877Y0062451D01*
X0189807Y0062475D01*
X0189737Y0062503D01*
X0189670Y0062534D01*
X0189604Y0062569D01*
X0189540Y0062608D01*
X0189478Y0062650D01*
X0189418Y0062694D01*
X0189361Y0062743D01*
X0189307Y0062794D01*
X0189255Y0062847D01*
X0189206Y0062904D01*
X0189160Y0062963D01*
X0189118Y0063024D01*
X0189079Y0063088D01*
X0189043Y0063153D01*
X0189010Y0063220D01*
X0188981Y0063289D01*
X0188956Y0063360D01*
X0188935Y0063431D01*
X0188917Y0063504D01*
X0188904Y0063577D01*
X0188894Y0063651D01*
X0188888Y0063725D01*
X0188886Y0063800D01*
X0204117Y0031703D02*
X0203550Y0031136D01*
X0203550Y0030569D01*
X0204117Y0030001D01*
X0205251Y0030001D01*
X0205819Y0029434D01*
X0205819Y0028867D01*
X0205251Y0028300D01*
X0204117Y0028300D01*
X0203550Y0028867D01*
X0204117Y0031703D02*
X0205251Y0031703D01*
X0205819Y0031136D01*
X0207233Y0031136D02*
X0207233Y0028867D01*
X0207800Y0028300D01*
X0208935Y0028300D01*
X0209502Y0028867D01*
X0210916Y0028300D02*
X0210916Y0031703D01*
X0212618Y0031703D01*
X0213185Y0031136D01*
X0213185Y0030001D01*
X0212618Y0029434D01*
X0210916Y0029434D01*
X0212051Y0029434D02*
X0213185Y0028300D01*
X0214599Y0027733D02*
X0216868Y0027733D01*
X0218283Y0028300D02*
X0220551Y0030569D01*
X0220551Y0031136D01*
X0219984Y0031703D01*
X0218850Y0031703D01*
X0218283Y0031136D01*
X0218283Y0028300D02*
X0220551Y0028300D01*
X0209502Y0031136D02*
X0208935Y0031703D01*
X0207800Y0031703D01*
X0207233Y0031136D01*
X0138000Y0037500D02*
X0135000Y0037500D01*
X0136500Y0039000D02*
X0136500Y0036000D01*
X0116000Y0025500D02*
X0116005Y0025893D01*
X0116019Y0026285D01*
X0116043Y0026677D01*
X0116077Y0027068D01*
X0116120Y0027459D01*
X0116173Y0027848D01*
X0116236Y0028235D01*
X0116307Y0028621D01*
X0116389Y0029006D01*
X0116479Y0029388D01*
X0116580Y0029767D01*
X0116689Y0030145D01*
X0116808Y0030519D01*
X0116935Y0030890D01*
X0117072Y0031258D01*
X0117218Y0031623D01*
X0117373Y0031984D01*
X0117536Y0032341D01*
X0117708Y0032694D01*
X0117889Y0033042D01*
X0118079Y0033386D01*
X0118276Y0033726D01*
X0118482Y0034060D01*
X0118696Y0034389D01*
X0118919Y0034713D01*
X0119149Y0035031D01*
X0119386Y0035344D01*
X0119632Y0035650D01*
X0119885Y0035951D01*
X0120145Y0036245D01*
X0120412Y0036533D01*
X0120686Y0036814D01*
X0120967Y0037088D01*
X0121255Y0037355D01*
X0121549Y0037615D01*
X0121850Y0037868D01*
X0122156Y0038114D01*
X0122469Y0038351D01*
X0122787Y0038581D01*
X0123111Y0038804D01*
X0123440Y0039018D01*
X0123774Y0039224D01*
X0124114Y0039421D01*
X0124458Y0039611D01*
X0124806Y0039792D01*
X0125159Y0039964D01*
X0125516Y0040127D01*
X0125877Y0040282D01*
X0126242Y0040428D01*
X0126610Y0040565D01*
X0126981Y0040692D01*
X0127355Y0040811D01*
X0127733Y0040920D01*
X0128112Y0041021D01*
X0128494Y0041111D01*
X0128879Y0041193D01*
X0129265Y0041264D01*
X0129652Y0041327D01*
X0130041Y0041380D01*
X0130432Y0041423D01*
X0130823Y0041457D01*
X0131215Y0041481D01*
X0131607Y0041495D01*
X0132000Y0041500D01*
X0132393Y0041495D01*
X0132785Y0041481D01*
X0133177Y0041457D01*
X0133568Y0041423D01*
X0133959Y0041380D01*
X0134348Y0041327D01*
X0134735Y0041264D01*
X0135121Y0041193D01*
X0135506Y0041111D01*
X0135888Y0041021D01*
X0136267Y0040920D01*
X0136645Y0040811D01*
X0137019Y0040692D01*
X0137390Y0040565D01*
X0137758Y0040428D01*
X0138123Y0040282D01*
X0138484Y0040127D01*
X0138841Y0039964D01*
X0139194Y0039792D01*
X0139542Y0039611D01*
X0139886Y0039421D01*
X0140226Y0039224D01*
X0140560Y0039018D01*
X0140889Y0038804D01*
X0141213Y0038581D01*
X0141531Y0038351D01*
X0141844Y0038114D01*
X0142150Y0037868D01*
X0142451Y0037615D01*
X0142745Y0037355D01*
X0143033Y0037088D01*
X0143314Y0036814D01*
X0143588Y0036533D01*
X0143855Y0036245D01*
X0144115Y0035951D01*
X0144368Y0035650D01*
X0144614Y0035344D01*
X0144851Y0035031D01*
X0145081Y0034713D01*
X0145304Y0034389D01*
X0145518Y0034060D01*
X0145724Y0033726D01*
X0145921Y0033386D01*
X0146111Y0033042D01*
X0146292Y0032694D01*
X0146464Y0032341D01*
X0146627Y0031984D01*
X0146782Y0031623D01*
X0146928Y0031258D01*
X0147065Y0030890D01*
X0147192Y0030519D01*
X0147311Y0030145D01*
X0147420Y0029767D01*
X0147521Y0029388D01*
X0147611Y0029006D01*
X0147693Y0028621D01*
X0147764Y0028235D01*
X0147827Y0027848D01*
X0147880Y0027459D01*
X0147923Y0027068D01*
X0147957Y0026677D01*
X0147981Y0026285D01*
X0147995Y0025893D01*
X0148000Y0025500D01*
X0147995Y0025107D01*
X0147981Y0024715D01*
X0147957Y0024323D01*
X0147923Y0023932D01*
X0147880Y0023541D01*
X0147827Y0023152D01*
X0147764Y0022765D01*
X0147693Y0022379D01*
X0147611Y0021994D01*
X0147521Y0021612D01*
X0147420Y0021233D01*
X0147311Y0020855D01*
X0147192Y0020481D01*
X0147065Y0020110D01*
X0146928Y0019742D01*
X0146782Y0019377D01*
X0146627Y0019016D01*
X0146464Y0018659D01*
X0146292Y0018306D01*
X0146111Y0017958D01*
X0145921Y0017614D01*
X0145724Y0017274D01*
X0145518Y0016940D01*
X0145304Y0016611D01*
X0145081Y0016287D01*
X0144851Y0015969D01*
X0144614Y0015656D01*
X0144368Y0015350D01*
X0144115Y0015049D01*
X0143855Y0014755D01*
X0143588Y0014467D01*
X0143314Y0014186D01*
X0143033Y0013912D01*
X0142745Y0013645D01*
X0142451Y0013385D01*
X0142150Y0013132D01*
X0141844Y0012886D01*
X0141531Y0012649D01*
X0141213Y0012419D01*
X0140889Y0012196D01*
X0140560Y0011982D01*
X0140226Y0011776D01*
X0139886Y0011579D01*
X0139542Y0011389D01*
X0139194Y0011208D01*
X0138841Y0011036D01*
X0138484Y0010873D01*
X0138123Y0010718D01*
X0137758Y0010572D01*
X0137390Y0010435D01*
X0137019Y0010308D01*
X0136645Y0010189D01*
X0136267Y0010080D01*
X0135888Y0009979D01*
X0135506Y0009889D01*
X0135121Y0009807D01*
X0134735Y0009736D01*
X0134348Y0009673D01*
X0133959Y0009620D01*
X0133568Y0009577D01*
X0133177Y0009543D01*
X0132785Y0009519D01*
X0132393Y0009505D01*
X0132000Y0009500D01*
X0131607Y0009505D01*
X0131215Y0009519D01*
X0130823Y0009543D01*
X0130432Y0009577D01*
X0130041Y0009620D01*
X0129652Y0009673D01*
X0129265Y0009736D01*
X0128879Y0009807D01*
X0128494Y0009889D01*
X0128112Y0009979D01*
X0127733Y0010080D01*
X0127355Y0010189D01*
X0126981Y0010308D01*
X0126610Y0010435D01*
X0126242Y0010572D01*
X0125877Y0010718D01*
X0125516Y0010873D01*
X0125159Y0011036D01*
X0124806Y0011208D01*
X0124458Y0011389D01*
X0124114Y0011579D01*
X0123774Y0011776D01*
X0123440Y0011982D01*
X0123111Y0012196D01*
X0122787Y0012419D01*
X0122469Y0012649D01*
X0122156Y0012886D01*
X0121850Y0013132D01*
X0121549Y0013385D01*
X0121255Y0013645D01*
X0120967Y0013912D01*
X0120686Y0014186D01*
X0120412Y0014467D01*
X0120145Y0014755D01*
X0119885Y0015049D01*
X0119632Y0015350D01*
X0119386Y0015656D01*
X0119149Y0015969D01*
X0118919Y0016287D01*
X0118696Y0016611D01*
X0118482Y0016940D01*
X0118276Y0017274D01*
X0118079Y0017614D01*
X0117889Y0017958D01*
X0117708Y0018306D01*
X0117536Y0018659D01*
X0117373Y0019016D01*
X0117218Y0019377D01*
X0117072Y0019742D01*
X0116935Y0020110D01*
X0116808Y0020481D01*
X0116689Y0020855D01*
X0116580Y0021233D01*
X0116479Y0021612D01*
X0116389Y0021994D01*
X0116307Y0022379D01*
X0116236Y0022765D01*
X0116173Y0023152D01*
X0116120Y0023541D01*
X0116077Y0023932D01*
X0116043Y0024323D01*
X0116019Y0024715D01*
X0116005Y0025107D01*
X0116000Y0025500D01*
D13*
X0151800Y0021750D02*
X0154500Y0021750D01*
X0151800Y0021750D02*
X0151800Y0059250D01*
X0154500Y0059250D01*
X0138575Y0065382D02*
X0130465Y0065382D01*
X0115012Y0071356D02*
X0115012Y0074506D01*
X0112650Y0074506D01*
X0106350Y0074506D02*
X0103988Y0074506D01*
X0103988Y0071356D01*
X0130465Y0075618D02*
X0138575Y0075618D01*
X0151800Y0084250D02*
X0154500Y0084250D01*
X0151800Y0084250D02*
X0151800Y0121750D01*
X0154500Y0121750D01*
X0138575Y0135382D02*
X0130465Y0135382D01*
X0130465Y0145618D02*
X0138575Y0145618D01*
X0112512Y0145756D02*
X0112512Y0142606D01*
X0112512Y0145756D02*
X0110150Y0145756D01*
X0103850Y0145756D02*
X0101488Y0145756D01*
X0101488Y0142606D01*
X0184500Y0121750D02*
X0187200Y0121750D01*
X0187200Y0084250D01*
X0184500Y0084250D01*
X0184500Y0059250D02*
X0187200Y0059250D01*
X0187200Y0021750D01*
X0184500Y0021750D01*
X0010701Y0018000D02*
X0010703Y0018158D01*
X0010709Y0018316D01*
X0010719Y0018474D01*
X0010733Y0018632D01*
X0010751Y0018789D01*
X0010772Y0018946D01*
X0010798Y0019102D01*
X0010828Y0019258D01*
X0010861Y0019413D01*
X0010899Y0019566D01*
X0010940Y0019719D01*
X0010985Y0019871D01*
X0011034Y0020022D01*
X0011087Y0020171D01*
X0011143Y0020319D01*
X0011203Y0020465D01*
X0011267Y0020610D01*
X0011335Y0020753D01*
X0011406Y0020895D01*
X0011480Y0021035D01*
X0011558Y0021172D01*
X0011640Y0021308D01*
X0011724Y0021442D01*
X0011813Y0021573D01*
X0011904Y0021702D01*
X0011999Y0021829D01*
X0012096Y0021954D01*
X0012197Y0022076D01*
X0012301Y0022195D01*
X0012408Y0022312D01*
X0012518Y0022426D01*
X0012631Y0022537D01*
X0012746Y0022646D01*
X0012864Y0022751D01*
X0012985Y0022853D01*
X0013108Y0022953D01*
X0013234Y0023049D01*
X0013362Y0023142D01*
X0013492Y0023232D01*
X0013625Y0023318D01*
X0013760Y0023402D01*
X0013896Y0023481D01*
X0014035Y0023558D01*
X0014176Y0023630D01*
X0014318Y0023700D01*
X0014462Y0023765D01*
X0014608Y0023827D01*
X0014755Y0023885D01*
X0014904Y0023940D01*
X0015054Y0023991D01*
X0015205Y0024038D01*
X0015357Y0024081D01*
X0015510Y0024120D01*
X0015665Y0024156D01*
X0015820Y0024187D01*
X0015976Y0024215D01*
X0016132Y0024239D01*
X0016289Y0024259D01*
X0016447Y0024275D01*
X0016604Y0024287D01*
X0016763Y0024295D01*
X0016921Y0024299D01*
X0017079Y0024299D01*
X0017237Y0024295D01*
X0017396Y0024287D01*
X0017553Y0024275D01*
X0017711Y0024259D01*
X0017868Y0024239D01*
X0018024Y0024215D01*
X0018180Y0024187D01*
X0018335Y0024156D01*
X0018490Y0024120D01*
X0018643Y0024081D01*
X0018795Y0024038D01*
X0018946Y0023991D01*
X0019096Y0023940D01*
X0019245Y0023885D01*
X0019392Y0023827D01*
X0019538Y0023765D01*
X0019682Y0023700D01*
X0019824Y0023630D01*
X0019965Y0023558D01*
X0020104Y0023481D01*
X0020240Y0023402D01*
X0020375Y0023318D01*
X0020508Y0023232D01*
X0020638Y0023142D01*
X0020766Y0023049D01*
X0020892Y0022953D01*
X0021015Y0022853D01*
X0021136Y0022751D01*
X0021254Y0022646D01*
X0021369Y0022537D01*
X0021482Y0022426D01*
X0021592Y0022312D01*
X0021699Y0022195D01*
X0021803Y0022076D01*
X0021904Y0021954D01*
X0022001Y0021829D01*
X0022096Y0021702D01*
X0022187Y0021573D01*
X0022276Y0021442D01*
X0022360Y0021308D01*
X0022442Y0021172D01*
X0022520Y0021035D01*
X0022594Y0020895D01*
X0022665Y0020753D01*
X0022733Y0020610D01*
X0022797Y0020465D01*
X0022857Y0020319D01*
X0022913Y0020171D01*
X0022966Y0020022D01*
X0023015Y0019871D01*
X0023060Y0019719D01*
X0023101Y0019566D01*
X0023139Y0019413D01*
X0023172Y0019258D01*
X0023202Y0019102D01*
X0023228Y0018946D01*
X0023249Y0018789D01*
X0023267Y0018632D01*
X0023281Y0018474D01*
X0023291Y0018316D01*
X0023297Y0018158D01*
X0023299Y0018000D01*
X0023297Y0017842D01*
X0023291Y0017684D01*
X0023281Y0017526D01*
X0023267Y0017368D01*
X0023249Y0017211D01*
X0023228Y0017054D01*
X0023202Y0016898D01*
X0023172Y0016742D01*
X0023139Y0016587D01*
X0023101Y0016434D01*
X0023060Y0016281D01*
X0023015Y0016129D01*
X0022966Y0015978D01*
X0022913Y0015829D01*
X0022857Y0015681D01*
X0022797Y0015535D01*
X0022733Y0015390D01*
X0022665Y0015247D01*
X0022594Y0015105D01*
X0022520Y0014965D01*
X0022442Y0014828D01*
X0022360Y0014692D01*
X0022276Y0014558D01*
X0022187Y0014427D01*
X0022096Y0014298D01*
X0022001Y0014171D01*
X0021904Y0014046D01*
X0021803Y0013924D01*
X0021699Y0013805D01*
X0021592Y0013688D01*
X0021482Y0013574D01*
X0021369Y0013463D01*
X0021254Y0013354D01*
X0021136Y0013249D01*
X0021015Y0013147D01*
X0020892Y0013047D01*
X0020766Y0012951D01*
X0020638Y0012858D01*
X0020508Y0012768D01*
X0020375Y0012682D01*
X0020240Y0012598D01*
X0020104Y0012519D01*
X0019965Y0012442D01*
X0019824Y0012370D01*
X0019682Y0012300D01*
X0019538Y0012235D01*
X0019392Y0012173D01*
X0019245Y0012115D01*
X0019096Y0012060D01*
X0018946Y0012009D01*
X0018795Y0011962D01*
X0018643Y0011919D01*
X0018490Y0011880D01*
X0018335Y0011844D01*
X0018180Y0011813D01*
X0018024Y0011785D01*
X0017868Y0011761D01*
X0017711Y0011741D01*
X0017553Y0011725D01*
X0017396Y0011713D01*
X0017237Y0011705D01*
X0017079Y0011701D01*
X0016921Y0011701D01*
X0016763Y0011705D01*
X0016604Y0011713D01*
X0016447Y0011725D01*
X0016289Y0011741D01*
X0016132Y0011761D01*
X0015976Y0011785D01*
X0015820Y0011813D01*
X0015665Y0011844D01*
X0015510Y0011880D01*
X0015357Y0011919D01*
X0015205Y0011962D01*
X0015054Y0012009D01*
X0014904Y0012060D01*
X0014755Y0012115D01*
X0014608Y0012173D01*
X0014462Y0012235D01*
X0014318Y0012300D01*
X0014176Y0012370D01*
X0014035Y0012442D01*
X0013896Y0012519D01*
X0013760Y0012598D01*
X0013625Y0012682D01*
X0013492Y0012768D01*
X0013362Y0012858D01*
X0013234Y0012951D01*
X0013108Y0013047D01*
X0012985Y0013147D01*
X0012864Y0013249D01*
X0012746Y0013354D01*
X0012631Y0013463D01*
X0012518Y0013574D01*
X0012408Y0013688D01*
X0012301Y0013805D01*
X0012197Y0013924D01*
X0012096Y0014046D01*
X0011999Y0014171D01*
X0011904Y0014298D01*
X0011813Y0014427D01*
X0011724Y0014558D01*
X0011640Y0014692D01*
X0011558Y0014828D01*
X0011480Y0014965D01*
X0011406Y0015105D01*
X0011335Y0015247D01*
X0011267Y0015390D01*
X0011203Y0015535D01*
X0011143Y0015681D01*
X0011087Y0015829D01*
X0011034Y0015978D01*
X0010985Y0016129D01*
X0010940Y0016281D01*
X0010899Y0016434D01*
X0010861Y0016587D01*
X0010828Y0016742D01*
X0010798Y0016898D01*
X0010772Y0017054D01*
X0010751Y0017211D01*
X0010733Y0017368D01*
X0010719Y0017526D01*
X0010709Y0017684D01*
X0010703Y0017842D01*
X0010701Y0018000D01*
X0210701Y0143000D02*
X0210703Y0143158D01*
X0210709Y0143316D01*
X0210719Y0143474D01*
X0210733Y0143632D01*
X0210751Y0143789D01*
X0210772Y0143946D01*
X0210798Y0144102D01*
X0210828Y0144258D01*
X0210861Y0144413D01*
X0210899Y0144566D01*
X0210940Y0144719D01*
X0210985Y0144871D01*
X0211034Y0145022D01*
X0211087Y0145171D01*
X0211143Y0145319D01*
X0211203Y0145465D01*
X0211267Y0145610D01*
X0211335Y0145753D01*
X0211406Y0145895D01*
X0211480Y0146035D01*
X0211558Y0146172D01*
X0211640Y0146308D01*
X0211724Y0146442D01*
X0211813Y0146573D01*
X0211904Y0146702D01*
X0211999Y0146829D01*
X0212096Y0146954D01*
X0212197Y0147076D01*
X0212301Y0147195D01*
X0212408Y0147312D01*
X0212518Y0147426D01*
X0212631Y0147537D01*
X0212746Y0147646D01*
X0212864Y0147751D01*
X0212985Y0147853D01*
X0213108Y0147953D01*
X0213234Y0148049D01*
X0213362Y0148142D01*
X0213492Y0148232D01*
X0213625Y0148318D01*
X0213760Y0148402D01*
X0213896Y0148481D01*
X0214035Y0148558D01*
X0214176Y0148630D01*
X0214318Y0148700D01*
X0214462Y0148765D01*
X0214608Y0148827D01*
X0214755Y0148885D01*
X0214904Y0148940D01*
X0215054Y0148991D01*
X0215205Y0149038D01*
X0215357Y0149081D01*
X0215510Y0149120D01*
X0215665Y0149156D01*
X0215820Y0149187D01*
X0215976Y0149215D01*
X0216132Y0149239D01*
X0216289Y0149259D01*
X0216447Y0149275D01*
X0216604Y0149287D01*
X0216763Y0149295D01*
X0216921Y0149299D01*
X0217079Y0149299D01*
X0217237Y0149295D01*
X0217396Y0149287D01*
X0217553Y0149275D01*
X0217711Y0149259D01*
X0217868Y0149239D01*
X0218024Y0149215D01*
X0218180Y0149187D01*
X0218335Y0149156D01*
X0218490Y0149120D01*
X0218643Y0149081D01*
X0218795Y0149038D01*
X0218946Y0148991D01*
X0219096Y0148940D01*
X0219245Y0148885D01*
X0219392Y0148827D01*
X0219538Y0148765D01*
X0219682Y0148700D01*
X0219824Y0148630D01*
X0219965Y0148558D01*
X0220104Y0148481D01*
X0220240Y0148402D01*
X0220375Y0148318D01*
X0220508Y0148232D01*
X0220638Y0148142D01*
X0220766Y0148049D01*
X0220892Y0147953D01*
X0221015Y0147853D01*
X0221136Y0147751D01*
X0221254Y0147646D01*
X0221369Y0147537D01*
X0221482Y0147426D01*
X0221592Y0147312D01*
X0221699Y0147195D01*
X0221803Y0147076D01*
X0221904Y0146954D01*
X0222001Y0146829D01*
X0222096Y0146702D01*
X0222187Y0146573D01*
X0222276Y0146442D01*
X0222360Y0146308D01*
X0222442Y0146172D01*
X0222520Y0146035D01*
X0222594Y0145895D01*
X0222665Y0145753D01*
X0222733Y0145610D01*
X0222797Y0145465D01*
X0222857Y0145319D01*
X0222913Y0145171D01*
X0222966Y0145022D01*
X0223015Y0144871D01*
X0223060Y0144719D01*
X0223101Y0144566D01*
X0223139Y0144413D01*
X0223172Y0144258D01*
X0223202Y0144102D01*
X0223228Y0143946D01*
X0223249Y0143789D01*
X0223267Y0143632D01*
X0223281Y0143474D01*
X0223291Y0143316D01*
X0223297Y0143158D01*
X0223299Y0143000D01*
X0223297Y0142842D01*
X0223291Y0142684D01*
X0223281Y0142526D01*
X0223267Y0142368D01*
X0223249Y0142211D01*
X0223228Y0142054D01*
X0223202Y0141898D01*
X0223172Y0141742D01*
X0223139Y0141587D01*
X0223101Y0141434D01*
X0223060Y0141281D01*
X0223015Y0141129D01*
X0222966Y0140978D01*
X0222913Y0140829D01*
X0222857Y0140681D01*
X0222797Y0140535D01*
X0222733Y0140390D01*
X0222665Y0140247D01*
X0222594Y0140105D01*
X0222520Y0139965D01*
X0222442Y0139828D01*
X0222360Y0139692D01*
X0222276Y0139558D01*
X0222187Y0139427D01*
X0222096Y0139298D01*
X0222001Y0139171D01*
X0221904Y0139046D01*
X0221803Y0138924D01*
X0221699Y0138805D01*
X0221592Y0138688D01*
X0221482Y0138574D01*
X0221369Y0138463D01*
X0221254Y0138354D01*
X0221136Y0138249D01*
X0221015Y0138147D01*
X0220892Y0138047D01*
X0220766Y0137951D01*
X0220638Y0137858D01*
X0220508Y0137768D01*
X0220375Y0137682D01*
X0220240Y0137598D01*
X0220104Y0137519D01*
X0219965Y0137442D01*
X0219824Y0137370D01*
X0219682Y0137300D01*
X0219538Y0137235D01*
X0219392Y0137173D01*
X0219245Y0137115D01*
X0219096Y0137060D01*
X0218946Y0137009D01*
X0218795Y0136962D01*
X0218643Y0136919D01*
X0218490Y0136880D01*
X0218335Y0136844D01*
X0218180Y0136813D01*
X0218024Y0136785D01*
X0217868Y0136761D01*
X0217711Y0136741D01*
X0217553Y0136725D01*
X0217396Y0136713D01*
X0217237Y0136705D01*
X0217079Y0136701D01*
X0216921Y0136701D01*
X0216763Y0136705D01*
X0216604Y0136713D01*
X0216447Y0136725D01*
X0216289Y0136741D01*
X0216132Y0136761D01*
X0215976Y0136785D01*
X0215820Y0136813D01*
X0215665Y0136844D01*
X0215510Y0136880D01*
X0215357Y0136919D01*
X0215205Y0136962D01*
X0215054Y0137009D01*
X0214904Y0137060D01*
X0214755Y0137115D01*
X0214608Y0137173D01*
X0214462Y0137235D01*
X0214318Y0137300D01*
X0214176Y0137370D01*
X0214035Y0137442D01*
X0213896Y0137519D01*
X0213760Y0137598D01*
X0213625Y0137682D01*
X0213492Y0137768D01*
X0213362Y0137858D01*
X0213234Y0137951D01*
X0213108Y0138047D01*
X0212985Y0138147D01*
X0212864Y0138249D01*
X0212746Y0138354D01*
X0212631Y0138463D01*
X0212518Y0138574D01*
X0212408Y0138688D01*
X0212301Y0138805D01*
X0212197Y0138924D01*
X0212096Y0139046D01*
X0211999Y0139171D01*
X0211904Y0139298D01*
X0211813Y0139427D01*
X0211724Y0139558D01*
X0211640Y0139692D01*
X0211558Y0139828D01*
X0211480Y0139965D01*
X0211406Y0140105D01*
X0211335Y0140247D01*
X0211267Y0140390D01*
X0211203Y0140535D01*
X0211143Y0140681D01*
X0211087Y0140829D01*
X0211034Y0140978D01*
X0210985Y0141129D01*
X0210940Y0141281D01*
X0210899Y0141434D01*
X0210861Y0141587D01*
X0210828Y0141742D01*
X0210798Y0141898D01*
X0210772Y0142054D01*
X0210751Y0142211D01*
X0210733Y0142368D01*
X0210719Y0142526D01*
X0210709Y0142684D01*
X0210703Y0142842D01*
X0210701Y0143000D01*
D14*
X0137364Y0140500D03*
X0137364Y0070500D03*
D15*
X0202000Y0053000D02*
X0202000Y0033000D01*
X0219500Y0033000D01*
X0219500Y0053000D01*
X0227000Y0053000D01*
X0227000Y0033000D01*
X0219500Y0033000D01*
X0219500Y0053000D02*
X0202000Y0053000D01*
X0202000Y0095500D02*
X0202000Y0115500D01*
X0219500Y0115500D01*
X0219500Y0095500D01*
X0202000Y0095500D01*
X0219500Y0095500D02*
X0227000Y0095500D01*
X0227000Y0115500D01*
X0219500Y0115500D01*
X0032000Y0108000D02*
X0014500Y0108000D01*
X0014500Y0128000D01*
X0032000Y0128000D01*
X0032000Y0108000D01*
X0014500Y0108000D02*
X0007000Y0108000D01*
X0007000Y0128000D01*
X0014500Y0128000D01*
X0014500Y0148000D01*
X0032000Y0148000D01*
X0032000Y0128000D01*
X0014500Y0128000D01*
X0007000Y0128000D01*
X0007000Y0148000D01*
X0014500Y0148000D01*
X0021803Y0090756D02*
X0026724Y0088000D01*
X0021803Y0085244D01*
X0021803Y0090756D01*
X0014500Y0080500D02*
X0014500Y0060500D01*
X0007000Y0060500D01*
X0007000Y0080500D01*
X0014500Y0080500D01*
X0032000Y0080500D01*
X0032000Y0060500D01*
X0014500Y0060500D01*
X0014500Y0055500D02*
X0014500Y0035500D01*
X0007000Y0035500D01*
X0007000Y0055500D01*
X0014500Y0055500D01*
X0032000Y0055500D01*
X0032000Y0035500D01*
X0014500Y0035500D01*
D16*
X0033596Y0037285D02*
X0035031Y0035850D01*
X0037900Y0035850D01*
X0035748Y0035850D02*
X0035748Y0038719D01*
X0035031Y0038719D02*
X0033596Y0037285D01*
X0035031Y0038719D02*
X0037900Y0038719D01*
X0037183Y0040454D02*
X0037900Y0041171D01*
X0037900Y0042606D01*
X0037183Y0043323D01*
X0034314Y0043323D02*
X0033596Y0042606D01*
X0033596Y0041171D01*
X0034314Y0040454D01*
X0037183Y0040454D01*
X0037900Y0049662D02*
X0037900Y0051096D01*
X0037900Y0050379D02*
X0033596Y0050379D01*
X0033596Y0049662D02*
X0033596Y0051096D01*
X0033596Y0052731D02*
X0037900Y0055600D01*
X0033596Y0055600D01*
X0033596Y0052731D02*
X0037900Y0052731D01*
X0035748Y0064600D02*
X0035748Y0067469D01*
X0035748Y0069204D02*
X0033596Y0069204D01*
X0033596Y0072073D01*
X0035031Y0071356D02*
X0035748Y0072073D01*
X0037183Y0072073D01*
X0037900Y0071356D01*
X0037900Y0069921D01*
X0037183Y0069204D01*
X0035748Y0069204D02*
X0035031Y0070638D01*
X0035031Y0071356D01*
X0036465Y0073808D02*
X0033596Y0073808D01*
X0033596Y0076677D02*
X0036465Y0076677D01*
X0037900Y0075242D01*
X0036465Y0073808D01*
X0037183Y0066035D02*
X0034314Y0066035D01*
D17*
X0052000Y0029250D02*
X0057000Y0029250D01*
X0050750Y0014250D02*
X0045750Y0014250D01*
X0142000Y0058000D02*
X0142000Y0063000D01*
X0148790Y0064652D02*
X0150058Y0064652D01*
X0149424Y0064652D02*
X0149424Y0062750D01*
X0151000Y0062750D02*
X0152268Y0064018D01*
X0152268Y0064335D01*
X0151951Y0064652D01*
X0151317Y0064652D01*
X0151000Y0064335D01*
X0151000Y0062750D02*
X0152268Y0062750D01*
X0192000Y0050500D02*
X0197000Y0050500D01*
X0197000Y0113000D02*
X0192000Y0113000D01*
X0153518Y0125250D02*
X0152250Y0125250D01*
X0152884Y0125250D02*
X0152884Y0127152D01*
X0152250Y0126518D01*
X0151308Y0127152D02*
X0150040Y0127152D01*
X0150674Y0127152D02*
X0150674Y0125250D01*
X0142000Y0128000D02*
X0142000Y0133000D01*
D18*
X0026921Y0088000D03*
D19*
X0013909Y0095638D03*
X0013909Y0100362D03*
D20*
X0013909Y0098000D03*
M02*
