G75*
%MOIN*%
%OFA0B0*%
%FSLAX25Y25*%
%IPPOS*%
%LPD*%
%AMOC8*
5,1,8,0,0,1.08239X$1,22.5*
%
%ADD10C,0.00000*%
%ADD11C,0.00700*%
%ADD12C,0.00600*%
%ADD13C,0.00400*%
%ADD14R,0.01650X0.00150*%
%ADD15R,0.00900X0.00150*%
%ADD16R,0.01200X0.00150*%
%ADD17R,0.01050X0.00150*%
%ADD18R,0.00750X0.00150*%
%ADD19R,0.01950X0.00150*%
%ADD20R,0.02100X0.00150*%
%ADD21R,0.02400X0.00150*%
%ADD22R,0.00600X0.00150*%
%ADD23R,0.00300X0.00150*%
%ADD24R,0.01500X0.00150*%
%ADD25R,0.01800X0.00150*%
%ADD26R,0.02250X0.00150*%
%ADD27R,0.02550X0.00150*%
%ADD28R,0.03000X0.00150*%
%ADD29R,0.03300X0.00150*%
%ADD30R,0.02850X0.00150*%
%ADD31R,0.01350X0.00150*%
%ADD32R,0.02700X0.00150*%
%ADD33R,0.00150X0.00150*%
%ADD34R,0.00450X0.00150*%
%ADD35R,0.03900X0.00150*%
%ADD36R,0.04350X0.00150*%
%ADD37R,0.04650X0.00150*%
%ADD38R,0.04950X0.00150*%
%ADD39R,0.03150X0.00150*%
%ADD40R,0.05550X0.00150*%
%ADD41R,0.06150X0.00150*%
%ADD42R,0.06450X0.00150*%
%ADD43R,0.06600X0.00150*%
%ADD44R,0.07050X0.00150*%
%ADD45R,0.03600X0.00150*%
%ADD46R,0.05400X0.00150*%
%ADD47R,0.06300X0.00150*%
%ADD48R,0.04500X0.00150*%
%ADD49R,0.07650X0.00150*%
%ADD50R,0.10500X0.00150*%
%ADD51R,0.03750X0.00150*%
%ADD52R,0.03450X0.00150*%
%ADD53R,0.04050X0.00150*%
%ADD54R,0.07200X0.00150*%
%ADD55R,0.06900X0.00150*%
%ADD56R,0.05100X0.00150*%
%ADD57R,0.04800X0.00150*%
%ADD58R,0.04200X0.00150*%
%ADD59R,0.05700X0.00150*%
%ADD60R,0.06750X0.00150*%
%ADD61R,0.08250X0.00150*%
%ADD62R,0.09150X0.00150*%
%ADD63R,0.05250X0.00150*%
%ADD64R,0.07350X0.00150*%
%ADD65R,0.07950X0.00150*%
%ADD66R,0.07500X0.00150*%
%ADD67R,0.11850X0.00150*%
%ADD68R,0.13350X0.00150*%
%ADD69R,0.13200X0.00150*%
%ADD70R,0.06000X0.00150*%
%ADD71R,0.05850X0.00150*%
%ADD72R,0.08100X0.00150*%
D10*
X0016500Y0005500D02*
X0217500Y0005500D01*
X0217790Y0005504D01*
X0218080Y0005514D01*
X0218369Y0005532D01*
X0218658Y0005556D01*
X0218946Y0005587D01*
X0219234Y0005626D01*
X0219520Y0005671D01*
X0219806Y0005724D01*
X0220089Y0005783D01*
X0220372Y0005849D01*
X0220652Y0005921D01*
X0220931Y0006001D01*
X0221208Y0006087D01*
X0221483Y0006180D01*
X0221755Y0006280D01*
X0222025Y0006386D01*
X0222292Y0006498D01*
X0222557Y0006618D01*
X0222818Y0006743D01*
X0223077Y0006875D01*
X0223332Y0007012D01*
X0223584Y0007156D01*
X0223832Y0007306D01*
X0224076Y0007462D01*
X0224317Y0007624D01*
X0224553Y0007792D01*
X0224786Y0007965D01*
X0225014Y0008144D01*
X0225238Y0008328D01*
X0225457Y0008518D01*
X0225672Y0008713D01*
X0225882Y0008913D01*
X0226087Y0009118D01*
X0226287Y0009328D01*
X0226482Y0009543D01*
X0226672Y0009762D01*
X0226856Y0009986D01*
X0227035Y0010214D01*
X0227208Y0010447D01*
X0227376Y0010683D01*
X0227538Y0010924D01*
X0227694Y0011168D01*
X0227844Y0011416D01*
X0227988Y0011668D01*
X0228125Y0011923D01*
X0228257Y0012182D01*
X0228382Y0012443D01*
X0228502Y0012708D01*
X0228614Y0012975D01*
X0228720Y0013245D01*
X0228820Y0013517D01*
X0228913Y0013792D01*
X0228999Y0014069D01*
X0229079Y0014348D01*
X0229151Y0014628D01*
X0229217Y0014911D01*
X0229276Y0015194D01*
X0229329Y0015480D01*
X0229374Y0015766D01*
X0229413Y0016054D01*
X0229444Y0016342D01*
X0229468Y0016631D01*
X0229486Y0016920D01*
X0229496Y0017210D01*
X0229500Y0017500D01*
X0229500Y0143500D01*
X0229496Y0143790D01*
X0229486Y0144080D01*
X0229468Y0144369D01*
X0229444Y0144658D01*
X0229413Y0144946D01*
X0229374Y0145234D01*
X0229329Y0145520D01*
X0229276Y0145806D01*
X0229217Y0146089D01*
X0229151Y0146372D01*
X0229079Y0146652D01*
X0228999Y0146931D01*
X0228913Y0147208D01*
X0228820Y0147483D01*
X0228720Y0147755D01*
X0228614Y0148025D01*
X0228502Y0148292D01*
X0228382Y0148557D01*
X0228257Y0148818D01*
X0228125Y0149077D01*
X0227988Y0149332D01*
X0227844Y0149584D01*
X0227694Y0149832D01*
X0227538Y0150076D01*
X0227376Y0150317D01*
X0227208Y0150553D01*
X0227035Y0150786D01*
X0226856Y0151014D01*
X0226672Y0151238D01*
X0226482Y0151457D01*
X0226287Y0151672D01*
X0226087Y0151882D01*
X0225882Y0152087D01*
X0225672Y0152287D01*
X0225457Y0152482D01*
X0225238Y0152672D01*
X0225014Y0152856D01*
X0224786Y0153035D01*
X0224553Y0153208D01*
X0224317Y0153376D01*
X0224076Y0153538D01*
X0223832Y0153694D01*
X0223584Y0153844D01*
X0223332Y0153988D01*
X0223077Y0154125D01*
X0222818Y0154257D01*
X0222557Y0154382D01*
X0222292Y0154502D01*
X0222025Y0154614D01*
X0221755Y0154720D01*
X0221483Y0154820D01*
X0221208Y0154913D01*
X0220931Y0154999D01*
X0220652Y0155079D01*
X0220372Y0155151D01*
X0220089Y0155217D01*
X0219806Y0155276D01*
X0219520Y0155329D01*
X0219234Y0155374D01*
X0218946Y0155413D01*
X0218658Y0155444D01*
X0218369Y0155468D01*
X0218080Y0155486D01*
X0217790Y0155496D01*
X0217500Y0155500D01*
X0016500Y0155500D01*
X0016210Y0155496D01*
X0015920Y0155486D01*
X0015631Y0155468D01*
X0015342Y0155444D01*
X0015054Y0155413D01*
X0014766Y0155374D01*
X0014480Y0155329D01*
X0014194Y0155276D01*
X0013911Y0155217D01*
X0013628Y0155151D01*
X0013348Y0155079D01*
X0013069Y0154999D01*
X0012792Y0154913D01*
X0012517Y0154820D01*
X0012245Y0154720D01*
X0011975Y0154614D01*
X0011708Y0154502D01*
X0011443Y0154382D01*
X0011182Y0154257D01*
X0010923Y0154125D01*
X0010668Y0153988D01*
X0010416Y0153844D01*
X0010168Y0153694D01*
X0009924Y0153538D01*
X0009683Y0153376D01*
X0009447Y0153208D01*
X0009214Y0153035D01*
X0008986Y0152856D01*
X0008762Y0152672D01*
X0008543Y0152482D01*
X0008328Y0152287D01*
X0008118Y0152087D01*
X0007913Y0151882D01*
X0007713Y0151672D01*
X0007518Y0151457D01*
X0007328Y0151238D01*
X0007144Y0151014D01*
X0006965Y0150786D01*
X0006792Y0150553D01*
X0006624Y0150317D01*
X0006462Y0150076D01*
X0006306Y0149832D01*
X0006156Y0149584D01*
X0006012Y0149332D01*
X0005875Y0149077D01*
X0005743Y0148818D01*
X0005618Y0148557D01*
X0005498Y0148292D01*
X0005386Y0148025D01*
X0005280Y0147755D01*
X0005180Y0147483D01*
X0005087Y0147208D01*
X0005001Y0146931D01*
X0004921Y0146652D01*
X0004849Y0146372D01*
X0004783Y0146089D01*
X0004724Y0145806D01*
X0004671Y0145520D01*
X0004626Y0145234D01*
X0004587Y0144946D01*
X0004556Y0144658D01*
X0004532Y0144369D01*
X0004514Y0144080D01*
X0004504Y0143790D01*
X0004500Y0143500D01*
X0004500Y0017500D01*
X0004504Y0017210D01*
X0004514Y0016920D01*
X0004532Y0016631D01*
X0004556Y0016342D01*
X0004587Y0016054D01*
X0004626Y0015766D01*
X0004671Y0015480D01*
X0004724Y0015194D01*
X0004783Y0014911D01*
X0004849Y0014628D01*
X0004921Y0014348D01*
X0005001Y0014069D01*
X0005087Y0013792D01*
X0005180Y0013517D01*
X0005280Y0013245D01*
X0005386Y0012975D01*
X0005498Y0012708D01*
X0005618Y0012443D01*
X0005743Y0012182D01*
X0005875Y0011923D01*
X0006012Y0011668D01*
X0006156Y0011416D01*
X0006306Y0011168D01*
X0006462Y0010924D01*
X0006624Y0010683D01*
X0006792Y0010447D01*
X0006965Y0010214D01*
X0007144Y0009986D01*
X0007328Y0009762D01*
X0007518Y0009543D01*
X0007713Y0009328D01*
X0007913Y0009118D01*
X0008118Y0008913D01*
X0008328Y0008713D01*
X0008543Y0008518D01*
X0008762Y0008328D01*
X0008986Y0008144D01*
X0009214Y0007965D01*
X0009447Y0007792D01*
X0009683Y0007624D01*
X0009924Y0007462D01*
X0010168Y0007306D01*
X0010416Y0007156D01*
X0010668Y0007012D01*
X0010923Y0006875D01*
X0011182Y0006743D01*
X0011443Y0006618D01*
X0011708Y0006498D01*
X0011975Y0006386D01*
X0012245Y0006280D01*
X0012517Y0006180D01*
X0012792Y0006087D01*
X0013069Y0006001D01*
X0013348Y0005921D01*
X0013628Y0005849D01*
X0013911Y0005783D01*
X0014194Y0005724D01*
X0014480Y0005671D01*
X0014766Y0005626D01*
X0015054Y0005587D01*
X0015342Y0005556D01*
X0015631Y0005532D01*
X0015920Y0005514D01*
X0016210Y0005504D01*
X0016500Y0005500D01*
X0011094Y0018000D02*
X0011096Y0018153D01*
X0011102Y0018307D01*
X0011112Y0018460D01*
X0011126Y0018612D01*
X0011144Y0018765D01*
X0011166Y0018916D01*
X0011191Y0019067D01*
X0011221Y0019218D01*
X0011255Y0019368D01*
X0011292Y0019516D01*
X0011333Y0019664D01*
X0011378Y0019810D01*
X0011427Y0019956D01*
X0011480Y0020100D01*
X0011536Y0020242D01*
X0011596Y0020383D01*
X0011660Y0020523D01*
X0011727Y0020661D01*
X0011798Y0020797D01*
X0011873Y0020931D01*
X0011950Y0021063D01*
X0012032Y0021193D01*
X0012116Y0021321D01*
X0012204Y0021447D01*
X0012295Y0021570D01*
X0012389Y0021691D01*
X0012487Y0021809D01*
X0012587Y0021925D01*
X0012691Y0022038D01*
X0012797Y0022149D01*
X0012906Y0022257D01*
X0013018Y0022362D01*
X0013132Y0022463D01*
X0013250Y0022562D01*
X0013369Y0022658D01*
X0013491Y0022751D01*
X0013616Y0022840D01*
X0013743Y0022927D01*
X0013872Y0023009D01*
X0014003Y0023089D01*
X0014136Y0023165D01*
X0014271Y0023238D01*
X0014408Y0023307D01*
X0014547Y0023372D01*
X0014687Y0023434D01*
X0014829Y0023492D01*
X0014972Y0023547D01*
X0015117Y0023598D01*
X0015263Y0023645D01*
X0015410Y0023688D01*
X0015558Y0023727D01*
X0015707Y0023763D01*
X0015857Y0023794D01*
X0016008Y0023822D01*
X0016159Y0023846D01*
X0016312Y0023866D01*
X0016464Y0023882D01*
X0016617Y0023894D01*
X0016770Y0023902D01*
X0016923Y0023906D01*
X0017077Y0023906D01*
X0017230Y0023902D01*
X0017383Y0023894D01*
X0017536Y0023882D01*
X0017688Y0023866D01*
X0017841Y0023846D01*
X0017992Y0023822D01*
X0018143Y0023794D01*
X0018293Y0023763D01*
X0018442Y0023727D01*
X0018590Y0023688D01*
X0018737Y0023645D01*
X0018883Y0023598D01*
X0019028Y0023547D01*
X0019171Y0023492D01*
X0019313Y0023434D01*
X0019453Y0023372D01*
X0019592Y0023307D01*
X0019729Y0023238D01*
X0019864Y0023165D01*
X0019997Y0023089D01*
X0020128Y0023009D01*
X0020257Y0022927D01*
X0020384Y0022840D01*
X0020509Y0022751D01*
X0020631Y0022658D01*
X0020750Y0022562D01*
X0020868Y0022463D01*
X0020982Y0022362D01*
X0021094Y0022257D01*
X0021203Y0022149D01*
X0021309Y0022038D01*
X0021413Y0021925D01*
X0021513Y0021809D01*
X0021611Y0021691D01*
X0021705Y0021570D01*
X0021796Y0021447D01*
X0021884Y0021321D01*
X0021968Y0021193D01*
X0022050Y0021063D01*
X0022127Y0020931D01*
X0022202Y0020797D01*
X0022273Y0020661D01*
X0022340Y0020523D01*
X0022404Y0020383D01*
X0022464Y0020242D01*
X0022520Y0020100D01*
X0022573Y0019956D01*
X0022622Y0019810D01*
X0022667Y0019664D01*
X0022708Y0019516D01*
X0022745Y0019368D01*
X0022779Y0019218D01*
X0022809Y0019067D01*
X0022834Y0018916D01*
X0022856Y0018765D01*
X0022874Y0018612D01*
X0022888Y0018460D01*
X0022898Y0018307D01*
X0022904Y0018153D01*
X0022906Y0018000D01*
X0022904Y0017847D01*
X0022898Y0017693D01*
X0022888Y0017540D01*
X0022874Y0017388D01*
X0022856Y0017235D01*
X0022834Y0017084D01*
X0022809Y0016933D01*
X0022779Y0016782D01*
X0022745Y0016632D01*
X0022708Y0016484D01*
X0022667Y0016336D01*
X0022622Y0016190D01*
X0022573Y0016044D01*
X0022520Y0015900D01*
X0022464Y0015758D01*
X0022404Y0015617D01*
X0022340Y0015477D01*
X0022273Y0015339D01*
X0022202Y0015203D01*
X0022127Y0015069D01*
X0022050Y0014937D01*
X0021968Y0014807D01*
X0021884Y0014679D01*
X0021796Y0014553D01*
X0021705Y0014430D01*
X0021611Y0014309D01*
X0021513Y0014191D01*
X0021413Y0014075D01*
X0021309Y0013962D01*
X0021203Y0013851D01*
X0021094Y0013743D01*
X0020982Y0013638D01*
X0020868Y0013537D01*
X0020750Y0013438D01*
X0020631Y0013342D01*
X0020509Y0013249D01*
X0020384Y0013160D01*
X0020257Y0013073D01*
X0020128Y0012991D01*
X0019997Y0012911D01*
X0019864Y0012835D01*
X0019729Y0012762D01*
X0019592Y0012693D01*
X0019453Y0012628D01*
X0019313Y0012566D01*
X0019171Y0012508D01*
X0019028Y0012453D01*
X0018883Y0012402D01*
X0018737Y0012355D01*
X0018590Y0012312D01*
X0018442Y0012273D01*
X0018293Y0012237D01*
X0018143Y0012206D01*
X0017992Y0012178D01*
X0017841Y0012154D01*
X0017688Y0012134D01*
X0017536Y0012118D01*
X0017383Y0012106D01*
X0017230Y0012098D01*
X0017077Y0012094D01*
X0016923Y0012094D01*
X0016770Y0012098D01*
X0016617Y0012106D01*
X0016464Y0012118D01*
X0016312Y0012134D01*
X0016159Y0012154D01*
X0016008Y0012178D01*
X0015857Y0012206D01*
X0015707Y0012237D01*
X0015558Y0012273D01*
X0015410Y0012312D01*
X0015263Y0012355D01*
X0015117Y0012402D01*
X0014972Y0012453D01*
X0014829Y0012508D01*
X0014687Y0012566D01*
X0014547Y0012628D01*
X0014408Y0012693D01*
X0014271Y0012762D01*
X0014136Y0012835D01*
X0014003Y0012911D01*
X0013872Y0012991D01*
X0013743Y0013073D01*
X0013616Y0013160D01*
X0013491Y0013249D01*
X0013369Y0013342D01*
X0013250Y0013438D01*
X0013132Y0013537D01*
X0013018Y0013638D01*
X0012906Y0013743D01*
X0012797Y0013851D01*
X0012691Y0013962D01*
X0012587Y0014075D01*
X0012487Y0014191D01*
X0012389Y0014309D01*
X0012295Y0014430D01*
X0012204Y0014553D01*
X0012116Y0014679D01*
X0012032Y0014807D01*
X0011950Y0014937D01*
X0011873Y0015069D01*
X0011798Y0015203D01*
X0011727Y0015339D01*
X0011660Y0015477D01*
X0011596Y0015617D01*
X0011536Y0015758D01*
X0011480Y0015900D01*
X0011427Y0016044D01*
X0011378Y0016190D01*
X0011333Y0016336D01*
X0011292Y0016484D01*
X0011255Y0016632D01*
X0011221Y0016782D01*
X0011191Y0016933D01*
X0011166Y0017084D01*
X0011144Y0017235D01*
X0011126Y0017388D01*
X0011112Y0017540D01*
X0011102Y0017693D01*
X0011096Y0017847D01*
X0011094Y0018000D01*
X0211094Y0143000D02*
X0211096Y0143153D01*
X0211102Y0143307D01*
X0211112Y0143460D01*
X0211126Y0143612D01*
X0211144Y0143765D01*
X0211166Y0143916D01*
X0211191Y0144067D01*
X0211221Y0144218D01*
X0211255Y0144368D01*
X0211292Y0144516D01*
X0211333Y0144664D01*
X0211378Y0144810D01*
X0211427Y0144956D01*
X0211480Y0145100D01*
X0211536Y0145242D01*
X0211596Y0145383D01*
X0211660Y0145523D01*
X0211727Y0145661D01*
X0211798Y0145797D01*
X0211873Y0145931D01*
X0211950Y0146063D01*
X0212032Y0146193D01*
X0212116Y0146321D01*
X0212204Y0146447D01*
X0212295Y0146570D01*
X0212389Y0146691D01*
X0212487Y0146809D01*
X0212587Y0146925D01*
X0212691Y0147038D01*
X0212797Y0147149D01*
X0212906Y0147257D01*
X0213018Y0147362D01*
X0213132Y0147463D01*
X0213250Y0147562D01*
X0213369Y0147658D01*
X0213491Y0147751D01*
X0213616Y0147840D01*
X0213743Y0147927D01*
X0213872Y0148009D01*
X0214003Y0148089D01*
X0214136Y0148165D01*
X0214271Y0148238D01*
X0214408Y0148307D01*
X0214547Y0148372D01*
X0214687Y0148434D01*
X0214829Y0148492D01*
X0214972Y0148547D01*
X0215117Y0148598D01*
X0215263Y0148645D01*
X0215410Y0148688D01*
X0215558Y0148727D01*
X0215707Y0148763D01*
X0215857Y0148794D01*
X0216008Y0148822D01*
X0216159Y0148846D01*
X0216312Y0148866D01*
X0216464Y0148882D01*
X0216617Y0148894D01*
X0216770Y0148902D01*
X0216923Y0148906D01*
X0217077Y0148906D01*
X0217230Y0148902D01*
X0217383Y0148894D01*
X0217536Y0148882D01*
X0217688Y0148866D01*
X0217841Y0148846D01*
X0217992Y0148822D01*
X0218143Y0148794D01*
X0218293Y0148763D01*
X0218442Y0148727D01*
X0218590Y0148688D01*
X0218737Y0148645D01*
X0218883Y0148598D01*
X0219028Y0148547D01*
X0219171Y0148492D01*
X0219313Y0148434D01*
X0219453Y0148372D01*
X0219592Y0148307D01*
X0219729Y0148238D01*
X0219864Y0148165D01*
X0219997Y0148089D01*
X0220128Y0148009D01*
X0220257Y0147927D01*
X0220384Y0147840D01*
X0220509Y0147751D01*
X0220631Y0147658D01*
X0220750Y0147562D01*
X0220868Y0147463D01*
X0220982Y0147362D01*
X0221094Y0147257D01*
X0221203Y0147149D01*
X0221309Y0147038D01*
X0221413Y0146925D01*
X0221513Y0146809D01*
X0221611Y0146691D01*
X0221705Y0146570D01*
X0221796Y0146447D01*
X0221884Y0146321D01*
X0221968Y0146193D01*
X0222050Y0146063D01*
X0222127Y0145931D01*
X0222202Y0145797D01*
X0222273Y0145661D01*
X0222340Y0145523D01*
X0222404Y0145383D01*
X0222464Y0145242D01*
X0222520Y0145100D01*
X0222573Y0144956D01*
X0222622Y0144810D01*
X0222667Y0144664D01*
X0222708Y0144516D01*
X0222745Y0144368D01*
X0222779Y0144218D01*
X0222809Y0144067D01*
X0222834Y0143916D01*
X0222856Y0143765D01*
X0222874Y0143612D01*
X0222888Y0143460D01*
X0222898Y0143307D01*
X0222904Y0143153D01*
X0222906Y0143000D01*
X0222904Y0142847D01*
X0222898Y0142693D01*
X0222888Y0142540D01*
X0222874Y0142388D01*
X0222856Y0142235D01*
X0222834Y0142084D01*
X0222809Y0141933D01*
X0222779Y0141782D01*
X0222745Y0141632D01*
X0222708Y0141484D01*
X0222667Y0141336D01*
X0222622Y0141190D01*
X0222573Y0141044D01*
X0222520Y0140900D01*
X0222464Y0140758D01*
X0222404Y0140617D01*
X0222340Y0140477D01*
X0222273Y0140339D01*
X0222202Y0140203D01*
X0222127Y0140069D01*
X0222050Y0139937D01*
X0221968Y0139807D01*
X0221884Y0139679D01*
X0221796Y0139553D01*
X0221705Y0139430D01*
X0221611Y0139309D01*
X0221513Y0139191D01*
X0221413Y0139075D01*
X0221309Y0138962D01*
X0221203Y0138851D01*
X0221094Y0138743D01*
X0220982Y0138638D01*
X0220868Y0138537D01*
X0220750Y0138438D01*
X0220631Y0138342D01*
X0220509Y0138249D01*
X0220384Y0138160D01*
X0220257Y0138073D01*
X0220128Y0137991D01*
X0219997Y0137911D01*
X0219864Y0137835D01*
X0219729Y0137762D01*
X0219592Y0137693D01*
X0219453Y0137628D01*
X0219313Y0137566D01*
X0219171Y0137508D01*
X0219028Y0137453D01*
X0218883Y0137402D01*
X0218737Y0137355D01*
X0218590Y0137312D01*
X0218442Y0137273D01*
X0218293Y0137237D01*
X0218143Y0137206D01*
X0217992Y0137178D01*
X0217841Y0137154D01*
X0217688Y0137134D01*
X0217536Y0137118D01*
X0217383Y0137106D01*
X0217230Y0137098D01*
X0217077Y0137094D01*
X0216923Y0137094D01*
X0216770Y0137098D01*
X0216617Y0137106D01*
X0216464Y0137118D01*
X0216312Y0137134D01*
X0216159Y0137154D01*
X0216008Y0137178D01*
X0215857Y0137206D01*
X0215707Y0137237D01*
X0215558Y0137273D01*
X0215410Y0137312D01*
X0215263Y0137355D01*
X0215117Y0137402D01*
X0214972Y0137453D01*
X0214829Y0137508D01*
X0214687Y0137566D01*
X0214547Y0137628D01*
X0214408Y0137693D01*
X0214271Y0137762D01*
X0214136Y0137835D01*
X0214003Y0137911D01*
X0213872Y0137991D01*
X0213743Y0138073D01*
X0213616Y0138160D01*
X0213491Y0138249D01*
X0213369Y0138342D01*
X0213250Y0138438D01*
X0213132Y0138537D01*
X0213018Y0138638D01*
X0212906Y0138743D01*
X0212797Y0138851D01*
X0212691Y0138962D01*
X0212587Y0139075D01*
X0212487Y0139191D01*
X0212389Y0139309D01*
X0212295Y0139430D01*
X0212204Y0139553D01*
X0212116Y0139679D01*
X0212032Y0139807D01*
X0211950Y0139937D01*
X0211873Y0140069D01*
X0211798Y0140203D01*
X0211727Y0140339D01*
X0211660Y0140477D01*
X0211596Y0140617D01*
X0211536Y0140758D01*
X0211480Y0140900D01*
X0211427Y0141044D01*
X0211378Y0141190D01*
X0211333Y0141336D01*
X0211292Y0141484D01*
X0211255Y0141632D01*
X0211221Y0141782D01*
X0211191Y0141933D01*
X0211166Y0142084D01*
X0211144Y0142235D01*
X0211126Y0142388D01*
X0211112Y0142540D01*
X0211102Y0142693D01*
X0211096Y0142847D01*
X0211094Y0143000D01*
D11*
X0050400Y0070502D02*
X0047531Y0070502D01*
X0045796Y0070502D02*
X0045796Y0072654D01*
X0042927Y0072654D01*
X0043644Y0071219D02*
X0042927Y0070502D01*
X0042927Y0069067D01*
X0043644Y0068350D01*
X0045079Y0068350D01*
X0045796Y0069067D01*
X0045796Y0070502D02*
X0044362Y0071219D01*
X0043644Y0071219D01*
X0041192Y0069785D02*
X0039758Y0068350D01*
X0038323Y0069785D01*
X0038323Y0072654D01*
X0041192Y0072654D02*
X0041192Y0069785D01*
X0048965Y0069067D02*
X0048965Y0071936D01*
X0032900Y0074252D02*
X0030031Y0074252D01*
X0031465Y0068186D02*
X0031465Y0065317D01*
X0030031Y0066752D02*
X0032900Y0066752D01*
X0032654Y0047654D02*
X0034088Y0047654D01*
X0033371Y0047654D02*
X0033371Y0043350D01*
X0034088Y0043350D02*
X0032654Y0043350D01*
X0031019Y0043350D02*
X0031019Y0047654D01*
X0028150Y0043350D01*
X0028150Y0047654D01*
X0040427Y0046936D02*
X0041144Y0047654D01*
X0042579Y0047654D01*
X0043296Y0046936D01*
X0043296Y0044067D01*
X0042579Y0043350D01*
X0041144Y0043350D01*
X0040427Y0044067D01*
X0045031Y0043350D02*
X0045031Y0046219D01*
X0046465Y0047654D01*
X0047900Y0046219D01*
X0047900Y0043350D01*
X0047900Y0045502D02*
X0045031Y0045502D01*
X0031465Y0112817D02*
X0031465Y0115686D01*
X0030031Y0114252D02*
X0032900Y0114252D01*
X0032900Y0121752D02*
X0030031Y0121752D01*
X0031465Y0132817D02*
X0031465Y0135686D01*
X0030031Y0134252D02*
X0032900Y0134252D01*
X0032900Y0141752D02*
X0030031Y0141752D01*
D12*
X0035815Y0119203D02*
X0035815Y0115800D01*
X0038084Y0119203D01*
X0038084Y0115800D01*
X0039498Y0116367D02*
X0039498Y0119203D01*
X0041767Y0119203D02*
X0041767Y0116367D01*
X0041200Y0115800D01*
X0040065Y0115800D01*
X0039498Y0116367D01*
X0043181Y0115800D02*
X0044316Y0116934D01*
X0043749Y0116934D02*
X0045450Y0116934D01*
X0045450Y0115800D02*
X0045450Y0119203D01*
X0043749Y0119203D01*
X0043181Y0118636D01*
X0043181Y0117501D01*
X0043749Y0116934D01*
D13*
X0042136Y0136950D02*
X0041202Y0136950D01*
X0040735Y0137417D01*
X0039657Y0136950D02*
X0039657Y0139752D01*
X0040735Y0139285D02*
X0041202Y0139752D01*
X0042136Y0139752D01*
X0042603Y0139285D01*
X0042603Y0137417D01*
X0042136Y0136950D01*
X0043682Y0138351D02*
X0044149Y0137884D01*
X0045550Y0137884D01*
X0045550Y0136950D02*
X0045550Y0139752D01*
X0044149Y0139752D01*
X0043682Y0139285D01*
X0043682Y0138351D01*
X0039657Y0138351D02*
X0037789Y0138351D01*
X0037789Y0139752D02*
X0037789Y0136950D01*
X0036710Y0137417D02*
X0036243Y0136950D01*
X0035309Y0136950D01*
X0034842Y0137417D01*
X0034842Y0138351D01*
X0035776Y0138351D01*
X0034842Y0139285D02*
X0035309Y0139752D01*
X0036243Y0139752D01*
X0036710Y0139285D01*
X0036710Y0137417D01*
D14*
X0150300Y0078400D03*
X0150600Y0078550D03*
X0157650Y0080350D03*
X0164400Y0073450D03*
X0164550Y0073150D03*
X0162000Y0068650D03*
X0162000Y0068500D03*
X0162000Y0068350D03*
X0162900Y0065500D03*
X0162900Y0065350D03*
X0158700Y0063700D03*
X0156600Y0064600D03*
X0153750Y0065800D03*
X0153750Y0065950D03*
X0153750Y0066100D03*
X0153750Y0066250D03*
X0153750Y0066400D03*
X0153750Y0066550D03*
X0152850Y0065500D03*
X0158100Y0067900D03*
X0158250Y0068200D03*
X0158250Y0068350D03*
X0152400Y0070600D03*
X0152550Y0071050D03*
X0152850Y0071950D03*
X0168600Y0064300D03*
X0168600Y0064150D03*
X0171000Y0064900D03*
X0173550Y0065800D03*
X0173550Y0065950D03*
X0173550Y0066100D03*
X0177750Y0068650D03*
X0177750Y0068800D03*
X0177600Y0069100D03*
X0177600Y0069250D03*
X0177450Y0069550D03*
X0177450Y0069700D03*
X0177450Y0069850D03*
X0177300Y0070000D03*
X0177300Y0070150D03*
X0177150Y0070450D03*
X0177150Y0070600D03*
X0177000Y0070900D03*
X0170100Y0068650D03*
X0170100Y0068500D03*
X0170100Y0068350D03*
X0174300Y0062800D03*
X0176250Y0062500D03*
X0172800Y0059200D03*
X0172500Y0059350D03*
X0173850Y0056350D03*
X0177450Y0048250D03*
X0177450Y0048100D03*
X0177450Y0047950D03*
X0177450Y0047800D03*
X0173250Y0047800D03*
X0173100Y0047650D03*
X0172800Y0047500D03*
X0172350Y0047200D03*
X0172050Y0047050D03*
X0171750Y0046900D03*
X0171300Y0046600D03*
X0167850Y0047950D03*
X0165000Y0043150D03*
X0164550Y0041650D03*
X0164550Y0041500D03*
X0164550Y0041350D03*
X0164550Y0041200D03*
X0164550Y0041050D03*
X0164550Y0040900D03*
X0163800Y0038800D03*
X0162150Y0040150D03*
X0162000Y0040300D03*
X0161700Y0040450D03*
X0161550Y0040600D03*
X0161400Y0040750D03*
X0160950Y0041050D03*
X0160800Y0041200D03*
X0160500Y0041350D03*
X0160350Y0041500D03*
X0160050Y0041650D03*
X0156450Y0044350D03*
X0155850Y0046300D03*
X0155550Y0046450D03*
X0155100Y0046750D03*
X0153450Y0047800D03*
X0148950Y0046150D03*
X0152250Y0040000D03*
X0155100Y0041200D03*
X0155100Y0041350D03*
X0155250Y0041050D03*
X0155400Y0040750D03*
X0155550Y0040450D03*
X0154950Y0041650D03*
X0154800Y0041950D03*
X0148650Y0037900D03*
X0147000Y0036700D03*
X0146850Y0036550D03*
X0154050Y0032050D03*
X0154050Y0031900D03*
X0153900Y0031750D03*
X0153900Y0031600D03*
X0155250Y0033700D03*
X0155250Y0033850D03*
X0157050Y0030550D03*
X0163650Y0036250D03*
X0166350Y0035200D03*
X0166500Y0035050D03*
X0175050Y0037000D03*
X0175050Y0037150D03*
X0174900Y0037600D03*
X0174900Y0037750D03*
X0174450Y0039550D03*
X0178050Y0034150D03*
X0174600Y0029350D03*
X0184650Y0024550D03*
X0180750Y0021250D03*
X0179550Y0017950D03*
X0177150Y0015550D03*
X0177000Y0015400D03*
X0176850Y0015250D03*
X0176700Y0015100D03*
X0176550Y0014950D03*
X0176250Y0014800D03*
X0176100Y0014650D03*
X0165300Y0015250D03*
X0165150Y0015100D03*
X0165000Y0014950D03*
X0164850Y0014800D03*
X0164400Y0014500D03*
X0157050Y0019900D03*
X0157050Y0020050D03*
X0156150Y0017650D03*
X0156450Y0023800D03*
X0146250Y0018850D03*
X0147300Y0016900D03*
X0147300Y0016750D03*
X0147300Y0016600D03*
X0147300Y0016450D03*
X0147300Y0016300D03*
X0147300Y0016150D03*
X0147300Y0016000D03*
X0147300Y0015850D03*
X0147300Y0015700D03*
X0147300Y0015550D03*
X0150300Y0013000D03*
X0149250Y0008800D03*
X0150300Y0008200D03*
X0143100Y0005800D03*
X0143400Y0019600D03*
X0143100Y0019750D03*
X0140550Y0019900D03*
X0159900Y0047800D03*
X0159450Y0048100D03*
X0148650Y0056350D03*
X0148500Y0057250D03*
X0148500Y0057400D03*
X0155100Y0058300D03*
X0155550Y0058600D03*
X0155850Y0058750D03*
X0156150Y0058900D03*
X0156450Y0059050D03*
X0169650Y0079750D03*
X0169950Y0079600D03*
X0170250Y0079450D03*
X0170550Y0079300D03*
X0199200Y0063700D03*
X0200700Y0066400D03*
X0210600Y0068800D03*
X0212250Y0067450D03*
X0204000Y0056950D03*
X0204000Y0056800D03*
X0192150Y0029200D03*
X0192150Y0029050D03*
X0193650Y0027100D03*
X0192000Y0017500D03*
D15*
X0191925Y0018100D03*
X0191925Y0018250D03*
X0191775Y0018700D03*
X0191775Y0018850D03*
X0191775Y0019000D03*
X0191775Y0019150D03*
X0191775Y0019300D03*
X0191925Y0020350D03*
X0191925Y0020500D03*
X0191925Y0020650D03*
X0191925Y0020800D03*
X0191925Y0020950D03*
X0192075Y0021550D03*
X0192075Y0021700D03*
X0192075Y0021850D03*
X0192075Y0022000D03*
X0192225Y0022600D03*
X0192225Y0022750D03*
X0192225Y0022900D03*
X0192375Y0023350D03*
X0192375Y0023500D03*
X0192375Y0023650D03*
X0192525Y0024250D03*
X0192525Y0024400D03*
X0192675Y0025000D03*
X0192675Y0025150D03*
X0192825Y0025600D03*
X0192825Y0025750D03*
X0192975Y0026200D03*
X0192975Y0026350D03*
X0192825Y0027850D03*
X0192675Y0028000D03*
X0192675Y0028150D03*
X0191475Y0028600D03*
X0191325Y0028450D03*
X0191325Y0028300D03*
X0191175Y0028150D03*
X0191025Y0027850D03*
X0190875Y0027700D03*
X0190725Y0027400D03*
X0190575Y0027250D03*
X0190425Y0026950D03*
X0190125Y0026500D03*
X0189675Y0025900D03*
X0185175Y0025600D03*
X0179775Y0023800D03*
X0179775Y0023650D03*
X0179775Y0023500D03*
X0179925Y0023200D03*
X0180075Y0022900D03*
X0180075Y0022750D03*
X0180075Y0022600D03*
X0180225Y0022150D03*
X0180225Y0022000D03*
X0180225Y0020200D03*
X0180075Y0020050D03*
X0180075Y0019900D03*
X0180075Y0019750D03*
X0179925Y0019600D03*
X0179925Y0019450D03*
X0179925Y0019300D03*
X0179775Y0019150D03*
X0179775Y0019000D03*
X0179625Y0018700D03*
X0175275Y0013000D03*
X0175275Y0012850D03*
X0175275Y0012700D03*
X0175275Y0012550D03*
X0175275Y0012400D03*
X0175275Y0012250D03*
X0175275Y0012100D03*
X0175275Y0011950D03*
X0175275Y0011800D03*
X0175275Y0011650D03*
X0175275Y0011500D03*
X0175275Y0011350D03*
X0175275Y0011200D03*
X0175275Y0011050D03*
X0175275Y0010900D03*
X0175275Y0010750D03*
X0175275Y0010600D03*
X0175275Y0010450D03*
X0175275Y0010300D03*
X0175275Y0010150D03*
X0175275Y0010000D03*
X0175275Y0009850D03*
X0175275Y0009700D03*
X0175275Y0009550D03*
X0175275Y0009400D03*
X0175275Y0009250D03*
X0175275Y0009100D03*
X0175275Y0008950D03*
X0175275Y0008800D03*
X0175275Y0008650D03*
X0175275Y0008500D03*
X0175275Y0008350D03*
X0175275Y0008200D03*
X0175125Y0008050D03*
X0175125Y0007900D03*
X0175125Y0007750D03*
X0175125Y0007600D03*
X0175125Y0007450D03*
X0175125Y0007300D03*
X0174975Y0007150D03*
X0174975Y0007000D03*
X0174975Y0006850D03*
X0174975Y0006700D03*
X0174975Y0006550D03*
X0174975Y0006400D03*
X0174975Y0006250D03*
X0174975Y0006100D03*
X0167775Y0010300D03*
X0167775Y0010450D03*
X0167775Y0010600D03*
X0167775Y0010750D03*
X0167775Y0010900D03*
X0167475Y0013150D03*
X0167175Y0014200D03*
X0168375Y0018100D03*
X0168525Y0018400D03*
X0168525Y0018550D03*
X0168675Y0018700D03*
X0168675Y0018850D03*
X0168825Y0019300D03*
X0168975Y0019600D03*
X0168975Y0019750D03*
X0168975Y0019900D03*
X0168975Y0020050D03*
X0168975Y0020200D03*
X0168975Y0020350D03*
X0168975Y0020500D03*
X0168975Y0020650D03*
X0168975Y0020800D03*
X0168975Y0020950D03*
X0168975Y0021100D03*
X0168975Y0021250D03*
X0168975Y0021400D03*
X0168975Y0021550D03*
X0168975Y0021700D03*
X0168975Y0021850D03*
X0168975Y0022000D03*
X0168975Y0022150D03*
X0168975Y0022300D03*
X0168975Y0022450D03*
X0168825Y0022750D03*
X0168825Y0022900D03*
X0168825Y0023050D03*
X0168675Y0023650D03*
X0168675Y0023800D03*
X0168675Y0023950D03*
X0168675Y0024100D03*
X0168675Y0024250D03*
X0168675Y0024400D03*
X0168525Y0024850D03*
X0168375Y0025300D03*
X0168375Y0025450D03*
X0167775Y0026800D03*
X0165675Y0031000D03*
X0165375Y0031750D03*
X0165225Y0032050D03*
X0165075Y0032350D03*
X0168375Y0033700D03*
X0164325Y0038050D03*
X0163875Y0038350D03*
X0164475Y0039550D03*
X0164625Y0039850D03*
X0169875Y0040600D03*
X0169875Y0040750D03*
X0172575Y0040000D03*
X0172575Y0039850D03*
X0172725Y0040300D03*
X0172725Y0040450D03*
X0173175Y0043300D03*
X0173175Y0043450D03*
X0173175Y0043600D03*
X0173175Y0043750D03*
X0173175Y0043900D03*
X0173025Y0044500D03*
X0173025Y0044650D03*
X0172875Y0045100D03*
X0172875Y0045250D03*
X0172875Y0045400D03*
X0172875Y0045550D03*
X0172875Y0045700D03*
X0172725Y0046000D03*
X0172725Y0046150D03*
X0172725Y0046300D03*
X0170475Y0045250D03*
X0170475Y0045100D03*
X0170475Y0044950D03*
X0170475Y0044800D03*
X0170475Y0044650D03*
X0170475Y0044500D03*
X0170475Y0044350D03*
X0170475Y0044200D03*
X0170475Y0044050D03*
X0177375Y0044350D03*
X0177375Y0044500D03*
X0177375Y0044650D03*
X0177375Y0044800D03*
X0177375Y0044950D03*
X0177375Y0045100D03*
X0177375Y0045250D03*
X0177375Y0045400D03*
X0177375Y0045550D03*
X0177525Y0044200D03*
X0177525Y0044050D03*
X0177525Y0043900D03*
X0177525Y0043750D03*
X0177525Y0043600D03*
X0177675Y0043150D03*
X0177675Y0043000D03*
X0177675Y0042850D03*
X0177675Y0042700D03*
X0177675Y0042550D03*
X0177675Y0042400D03*
X0177675Y0042250D03*
X0177675Y0042100D03*
X0177825Y0041650D03*
X0177825Y0041500D03*
X0177825Y0041350D03*
X0177825Y0041200D03*
X0177825Y0041050D03*
X0177825Y0040900D03*
X0177825Y0040750D03*
X0177825Y0040600D03*
X0177825Y0040450D03*
X0177825Y0040300D03*
X0177825Y0040150D03*
X0177825Y0040000D03*
X0177975Y0038200D03*
X0177975Y0038050D03*
X0177975Y0037900D03*
X0177975Y0037750D03*
X0177975Y0037600D03*
X0177975Y0037450D03*
X0177975Y0037300D03*
X0177975Y0037150D03*
X0177975Y0037000D03*
X0177975Y0036850D03*
X0177975Y0036700D03*
X0177975Y0036550D03*
X0177975Y0036400D03*
X0177825Y0035350D03*
X0177825Y0035200D03*
X0177825Y0035050D03*
X0177375Y0033550D03*
X0177375Y0033400D03*
X0177225Y0033250D03*
X0177225Y0033100D03*
X0177075Y0032800D03*
X0176925Y0032500D03*
X0176775Y0032200D03*
X0176625Y0031900D03*
X0176475Y0031600D03*
X0175425Y0032200D03*
X0175425Y0032350D03*
X0175425Y0032500D03*
X0175575Y0033250D03*
X0175575Y0033400D03*
X0175575Y0033550D03*
X0175575Y0033700D03*
X0175575Y0033850D03*
X0175575Y0034000D03*
X0175575Y0034150D03*
X0174075Y0032200D03*
X0178725Y0033550D03*
X0173775Y0028300D03*
X0179475Y0024550D03*
X0179475Y0024400D03*
X0179625Y0024100D03*
X0191775Y0016300D03*
X0191775Y0016150D03*
X0191625Y0016000D03*
X0191475Y0015700D03*
X0191325Y0015550D03*
X0191325Y0015400D03*
X0191175Y0015250D03*
X0191025Y0014950D03*
X0190875Y0014800D03*
X0190725Y0014500D03*
X0190575Y0014350D03*
X0190425Y0014050D03*
X0190275Y0013900D03*
X0189975Y0013450D03*
X0189675Y0013000D03*
X0188175Y0011200D03*
X0195675Y0016300D03*
X0195375Y0017800D03*
X0195525Y0018100D03*
X0195525Y0018250D03*
X0195675Y0019000D03*
X0195675Y0019150D03*
X0195675Y0019300D03*
X0195675Y0019450D03*
X0195675Y0019600D03*
X0195675Y0019750D03*
X0195825Y0022750D03*
X0195825Y0022900D03*
X0195825Y0023050D03*
X0195825Y0023200D03*
X0195975Y0023800D03*
X0195975Y0023950D03*
X0195975Y0024100D03*
X0195975Y0024250D03*
X0195975Y0024400D03*
X0196125Y0025000D03*
X0196125Y0025150D03*
X0196125Y0025300D03*
X0196125Y0025450D03*
X0196275Y0025750D03*
X0198975Y0027850D03*
X0199125Y0028150D03*
X0199275Y0028300D03*
X0199425Y0028600D03*
X0199575Y0028750D03*
X0199725Y0029050D03*
X0199875Y0029200D03*
X0199875Y0029350D03*
X0200025Y0029500D03*
X0200025Y0029650D03*
X0200175Y0029800D03*
X0200175Y0029950D03*
X0200325Y0030100D03*
X0200475Y0030400D03*
X0200625Y0030700D03*
X0200625Y0030850D03*
X0200775Y0031150D03*
X0200775Y0031300D03*
X0200925Y0031750D03*
X0200925Y0031900D03*
X0200925Y0032050D03*
X0200925Y0034150D03*
X0200925Y0034300D03*
X0200775Y0034450D03*
X0198675Y0036850D03*
X0198825Y0037300D03*
X0198975Y0037750D03*
X0198975Y0037900D03*
X0199125Y0038200D03*
X0199125Y0038350D03*
X0199275Y0038650D03*
X0199275Y0038800D03*
X0199425Y0039100D03*
X0199425Y0039250D03*
X0199575Y0039550D03*
X0199575Y0039700D03*
X0199725Y0040000D03*
X0199725Y0040150D03*
X0199875Y0040450D03*
X0199875Y0040600D03*
X0200025Y0040900D03*
X0200025Y0041050D03*
X0200175Y0041350D03*
X0200175Y0041500D03*
X0200325Y0041800D03*
X0200325Y0041950D03*
X0200475Y0042250D03*
X0200475Y0042400D03*
X0200625Y0042700D03*
X0200625Y0042850D03*
X0200775Y0043150D03*
X0200775Y0043300D03*
X0200925Y0043600D03*
X0200925Y0043750D03*
X0201075Y0044050D03*
X0201075Y0044200D03*
X0201225Y0044500D03*
X0201225Y0044650D03*
X0201375Y0044950D03*
X0201375Y0045100D03*
X0201375Y0045250D03*
X0201525Y0045400D03*
X0201525Y0045550D03*
X0201675Y0045700D03*
X0201675Y0045850D03*
X0201675Y0046000D03*
X0201675Y0046150D03*
X0201825Y0046300D03*
X0201825Y0046450D03*
X0201825Y0046600D03*
X0201975Y0046750D03*
X0201975Y0046900D03*
X0201975Y0047050D03*
X0202125Y0047200D03*
X0202125Y0047350D03*
X0202125Y0047500D03*
X0202275Y0047650D03*
X0202275Y0047800D03*
X0202275Y0047950D03*
X0202425Y0048100D03*
X0202425Y0048250D03*
X0202575Y0048550D03*
X0202575Y0048700D03*
X0202725Y0048850D03*
X0202725Y0049000D03*
X0202875Y0049150D03*
X0202875Y0049300D03*
X0202875Y0049450D03*
X0203025Y0049600D03*
X0203325Y0050050D03*
X0200925Y0050800D03*
X0200925Y0050950D03*
X0200925Y0051100D03*
X0201075Y0051400D03*
X0201075Y0051550D03*
X0201075Y0051700D03*
X0201075Y0051850D03*
X0201075Y0052000D03*
X0200925Y0052300D03*
X0200925Y0052450D03*
X0200775Y0052750D03*
X0200775Y0052900D03*
X0200775Y0053050D03*
X0200625Y0053200D03*
X0200625Y0053350D03*
X0200625Y0053500D03*
X0200475Y0053800D03*
X0200475Y0053950D03*
X0200325Y0054250D03*
X0200325Y0054400D03*
X0200175Y0054700D03*
X0200175Y0054850D03*
X0200025Y0055150D03*
X0200025Y0055300D03*
X0199875Y0055600D03*
X0199875Y0055750D03*
X0199875Y0055900D03*
X0199725Y0056050D03*
X0199725Y0056200D03*
X0199725Y0056350D03*
X0199575Y0056500D03*
X0199575Y0056650D03*
X0199575Y0056800D03*
X0199425Y0057100D03*
X0199425Y0057250D03*
X0199275Y0057550D03*
X0199275Y0057700D03*
X0199275Y0057850D03*
X0199125Y0058000D03*
X0199125Y0058150D03*
X0199125Y0058300D03*
X0198975Y0058600D03*
X0198975Y0058750D03*
X0198975Y0058900D03*
X0198825Y0059050D03*
X0198825Y0059200D03*
X0198825Y0059350D03*
X0198675Y0059650D03*
X0198675Y0059800D03*
X0198675Y0059950D03*
X0198525Y0060250D03*
X0198525Y0060400D03*
X0198525Y0060550D03*
X0198375Y0061000D03*
X0198375Y0061150D03*
X0198375Y0061300D03*
X0198375Y0061450D03*
X0198375Y0061600D03*
X0198375Y0062800D03*
X0198375Y0062950D03*
X0199725Y0062950D03*
X0199725Y0063100D03*
X0199725Y0062800D03*
X0199875Y0062650D03*
X0199875Y0062500D03*
X0199875Y0062350D03*
X0199875Y0062200D03*
X0200025Y0061900D03*
X0200025Y0061750D03*
X0200025Y0061600D03*
X0200175Y0061450D03*
X0200175Y0061300D03*
X0200175Y0061150D03*
X0200175Y0061000D03*
X0200175Y0060850D03*
X0200175Y0060700D03*
X0200175Y0060550D03*
X0202575Y0061150D03*
X0202575Y0061300D03*
X0202575Y0061450D03*
X0202425Y0061750D03*
X0202425Y0061900D03*
X0202425Y0062050D03*
X0202275Y0062200D03*
X0202275Y0062350D03*
X0202275Y0062500D03*
X0202275Y0062650D03*
X0202125Y0062800D03*
X0202125Y0062950D03*
X0202125Y0063100D03*
X0202125Y0063250D03*
X0201975Y0063400D03*
X0201975Y0063550D03*
X0201975Y0063700D03*
X0201975Y0063850D03*
X0201825Y0064000D03*
X0201825Y0064150D03*
X0201825Y0064300D03*
X0201675Y0064600D03*
X0201675Y0064750D03*
X0201675Y0064900D03*
X0201525Y0065050D03*
X0201525Y0065200D03*
X0201525Y0065350D03*
X0201375Y0065500D03*
X0201375Y0065650D03*
X0201375Y0065800D03*
X0201375Y0065950D03*
X0200775Y0067150D03*
X0200025Y0065800D03*
X0199875Y0065500D03*
X0199725Y0065350D03*
X0199725Y0065200D03*
X0199575Y0065050D03*
X0199575Y0064900D03*
X0199425Y0064750D03*
X0199425Y0064600D03*
X0199425Y0064450D03*
X0199425Y0064300D03*
X0199425Y0064150D03*
X0202725Y0060850D03*
X0202725Y0060700D03*
X0202725Y0060550D03*
X0202875Y0060250D03*
X0202875Y0060100D03*
X0202875Y0059950D03*
X0203025Y0059650D03*
X0203025Y0059500D03*
X0203025Y0059350D03*
X0203175Y0059050D03*
X0203175Y0058900D03*
X0203175Y0058750D03*
X0203175Y0058600D03*
X0203325Y0058300D03*
X0203325Y0058150D03*
X0203475Y0057700D03*
X0203475Y0057550D03*
X0203475Y0057400D03*
X0204525Y0057250D03*
X0204675Y0057400D03*
X0204675Y0057550D03*
X0204675Y0057700D03*
X0204825Y0057850D03*
X0204825Y0058000D03*
X0204975Y0058150D03*
X0204975Y0058300D03*
X0205125Y0058600D03*
X0205125Y0058750D03*
X0205275Y0058900D03*
X0205275Y0059050D03*
X0205425Y0059200D03*
X0205425Y0059350D03*
X0205575Y0059500D03*
X0205575Y0059650D03*
X0205725Y0059950D03*
X0205725Y0060100D03*
X0205875Y0060250D03*
X0205875Y0060400D03*
X0206025Y0060700D03*
X0206175Y0061000D03*
X0206175Y0061150D03*
X0206325Y0061300D03*
X0206325Y0061450D03*
X0206475Y0061600D03*
X0206475Y0061750D03*
X0206625Y0061900D03*
X0206625Y0062050D03*
X0206775Y0062200D03*
X0206775Y0062350D03*
X0206775Y0062500D03*
X0206925Y0062650D03*
X0206925Y0062800D03*
X0207075Y0062950D03*
X0207075Y0063100D03*
X0207225Y0063250D03*
X0207225Y0063400D03*
X0207375Y0063550D03*
X0207375Y0063700D03*
X0207525Y0063850D03*
X0207525Y0064000D03*
X0207675Y0064150D03*
X0207675Y0064300D03*
X0207675Y0064450D03*
X0207825Y0064600D03*
X0207825Y0064750D03*
X0207975Y0064900D03*
X0208125Y0065200D03*
X0208275Y0065500D03*
X0208425Y0065650D03*
X0208425Y0065800D03*
X0208575Y0065950D03*
X0208575Y0066100D03*
X0208725Y0066250D03*
X0208725Y0066400D03*
X0208875Y0066550D03*
X0208875Y0066700D03*
X0209025Y0066850D03*
X0209025Y0067000D03*
X0209175Y0067150D03*
X0209325Y0067450D03*
X0209475Y0067750D03*
X0209625Y0067900D03*
X0211725Y0067750D03*
X0211725Y0066700D03*
X0211575Y0066400D03*
X0211425Y0066250D03*
X0211125Y0065650D03*
X0211125Y0065500D03*
X0212175Y0065050D03*
X0212325Y0065350D03*
X0212625Y0065800D03*
X0213975Y0066100D03*
X0213975Y0065050D03*
X0213975Y0064900D03*
X0213975Y0064750D03*
X0213825Y0064600D03*
X0213825Y0064450D03*
X0213675Y0064300D03*
X0213675Y0064150D03*
X0213525Y0064000D03*
X0213525Y0063850D03*
X0213375Y0063700D03*
X0213375Y0063550D03*
X0213225Y0063400D03*
X0213075Y0063100D03*
X0212925Y0062800D03*
X0212775Y0062650D03*
X0212775Y0062500D03*
X0212625Y0062350D03*
X0212175Y0061600D03*
X0212025Y0061450D03*
X0211575Y0060700D03*
X0211425Y0060550D03*
X0210825Y0059650D03*
X0210225Y0058750D03*
X0209925Y0058300D03*
X0203775Y0055450D03*
X0203625Y0055150D03*
X0203475Y0054850D03*
X0203475Y0054700D03*
X0203325Y0054400D03*
X0203175Y0054100D03*
X0203175Y0053950D03*
X0203025Y0053800D03*
X0203025Y0053650D03*
X0202875Y0053500D03*
X0202875Y0053350D03*
X0202875Y0053200D03*
X0200775Y0050650D03*
X0200775Y0050500D03*
X0200775Y0050350D03*
X0200625Y0050050D03*
X0200625Y0049900D03*
X0200475Y0049750D03*
X0200475Y0049600D03*
X0200475Y0049450D03*
X0200325Y0049150D03*
X0200325Y0049000D03*
X0200175Y0048850D03*
X0200175Y0048700D03*
X0200175Y0048550D03*
X0200025Y0048400D03*
X0200025Y0048250D03*
X0199875Y0048100D03*
X0199875Y0047950D03*
X0199875Y0047800D03*
X0199725Y0047650D03*
X0199725Y0047500D03*
X0199575Y0047200D03*
X0199575Y0047050D03*
X0199425Y0046750D03*
X0199425Y0046600D03*
X0199275Y0046450D03*
X0199275Y0046300D03*
X0199125Y0046000D03*
X0199125Y0045850D03*
X0198975Y0045550D03*
X0198825Y0045100D03*
X0198675Y0044800D03*
X0198675Y0044650D03*
X0198525Y0044350D03*
X0198525Y0044200D03*
X0198375Y0043900D03*
X0198225Y0043600D03*
X0198225Y0043450D03*
X0198075Y0043150D03*
X0198075Y0043000D03*
X0197925Y0042700D03*
X0197925Y0042550D03*
X0197775Y0042250D03*
X0197625Y0041800D03*
X0197475Y0041500D03*
X0197475Y0041350D03*
X0197325Y0041050D03*
X0197325Y0040900D03*
X0197175Y0040600D03*
X0197175Y0040450D03*
X0197025Y0040150D03*
X0197025Y0040000D03*
X0196875Y0039700D03*
X0196875Y0039550D03*
X0196725Y0039250D03*
X0196725Y0039100D03*
X0196575Y0038800D03*
X0196575Y0038650D03*
X0196425Y0038200D03*
X0196425Y0038050D03*
X0196275Y0037750D03*
X0196275Y0037600D03*
X0194025Y0035950D03*
X0194025Y0035800D03*
X0194025Y0035650D03*
X0194025Y0035500D03*
X0194025Y0035350D03*
X0194025Y0035200D03*
X0193875Y0034750D03*
X0193875Y0034600D03*
X0193725Y0034300D03*
X0193725Y0034150D03*
X0193575Y0034000D03*
X0193575Y0033850D03*
X0193425Y0033700D03*
X0192525Y0032650D03*
X0192525Y0032500D03*
X0192525Y0032350D03*
X0192375Y0031600D03*
X0192375Y0031450D03*
X0192375Y0031300D03*
X0192375Y0031150D03*
X0192375Y0031000D03*
X0192375Y0030850D03*
X0192375Y0030700D03*
X0192375Y0030550D03*
X0192375Y0030400D03*
X0192375Y0030250D03*
X0191925Y0033700D03*
X0191925Y0035350D03*
X0191925Y0035500D03*
X0191925Y0035650D03*
X0191925Y0035800D03*
X0192075Y0035950D03*
X0178125Y0049000D03*
X0178125Y0049150D03*
X0178275Y0049600D03*
X0178275Y0049750D03*
X0178425Y0050050D03*
X0178425Y0050200D03*
X0178575Y0050650D03*
X0178575Y0050800D03*
X0178725Y0051100D03*
X0178725Y0051250D03*
X0178875Y0051700D03*
X0178875Y0051850D03*
X0178875Y0052000D03*
X0179025Y0052300D03*
X0179025Y0052450D03*
X0179175Y0052900D03*
X0179175Y0053050D03*
X0179175Y0053200D03*
X0179175Y0053350D03*
X0179325Y0053650D03*
X0179325Y0053800D03*
X0179325Y0053950D03*
X0179475Y0054400D03*
X0179475Y0054550D03*
X0179475Y0054700D03*
X0179475Y0054850D03*
X0179475Y0055000D03*
X0179475Y0055150D03*
X0179625Y0055600D03*
X0179625Y0055750D03*
X0179625Y0055900D03*
X0179625Y0056050D03*
X0179775Y0056950D03*
X0179775Y0057100D03*
X0179775Y0057250D03*
X0179775Y0057400D03*
X0179775Y0057550D03*
X0179775Y0057700D03*
X0179775Y0057850D03*
X0179775Y0058000D03*
X0179775Y0058150D03*
X0179775Y0058300D03*
X0179775Y0058450D03*
X0179775Y0058600D03*
X0179775Y0058750D03*
X0179775Y0058900D03*
X0179775Y0059050D03*
X0179775Y0059200D03*
X0179775Y0059350D03*
X0179775Y0059500D03*
X0179775Y0059650D03*
X0179775Y0059800D03*
X0179775Y0059950D03*
X0179775Y0060100D03*
X0179775Y0060250D03*
X0179775Y0060400D03*
X0179775Y0060550D03*
X0179775Y0060700D03*
X0179625Y0061900D03*
X0179625Y0062050D03*
X0179625Y0062200D03*
X0179625Y0062350D03*
X0179625Y0062500D03*
X0179475Y0063100D03*
X0179475Y0063250D03*
X0179475Y0063400D03*
X0179475Y0063550D03*
X0179475Y0063700D03*
X0179325Y0064300D03*
X0179325Y0064450D03*
X0179325Y0064600D03*
X0179175Y0064900D03*
X0179175Y0065050D03*
X0179175Y0065200D03*
X0179175Y0065350D03*
X0179025Y0065800D03*
X0179025Y0065950D03*
X0178875Y0066100D03*
X0178875Y0066250D03*
X0178875Y0066400D03*
X0178875Y0066550D03*
X0178725Y0066850D03*
X0178725Y0067000D03*
X0178575Y0067300D03*
X0178575Y0067450D03*
X0178575Y0067600D03*
X0178425Y0067900D03*
X0178425Y0068050D03*
X0177375Y0068050D03*
X0177375Y0067900D03*
X0177525Y0067450D03*
X0177525Y0067300D03*
X0177525Y0067150D03*
X0177525Y0067000D03*
X0177525Y0066850D03*
X0177525Y0066700D03*
X0177525Y0066550D03*
X0177525Y0066400D03*
X0177525Y0066250D03*
X0177525Y0066100D03*
X0177525Y0065950D03*
X0177525Y0065800D03*
X0177525Y0065650D03*
X0177525Y0065500D03*
X0177375Y0065050D03*
X0177375Y0064900D03*
X0177375Y0064750D03*
X0177375Y0064600D03*
X0177375Y0064450D03*
X0177375Y0064300D03*
X0177225Y0064150D03*
X0177225Y0064000D03*
X0177075Y0063700D03*
X0177075Y0063550D03*
X0177075Y0063400D03*
X0176925Y0063100D03*
X0175875Y0061000D03*
X0175725Y0060700D03*
X0175725Y0060550D03*
X0175725Y0060400D03*
X0175575Y0059950D03*
X0175575Y0059800D03*
X0175575Y0059650D03*
X0175425Y0059350D03*
X0175425Y0059200D03*
X0175275Y0058750D03*
X0175275Y0058600D03*
X0175275Y0058450D03*
X0175275Y0058300D03*
X0177075Y0058300D03*
X0177075Y0058450D03*
X0177075Y0058600D03*
X0177075Y0058750D03*
X0177075Y0058150D03*
X0177075Y0058000D03*
X0177075Y0057850D03*
X0177075Y0057700D03*
X0177075Y0057550D03*
X0177075Y0057400D03*
X0177075Y0057250D03*
X0177075Y0057100D03*
X0177075Y0056950D03*
X0176925Y0056050D03*
X0176925Y0055900D03*
X0176925Y0055750D03*
X0176925Y0055600D03*
X0176925Y0055450D03*
X0176925Y0055300D03*
X0176925Y0055150D03*
X0176925Y0055000D03*
X0175275Y0055000D03*
X0175275Y0055150D03*
X0175275Y0055300D03*
X0175275Y0055450D03*
X0175275Y0055600D03*
X0175275Y0054850D03*
X0175275Y0054700D03*
X0175275Y0054550D03*
X0175275Y0054400D03*
X0175425Y0053800D03*
X0175425Y0053650D03*
X0175425Y0053500D03*
X0175425Y0053350D03*
X0175575Y0053050D03*
X0175575Y0052900D03*
X0175575Y0052750D03*
X0175575Y0052600D03*
X0175575Y0052450D03*
X0175725Y0051700D03*
X0175725Y0051550D03*
X0175725Y0051400D03*
X0175725Y0051250D03*
X0175725Y0051100D03*
X0175725Y0050950D03*
X0175725Y0050800D03*
X0175725Y0050650D03*
X0175575Y0050350D03*
X0175425Y0050050D03*
X0175125Y0049600D03*
X0177075Y0049600D03*
X0177075Y0049750D03*
X0177075Y0049900D03*
X0177075Y0050050D03*
X0177075Y0049450D03*
X0177075Y0049300D03*
X0177075Y0049150D03*
X0177075Y0049000D03*
X0176925Y0051700D03*
X0176925Y0051850D03*
X0176925Y0052000D03*
X0176925Y0052150D03*
X0176925Y0052300D03*
X0176925Y0052450D03*
X0176925Y0052600D03*
X0176925Y0052750D03*
X0176925Y0052900D03*
X0176925Y0053050D03*
X0174225Y0055600D03*
X0170025Y0051250D03*
X0170025Y0051100D03*
X0169875Y0050650D03*
X0169875Y0050500D03*
X0169875Y0050350D03*
X0169725Y0050050D03*
X0169725Y0049900D03*
X0161475Y0058600D03*
X0158775Y0059050D03*
X0155025Y0061900D03*
X0155625Y0063250D03*
X0155775Y0063550D03*
X0155775Y0063700D03*
X0155925Y0063850D03*
X0155925Y0064000D03*
X0156075Y0064150D03*
X0156675Y0065650D03*
X0156825Y0065950D03*
X0156975Y0066250D03*
X0156975Y0066400D03*
X0157125Y0066550D03*
X0157125Y0066700D03*
X0157275Y0066850D03*
X0157275Y0067000D03*
X0157425Y0067150D03*
X0157425Y0067300D03*
X0157575Y0067450D03*
X0157575Y0067600D03*
X0158475Y0066850D03*
X0158475Y0066700D03*
X0158475Y0066550D03*
X0158475Y0066400D03*
X0158475Y0066250D03*
X0158475Y0066100D03*
X0158475Y0065950D03*
X0158475Y0065800D03*
X0158325Y0064750D03*
X0158325Y0064600D03*
X0158325Y0064450D03*
X0158325Y0064300D03*
X0159675Y0064600D03*
X0159825Y0064900D03*
X0160425Y0065800D03*
X0160425Y0065950D03*
X0160575Y0066100D03*
X0160575Y0066250D03*
X0160725Y0066400D03*
X0160725Y0066550D03*
X0160875Y0066700D03*
X0160875Y0066850D03*
X0161025Y0067000D03*
X0161025Y0067150D03*
X0161175Y0067300D03*
X0161175Y0067450D03*
X0161325Y0067750D03*
X0162225Y0070000D03*
X0162225Y0070150D03*
X0164175Y0070150D03*
X0164175Y0070300D03*
X0164175Y0070450D03*
X0164175Y0070600D03*
X0164175Y0070750D03*
X0164175Y0070900D03*
X0164175Y0071050D03*
X0164175Y0071200D03*
X0164175Y0071350D03*
X0164175Y0071500D03*
X0164175Y0071650D03*
X0164175Y0071800D03*
X0164175Y0071950D03*
X0164175Y0072100D03*
X0164175Y0072250D03*
X0164175Y0072400D03*
X0164175Y0072550D03*
X0165225Y0072700D03*
X0165375Y0072400D03*
X0165525Y0072250D03*
X0165525Y0072100D03*
X0165675Y0071950D03*
X0165675Y0071800D03*
X0165825Y0071650D03*
X0165825Y0071500D03*
X0165975Y0071350D03*
X0165975Y0071200D03*
X0166125Y0071050D03*
X0166125Y0070900D03*
X0166275Y0070750D03*
X0166275Y0070600D03*
X0166425Y0070300D03*
X0166575Y0070000D03*
X0166575Y0069850D03*
X0166725Y0069700D03*
X0166725Y0069550D03*
X0166875Y0069250D03*
X0166875Y0069100D03*
X0167025Y0068950D03*
X0167025Y0068800D03*
X0167175Y0068650D03*
X0167175Y0068500D03*
X0167175Y0068350D03*
X0167325Y0068050D03*
X0167325Y0067900D03*
X0167475Y0067750D03*
X0167475Y0067600D03*
X0167475Y0067450D03*
X0167625Y0067150D03*
X0167625Y0067000D03*
X0167775Y0066700D03*
X0167775Y0066550D03*
X0167775Y0066400D03*
X0167925Y0066100D03*
X0167925Y0065950D03*
X0167925Y0065800D03*
X0168075Y0065500D03*
X0169125Y0064750D03*
X0169125Y0064600D03*
X0169425Y0065950D03*
X0169575Y0066400D03*
X0169575Y0066550D03*
X0169575Y0066700D03*
X0169575Y0066850D03*
X0169575Y0067000D03*
X0169575Y0067150D03*
X0169725Y0067750D03*
X0169725Y0067900D03*
X0170775Y0067750D03*
X0170775Y0067600D03*
X0170925Y0067150D03*
X0170925Y0067000D03*
X0171075Y0066850D03*
X0171075Y0066700D03*
X0171075Y0066550D03*
X0171225Y0066250D03*
X0171225Y0066100D03*
X0171225Y0065950D03*
X0171375Y0065650D03*
X0171375Y0065500D03*
X0171525Y0064450D03*
X0171675Y0064150D03*
X0171675Y0064000D03*
X0171675Y0063850D03*
X0172875Y0064150D03*
X0172875Y0064300D03*
X0172875Y0064450D03*
X0173025Y0064750D03*
X0173025Y0064900D03*
X0173025Y0065050D03*
X0174075Y0065050D03*
X0174075Y0065200D03*
X0174075Y0065350D03*
X0175425Y0065800D03*
X0175425Y0066250D03*
X0175425Y0066400D03*
X0175425Y0066550D03*
X0175425Y0066700D03*
X0175425Y0066850D03*
X0175425Y0067000D03*
X0175425Y0067150D03*
X0175425Y0067300D03*
X0175275Y0068200D03*
X0175275Y0068350D03*
X0175275Y0068500D03*
X0175275Y0068650D03*
X0175275Y0068800D03*
X0175275Y0068950D03*
X0175275Y0069100D03*
X0175125Y0069400D03*
X0175125Y0069550D03*
X0175125Y0069700D03*
X0174975Y0070000D03*
X0174975Y0070150D03*
X0174975Y0070300D03*
X0174975Y0070450D03*
X0174825Y0070750D03*
X0174675Y0071050D03*
X0174675Y0071200D03*
X0174675Y0071350D03*
X0174525Y0071650D03*
X0174375Y0071950D03*
X0174375Y0072100D03*
X0174225Y0072400D03*
X0174075Y0072700D03*
X0174075Y0072850D03*
X0174975Y0073750D03*
X0174825Y0073900D03*
X0174525Y0074350D03*
X0175425Y0074950D03*
X0175725Y0074500D03*
X0175875Y0074350D03*
X0176025Y0074050D03*
X0176175Y0073750D03*
X0176325Y0073600D03*
X0176325Y0073450D03*
X0176475Y0073300D03*
X0176475Y0073150D03*
X0176625Y0073000D03*
X0176625Y0072850D03*
X0176775Y0072700D03*
X0176775Y0072550D03*
X0176025Y0072100D03*
X0175725Y0072550D03*
X0175575Y0072850D03*
X0175425Y0073000D03*
X0175425Y0073150D03*
X0175275Y0073300D03*
X0172575Y0071800D03*
X0172575Y0071650D03*
X0172575Y0071500D03*
X0172725Y0071200D03*
X0172875Y0070900D03*
X0172875Y0070750D03*
X0172875Y0070600D03*
X0172875Y0070450D03*
X0173025Y0070150D03*
X0173025Y0070000D03*
X0173175Y0069550D03*
X0173175Y0069400D03*
X0173175Y0069250D03*
X0173175Y0069100D03*
X0173175Y0068950D03*
X0173175Y0068800D03*
X0173325Y0068050D03*
X0173325Y0067900D03*
X0169575Y0070900D03*
X0169575Y0071050D03*
X0169425Y0071350D03*
X0169275Y0071650D03*
X0169275Y0071800D03*
X0169125Y0071950D03*
X0169125Y0072100D03*
X0168975Y0072250D03*
X0168975Y0072400D03*
X0168975Y0072550D03*
X0168825Y0072700D03*
X0168825Y0072850D03*
X0168675Y0073000D03*
X0168675Y0073150D03*
X0168525Y0073300D03*
X0168525Y0073450D03*
X0168375Y0073600D03*
X0168375Y0073750D03*
X0168225Y0073900D03*
X0168225Y0074050D03*
X0168075Y0074200D03*
X0168075Y0074350D03*
X0171675Y0073750D03*
X0171825Y0073600D03*
X0171825Y0073450D03*
X0171975Y0073300D03*
X0171975Y0073150D03*
X0172125Y0072850D03*
X0172275Y0072550D03*
X0172275Y0072400D03*
X0172425Y0072100D03*
X0171525Y0077650D03*
X0163725Y0075250D03*
X0163725Y0075100D03*
X0164175Y0070000D03*
X0164175Y0069850D03*
X0164175Y0069700D03*
X0164175Y0069550D03*
X0164175Y0069400D03*
X0164175Y0069250D03*
X0164175Y0069100D03*
X0164175Y0068950D03*
X0164025Y0068350D03*
X0164025Y0068200D03*
X0164025Y0068050D03*
X0164025Y0067900D03*
X0163875Y0067600D03*
X0163875Y0067450D03*
X0163875Y0067300D03*
X0163725Y0066850D03*
X0163725Y0066700D03*
X0163575Y0066550D03*
X0163575Y0066400D03*
X0163575Y0066250D03*
X0163425Y0065950D03*
X0163425Y0065800D03*
X0162225Y0063400D03*
X0162075Y0063100D03*
X0168225Y0062800D03*
X0168375Y0059650D03*
X0171825Y0061900D03*
X0171825Y0062050D03*
X0174075Y0061600D03*
X0177225Y0059650D03*
X0177225Y0059500D03*
X0177225Y0059350D03*
X0158625Y0069700D03*
X0158625Y0069850D03*
X0158775Y0070000D03*
X0158775Y0070150D03*
X0153975Y0068650D03*
X0153975Y0068500D03*
X0153975Y0068350D03*
X0153975Y0068200D03*
X0152475Y0068200D03*
X0152475Y0068350D03*
X0152475Y0068500D03*
X0152475Y0068650D03*
X0152325Y0067600D03*
X0152325Y0067450D03*
X0152325Y0067300D03*
X0151275Y0067300D03*
X0151275Y0067450D03*
X0151275Y0067600D03*
X0151275Y0067750D03*
X0151425Y0068200D03*
X0151425Y0068350D03*
X0151575Y0069250D03*
X0151575Y0069400D03*
X0152775Y0070000D03*
X0152775Y0070150D03*
X0153825Y0073300D03*
X0153975Y0073450D03*
X0153975Y0073600D03*
X0154125Y0073900D03*
X0154275Y0074200D03*
X0154425Y0074500D03*
X0154575Y0074800D03*
X0154725Y0074950D03*
X0154725Y0075100D03*
X0154875Y0075250D03*
X0155025Y0075550D03*
X0155325Y0076000D03*
X0155325Y0076150D03*
X0147825Y0071500D03*
X0147825Y0071350D03*
X0147675Y0071200D03*
X0147675Y0071050D03*
X0147525Y0070900D03*
X0147525Y0070750D03*
X0147375Y0070600D03*
X0147375Y0070450D03*
X0147225Y0070300D03*
X0147225Y0070150D03*
X0147075Y0070000D03*
X0147075Y0069850D03*
X0146925Y0069550D03*
X0146775Y0069250D03*
X0146775Y0069100D03*
X0146625Y0068800D03*
X0146475Y0068500D03*
X0146475Y0068350D03*
X0146325Y0068050D03*
X0146325Y0067900D03*
X0146175Y0067750D03*
X0146175Y0067600D03*
X0146175Y0067450D03*
X0146175Y0067300D03*
X0146025Y0067150D03*
X0146025Y0067000D03*
X0145875Y0066700D03*
X0145875Y0066550D03*
X0145875Y0066400D03*
X0145875Y0066250D03*
X0145875Y0066100D03*
X0145725Y0065650D03*
X0145725Y0065500D03*
X0145725Y0065350D03*
X0145725Y0065200D03*
X0145725Y0065050D03*
X0145725Y0064900D03*
X0145575Y0064300D03*
X0145575Y0064150D03*
X0145575Y0064000D03*
X0145575Y0063850D03*
X0145575Y0063700D03*
X0145575Y0063550D03*
X0145575Y0063400D03*
X0145575Y0063250D03*
X0145575Y0063100D03*
X0145575Y0062950D03*
X0145575Y0062800D03*
X0143175Y0064150D03*
X0143175Y0064300D03*
X0143175Y0064450D03*
X0143175Y0064600D03*
X0143175Y0064750D03*
X0143175Y0064900D03*
X0143175Y0065050D03*
X0143175Y0065200D03*
X0143175Y0065350D03*
X0143175Y0065500D03*
X0143175Y0065650D03*
X0143175Y0065800D03*
X0143175Y0065950D03*
X0143175Y0066100D03*
X0143175Y0066250D03*
X0143175Y0066400D03*
X0143325Y0067150D03*
X0143325Y0067300D03*
X0143325Y0067450D03*
X0143325Y0067600D03*
X0143475Y0067900D03*
X0143475Y0068050D03*
X0143475Y0068200D03*
X0143475Y0068350D03*
X0143625Y0068800D03*
X0143625Y0068950D03*
X0143775Y0069400D03*
X0143775Y0069550D03*
X0143775Y0069700D03*
X0143925Y0070000D03*
X0144075Y0070300D03*
X0144075Y0070450D03*
X0144225Y0070750D03*
X0144375Y0071050D03*
X0144375Y0071200D03*
X0144525Y0071500D03*
X0144675Y0071800D03*
X0144675Y0071950D03*
X0144825Y0072100D03*
X0144825Y0072250D03*
X0144975Y0072400D03*
X0144975Y0072550D03*
X0145125Y0072700D03*
X0145125Y0072850D03*
X0145275Y0073000D03*
X0145425Y0073300D03*
X0145725Y0073750D03*
X0148575Y0065050D03*
X0148575Y0064900D03*
X0148575Y0064750D03*
X0148575Y0064600D03*
X0148575Y0064450D03*
X0148575Y0064300D03*
X0148575Y0064150D03*
X0148575Y0064000D03*
X0148575Y0063850D03*
X0148575Y0063700D03*
X0148575Y0063550D03*
X0148575Y0063400D03*
X0148575Y0063250D03*
X0148575Y0063100D03*
X0148575Y0062950D03*
X0148575Y0062800D03*
X0148575Y0062650D03*
X0148575Y0062500D03*
X0148575Y0062350D03*
X0148575Y0062200D03*
X0148575Y0062050D03*
X0148575Y0061900D03*
X0148575Y0061750D03*
X0148575Y0061600D03*
X0148575Y0061450D03*
X0148575Y0061300D03*
X0148725Y0060550D03*
X0148725Y0060400D03*
X0148725Y0060250D03*
X0148725Y0060100D03*
X0148725Y0059950D03*
X0148725Y0059800D03*
X0148725Y0059650D03*
X0148725Y0059500D03*
X0148725Y0059350D03*
X0148725Y0059200D03*
X0148725Y0059050D03*
X0148875Y0058450D03*
X0148875Y0058300D03*
X0148875Y0058150D03*
X0148875Y0058000D03*
X0148875Y0057850D03*
X0148875Y0057700D03*
X0151125Y0057700D03*
X0151125Y0057850D03*
X0151125Y0058000D03*
X0151125Y0057550D03*
X0151125Y0057400D03*
X0151275Y0056650D03*
X0151275Y0056500D03*
X0151275Y0056350D03*
X0151275Y0056200D03*
X0151425Y0055750D03*
X0151425Y0055600D03*
X0151425Y0055450D03*
X0151575Y0055000D03*
X0151575Y0054850D03*
X0151575Y0054700D03*
X0151575Y0054550D03*
X0151575Y0054400D03*
X0151725Y0054100D03*
X0151725Y0053950D03*
X0151725Y0053800D03*
X0151875Y0053350D03*
X0151875Y0053200D03*
X0151875Y0053050D03*
X0151875Y0052900D03*
X0152025Y0052600D03*
X0152025Y0052450D03*
X0152025Y0052300D03*
X0152175Y0051850D03*
X0152175Y0051700D03*
X0152175Y0051550D03*
X0152175Y0051400D03*
X0152325Y0051100D03*
X0152325Y0050950D03*
X0152325Y0050800D03*
X0152475Y0050500D03*
X0152475Y0050350D03*
X0152475Y0050200D03*
X0152625Y0049750D03*
X0152625Y0049600D03*
X0152775Y0049150D03*
X0152775Y0049000D03*
X0152775Y0048850D03*
X0152925Y0048550D03*
X0153375Y0046900D03*
X0153375Y0046750D03*
X0153375Y0046600D03*
X0153375Y0046450D03*
X0153525Y0046150D03*
X0153525Y0046000D03*
X0153675Y0045850D03*
X0153675Y0045700D03*
X0153675Y0045550D03*
X0153825Y0045250D03*
X0153975Y0044950D03*
X0153975Y0044800D03*
X0154125Y0044500D03*
X0154275Y0044200D03*
X0154275Y0044050D03*
X0154275Y0043900D03*
X0153375Y0043600D03*
X0153225Y0043900D03*
X0153075Y0044200D03*
X0152925Y0044350D03*
X0152925Y0044500D03*
X0152775Y0044650D03*
X0152775Y0044800D03*
X0152625Y0044950D03*
X0152625Y0045100D03*
X0152475Y0045250D03*
X0152325Y0045550D03*
X0152175Y0045850D03*
X0152025Y0046150D03*
X0151875Y0046450D03*
X0151875Y0046600D03*
X0151725Y0046750D03*
X0151725Y0046900D03*
X0151575Y0047050D03*
X0151575Y0047200D03*
X0151425Y0047500D03*
X0151275Y0047800D03*
X0151275Y0047950D03*
X0151125Y0048100D03*
X0151125Y0048250D03*
X0150975Y0048400D03*
X0150975Y0048550D03*
X0150825Y0048850D03*
X0150675Y0049150D03*
X0150675Y0049300D03*
X0150525Y0049600D03*
X0150375Y0049900D03*
X0150375Y0050050D03*
X0150225Y0050350D03*
X0150075Y0050650D03*
X0150075Y0050800D03*
X0149925Y0051100D03*
X0149775Y0051400D03*
X0149775Y0051550D03*
X0149625Y0051700D03*
X0149625Y0051850D03*
X0149475Y0052150D03*
X0149475Y0052300D03*
X0149475Y0052450D03*
X0149325Y0052900D03*
X0147075Y0052000D03*
X0147075Y0051850D03*
X0147075Y0051700D03*
X0147225Y0051250D03*
X0147375Y0051100D03*
X0147375Y0050950D03*
X0147375Y0050800D03*
X0147375Y0050650D03*
X0147525Y0050500D03*
X0147525Y0050350D03*
X0147675Y0050050D03*
X0147675Y0049900D03*
X0147825Y0049600D03*
X0147975Y0049300D03*
X0147975Y0049150D03*
X0148125Y0048850D03*
X0148275Y0048550D03*
X0148275Y0048400D03*
X0148425Y0048100D03*
X0148575Y0047800D03*
X0148725Y0047500D03*
X0148875Y0047200D03*
X0148875Y0047050D03*
X0149025Y0046750D03*
X0149175Y0046450D03*
X0146175Y0045550D03*
X0146175Y0045400D03*
X0146175Y0045250D03*
X0146325Y0044650D03*
X0146325Y0044500D03*
X0146475Y0043750D03*
X0146475Y0043600D03*
X0146475Y0043450D03*
X0146475Y0043300D03*
X0146475Y0043150D03*
X0146475Y0043000D03*
X0146475Y0042850D03*
X0146625Y0040900D03*
X0146625Y0040750D03*
X0146625Y0040600D03*
X0146625Y0040450D03*
X0146625Y0040300D03*
X0146625Y0040150D03*
X0146625Y0040000D03*
X0146625Y0039850D03*
X0146625Y0037750D03*
X0146625Y0037600D03*
X0146625Y0037450D03*
X0146625Y0037300D03*
X0145725Y0034750D03*
X0145575Y0034450D03*
X0145425Y0034300D03*
X0145275Y0034000D03*
X0145125Y0033700D03*
X0145125Y0033550D03*
X0144975Y0033400D03*
X0144975Y0033250D03*
X0144825Y0033100D03*
X0144825Y0032950D03*
X0144675Y0032800D03*
X0144675Y0032650D03*
X0144675Y0032500D03*
X0144525Y0032200D03*
X0144525Y0032050D03*
X0144375Y0031900D03*
X0144375Y0031750D03*
X0144375Y0031600D03*
X0144375Y0031450D03*
X0144225Y0031300D03*
X0144225Y0031150D03*
X0144225Y0031000D03*
X0144075Y0030700D03*
X0144075Y0030550D03*
X0144075Y0030400D03*
X0144075Y0030250D03*
X0144075Y0030100D03*
X0143925Y0029800D03*
X0143925Y0029650D03*
X0143925Y0029500D03*
X0143925Y0029350D03*
X0143925Y0029200D03*
X0143925Y0029050D03*
X0143775Y0028750D03*
X0143775Y0028600D03*
X0143625Y0028450D03*
X0143475Y0028150D03*
X0143325Y0027850D03*
X0143025Y0027400D03*
X0142875Y0027100D03*
X0142725Y0026950D03*
X0142575Y0026650D03*
X0142425Y0026350D03*
X0142125Y0025900D03*
X0141975Y0025600D03*
X0141825Y0025450D03*
X0141675Y0025150D03*
X0141525Y0024850D03*
X0141375Y0024550D03*
X0141225Y0024250D03*
X0140925Y0023800D03*
X0140775Y0023500D03*
X0140625Y0023350D03*
X0140625Y0023200D03*
X0140475Y0023050D03*
X0140475Y0022900D03*
X0140325Y0022750D03*
X0140325Y0022600D03*
X0140175Y0022450D03*
X0140175Y0022300D03*
X0140025Y0022150D03*
X0140025Y0022000D03*
X0139875Y0021700D03*
X0139875Y0021550D03*
X0140775Y0019150D03*
X0140625Y0018850D03*
X0140625Y0018700D03*
X0140475Y0018400D03*
X0140475Y0018250D03*
X0140325Y0017950D03*
X0140325Y0017800D03*
X0140175Y0017500D03*
X0140175Y0017350D03*
X0140025Y0017050D03*
X0140025Y0016900D03*
X0139875Y0016450D03*
X0139725Y0016000D03*
X0139575Y0015550D03*
X0139425Y0015100D03*
X0139275Y0014650D03*
X0139275Y0014500D03*
X0139125Y0014200D03*
X0138975Y0013750D03*
X0138825Y0013300D03*
X0138675Y0012850D03*
X0138675Y0012700D03*
X0138525Y0012250D03*
X0138525Y0012100D03*
X0138675Y0011500D03*
X0138675Y0011350D03*
X0138825Y0011050D03*
X0138825Y0010900D03*
X0138975Y0010600D03*
X0139125Y0010450D03*
X0139125Y0010300D03*
X0139275Y0010150D03*
X0139275Y0010000D03*
X0139425Y0009850D03*
X0139725Y0009400D03*
X0140175Y0008800D03*
X0140625Y0008200D03*
X0143925Y0006700D03*
X0143925Y0006550D03*
X0143775Y0006400D03*
X0144075Y0006850D03*
X0144075Y0007000D03*
X0144225Y0007300D03*
X0144375Y0007600D03*
X0144375Y0007750D03*
X0144375Y0007900D03*
X0144525Y0008500D03*
X0144525Y0008650D03*
X0144525Y0008800D03*
X0144525Y0008950D03*
X0144675Y0009700D03*
X0144675Y0009850D03*
X0144675Y0010000D03*
X0144675Y0010150D03*
X0144825Y0010750D03*
X0144825Y0010900D03*
X0144825Y0011050D03*
X0144825Y0011200D03*
X0144975Y0011800D03*
X0144975Y0011950D03*
X0144975Y0012100D03*
X0144975Y0012250D03*
X0145125Y0012700D03*
X0145125Y0012850D03*
X0145125Y0013000D03*
X0145125Y0013150D03*
X0145275Y0013600D03*
X0145275Y0013750D03*
X0145275Y0013900D03*
X0145275Y0014050D03*
X0145425Y0014500D03*
X0145425Y0014650D03*
X0145425Y0014800D03*
X0145425Y0014950D03*
X0145425Y0015100D03*
X0145575Y0015700D03*
X0145575Y0015850D03*
X0145575Y0016000D03*
X0145575Y0016150D03*
X0145575Y0016300D03*
X0145725Y0016900D03*
X0145725Y0017050D03*
X0147825Y0015100D03*
X0147825Y0014950D03*
X0147825Y0014800D03*
X0147825Y0014650D03*
X0147825Y0014500D03*
X0147825Y0014350D03*
X0147975Y0014050D03*
X0147975Y0013900D03*
X0147975Y0013750D03*
X0147975Y0013600D03*
X0147975Y0013450D03*
X0148125Y0013150D03*
X0148125Y0013000D03*
X0148125Y0012850D03*
X0148125Y0012700D03*
X0148125Y0012550D03*
X0148275Y0012400D03*
X0148275Y0012250D03*
X0148275Y0012100D03*
X0148275Y0011950D03*
X0148275Y0011800D03*
X0148425Y0011650D03*
X0148425Y0011500D03*
X0148425Y0011350D03*
X0148425Y0011200D03*
X0148575Y0010900D03*
X0148575Y0010750D03*
X0148575Y0010600D03*
X0148575Y0010450D03*
X0148725Y0010300D03*
X0148725Y0010150D03*
X0148725Y0010000D03*
X0148725Y0009850D03*
X0148875Y0009700D03*
X0148875Y0009550D03*
X0148875Y0009400D03*
X0149025Y0009250D03*
X0150825Y0010600D03*
X0150675Y0011050D03*
X0152775Y0008800D03*
X0152775Y0008650D03*
X0153825Y0007450D03*
X0153675Y0007150D03*
X0153525Y0007000D03*
X0153525Y0006850D03*
X0153375Y0006700D03*
X0153375Y0006550D03*
X0153225Y0006400D03*
X0153075Y0006100D03*
X0152925Y0005800D03*
X0151725Y0006550D03*
X0151875Y0006850D03*
X0152025Y0007000D03*
X0152025Y0007150D03*
X0151275Y0005800D03*
X0147525Y0006700D03*
X0147375Y0006400D03*
X0146325Y0006400D03*
X0146325Y0006550D03*
X0146325Y0006250D03*
X0146325Y0006100D03*
X0146475Y0005800D03*
X0146175Y0006850D03*
X0146175Y0007000D03*
X0146775Y0012250D03*
X0146775Y0012400D03*
X0146775Y0012550D03*
X0146775Y0012700D03*
X0146775Y0012850D03*
X0146775Y0013000D03*
X0146775Y0013150D03*
X0146775Y0013300D03*
X0146775Y0013450D03*
X0146775Y0013600D03*
X0146775Y0013750D03*
X0149325Y0014500D03*
X0149325Y0014650D03*
X0149175Y0014950D03*
X0149175Y0015100D03*
X0149175Y0015250D03*
X0149025Y0015400D03*
X0149025Y0015550D03*
X0149025Y0015700D03*
X0148875Y0016000D03*
X0148875Y0016150D03*
X0148875Y0016300D03*
X0148725Y0016600D03*
X0149475Y0014350D03*
X0149475Y0014200D03*
X0149475Y0014050D03*
X0149625Y0013750D03*
X0149625Y0013600D03*
X0154275Y0012850D03*
X0154275Y0012700D03*
X0154425Y0013300D03*
X0154575Y0013750D03*
X0154725Y0014200D03*
X0154725Y0014350D03*
X0154875Y0014650D03*
X0154875Y0014800D03*
X0155025Y0015250D03*
X0155175Y0015550D03*
X0155175Y0015700D03*
X0155175Y0015850D03*
X0155325Y0016000D03*
X0155325Y0016150D03*
X0156525Y0016150D03*
X0156525Y0016300D03*
X0156525Y0016450D03*
X0156525Y0016600D03*
X0156525Y0016750D03*
X0156525Y0016900D03*
X0156525Y0016000D03*
X0156525Y0015850D03*
X0156525Y0015700D03*
X0156525Y0015550D03*
X0156525Y0015400D03*
X0156525Y0015250D03*
X0156525Y0015100D03*
X0156525Y0014950D03*
X0156525Y0014800D03*
X0156525Y0014650D03*
X0156525Y0014500D03*
X0156525Y0014350D03*
X0156525Y0014200D03*
X0156525Y0014050D03*
X0156525Y0013900D03*
X0156525Y0012100D03*
X0156525Y0011950D03*
X0156525Y0011800D03*
X0156525Y0011650D03*
X0156375Y0011200D03*
X0156375Y0011050D03*
X0156375Y0010900D03*
X0156375Y0010750D03*
X0159075Y0010750D03*
X0159075Y0010900D03*
X0159075Y0011050D03*
X0159075Y0011200D03*
X0159075Y0011350D03*
X0159075Y0010600D03*
X0159225Y0010150D03*
X0159225Y0010000D03*
X0159225Y0009850D03*
X0159225Y0009700D03*
X0159225Y0009550D03*
X0159225Y0009400D03*
X0159225Y0009250D03*
X0159225Y0009100D03*
X0159225Y0008950D03*
X0159225Y0008800D03*
X0159225Y0008650D03*
X0159375Y0008200D03*
X0159375Y0008050D03*
X0159375Y0007900D03*
X0159375Y0007750D03*
X0159375Y0007600D03*
X0159375Y0007450D03*
X0159375Y0007300D03*
X0159375Y0007150D03*
X0159375Y0007000D03*
X0159525Y0006400D03*
X0159525Y0006250D03*
X0159525Y0006100D03*
X0159525Y0005950D03*
X0159525Y0005800D03*
X0155025Y0005950D03*
X0155025Y0006100D03*
X0154875Y0005800D03*
X0158775Y0013300D03*
X0158625Y0014050D03*
X0158625Y0014200D03*
X0158475Y0014650D03*
X0158475Y0014800D03*
X0158325Y0015400D03*
X0158175Y0015700D03*
X0158175Y0015850D03*
X0158175Y0016000D03*
X0158175Y0016150D03*
X0158025Y0016450D03*
X0158025Y0016600D03*
X0158025Y0016750D03*
X0157875Y0017050D03*
X0157875Y0017200D03*
X0157875Y0017350D03*
X0157875Y0017500D03*
X0157875Y0017650D03*
X0157725Y0017800D03*
X0157725Y0017950D03*
X0157725Y0018100D03*
X0157725Y0018250D03*
X0157575Y0018400D03*
X0157575Y0018550D03*
X0157575Y0018700D03*
X0157575Y0018850D03*
X0157575Y0019000D03*
X0157575Y0019150D03*
X0157575Y0019300D03*
X0157575Y0019450D03*
X0156525Y0019450D03*
X0156525Y0019300D03*
X0156975Y0021250D03*
X0156975Y0021400D03*
X0156975Y0021550D03*
X0157125Y0021700D03*
X0157125Y0021850D03*
X0157125Y0022000D03*
X0157125Y0022150D03*
X0157125Y0022300D03*
X0157125Y0022450D03*
X0157125Y0022600D03*
X0157125Y0022750D03*
X0157125Y0022900D03*
X0157125Y0023050D03*
X0152175Y0026350D03*
X0152175Y0026500D03*
X0152175Y0026650D03*
X0152175Y0026800D03*
X0152175Y0026950D03*
X0152025Y0027100D03*
X0151575Y0028450D03*
X0151275Y0029200D03*
X0150975Y0029800D03*
X0152925Y0029950D03*
X0156525Y0031300D03*
X0156525Y0031450D03*
X0156375Y0031750D03*
X0156375Y0031900D03*
X0156375Y0032050D03*
X0156225Y0032200D03*
X0156225Y0032350D03*
X0156075Y0032500D03*
X0156075Y0032650D03*
X0154725Y0032800D03*
X0154725Y0032950D03*
X0154725Y0033100D03*
X0153675Y0033100D03*
X0153675Y0033250D03*
X0153675Y0033400D03*
X0153675Y0033550D03*
X0153675Y0033700D03*
X0153675Y0033850D03*
X0153675Y0034000D03*
X0153675Y0034150D03*
X0153675Y0034300D03*
X0153675Y0034450D03*
X0153675Y0034600D03*
X0153675Y0034750D03*
X0153525Y0034900D03*
X0153525Y0035050D03*
X0153525Y0035200D03*
X0153525Y0035350D03*
X0153375Y0035500D03*
X0153375Y0035650D03*
X0153375Y0035800D03*
X0153375Y0035950D03*
X0153225Y0036400D03*
X0153225Y0036550D03*
X0153075Y0036700D03*
X0153075Y0036850D03*
X0153975Y0037300D03*
X0154125Y0037150D03*
X0154125Y0037000D03*
X0154275Y0036850D03*
X0154275Y0036700D03*
X0154425Y0036400D03*
X0154575Y0036100D03*
X0154725Y0035800D03*
X0154875Y0035500D03*
X0154875Y0035350D03*
X0157575Y0035350D03*
X0157575Y0035500D03*
X0157575Y0035650D03*
X0157575Y0035800D03*
X0157725Y0035050D03*
X0157725Y0034900D03*
X0157875Y0033550D03*
X0157875Y0033400D03*
X0157875Y0033250D03*
X0157875Y0033100D03*
X0157875Y0032950D03*
X0157875Y0032800D03*
X0157875Y0032650D03*
X0157875Y0032500D03*
X0157875Y0032350D03*
X0157725Y0031750D03*
X0157725Y0031600D03*
X0157725Y0031450D03*
X0157725Y0031300D03*
X0156825Y0028900D03*
X0153675Y0032800D03*
X0153675Y0032950D03*
X0148875Y0027250D03*
X0148725Y0026950D03*
X0148725Y0026800D03*
X0148725Y0026650D03*
X0148725Y0026500D03*
X0148125Y0025300D03*
X0147975Y0025150D03*
X0147975Y0025000D03*
X0147825Y0024850D03*
X0147825Y0024700D03*
X0147675Y0024550D03*
X0147675Y0024400D03*
X0147525Y0024250D03*
X0147525Y0024100D03*
X0147375Y0023950D03*
X0147375Y0023800D03*
X0147375Y0023650D03*
X0147225Y0023500D03*
X0147225Y0023350D03*
X0147075Y0023200D03*
X0147075Y0023050D03*
X0146925Y0022900D03*
X0146925Y0022750D03*
X0146925Y0022600D03*
X0146775Y0022450D03*
X0146775Y0022300D03*
X0146775Y0022150D03*
X0146625Y0022000D03*
X0146625Y0021850D03*
X0146625Y0021700D03*
X0146475Y0021550D03*
X0146475Y0021400D03*
X0146475Y0021250D03*
X0146475Y0021100D03*
X0146475Y0020950D03*
X0146475Y0020800D03*
X0146475Y0020650D03*
X0146475Y0020500D03*
X0146475Y0020350D03*
X0146325Y0020050D03*
X0149775Y0021700D03*
X0149775Y0021850D03*
X0149925Y0022600D03*
X0149925Y0023200D03*
X0140025Y0013750D03*
X0149175Y0042400D03*
X0149175Y0042550D03*
X0149175Y0042700D03*
X0149175Y0042850D03*
X0149175Y0043000D03*
X0149175Y0043150D03*
X0149175Y0043300D03*
X0149175Y0043450D03*
X0149175Y0043600D03*
X0149175Y0043750D03*
X0149175Y0043900D03*
X0149175Y0044050D03*
X0149025Y0044200D03*
X0149025Y0044350D03*
X0149025Y0044500D03*
X0150075Y0044500D03*
X0150225Y0044200D03*
X0150375Y0043900D03*
X0150525Y0043600D03*
X0150675Y0043300D03*
X0150825Y0043150D03*
X0150825Y0043000D03*
X0150975Y0042850D03*
X0151125Y0042550D03*
X0151275Y0042250D03*
X0151425Y0041950D03*
X0146025Y0046000D03*
X0146025Y0046150D03*
X0145875Y0046750D03*
X0145875Y0046900D03*
X0145875Y0047050D03*
X0145725Y0047500D03*
X0145725Y0047650D03*
X0145575Y0048250D03*
X0145575Y0048400D03*
X0145575Y0048550D03*
X0145575Y0048700D03*
X0145425Y0049150D03*
X0145425Y0049300D03*
X0145275Y0049750D03*
X0145275Y0049900D03*
X0145275Y0050050D03*
X0145275Y0050200D03*
X0145125Y0050500D03*
X0145125Y0050650D03*
X0144975Y0051250D03*
X0144975Y0051400D03*
X0144975Y0051550D03*
X0144825Y0052000D03*
X0144675Y0052450D03*
X0144675Y0052600D03*
X0144675Y0052750D03*
X0144525Y0053200D03*
X0144525Y0053350D03*
X0144375Y0053800D03*
X0144375Y0053950D03*
X0144225Y0054400D03*
X0144225Y0054550D03*
X0144075Y0054850D03*
X0144075Y0055000D03*
X0144075Y0055150D03*
X0144075Y0055300D03*
X0143925Y0055600D03*
X0143925Y0055750D03*
X0143775Y0056200D03*
X0143775Y0056350D03*
X0143775Y0056500D03*
X0143775Y0056650D03*
X0143625Y0056950D03*
X0143625Y0057100D03*
X0143625Y0057250D03*
X0143475Y0057550D03*
X0143475Y0057700D03*
X0143475Y0057850D03*
X0143475Y0058000D03*
X0143325Y0058300D03*
X0143325Y0058450D03*
X0143325Y0058600D03*
X0143325Y0058750D03*
X0143175Y0059200D03*
X0143175Y0059350D03*
X0143175Y0059500D03*
X0143175Y0059650D03*
X0143175Y0059800D03*
X0143175Y0059950D03*
X0143175Y0060100D03*
X0145575Y0059500D03*
X0145575Y0059350D03*
X0145575Y0059200D03*
X0145575Y0059050D03*
X0145575Y0058900D03*
X0145575Y0058750D03*
X0145575Y0058600D03*
X0145725Y0058150D03*
X0145725Y0058000D03*
X0145725Y0057850D03*
X0145875Y0057550D03*
X0145875Y0057400D03*
X0145875Y0057250D03*
X0145875Y0057100D03*
X0145875Y0056950D03*
X0145875Y0056800D03*
X0146025Y0056350D03*
X0146025Y0056200D03*
X0146175Y0055750D03*
X0146175Y0055600D03*
X0146175Y0055450D03*
X0146175Y0055300D03*
X0146325Y0054850D03*
X0146325Y0054700D03*
X0146475Y0054400D03*
X0146475Y0054250D03*
X0146475Y0054100D03*
X0146475Y0053950D03*
X0146625Y0053650D03*
X0146625Y0053500D03*
X0146775Y0053050D03*
X0146775Y0052900D03*
X0146775Y0052750D03*
X0146925Y0052450D03*
X0146925Y0052300D03*
X0153975Y0055450D03*
X0151125Y0058750D03*
X0151875Y0060400D03*
X0151875Y0060550D03*
X0151725Y0060700D03*
X0151725Y0060850D03*
X0151725Y0061000D03*
X0151725Y0061150D03*
X0151725Y0061300D03*
X0151875Y0062050D03*
X0150975Y0063700D03*
X0150975Y0063850D03*
X0151125Y0064150D03*
X0151275Y0064750D03*
X0151275Y0064900D03*
X0151275Y0065050D03*
X0151275Y0065200D03*
X0151275Y0065350D03*
X0154275Y0065200D03*
X0154275Y0065050D03*
X0154275Y0064900D03*
X0154275Y0064750D03*
X0154275Y0064600D03*
X0154275Y0064450D03*
X0154425Y0063850D03*
X0154425Y0063700D03*
X0154425Y0063550D03*
X0154425Y0063400D03*
X0150075Y0061300D03*
X0149925Y0061600D03*
X0150075Y0060550D03*
X0150075Y0060250D03*
X0157575Y0051100D03*
X0157575Y0050950D03*
X0157575Y0050800D03*
X0157575Y0050650D03*
X0157575Y0050500D03*
X0157575Y0050350D03*
X0157575Y0050200D03*
X0156825Y0044800D03*
X0210975Y0062950D03*
X0211425Y0063700D03*
X0211575Y0064000D03*
X0211725Y0064300D03*
D16*
X0212025Y0067600D03*
X0211425Y0068200D03*
X0210525Y0068950D03*
X0200775Y0066850D03*
X0199275Y0064000D03*
X0203925Y0056350D03*
X0203925Y0056200D03*
X0203925Y0056050D03*
X0206925Y0054400D03*
X0207075Y0054550D03*
X0207225Y0054700D03*
X0207375Y0054850D03*
X0207525Y0055000D03*
X0207825Y0055450D03*
X0207975Y0055600D03*
X0208875Y0056800D03*
X0209175Y0057250D03*
X0206775Y0054250D03*
X0206775Y0054100D03*
X0206625Y0053950D03*
X0206475Y0053800D03*
X0206325Y0053650D03*
X0206175Y0053500D03*
X0206025Y0053350D03*
X0205725Y0052900D03*
X0205575Y0052750D03*
X0205425Y0052600D03*
X0205275Y0052450D03*
X0204675Y0051700D03*
X0204525Y0051550D03*
X0204375Y0051400D03*
X0204225Y0051250D03*
X0204075Y0051100D03*
X0203925Y0050950D03*
X0203775Y0050650D03*
X0203625Y0050500D03*
X0203475Y0050350D03*
X0192225Y0036100D03*
X0200475Y0034900D03*
X0192225Y0029800D03*
X0192225Y0029650D03*
X0198075Y0026800D03*
X0198225Y0026950D03*
X0198375Y0027100D03*
X0188325Y0024100D03*
X0188175Y0023950D03*
X0187575Y0023200D03*
X0187425Y0023050D03*
X0187275Y0022900D03*
X0187125Y0022750D03*
X0186975Y0022600D03*
X0185325Y0021100D03*
X0185175Y0020950D03*
X0184725Y0023200D03*
X0182925Y0023200D03*
X0182775Y0023050D03*
X0182625Y0022900D03*
X0182475Y0022750D03*
X0182325Y0022600D03*
X0182175Y0022450D03*
X0182025Y0022300D03*
X0181875Y0022150D03*
X0180525Y0020800D03*
X0180375Y0020650D03*
X0179475Y0018250D03*
X0178875Y0017350D03*
X0178725Y0017200D03*
X0178575Y0017050D03*
X0180375Y0017350D03*
X0180525Y0017200D03*
X0180675Y0017050D03*
X0181725Y0016150D03*
X0184425Y0013900D03*
X0185325Y0013150D03*
X0194025Y0016300D03*
X0195075Y0017350D03*
X0185175Y0025300D03*
X0184575Y0026500D03*
X0184425Y0026650D03*
X0184275Y0026800D03*
X0184125Y0026950D03*
X0183975Y0027100D03*
X0183825Y0027250D03*
X0183675Y0027400D03*
X0183075Y0028150D03*
X0182925Y0028300D03*
X0182775Y0028450D03*
X0182625Y0028600D03*
X0182475Y0028750D03*
X0182325Y0028900D03*
X0182175Y0029050D03*
X0182025Y0029200D03*
X0181875Y0029350D03*
X0181725Y0029500D03*
X0181575Y0029650D03*
X0180525Y0030850D03*
X0180375Y0031000D03*
X0180225Y0031150D03*
X0180075Y0031300D03*
X0179925Y0031450D03*
X0179775Y0031600D03*
X0176475Y0029050D03*
X0176325Y0029200D03*
X0176775Y0028600D03*
X0176925Y0028450D03*
X0177075Y0028300D03*
X0177225Y0028150D03*
X0177975Y0027250D03*
X0178125Y0027100D03*
X0178275Y0026950D03*
X0178275Y0026800D03*
X0178425Y0026650D03*
X0173925Y0028450D03*
X0167475Y0027400D03*
X0164625Y0033400D03*
X0164625Y0033550D03*
X0164475Y0033700D03*
X0164475Y0033850D03*
X0164325Y0034000D03*
X0164325Y0034150D03*
X0162825Y0035350D03*
X0162675Y0035200D03*
X0162075Y0034300D03*
X0161925Y0034150D03*
X0161775Y0034000D03*
X0161625Y0033850D03*
X0160425Y0032800D03*
X0156975Y0029650D03*
X0156975Y0029500D03*
X0152925Y0030100D03*
X0150375Y0030850D03*
X0150075Y0031300D03*
X0149625Y0032050D03*
X0149475Y0032200D03*
X0149175Y0032650D03*
X0149025Y0032800D03*
X0149025Y0032950D03*
X0148875Y0033100D03*
X0148575Y0033550D03*
X0148425Y0033700D03*
X0148275Y0033850D03*
X0148125Y0034150D03*
X0147975Y0034300D03*
X0147825Y0034450D03*
X0147675Y0034600D03*
X0147675Y0034750D03*
X0147525Y0034900D03*
X0146475Y0035800D03*
X0146625Y0036100D03*
X0152025Y0040750D03*
X0149325Y0042250D03*
X0155925Y0039550D03*
X0155925Y0039400D03*
X0155025Y0034900D03*
X0155025Y0034750D03*
X0163875Y0038500D03*
X0164325Y0037750D03*
X0165375Y0036100D03*
X0168375Y0037900D03*
X0168375Y0038050D03*
X0168375Y0038200D03*
X0168225Y0038350D03*
X0168225Y0038500D03*
X0168075Y0038800D03*
X0168075Y0038950D03*
X0168075Y0039100D03*
X0167925Y0039250D03*
X0167925Y0039400D03*
X0167925Y0039550D03*
X0168525Y0037750D03*
X0168525Y0037600D03*
X0168525Y0037450D03*
X0168675Y0037300D03*
X0168675Y0037150D03*
X0168825Y0036850D03*
X0168825Y0036700D03*
X0168825Y0036550D03*
X0168825Y0036400D03*
X0168825Y0036250D03*
X0175425Y0035350D03*
X0175425Y0035200D03*
X0175425Y0035050D03*
X0175425Y0034900D03*
X0175425Y0034750D03*
X0164625Y0040450D03*
X0166125Y0041950D03*
X0165975Y0042100D03*
X0164925Y0043600D03*
X0170325Y0043600D03*
X0170325Y0043750D03*
X0170325Y0043150D03*
X0170325Y0043000D03*
X0170325Y0042850D03*
X0177375Y0045700D03*
X0177375Y0045850D03*
X0177375Y0046000D03*
X0177375Y0046150D03*
X0177375Y0046300D03*
X0177375Y0046450D03*
X0174675Y0049000D03*
X0174525Y0048850D03*
X0174375Y0048700D03*
X0169425Y0049450D03*
X0169275Y0049150D03*
X0169125Y0049000D03*
X0168975Y0048850D03*
X0158475Y0049000D03*
X0158325Y0049150D03*
X0158175Y0049300D03*
X0157875Y0049750D03*
X0153225Y0048100D03*
X0153075Y0048250D03*
X0156675Y0044650D03*
X0149175Y0053650D03*
X0149175Y0053800D03*
X0149025Y0054100D03*
X0149025Y0054250D03*
X0149025Y0054400D03*
X0149025Y0054550D03*
X0150975Y0059200D03*
X0150075Y0060100D03*
X0150825Y0063250D03*
X0152775Y0063850D03*
X0152775Y0064000D03*
X0152775Y0064150D03*
X0152775Y0064300D03*
X0154425Y0063250D03*
X0155025Y0062350D03*
X0155025Y0062200D03*
X0158325Y0062950D03*
X0156225Y0064300D03*
X0158325Y0065650D03*
X0160425Y0065650D03*
X0162525Y0064150D03*
X0168375Y0063400D03*
X0168375Y0063250D03*
X0171375Y0064600D03*
X0172875Y0063850D03*
X0171975Y0062650D03*
X0171975Y0062500D03*
X0175425Y0064600D03*
X0175425Y0064750D03*
X0175425Y0064900D03*
X0175425Y0065050D03*
X0175425Y0065200D03*
X0173475Y0067000D03*
X0173475Y0067150D03*
X0169875Y0069700D03*
X0169875Y0069850D03*
X0169725Y0070300D03*
X0169725Y0070450D03*
X0174075Y0074950D03*
X0173925Y0075100D03*
X0173325Y0075850D03*
X0173175Y0076000D03*
X0173025Y0076150D03*
X0172875Y0076300D03*
X0172725Y0076450D03*
X0172575Y0076600D03*
X0172425Y0076750D03*
X0172275Y0076900D03*
X0172125Y0077050D03*
X0171975Y0077200D03*
X0171825Y0077350D03*
X0173175Y0077350D03*
X0173325Y0077200D03*
X0173475Y0077050D03*
X0173625Y0076900D03*
X0173775Y0076750D03*
X0173925Y0076600D03*
X0174075Y0076450D03*
X0174225Y0076300D03*
X0174375Y0076150D03*
X0174525Y0076000D03*
X0174675Y0075850D03*
X0164025Y0074500D03*
X0162075Y0069400D03*
X0158475Y0069250D03*
X0158475Y0069100D03*
X0153825Y0067600D03*
X0153825Y0067450D03*
X0153825Y0067300D03*
X0153825Y0067150D03*
X0146325Y0074500D03*
X0146175Y0074350D03*
X0146775Y0075100D03*
X0146925Y0075250D03*
X0147075Y0075400D03*
X0147975Y0076450D03*
X0148125Y0076600D03*
X0148275Y0076750D03*
X0148425Y0076900D03*
X0148575Y0077050D03*
X0148725Y0077200D03*
X0149475Y0077800D03*
X0168525Y0059800D03*
X0173925Y0058300D03*
X0174075Y0058150D03*
X0175875Y0061300D03*
X0161175Y0058900D03*
X0150375Y0026500D03*
X0156825Y0023500D03*
X0157125Y0020800D03*
X0156375Y0018700D03*
X0156375Y0018550D03*
X0152475Y0015850D03*
X0152175Y0015400D03*
X0152025Y0015100D03*
X0151875Y0014950D03*
X0151875Y0014800D03*
X0151725Y0014650D03*
X0151575Y0014500D03*
X0151425Y0014200D03*
X0151275Y0014050D03*
X0151125Y0013900D03*
X0150975Y0013750D03*
X0150975Y0013600D03*
X0153225Y0010150D03*
X0153075Y0010000D03*
X0152475Y0008200D03*
X0148425Y0008050D03*
X0147525Y0006100D03*
X0147675Y0005800D03*
X0142275Y0006400D03*
X0142125Y0006550D03*
X0140175Y0013900D03*
X0140325Y0014050D03*
X0140625Y0019450D03*
X0165675Y0015850D03*
X0167175Y0015250D03*
X0167175Y0015100D03*
X0167475Y0016000D03*
X0167625Y0016300D03*
X0167925Y0017050D03*
X0168075Y0017350D03*
X0167325Y0013750D03*
X0167325Y0013600D03*
X0167625Y0012550D03*
X0167625Y0012400D03*
X0167625Y0012250D03*
D17*
X0167700Y0012100D03*
X0167700Y0011950D03*
X0167700Y0011800D03*
X0167700Y0011650D03*
X0167700Y0011500D03*
X0167700Y0011350D03*
X0167700Y0011200D03*
X0167700Y0011050D03*
X0167850Y0010150D03*
X0167850Y0010000D03*
X0167850Y0009850D03*
X0167850Y0009700D03*
X0167850Y0009550D03*
X0167850Y0009400D03*
X0167850Y0009250D03*
X0167850Y0009100D03*
X0167850Y0008950D03*
X0167850Y0008800D03*
X0167850Y0008650D03*
X0167850Y0008500D03*
X0167850Y0008350D03*
X0167850Y0008200D03*
X0167850Y0008050D03*
X0167850Y0007900D03*
X0167850Y0007750D03*
X0167850Y0007600D03*
X0167850Y0007450D03*
X0167850Y0007300D03*
X0167850Y0007150D03*
X0167850Y0007000D03*
X0167850Y0006850D03*
X0167850Y0006700D03*
X0167850Y0006550D03*
X0167850Y0006400D03*
X0167850Y0006250D03*
X0167850Y0006100D03*
X0167850Y0005950D03*
X0167850Y0005800D03*
X0159150Y0010300D03*
X0159150Y0010450D03*
X0159000Y0011500D03*
X0159000Y0011650D03*
X0159000Y0011800D03*
X0159000Y0011950D03*
X0159000Y0012100D03*
X0158700Y0013450D03*
X0158700Y0013600D03*
X0158700Y0013750D03*
X0158700Y0013900D03*
X0158550Y0014350D03*
X0158550Y0014500D03*
X0158400Y0014950D03*
X0158400Y0015100D03*
X0158400Y0015250D03*
X0158250Y0015550D03*
X0158100Y0016300D03*
X0156450Y0018850D03*
X0156450Y0019000D03*
X0156450Y0019150D03*
X0152700Y0016150D03*
X0152550Y0016000D03*
X0152400Y0015700D03*
X0152250Y0015550D03*
X0152100Y0015250D03*
X0151500Y0014350D03*
X0150150Y0012550D03*
X0150150Y0012400D03*
X0150300Y0012250D03*
X0150300Y0012100D03*
X0150300Y0011950D03*
X0150450Y0011800D03*
X0150450Y0011650D03*
X0150450Y0011500D03*
X0150600Y0011350D03*
X0150600Y0011200D03*
X0150750Y0010900D03*
X0150750Y0010750D03*
X0150900Y0010450D03*
X0150900Y0010300D03*
X0151050Y0010150D03*
X0151050Y0010000D03*
X0149100Y0009100D03*
X0148500Y0008200D03*
X0148350Y0007900D03*
X0148200Y0007750D03*
X0148050Y0007600D03*
X0148050Y0007450D03*
X0147900Y0007300D03*
X0147750Y0007150D03*
X0147750Y0007000D03*
X0147600Y0006850D03*
X0147450Y0006550D03*
X0147450Y0006250D03*
X0147600Y0005950D03*
X0151350Y0005950D03*
X0151500Y0006100D03*
X0151500Y0006250D03*
X0151650Y0006400D03*
X0151800Y0006700D03*
X0153000Y0005950D03*
X0153150Y0006250D03*
X0153750Y0007300D03*
X0152700Y0008500D03*
X0152550Y0008350D03*
X0153300Y0010300D03*
X0153300Y0010450D03*
X0153450Y0010600D03*
X0153450Y0010750D03*
X0153600Y0010900D03*
X0153600Y0011050D03*
X0153750Y0011200D03*
X0153750Y0011350D03*
X0153900Y0011500D03*
X0153900Y0011650D03*
X0153900Y0011800D03*
X0154050Y0011950D03*
X0154050Y0012100D03*
X0154050Y0012250D03*
X0154200Y0012400D03*
X0154200Y0012550D03*
X0154350Y0013000D03*
X0154350Y0013150D03*
X0154500Y0013450D03*
X0154500Y0013600D03*
X0154650Y0013900D03*
X0154650Y0014050D03*
X0154800Y0014500D03*
X0154950Y0014950D03*
X0154950Y0015100D03*
X0155100Y0015400D03*
X0157050Y0020950D03*
X0157050Y0021100D03*
X0157050Y0023200D03*
X0156900Y0023350D03*
X0151950Y0027250D03*
X0151650Y0028300D03*
X0151500Y0028600D03*
X0151500Y0028750D03*
X0151350Y0028900D03*
X0151350Y0029050D03*
X0151200Y0029350D03*
X0151050Y0029500D03*
X0151050Y0029650D03*
X0150900Y0029950D03*
X0150750Y0030100D03*
X0150750Y0030250D03*
X0150600Y0030400D03*
X0150600Y0030550D03*
X0150450Y0030700D03*
X0150300Y0031000D03*
X0150150Y0031150D03*
X0150000Y0031450D03*
X0149850Y0031600D03*
X0149850Y0031750D03*
X0149700Y0031900D03*
X0149400Y0032350D03*
X0149250Y0032500D03*
X0148800Y0033250D03*
X0148650Y0033400D03*
X0148200Y0034000D03*
X0147450Y0035050D03*
X0147300Y0035200D03*
X0147300Y0035350D03*
X0146550Y0035950D03*
X0146100Y0035350D03*
X0146100Y0035200D03*
X0145950Y0035050D03*
X0145800Y0034900D03*
X0145650Y0034600D03*
X0145350Y0034150D03*
X0145200Y0033850D03*
X0144600Y0032350D03*
X0143850Y0028900D03*
X0143550Y0028300D03*
X0143400Y0028000D03*
X0143250Y0027700D03*
X0143100Y0027550D03*
X0142950Y0027250D03*
X0142650Y0026800D03*
X0142500Y0026500D03*
X0142350Y0026200D03*
X0142200Y0026050D03*
X0142050Y0025750D03*
X0141750Y0025300D03*
X0141600Y0025000D03*
X0141450Y0024700D03*
X0141300Y0024400D03*
X0141150Y0024100D03*
X0141000Y0023950D03*
X0140850Y0023650D03*
X0139950Y0021850D03*
X0139950Y0021400D03*
X0140700Y0019300D03*
X0140700Y0019000D03*
X0146250Y0019750D03*
X0146250Y0019900D03*
X0146400Y0020200D03*
X0149850Y0022000D03*
X0149850Y0022150D03*
X0149850Y0022300D03*
X0149850Y0022450D03*
X0150000Y0022750D03*
X0150000Y0022900D03*
X0150000Y0023050D03*
X0149850Y0023350D03*
X0149850Y0023500D03*
X0149850Y0023650D03*
X0149850Y0023800D03*
X0148200Y0025450D03*
X0156900Y0029050D03*
X0156900Y0029200D03*
X0156900Y0029350D03*
X0156450Y0031600D03*
X0156000Y0032800D03*
X0156000Y0032950D03*
X0155850Y0033100D03*
X0154950Y0035050D03*
X0154950Y0035200D03*
X0154800Y0035650D03*
X0154650Y0035950D03*
X0154500Y0036250D03*
X0154350Y0036550D03*
X0153300Y0036250D03*
X0153300Y0036100D03*
X0153000Y0037000D03*
X0153000Y0037150D03*
X0152850Y0037300D03*
X0156150Y0038800D03*
X0156150Y0038950D03*
X0156000Y0039100D03*
X0156000Y0039250D03*
X0156300Y0038650D03*
X0156300Y0038500D03*
X0156450Y0038350D03*
X0156450Y0038200D03*
X0156600Y0038050D03*
X0156600Y0037900D03*
X0156750Y0037750D03*
X0156750Y0037600D03*
X0156900Y0037450D03*
X0156900Y0037300D03*
X0157050Y0037150D03*
X0157050Y0037000D03*
X0157200Y0036850D03*
X0157200Y0036700D03*
X0157350Y0036550D03*
X0157350Y0036400D03*
X0157500Y0036250D03*
X0157500Y0036100D03*
X0157500Y0035950D03*
X0157650Y0035200D03*
X0157800Y0034750D03*
X0164100Y0034750D03*
X0164100Y0034900D03*
X0164100Y0035050D03*
X0164100Y0035200D03*
X0164100Y0035350D03*
X0164250Y0034600D03*
X0164250Y0034450D03*
X0164250Y0034300D03*
X0164700Y0033250D03*
X0164700Y0033100D03*
X0164850Y0032950D03*
X0164850Y0032800D03*
X0165000Y0032650D03*
X0165000Y0032500D03*
X0165150Y0032200D03*
X0165300Y0031900D03*
X0165450Y0031600D03*
X0165450Y0031450D03*
X0165600Y0031300D03*
X0165600Y0031150D03*
X0165750Y0030850D03*
X0165750Y0030700D03*
X0165900Y0030550D03*
X0165900Y0030400D03*
X0166050Y0030250D03*
X0166050Y0030100D03*
X0166200Y0029950D03*
X0166200Y0029800D03*
X0166350Y0029650D03*
X0166350Y0029500D03*
X0166500Y0029350D03*
X0166500Y0029200D03*
X0166650Y0029050D03*
X0166650Y0028900D03*
X0166800Y0028750D03*
X0166800Y0028600D03*
X0166950Y0028450D03*
X0166950Y0028300D03*
X0167100Y0028150D03*
X0167100Y0028000D03*
X0167250Y0027850D03*
X0167250Y0027700D03*
X0167400Y0027550D03*
X0167550Y0027250D03*
X0167700Y0027100D03*
X0167700Y0026950D03*
X0167850Y0026650D03*
X0167850Y0026500D03*
X0168000Y0026350D03*
X0168000Y0026200D03*
X0168150Y0026050D03*
X0168150Y0025900D03*
X0168300Y0025750D03*
X0168300Y0025600D03*
X0168450Y0025150D03*
X0168450Y0025000D03*
X0168600Y0024700D03*
X0168600Y0024550D03*
X0168750Y0023500D03*
X0168750Y0023350D03*
X0168750Y0023200D03*
X0168900Y0022600D03*
X0168900Y0019450D03*
X0168750Y0019150D03*
X0168750Y0019000D03*
X0168450Y0018250D03*
X0168300Y0017950D03*
X0168300Y0017800D03*
X0168150Y0017650D03*
X0168150Y0017500D03*
X0168000Y0017200D03*
X0167850Y0016900D03*
X0167850Y0016750D03*
X0167700Y0016600D03*
X0167700Y0016450D03*
X0167550Y0016150D03*
X0167400Y0015850D03*
X0167400Y0015700D03*
X0167250Y0015550D03*
X0167250Y0015400D03*
X0167100Y0014950D03*
X0167100Y0014800D03*
X0167100Y0014650D03*
X0167100Y0014500D03*
X0167100Y0014350D03*
X0167250Y0014050D03*
X0167250Y0013900D03*
X0167400Y0013450D03*
X0167400Y0013300D03*
X0167550Y0013000D03*
X0167550Y0012850D03*
X0167550Y0012700D03*
X0169650Y0014500D03*
X0165750Y0016000D03*
X0175200Y0013150D03*
X0179550Y0018400D03*
X0179550Y0018550D03*
X0179700Y0018850D03*
X0180300Y0020350D03*
X0180300Y0020500D03*
X0180150Y0022300D03*
X0180150Y0022450D03*
X0180000Y0023050D03*
X0179850Y0023350D03*
X0179700Y0023950D03*
X0179550Y0024250D03*
X0179400Y0024700D03*
X0179400Y0024850D03*
X0179250Y0025000D03*
X0179250Y0025150D03*
X0179100Y0025300D03*
X0179100Y0025450D03*
X0178950Y0025600D03*
X0178950Y0025750D03*
X0178800Y0025900D03*
X0178800Y0026050D03*
X0178650Y0026200D03*
X0178650Y0026350D03*
X0178500Y0026500D03*
X0184650Y0026350D03*
X0184800Y0026200D03*
X0184950Y0026050D03*
X0184950Y0025900D03*
X0185100Y0025750D03*
X0185250Y0025450D03*
X0187650Y0023350D03*
X0187800Y0023500D03*
X0187950Y0023650D03*
X0188100Y0023800D03*
X0188400Y0024250D03*
X0188550Y0024400D03*
X0188700Y0024550D03*
X0188850Y0024700D03*
X0188850Y0024850D03*
X0189000Y0025000D03*
X0189150Y0025150D03*
X0189300Y0025300D03*
X0189300Y0025450D03*
X0189450Y0025600D03*
X0189600Y0025750D03*
X0189750Y0026050D03*
X0189900Y0026200D03*
X0190050Y0026350D03*
X0190200Y0026650D03*
X0190350Y0026800D03*
X0190500Y0027100D03*
X0190800Y0027550D03*
X0191100Y0028000D03*
X0192900Y0027700D03*
X0193050Y0027550D03*
X0192300Y0029950D03*
X0192300Y0030100D03*
X0192600Y0032800D03*
X0193950Y0036100D03*
X0200550Y0034750D03*
X0200700Y0034600D03*
X0199650Y0028900D03*
X0199350Y0028450D03*
X0199050Y0028000D03*
X0198900Y0027700D03*
X0198750Y0027550D03*
X0198600Y0027400D03*
X0198450Y0027250D03*
X0185100Y0020800D03*
X0192000Y0017950D03*
X0192000Y0017800D03*
X0195150Y0017500D03*
X0195300Y0017650D03*
X0195600Y0016450D03*
X0191550Y0015850D03*
X0191100Y0015100D03*
X0190800Y0014650D03*
X0190500Y0014200D03*
X0190200Y0013750D03*
X0190050Y0013600D03*
X0189900Y0013300D03*
X0189750Y0013150D03*
X0189600Y0012850D03*
X0189450Y0012700D03*
X0189300Y0012550D03*
X0189150Y0012400D03*
X0189150Y0012250D03*
X0189000Y0012100D03*
X0188850Y0011950D03*
X0179700Y0031750D03*
X0179550Y0031900D03*
X0179550Y0032050D03*
X0179400Y0032200D03*
X0179400Y0032350D03*
X0179250Y0032500D03*
X0179250Y0032650D03*
X0179100Y0032800D03*
X0179100Y0032950D03*
X0178950Y0033100D03*
X0178950Y0033250D03*
X0178800Y0033400D03*
X0178650Y0033700D03*
X0177450Y0033700D03*
X0177150Y0032950D03*
X0177000Y0032650D03*
X0176850Y0032350D03*
X0176700Y0032050D03*
X0176550Y0031750D03*
X0176400Y0031450D03*
X0175350Y0031900D03*
X0175350Y0032050D03*
X0175500Y0032650D03*
X0175500Y0032800D03*
X0175500Y0032950D03*
X0175500Y0033100D03*
X0175500Y0034300D03*
X0175500Y0034450D03*
X0175500Y0034600D03*
X0177900Y0034750D03*
X0177900Y0034900D03*
X0174150Y0032050D03*
X0174150Y0031900D03*
X0168900Y0034750D03*
X0168900Y0034900D03*
X0168900Y0035050D03*
X0168900Y0035200D03*
X0168900Y0035350D03*
X0168900Y0035500D03*
X0168900Y0035650D03*
X0168900Y0035800D03*
X0168900Y0035950D03*
X0168900Y0036100D03*
X0164400Y0037900D03*
X0164550Y0039700D03*
X0164700Y0040000D03*
X0164700Y0040150D03*
X0164700Y0040300D03*
X0164850Y0043750D03*
X0164850Y0043900D03*
X0170400Y0043900D03*
X0172950Y0044800D03*
X0172950Y0044950D03*
X0173100Y0044350D03*
X0173100Y0044200D03*
X0173100Y0044050D03*
X0173250Y0043150D03*
X0173250Y0043000D03*
X0173250Y0042850D03*
X0173250Y0042700D03*
X0172650Y0040150D03*
X0172500Y0039700D03*
X0169950Y0040900D03*
X0172800Y0045850D03*
X0174750Y0049150D03*
X0174900Y0049300D03*
X0175050Y0049450D03*
X0175200Y0049750D03*
X0175350Y0049900D03*
X0175500Y0050200D03*
X0169950Y0050800D03*
X0169950Y0050950D03*
X0169800Y0050200D03*
X0169650Y0049750D03*
X0169500Y0049600D03*
X0169350Y0049300D03*
X0169650Y0052300D03*
X0168300Y0057400D03*
X0169800Y0060700D03*
X0171900Y0062200D03*
X0171900Y0062350D03*
X0172800Y0064000D03*
X0175350Y0065350D03*
X0175350Y0065500D03*
X0175350Y0065650D03*
X0173400Y0067300D03*
X0173400Y0067450D03*
X0173400Y0067600D03*
X0173400Y0067750D03*
X0169800Y0070000D03*
X0169800Y0070150D03*
X0169650Y0070600D03*
X0169650Y0070750D03*
X0165300Y0072550D03*
X0165150Y0072850D03*
X0163950Y0074650D03*
X0163950Y0074800D03*
X0163800Y0074950D03*
X0162150Y0069850D03*
X0162150Y0069700D03*
X0162150Y0069550D03*
X0158550Y0069550D03*
X0158550Y0069400D03*
X0153900Y0068050D03*
X0153900Y0067900D03*
X0153900Y0067750D03*
X0151350Y0065500D03*
X0150900Y0063550D03*
X0150900Y0063400D03*
X0150000Y0061750D03*
X0148650Y0061150D03*
X0148650Y0061000D03*
X0148650Y0060850D03*
X0148650Y0060700D03*
X0148800Y0058900D03*
X0148800Y0058750D03*
X0148800Y0058600D03*
X0151050Y0058900D03*
X0151050Y0059050D03*
X0151950Y0060250D03*
X0152850Y0063400D03*
X0152850Y0063550D03*
X0152850Y0063700D03*
X0155100Y0062050D03*
X0158250Y0062800D03*
X0159450Y0064300D03*
X0159600Y0064450D03*
X0159750Y0064750D03*
X0162300Y0063700D03*
X0162300Y0063550D03*
X0162450Y0063850D03*
X0162450Y0064000D03*
X0162150Y0063250D03*
X0158850Y0060400D03*
X0161400Y0058750D03*
X0161100Y0057250D03*
X0154500Y0057850D03*
X0154050Y0055600D03*
X0149100Y0053950D03*
X0149250Y0053500D03*
X0149250Y0053350D03*
X0149250Y0053200D03*
X0149250Y0053050D03*
X0149400Y0052750D03*
X0149400Y0052600D03*
X0149550Y0052000D03*
X0147600Y0050200D03*
X0147750Y0049750D03*
X0147900Y0049450D03*
X0148050Y0049000D03*
X0148200Y0048700D03*
X0148350Y0048250D03*
X0148500Y0047950D03*
X0148650Y0047650D03*
X0148800Y0047350D03*
X0148950Y0046900D03*
X0149100Y0046600D03*
X0150150Y0044350D03*
X0150300Y0044050D03*
X0150450Y0043750D03*
X0150600Y0043450D03*
X0151050Y0042700D03*
X0151200Y0042400D03*
X0151350Y0042100D03*
X0151500Y0041800D03*
X0151650Y0041650D03*
X0151650Y0041500D03*
X0151800Y0041350D03*
X0151800Y0041200D03*
X0151950Y0041050D03*
X0151950Y0040900D03*
X0153150Y0044050D03*
X0153000Y0048400D03*
X0157650Y0050050D03*
X0157800Y0049900D03*
X0157950Y0049600D03*
X0158100Y0049450D03*
X0157650Y0051250D03*
X0157650Y0051400D03*
X0168300Y0062950D03*
X0168300Y0063100D03*
X0168000Y0065350D03*
X0169500Y0065800D03*
X0175950Y0061150D03*
X0175800Y0060850D03*
X0175650Y0072700D03*
X0175200Y0073450D03*
X0175050Y0073600D03*
X0174750Y0074050D03*
X0174600Y0074200D03*
X0174450Y0074500D03*
X0174300Y0074650D03*
X0174150Y0074800D03*
X0173850Y0075250D03*
X0173700Y0075400D03*
X0173550Y0075550D03*
X0173400Y0075700D03*
X0174750Y0075700D03*
X0174900Y0075550D03*
X0175050Y0075400D03*
X0175200Y0075250D03*
X0175350Y0075100D03*
X0175500Y0074800D03*
X0175650Y0074650D03*
X0175950Y0074200D03*
X0176100Y0073900D03*
X0156450Y0079450D03*
X0155250Y0075850D03*
X0155100Y0075700D03*
X0154950Y0075400D03*
X0154500Y0074650D03*
X0154350Y0074350D03*
X0154200Y0074050D03*
X0154050Y0073750D03*
X0147900Y0076300D03*
X0147750Y0076150D03*
X0147600Y0076000D03*
X0147450Y0075850D03*
X0147300Y0075700D03*
X0147150Y0075550D03*
X0146700Y0074950D03*
X0146550Y0074800D03*
X0146400Y0074650D03*
X0146100Y0074200D03*
X0145950Y0074050D03*
X0145800Y0073900D03*
X0145650Y0073600D03*
X0145500Y0073450D03*
X0145350Y0073150D03*
X0198450Y0063100D03*
X0199950Y0062050D03*
X0199950Y0065650D03*
X0200100Y0065950D03*
X0200850Y0067000D03*
X0209250Y0067300D03*
X0209400Y0067600D03*
X0209700Y0068050D03*
X0209850Y0068200D03*
X0211500Y0068050D03*
X0211650Y0067900D03*
X0211650Y0066550D03*
X0211350Y0066100D03*
X0211350Y0065950D03*
X0211200Y0065800D03*
X0212250Y0065200D03*
X0212400Y0065500D03*
X0212550Y0065650D03*
X0212700Y0065950D03*
X0212850Y0066100D03*
X0212100Y0064900D03*
X0211950Y0064750D03*
X0211950Y0064600D03*
X0211800Y0064450D03*
X0211650Y0064150D03*
X0211500Y0063850D03*
X0211350Y0063550D03*
X0211200Y0063400D03*
X0211050Y0063250D03*
X0211050Y0063100D03*
X0212400Y0062050D03*
X0212400Y0061900D03*
X0212250Y0061750D03*
X0212550Y0062200D03*
X0213000Y0062950D03*
X0213150Y0063250D03*
X0211950Y0061300D03*
X0211800Y0061150D03*
X0211800Y0061000D03*
X0211650Y0060850D03*
X0211350Y0060400D03*
X0211200Y0060250D03*
X0211200Y0060100D03*
X0211050Y0059950D03*
X0210900Y0059800D03*
X0210750Y0059500D03*
X0210600Y0059350D03*
X0210600Y0059200D03*
X0210450Y0059050D03*
X0210300Y0058900D03*
X0210150Y0058600D03*
X0210000Y0058450D03*
X0209850Y0058150D03*
X0209700Y0058000D03*
X0209550Y0057850D03*
X0209550Y0057700D03*
X0209400Y0057550D03*
X0209250Y0057400D03*
X0209100Y0057100D03*
X0208950Y0056950D03*
X0208800Y0056650D03*
X0208650Y0056500D03*
X0208500Y0056350D03*
X0208500Y0056200D03*
X0208350Y0056050D03*
X0208200Y0055900D03*
X0208050Y0055750D03*
X0207750Y0055300D03*
X0207600Y0055150D03*
X0205950Y0053200D03*
X0205800Y0053050D03*
X0205200Y0052300D03*
X0205050Y0052150D03*
X0204900Y0052000D03*
X0204750Y0051850D03*
X0203850Y0050800D03*
X0203400Y0050200D03*
X0203250Y0049900D03*
X0203100Y0049750D03*
X0203250Y0054250D03*
X0203400Y0054550D03*
X0203550Y0055000D03*
X0203700Y0055300D03*
X0203850Y0055600D03*
X0203850Y0055750D03*
X0203850Y0055900D03*
X0139500Y0009700D03*
X0139650Y0009550D03*
X0139800Y0009250D03*
X0139950Y0009100D03*
X0140100Y0008950D03*
X0140250Y0008650D03*
X0140400Y0008500D03*
X0140550Y0008350D03*
X0140700Y0008050D03*
X0140850Y0007900D03*
X0141000Y0007750D03*
X0141150Y0007600D03*
X0141300Y0007450D03*
X0141300Y0007300D03*
X0141450Y0007150D03*
X0141600Y0007000D03*
X0141750Y0006850D03*
X0141900Y0006700D03*
D18*
X0144150Y0007150D03*
X0144300Y0007450D03*
X0144450Y0008050D03*
X0144450Y0008200D03*
X0144450Y0008350D03*
X0144600Y0009100D03*
X0144600Y0009250D03*
X0144600Y0009400D03*
X0144600Y0009550D03*
X0144750Y0010300D03*
X0144750Y0010450D03*
X0144750Y0010600D03*
X0144900Y0011350D03*
X0144900Y0011500D03*
X0144900Y0011650D03*
X0145050Y0012400D03*
X0145050Y0012550D03*
X0145200Y0013300D03*
X0145200Y0013450D03*
X0145350Y0014200D03*
X0145350Y0014350D03*
X0145500Y0015250D03*
X0145500Y0015400D03*
X0145500Y0015550D03*
X0145650Y0016450D03*
X0145650Y0016600D03*
X0145650Y0016750D03*
X0146850Y0015100D03*
X0146850Y0014950D03*
X0146850Y0014800D03*
X0146850Y0014650D03*
X0146850Y0014500D03*
X0146850Y0014350D03*
X0146850Y0014200D03*
X0146850Y0014050D03*
X0146850Y0013900D03*
X0147900Y0014200D03*
X0148050Y0013300D03*
X0149550Y0013900D03*
X0149250Y0014800D03*
X0148950Y0015850D03*
X0148800Y0016450D03*
X0146700Y0012100D03*
X0146700Y0011950D03*
X0146700Y0011800D03*
X0146700Y0011650D03*
X0146700Y0011500D03*
X0146700Y0011350D03*
X0146700Y0011200D03*
X0146700Y0011050D03*
X0146700Y0010900D03*
X0146700Y0010750D03*
X0148500Y0011050D03*
X0146250Y0006700D03*
X0146400Y0005950D03*
X0153900Y0007600D03*
X0153900Y0007750D03*
X0156300Y0010600D03*
X0156450Y0011350D03*
X0156450Y0011500D03*
X0156600Y0012250D03*
X0156600Y0012400D03*
X0156600Y0012550D03*
X0156600Y0012700D03*
X0156600Y0012850D03*
X0156600Y0013000D03*
X0156600Y0013150D03*
X0156600Y0013300D03*
X0156600Y0013450D03*
X0156600Y0013600D03*
X0156600Y0013750D03*
X0157950Y0016900D03*
X0165750Y0016150D03*
X0159300Y0008500D03*
X0159300Y0008350D03*
X0159450Y0006850D03*
X0159450Y0006700D03*
X0159450Y0006550D03*
X0174900Y0005950D03*
X0174900Y0005800D03*
X0191850Y0018400D03*
X0191850Y0018550D03*
X0191850Y0019450D03*
X0191850Y0019600D03*
X0191850Y0019750D03*
X0191850Y0019900D03*
X0191850Y0020050D03*
X0191850Y0020200D03*
X0192000Y0021100D03*
X0192000Y0021250D03*
X0192000Y0021400D03*
X0192150Y0022150D03*
X0192150Y0022300D03*
X0192150Y0022450D03*
X0192300Y0023050D03*
X0192300Y0023200D03*
X0192450Y0023800D03*
X0192450Y0023950D03*
X0192450Y0024100D03*
X0192600Y0024550D03*
X0192600Y0024700D03*
X0192600Y0024850D03*
X0192750Y0025300D03*
X0192750Y0025450D03*
X0192900Y0025900D03*
X0192900Y0026050D03*
X0193050Y0026500D03*
X0192600Y0028300D03*
X0192600Y0028450D03*
X0192600Y0028600D03*
X0196200Y0025600D03*
X0196050Y0024850D03*
X0196050Y0024700D03*
X0196050Y0024550D03*
X0195900Y0023650D03*
X0195900Y0023500D03*
X0195900Y0023350D03*
X0195750Y0022600D03*
X0195750Y0022450D03*
X0195750Y0022300D03*
X0195750Y0022150D03*
X0195750Y0022000D03*
X0195750Y0021850D03*
X0195750Y0021700D03*
X0195750Y0021550D03*
X0195750Y0021400D03*
X0195750Y0021250D03*
X0195750Y0021100D03*
X0195750Y0020950D03*
X0195750Y0020800D03*
X0195750Y0020650D03*
X0195750Y0020500D03*
X0195750Y0020350D03*
X0195750Y0020200D03*
X0195750Y0020050D03*
X0195750Y0019900D03*
X0195600Y0018850D03*
X0195600Y0018700D03*
X0195600Y0018550D03*
X0195600Y0018400D03*
X0195450Y0017950D03*
X0194250Y0016150D03*
X0194250Y0016000D03*
X0200400Y0030250D03*
X0200550Y0030550D03*
X0200700Y0031000D03*
X0200850Y0031450D03*
X0200850Y0031600D03*
X0201000Y0032200D03*
X0201000Y0032350D03*
X0201000Y0032500D03*
X0201000Y0032650D03*
X0201000Y0032800D03*
X0201000Y0032950D03*
X0201000Y0033100D03*
X0201000Y0033250D03*
X0201000Y0033400D03*
X0201000Y0033550D03*
X0201000Y0033700D03*
X0201000Y0033850D03*
X0201000Y0034000D03*
X0198750Y0037000D03*
X0198750Y0037150D03*
X0198900Y0037450D03*
X0198900Y0037600D03*
X0199050Y0038050D03*
X0199200Y0038500D03*
X0199350Y0038950D03*
X0199500Y0039400D03*
X0199650Y0039850D03*
X0199800Y0040300D03*
X0199950Y0040750D03*
X0200100Y0041200D03*
X0200250Y0041650D03*
X0200400Y0042100D03*
X0200550Y0042550D03*
X0200700Y0043000D03*
X0200850Y0043450D03*
X0201000Y0043900D03*
X0201150Y0044350D03*
X0201300Y0044800D03*
X0199050Y0045700D03*
X0198900Y0045400D03*
X0198900Y0045250D03*
X0198750Y0044950D03*
X0198600Y0044500D03*
X0198450Y0044050D03*
X0198300Y0043750D03*
X0198150Y0043300D03*
X0198000Y0042850D03*
X0197850Y0042400D03*
X0197700Y0042100D03*
X0197700Y0041950D03*
X0197550Y0041650D03*
X0197400Y0041200D03*
X0197250Y0040750D03*
X0197100Y0040300D03*
X0196950Y0039850D03*
X0196800Y0039400D03*
X0196650Y0038950D03*
X0196500Y0038500D03*
X0196500Y0038350D03*
X0196350Y0037900D03*
X0196200Y0037450D03*
X0196200Y0037300D03*
X0193950Y0035050D03*
X0193950Y0034900D03*
X0193800Y0034450D03*
X0191850Y0034450D03*
X0191850Y0034600D03*
X0191850Y0034750D03*
X0191850Y0034900D03*
X0191850Y0035050D03*
X0191850Y0035200D03*
X0191850Y0034300D03*
X0191850Y0034150D03*
X0191850Y0034000D03*
X0191850Y0033850D03*
X0192450Y0032200D03*
X0192450Y0032050D03*
X0192450Y0031900D03*
X0192450Y0031750D03*
X0177900Y0035500D03*
X0177900Y0035650D03*
X0177900Y0035800D03*
X0177900Y0035950D03*
X0177900Y0036100D03*
X0177900Y0036250D03*
X0177900Y0038350D03*
X0177900Y0038500D03*
X0177900Y0038650D03*
X0177900Y0038800D03*
X0177900Y0038950D03*
X0177900Y0039100D03*
X0177900Y0039250D03*
X0177900Y0039400D03*
X0177900Y0039550D03*
X0177900Y0039700D03*
X0177900Y0039850D03*
X0177750Y0041800D03*
X0177750Y0041950D03*
X0177600Y0043300D03*
X0177600Y0043450D03*
X0174450Y0042250D03*
X0174450Y0042100D03*
X0172650Y0046450D03*
X0172650Y0046600D03*
X0175650Y0050500D03*
X0177000Y0050500D03*
X0177000Y0050650D03*
X0177000Y0050800D03*
X0177000Y0050950D03*
X0177000Y0051100D03*
X0177000Y0051250D03*
X0177000Y0051400D03*
X0177000Y0051550D03*
X0177000Y0050350D03*
X0177000Y0050200D03*
X0178350Y0049900D03*
X0178500Y0050350D03*
X0178500Y0050500D03*
X0178650Y0050950D03*
X0178800Y0051400D03*
X0178800Y0051550D03*
X0178950Y0052150D03*
X0179100Y0052600D03*
X0179100Y0052750D03*
X0179250Y0053500D03*
X0179400Y0054100D03*
X0179400Y0054250D03*
X0179550Y0055300D03*
X0179550Y0055450D03*
X0179700Y0056200D03*
X0179700Y0056350D03*
X0179700Y0056500D03*
X0179700Y0056650D03*
X0179700Y0056800D03*
X0177000Y0056800D03*
X0177000Y0056650D03*
X0177000Y0056500D03*
X0177000Y0056350D03*
X0177000Y0056200D03*
X0176850Y0054850D03*
X0176850Y0054700D03*
X0176850Y0054550D03*
X0176850Y0054400D03*
X0176850Y0054250D03*
X0176850Y0054100D03*
X0176850Y0053950D03*
X0176850Y0053800D03*
X0176850Y0053650D03*
X0176850Y0053500D03*
X0176850Y0053350D03*
X0176850Y0053200D03*
X0175500Y0053200D03*
X0175350Y0053950D03*
X0175350Y0054100D03*
X0175350Y0054250D03*
X0175650Y0052300D03*
X0175650Y0052150D03*
X0175650Y0052000D03*
X0175650Y0051850D03*
X0178200Y0049450D03*
X0178200Y0049300D03*
X0175200Y0056350D03*
X0175200Y0056500D03*
X0175200Y0056650D03*
X0175200Y0056800D03*
X0175200Y0056950D03*
X0175200Y0057100D03*
X0175200Y0057250D03*
X0175200Y0057400D03*
X0175200Y0057550D03*
X0175200Y0057700D03*
X0175200Y0057850D03*
X0175200Y0058000D03*
X0175200Y0058150D03*
X0175350Y0058900D03*
X0175350Y0059050D03*
X0175500Y0059500D03*
X0175650Y0060100D03*
X0175650Y0060250D03*
X0177300Y0060250D03*
X0177300Y0060400D03*
X0177300Y0060550D03*
X0177300Y0060100D03*
X0177300Y0059950D03*
X0177300Y0059800D03*
X0177150Y0059200D03*
X0177150Y0059050D03*
X0177150Y0058900D03*
X0174150Y0058000D03*
X0174150Y0061450D03*
X0175800Y0062950D03*
X0175800Y0063100D03*
X0176850Y0062950D03*
X0177000Y0063250D03*
X0177150Y0063850D03*
X0177450Y0065200D03*
X0177450Y0065350D03*
X0179100Y0065500D03*
X0179100Y0065650D03*
X0179250Y0064750D03*
X0179400Y0064150D03*
X0179400Y0064000D03*
X0179400Y0063850D03*
X0179550Y0062950D03*
X0179550Y0062800D03*
X0179550Y0062650D03*
X0179700Y0061750D03*
X0179700Y0061600D03*
X0179700Y0061450D03*
X0179700Y0061300D03*
X0179700Y0061150D03*
X0179700Y0061000D03*
X0179700Y0060850D03*
X0174150Y0064600D03*
X0174150Y0064750D03*
X0174150Y0064900D03*
X0173100Y0065200D03*
X0173100Y0065350D03*
X0172950Y0064600D03*
X0171600Y0064300D03*
X0171300Y0065800D03*
X0171150Y0066400D03*
X0170850Y0067300D03*
X0170850Y0067450D03*
X0170700Y0067900D03*
X0169650Y0067600D03*
X0169650Y0067450D03*
X0169650Y0067300D03*
X0169500Y0066250D03*
X0169500Y0066100D03*
X0169200Y0064900D03*
X0169050Y0064450D03*
X0168150Y0064450D03*
X0168000Y0065650D03*
X0167850Y0066250D03*
X0167700Y0066850D03*
X0167550Y0067300D03*
X0167250Y0068200D03*
X0166800Y0069400D03*
X0166500Y0070150D03*
X0166350Y0070450D03*
X0164100Y0068800D03*
X0164100Y0068650D03*
X0164100Y0068500D03*
X0163950Y0067750D03*
X0163800Y0067150D03*
X0163800Y0067000D03*
X0163500Y0066100D03*
X0163350Y0065650D03*
X0162450Y0065650D03*
X0162450Y0065800D03*
X0162450Y0065950D03*
X0162450Y0066100D03*
X0162450Y0066250D03*
X0162450Y0066400D03*
X0162450Y0066550D03*
X0162450Y0066700D03*
X0162450Y0066850D03*
X0162450Y0067000D03*
X0162450Y0067150D03*
X0162450Y0067300D03*
X0162450Y0067450D03*
X0162450Y0067600D03*
X0162450Y0067750D03*
X0162450Y0067900D03*
X0161400Y0067900D03*
X0161250Y0067600D03*
X0158550Y0067600D03*
X0158550Y0067750D03*
X0158550Y0067450D03*
X0158550Y0067300D03*
X0158550Y0067150D03*
X0158550Y0067000D03*
X0157650Y0067750D03*
X0156900Y0066100D03*
X0156750Y0065800D03*
X0156600Y0065500D03*
X0155700Y0063400D03*
X0155550Y0063100D03*
X0154350Y0064000D03*
X0154350Y0064150D03*
X0154350Y0064300D03*
X0154200Y0065350D03*
X0154200Y0065500D03*
X0154200Y0065650D03*
X0152400Y0067750D03*
X0152400Y0067900D03*
X0152400Y0068050D03*
X0151500Y0068500D03*
X0151500Y0068650D03*
X0151350Y0068050D03*
X0151350Y0067900D03*
X0152550Y0069250D03*
X0152550Y0069400D03*
X0151800Y0070000D03*
X0151800Y0070150D03*
X0154050Y0068950D03*
X0154050Y0068800D03*
X0152850Y0073300D03*
X0155400Y0076300D03*
X0147900Y0071650D03*
X0147000Y0069700D03*
X0146850Y0069400D03*
X0146700Y0068950D03*
X0146550Y0068650D03*
X0146400Y0068200D03*
X0145950Y0066850D03*
X0145800Y0065950D03*
X0145800Y0065800D03*
X0145650Y0064750D03*
X0145650Y0064600D03*
X0145650Y0064450D03*
X0145500Y0062650D03*
X0145500Y0062500D03*
X0145500Y0062350D03*
X0145500Y0062200D03*
X0145500Y0062050D03*
X0145500Y0061900D03*
X0145500Y0061750D03*
X0145500Y0061600D03*
X0145500Y0061450D03*
X0145500Y0061300D03*
X0145500Y0061150D03*
X0145500Y0061000D03*
X0145500Y0060850D03*
X0145500Y0060700D03*
X0145500Y0060550D03*
X0145500Y0060400D03*
X0145500Y0060250D03*
X0145500Y0060100D03*
X0145500Y0059950D03*
X0145500Y0059800D03*
X0145500Y0059650D03*
X0145650Y0058450D03*
X0145650Y0058300D03*
X0145800Y0057700D03*
X0145950Y0056650D03*
X0145950Y0056500D03*
X0146100Y0056050D03*
X0146100Y0055900D03*
X0146250Y0055150D03*
X0146250Y0055000D03*
X0146400Y0054550D03*
X0146550Y0053800D03*
X0146700Y0053350D03*
X0146700Y0053200D03*
X0146850Y0052600D03*
X0147000Y0052150D03*
X0147150Y0051550D03*
X0147150Y0051400D03*
X0145050Y0051100D03*
X0145050Y0050950D03*
X0145050Y0050800D03*
X0145200Y0050350D03*
X0145350Y0049600D03*
X0145350Y0049450D03*
X0145500Y0049000D03*
X0145500Y0048850D03*
X0145650Y0048100D03*
X0145650Y0047950D03*
X0145650Y0047800D03*
X0145800Y0047350D03*
X0145800Y0047200D03*
X0145950Y0046600D03*
X0145950Y0046450D03*
X0145950Y0046300D03*
X0146100Y0045850D03*
X0146100Y0045700D03*
X0146250Y0045100D03*
X0146250Y0044950D03*
X0146250Y0044800D03*
X0146400Y0044350D03*
X0146400Y0044200D03*
X0146400Y0044050D03*
X0146400Y0043900D03*
X0146550Y0042700D03*
X0146550Y0042550D03*
X0146550Y0042400D03*
X0146550Y0042250D03*
X0146550Y0042100D03*
X0146550Y0041950D03*
X0146550Y0041800D03*
X0146550Y0041650D03*
X0146550Y0041500D03*
X0146550Y0041350D03*
X0146550Y0041200D03*
X0146550Y0041050D03*
X0146700Y0039700D03*
X0146700Y0039550D03*
X0146700Y0039400D03*
X0146700Y0039250D03*
X0146700Y0039100D03*
X0146700Y0038950D03*
X0146700Y0038800D03*
X0146700Y0038650D03*
X0146700Y0038500D03*
X0146700Y0038350D03*
X0146700Y0038200D03*
X0146700Y0038050D03*
X0146700Y0037900D03*
X0144150Y0030850D03*
X0144000Y0029950D03*
X0148800Y0027100D03*
X0149850Y0023950D03*
X0149700Y0021550D03*
X0140550Y0018550D03*
X0140400Y0018100D03*
X0140250Y0017650D03*
X0140100Y0017200D03*
X0139950Y0016750D03*
X0139950Y0016600D03*
X0139800Y0016300D03*
X0139800Y0016150D03*
X0139650Y0015850D03*
X0139650Y0015700D03*
X0139500Y0015400D03*
X0139500Y0015250D03*
X0139350Y0014950D03*
X0139350Y0014800D03*
X0139200Y0014350D03*
X0139050Y0014050D03*
X0139050Y0013900D03*
X0138900Y0013600D03*
X0138900Y0013450D03*
X0138750Y0013150D03*
X0138750Y0013000D03*
X0138600Y0012550D03*
X0138600Y0012400D03*
X0138600Y0011950D03*
X0138600Y0011800D03*
X0138600Y0011650D03*
X0138750Y0011200D03*
X0138900Y0010750D03*
X0156900Y0028750D03*
X0157800Y0031900D03*
X0157800Y0032050D03*
X0157800Y0032200D03*
X0164100Y0038200D03*
X0156900Y0044950D03*
X0154200Y0044350D03*
X0154050Y0044650D03*
X0153900Y0045100D03*
X0153750Y0045400D03*
X0153450Y0046300D03*
X0153300Y0047050D03*
X0151950Y0046300D03*
X0152100Y0046000D03*
X0152250Y0045700D03*
X0152400Y0045400D03*
X0151500Y0047350D03*
X0151350Y0047650D03*
X0150900Y0048700D03*
X0150750Y0049000D03*
X0150600Y0049450D03*
X0150450Y0049750D03*
X0150300Y0050200D03*
X0150150Y0050500D03*
X0150000Y0050950D03*
X0149850Y0051250D03*
X0152100Y0052000D03*
X0152100Y0052150D03*
X0151950Y0052750D03*
X0151800Y0053500D03*
X0151800Y0053650D03*
X0151650Y0054250D03*
X0151500Y0055150D03*
X0151500Y0055300D03*
X0151350Y0055900D03*
X0151350Y0056050D03*
X0151200Y0056800D03*
X0151200Y0056950D03*
X0151200Y0057100D03*
X0151200Y0057250D03*
X0151050Y0058150D03*
X0151050Y0058300D03*
X0151050Y0058450D03*
X0151050Y0058600D03*
X0150000Y0060400D03*
X0150150Y0060700D03*
X0150150Y0060850D03*
X0150150Y0061000D03*
X0150150Y0061150D03*
X0150000Y0061450D03*
X0152850Y0062950D03*
X0152850Y0063100D03*
X0152850Y0063250D03*
X0151050Y0064000D03*
X0151200Y0064300D03*
X0151200Y0064450D03*
X0151200Y0064600D03*
X0148500Y0065200D03*
X0143250Y0066550D03*
X0143250Y0066700D03*
X0143250Y0066850D03*
X0143250Y0067000D03*
X0143400Y0067750D03*
X0143550Y0068500D03*
X0143550Y0068650D03*
X0143700Y0069100D03*
X0143700Y0069250D03*
X0143850Y0069850D03*
X0144000Y0070150D03*
X0144150Y0070600D03*
X0144300Y0070900D03*
X0144450Y0071350D03*
X0144600Y0071650D03*
X0143100Y0064000D03*
X0143100Y0063850D03*
X0143100Y0063700D03*
X0143100Y0063550D03*
X0143100Y0063400D03*
X0143100Y0063250D03*
X0143100Y0063100D03*
X0143100Y0062950D03*
X0143100Y0062800D03*
X0143100Y0062650D03*
X0143100Y0062500D03*
X0143100Y0062350D03*
X0143100Y0062200D03*
X0143100Y0062050D03*
X0143100Y0061900D03*
X0143100Y0061750D03*
X0143100Y0061600D03*
X0143100Y0061450D03*
X0143100Y0061300D03*
X0143100Y0061150D03*
X0143100Y0061000D03*
X0143100Y0060850D03*
X0143100Y0060700D03*
X0143100Y0060550D03*
X0143100Y0060400D03*
X0143100Y0060250D03*
X0143250Y0059050D03*
X0143250Y0058900D03*
X0143400Y0058150D03*
X0143550Y0057400D03*
X0143700Y0056800D03*
X0143850Y0056050D03*
X0143850Y0055900D03*
X0144000Y0055450D03*
X0144150Y0054700D03*
X0144300Y0054250D03*
X0144300Y0054100D03*
X0144450Y0053650D03*
X0144450Y0053500D03*
X0144600Y0053050D03*
X0144600Y0052900D03*
X0144750Y0052300D03*
X0144750Y0052150D03*
X0144900Y0051850D03*
X0144900Y0051700D03*
X0152250Y0051250D03*
X0152400Y0050650D03*
X0152550Y0050050D03*
X0152550Y0049900D03*
X0152700Y0049450D03*
X0152700Y0049300D03*
X0152850Y0048700D03*
X0154500Y0057700D03*
X0158250Y0062650D03*
X0158850Y0070300D03*
X0164100Y0072700D03*
X0164100Y0072850D03*
X0169350Y0071500D03*
X0169500Y0071200D03*
X0172350Y0072250D03*
X0172500Y0071950D03*
X0172650Y0071350D03*
X0172800Y0071050D03*
X0172950Y0070300D03*
X0173100Y0069850D03*
X0173100Y0069700D03*
X0173250Y0068650D03*
X0173250Y0068500D03*
X0173250Y0068350D03*
X0173250Y0068200D03*
X0175350Y0068050D03*
X0175350Y0067900D03*
X0175350Y0067750D03*
X0175350Y0067600D03*
X0175350Y0067450D03*
X0175350Y0066100D03*
X0175350Y0065950D03*
X0177450Y0067600D03*
X0177450Y0067750D03*
X0178500Y0067750D03*
X0178650Y0067150D03*
X0178800Y0066700D03*
X0175200Y0069250D03*
X0175050Y0069850D03*
X0174900Y0070600D03*
X0174750Y0070900D03*
X0174600Y0071500D03*
X0174450Y0071800D03*
X0174300Y0072250D03*
X0174150Y0072550D03*
X0174000Y0073000D03*
X0172200Y0072700D03*
X0172050Y0073000D03*
X0171600Y0073900D03*
X0177000Y0072100D03*
X0168300Y0062650D03*
X0198300Y0062650D03*
X0198300Y0062500D03*
X0198300Y0062350D03*
X0198300Y0062200D03*
X0198300Y0062050D03*
X0198300Y0061900D03*
X0198300Y0061750D03*
X0198450Y0060850D03*
X0198450Y0060700D03*
X0198600Y0060100D03*
X0198750Y0059500D03*
X0199050Y0058450D03*
X0199350Y0057400D03*
X0199500Y0056950D03*
X0199950Y0055450D03*
X0200100Y0055000D03*
X0200250Y0054550D03*
X0200400Y0054100D03*
X0200550Y0053650D03*
X0200850Y0052600D03*
X0201000Y0052150D03*
X0201000Y0051250D03*
X0200700Y0050200D03*
X0200400Y0049300D03*
X0199650Y0047350D03*
X0199500Y0046900D03*
X0199200Y0046150D03*
X0202500Y0048400D03*
X0203550Y0057250D03*
X0203400Y0057850D03*
X0203400Y0058000D03*
X0203250Y0058450D03*
X0203100Y0059200D03*
X0202950Y0059800D03*
X0202800Y0060400D03*
X0202650Y0061000D03*
X0202500Y0061600D03*
X0200250Y0060400D03*
X0205050Y0058450D03*
X0205650Y0059800D03*
X0205950Y0060550D03*
X0206100Y0060850D03*
X0208050Y0065050D03*
X0208200Y0065350D03*
X0211050Y0065350D03*
X0210900Y0062800D03*
X0210900Y0062650D03*
X0214050Y0065200D03*
X0214050Y0065350D03*
X0214050Y0065950D03*
X0201750Y0064450D03*
D19*
X0200700Y0066100D03*
X0199050Y0063400D03*
X0210600Y0068650D03*
X0212400Y0067300D03*
X0213450Y0066400D03*
X0176550Y0071950D03*
X0176400Y0072250D03*
X0169350Y0079900D03*
X0169050Y0080050D03*
X0151800Y0067150D03*
X0151800Y0067000D03*
X0151800Y0066850D03*
X0151800Y0066700D03*
X0151800Y0066550D03*
X0151800Y0066400D03*
X0151800Y0066250D03*
X0151800Y0066100D03*
X0151800Y0065950D03*
X0151800Y0065800D03*
X0151200Y0063100D03*
X0152250Y0061600D03*
X0156750Y0064750D03*
X0158850Y0064150D03*
X0158850Y0064000D03*
X0160650Y0065350D03*
X0162300Y0064600D03*
X0158850Y0060250D03*
X0154650Y0056500D03*
X0154500Y0056350D03*
X0160200Y0047650D03*
X0157050Y0045700D03*
X0156300Y0044200D03*
X0154500Y0042700D03*
X0154500Y0042550D03*
X0152250Y0039850D03*
X0152700Y0038950D03*
X0152700Y0038800D03*
X0152850Y0038650D03*
X0152850Y0038500D03*
X0153000Y0038350D03*
X0153000Y0038200D03*
X0153150Y0037900D03*
X0149400Y0038350D03*
X0147150Y0037000D03*
X0146700Y0035500D03*
X0149550Y0044650D03*
X0149400Y0044800D03*
X0149400Y0044950D03*
X0163800Y0038950D03*
X0167400Y0040750D03*
X0165000Y0043000D03*
X0167100Y0047500D03*
X0173400Y0056950D03*
X0173250Y0057100D03*
X0173100Y0057250D03*
X0172950Y0057400D03*
X0171600Y0059800D03*
X0175800Y0061600D03*
X0174750Y0037900D03*
X0178050Y0034000D03*
X0178050Y0033850D03*
X0174750Y0031600D03*
X0174750Y0031450D03*
X0168150Y0034000D03*
X0166950Y0034750D03*
X0159450Y0033550D03*
X0155700Y0024250D03*
X0156000Y0024100D03*
X0145350Y0017500D03*
X0145200Y0017350D03*
X0150300Y0013150D03*
X0159450Y0012250D03*
X0163950Y0014200D03*
X0169950Y0014350D03*
X0175800Y0014500D03*
X0187200Y0011950D03*
X0188100Y0011500D03*
X0192150Y0017350D03*
X0184350Y0024250D03*
X0184200Y0024100D03*
X0192000Y0028750D03*
X0198750Y0035950D03*
X0143100Y0005950D03*
D20*
X0143025Y0006100D03*
X0149325Y0008650D03*
X0152325Y0008950D03*
X0150375Y0013300D03*
X0150375Y0013450D03*
X0155925Y0017200D03*
X0163725Y0014050D03*
X0147525Y0017800D03*
X0153975Y0025000D03*
X0154725Y0024700D03*
X0155025Y0024550D03*
X0155325Y0024400D03*
X0155325Y0033250D03*
X0158475Y0034000D03*
X0163575Y0035800D03*
X0163575Y0035950D03*
X0164325Y0037000D03*
X0163725Y0039100D03*
X0165075Y0042700D03*
X0165075Y0042850D03*
X0167625Y0040600D03*
X0169875Y0045850D03*
X0174675Y0055750D03*
X0172725Y0057550D03*
X0172575Y0057700D03*
X0169875Y0060550D03*
X0174225Y0063100D03*
X0158775Y0058900D03*
X0154875Y0056650D03*
X0152475Y0061750D03*
X0151275Y0062950D03*
X0153675Y0047500D03*
X0153825Y0047350D03*
X0156225Y0044050D03*
X0149625Y0038500D03*
X0153075Y0038050D03*
X0153225Y0037750D03*
X0153225Y0037600D03*
X0153375Y0037450D03*
X0174675Y0031750D03*
X0175425Y0030850D03*
X0175425Y0030700D03*
X0175275Y0029950D03*
X0183975Y0023800D03*
X0184125Y0023950D03*
X0186225Y0022300D03*
X0180825Y0021550D03*
X0179625Y0017650D03*
X0192225Y0017200D03*
X0193875Y0026950D03*
X0192675Y0033250D03*
X0192675Y0033400D03*
X0199125Y0063250D03*
X0212475Y0067150D03*
X0213375Y0066250D03*
X0158775Y0080800D03*
X0151575Y0079000D03*
D21*
X0162225Y0064750D03*
X0154725Y0062950D03*
X0155775Y0057250D03*
X0153975Y0047200D03*
X0157725Y0045400D03*
X0160725Y0047500D03*
X0165075Y0042550D03*
X0163725Y0039250D03*
X0164325Y0036700D03*
X0163425Y0035500D03*
X0158625Y0033850D03*
X0154425Y0043000D03*
X0173775Y0041950D03*
X0173775Y0041800D03*
X0174375Y0038200D03*
X0175425Y0031000D03*
X0183825Y0023500D03*
X0186225Y0022450D03*
X0180975Y0021850D03*
X0179625Y0017500D03*
X0170175Y0014200D03*
X0163275Y0013750D03*
X0162975Y0013600D03*
X0152175Y0009250D03*
X0152175Y0009100D03*
X0149475Y0008500D03*
X0143025Y0006250D03*
X0147675Y0017650D03*
X0152475Y0025600D03*
X0188025Y0011650D03*
X0192675Y0033550D03*
X0198375Y0036100D03*
X0174525Y0056050D03*
X0174375Y0056200D03*
X0171975Y0058000D03*
X0168825Y0058000D03*
X0174975Y0063850D03*
X0174975Y0064000D03*
D22*
X0171825Y0061750D03*
X0168375Y0059500D03*
X0168225Y0057250D03*
X0161475Y0058450D03*
X0161175Y0057100D03*
X0152625Y0061300D03*
X0148575Y0065350D03*
X0154125Y0069100D03*
X0158775Y0070450D03*
X0162225Y0070300D03*
X0168075Y0074500D03*
X0171675Y0074050D03*
X0174075Y0073150D03*
X0171525Y0077800D03*
X0163725Y0075400D03*
X0147975Y0071800D03*
X0162075Y0062950D03*
X0200175Y0060250D03*
X0202875Y0053050D03*
X0214125Y0065500D03*
X0214125Y0065650D03*
X0214125Y0065800D03*
X0210525Y0069100D03*
X0160425Y0032650D03*
X0149775Y0024100D03*
X0140025Y0013600D03*
X0146175Y0007150D03*
X0153975Y0007900D03*
X0155025Y0006250D03*
X0156375Y0010450D03*
X0173775Y0028150D03*
X0185025Y0020650D03*
X0192825Y0016300D03*
X0195675Y0016150D03*
D23*
X0173775Y0028000D03*
X0165825Y0016300D03*
X0169425Y0014650D03*
X0155025Y0006400D03*
X0146175Y0007300D03*
X0156825Y0028600D03*
X0153975Y0055300D03*
X0154425Y0057550D03*
X0148125Y0057700D03*
X0151125Y0062050D03*
X0158175Y0062500D03*
X0154125Y0069250D03*
X0152925Y0073450D03*
X0155475Y0076450D03*
X0147975Y0071950D03*
X0162225Y0070450D03*
X0168075Y0074650D03*
X0168225Y0062500D03*
X0174075Y0061300D03*
X0174225Y0057850D03*
X0202875Y0052900D03*
X0210825Y0062500D03*
X0210975Y0065200D03*
D24*
X0213375Y0066700D03*
X0200775Y0066700D03*
X0200775Y0066550D03*
X0199275Y0063850D03*
X0203925Y0056650D03*
X0177375Y0047650D03*
X0177375Y0047500D03*
X0177375Y0047350D03*
X0177375Y0047200D03*
X0177375Y0047050D03*
X0177375Y0046900D03*
X0173625Y0048100D03*
X0173475Y0047950D03*
X0168525Y0048400D03*
X0168375Y0048250D03*
X0168075Y0048100D03*
X0164925Y0043450D03*
X0164925Y0043300D03*
X0164475Y0042100D03*
X0164475Y0041950D03*
X0164475Y0041800D03*
X0166725Y0041200D03*
X0166875Y0041050D03*
X0167025Y0040900D03*
X0170175Y0041350D03*
X0170175Y0041500D03*
X0174975Y0037450D03*
X0174975Y0037300D03*
X0175125Y0036850D03*
X0175125Y0036700D03*
X0175125Y0036550D03*
X0175275Y0036250D03*
X0175275Y0036100D03*
X0175275Y0035950D03*
X0177975Y0034450D03*
X0177975Y0034300D03*
X0174525Y0029200D03*
X0174375Y0029050D03*
X0174225Y0028900D03*
X0166125Y0035350D03*
X0165975Y0035500D03*
X0165825Y0035650D03*
X0165675Y0035800D03*
X0164325Y0037450D03*
X0164325Y0037600D03*
X0162525Y0039850D03*
X0162375Y0040000D03*
X0157275Y0043450D03*
X0156525Y0044500D03*
X0155325Y0046600D03*
X0154875Y0046900D03*
X0154575Y0047050D03*
X0159075Y0048400D03*
X0159225Y0048250D03*
X0159675Y0047950D03*
X0158475Y0052300D03*
X0154125Y0055900D03*
X0154875Y0058150D03*
X0155325Y0058450D03*
X0160725Y0059350D03*
X0161025Y0057400D03*
X0168375Y0057700D03*
X0170325Y0059200D03*
X0173025Y0059050D03*
X0173475Y0058750D03*
X0173625Y0058600D03*
X0175875Y0061450D03*
X0174375Y0062650D03*
X0172125Y0063100D03*
X0171225Y0064750D03*
X0169725Y0065650D03*
X0168525Y0064000D03*
X0168525Y0063850D03*
X0167775Y0064750D03*
X0167775Y0064900D03*
X0162825Y0065200D03*
X0160575Y0065500D03*
X0158175Y0065500D03*
X0158625Y0063550D03*
X0158625Y0063400D03*
X0156375Y0064450D03*
X0153825Y0066700D03*
X0153825Y0066850D03*
X0152775Y0065350D03*
X0152775Y0065200D03*
X0152775Y0065050D03*
X0152775Y0064900D03*
X0152775Y0064750D03*
X0150075Y0062050D03*
X0148575Y0057550D03*
X0148575Y0057100D03*
X0148575Y0056950D03*
X0148575Y0056800D03*
X0148575Y0056650D03*
X0148575Y0056500D03*
X0148725Y0056200D03*
X0148725Y0056050D03*
X0148725Y0055900D03*
X0148875Y0055150D03*
X0149025Y0046300D03*
X0149475Y0041950D03*
X0149475Y0041800D03*
X0149475Y0041650D03*
X0149475Y0041500D03*
X0149475Y0041350D03*
X0149475Y0041200D03*
X0149475Y0041050D03*
X0149475Y0040900D03*
X0149475Y0040750D03*
X0149475Y0040600D03*
X0149475Y0040450D03*
X0149475Y0040300D03*
X0149475Y0040150D03*
X0149475Y0040000D03*
X0149475Y0039850D03*
X0149475Y0039700D03*
X0149475Y0039550D03*
X0148875Y0038050D03*
X0148425Y0037750D03*
X0146775Y0036400D03*
X0146625Y0035650D03*
X0152175Y0040150D03*
X0155325Y0040900D03*
X0155475Y0040600D03*
X0155625Y0040300D03*
X0155625Y0040150D03*
X0155175Y0034300D03*
X0155175Y0034150D03*
X0155175Y0034000D03*
X0158025Y0034450D03*
X0157125Y0030400D03*
X0157125Y0030250D03*
X0153825Y0031300D03*
X0153825Y0031450D03*
X0140175Y0021250D03*
X0140625Y0019750D03*
X0143625Y0019450D03*
X0143925Y0019300D03*
X0144075Y0019150D03*
X0145425Y0018100D03*
X0146175Y0019000D03*
X0146175Y0019150D03*
X0146175Y0019300D03*
X0144225Y0016900D03*
X0143775Y0016600D03*
X0143325Y0016300D03*
X0142875Y0016000D03*
X0142725Y0015850D03*
X0142275Y0015550D03*
X0141825Y0015250D03*
X0141225Y0014800D03*
X0150225Y0012850D03*
X0156225Y0017800D03*
X0156225Y0017950D03*
X0165375Y0015400D03*
X0165525Y0015550D03*
X0177375Y0015700D03*
X0177525Y0015850D03*
X0177675Y0016000D03*
X0177825Y0016150D03*
X0182775Y0015250D03*
X0186375Y0012400D03*
X0186525Y0012250D03*
X0186825Y0012100D03*
X0188175Y0011350D03*
X0185475Y0021250D03*
X0186225Y0022000D03*
X0184725Y0024700D03*
X0184875Y0024850D03*
X0180675Y0021100D03*
X0193425Y0027250D03*
X0197775Y0026650D03*
X0199875Y0035350D03*
X0199425Y0035650D03*
X0173625Y0066250D03*
X0170025Y0068800D03*
X0170025Y0068950D03*
X0170025Y0069100D03*
X0164325Y0073600D03*
X0164325Y0073750D03*
X0162075Y0068950D03*
X0162075Y0068800D03*
X0158325Y0068650D03*
X0158325Y0068500D03*
X0158175Y0068050D03*
X0150075Y0078250D03*
X0170775Y0079150D03*
X0171075Y0079000D03*
X0171225Y0078850D03*
X0171525Y0078700D03*
X0171675Y0078550D03*
X0151875Y0007300D03*
D25*
X0151725Y0007450D03*
X0147375Y0015250D03*
X0147375Y0015400D03*
X0147375Y0017950D03*
X0145425Y0018250D03*
X0145425Y0017650D03*
X0142875Y0019900D03*
X0142575Y0020050D03*
X0140625Y0020050D03*
X0140325Y0021100D03*
X0156225Y0023950D03*
X0156975Y0019750D03*
X0156975Y0019600D03*
X0156075Y0017500D03*
X0156075Y0017350D03*
X0164175Y0014350D03*
X0164625Y0014650D03*
X0179625Y0017800D03*
X0180825Y0021400D03*
X0184425Y0024400D03*
X0186225Y0022150D03*
X0196425Y0025900D03*
X0192075Y0028900D03*
X0192675Y0033100D03*
X0199125Y0035800D03*
X0177525Y0048400D03*
X0177525Y0048550D03*
X0177525Y0048700D03*
X0177525Y0048850D03*
X0172575Y0047350D03*
X0171675Y0046750D03*
X0171075Y0046450D03*
X0170775Y0046300D03*
X0170475Y0046150D03*
X0170175Y0046000D03*
X0167625Y0047800D03*
X0167325Y0047650D03*
X0159825Y0041800D03*
X0159525Y0041950D03*
X0159375Y0042100D03*
X0159075Y0042250D03*
X0158925Y0042400D03*
X0158625Y0042550D03*
X0158475Y0042700D03*
X0158175Y0042850D03*
X0157875Y0043000D03*
X0157575Y0043150D03*
X0157425Y0043300D03*
X0156675Y0045850D03*
X0156375Y0046000D03*
X0156075Y0046150D03*
X0153525Y0047650D03*
X0149025Y0046000D03*
X0149025Y0045850D03*
X0149025Y0045700D03*
X0149175Y0045550D03*
X0149175Y0045400D03*
X0149325Y0045250D03*
X0149325Y0045100D03*
X0154575Y0042400D03*
X0154575Y0042250D03*
X0154725Y0042100D03*
X0154875Y0041800D03*
X0155025Y0041500D03*
X0161175Y0040900D03*
X0164325Y0037300D03*
X0164325Y0037150D03*
X0163575Y0036100D03*
X0166725Y0034900D03*
X0160425Y0032950D03*
X0158325Y0034150D03*
X0158175Y0034300D03*
X0155325Y0033550D03*
X0155325Y0033400D03*
X0154125Y0032650D03*
X0154125Y0032500D03*
X0154125Y0032350D03*
X0154125Y0032200D03*
X0157125Y0031150D03*
X0157125Y0031000D03*
X0157125Y0030850D03*
X0157125Y0030700D03*
X0149175Y0038200D03*
X0147075Y0036850D03*
X0154275Y0056050D03*
X0154425Y0056200D03*
X0156675Y0059200D03*
X0156975Y0059350D03*
X0157275Y0059500D03*
X0160425Y0059500D03*
X0160875Y0057550D03*
X0152175Y0061450D03*
X0158775Y0063850D03*
X0162375Y0064450D03*
X0161925Y0068050D03*
X0161925Y0068200D03*
X0164625Y0073000D03*
X0164475Y0073300D03*
X0170175Y0068200D03*
X0170175Y0068050D03*
X0169875Y0065500D03*
X0173625Y0065500D03*
X0173625Y0065650D03*
X0177825Y0068200D03*
X0177825Y0068350D03*
X0177825Y0068500D03*
X0177675Y0068950D03*
X0177525Y0069400D03*
X0177225Y0070300D03*
X0177075Y0070750D03*
X0176925Y0071050D03*
X0176925Y0071200D03*
X0176775Y0071350D03*
X0176775Y0071500D03*
X0176625Y0071650D03*
X0176625Y0071800D03*
X0176325Y0072400D03*
X0176325Y0062800D03*
X0176325Y0062650D03*
X0174225Y0062950D03*
X0172275Y0059500D03*
X0171975Y0059650D03*
X0168525Y0057850D03*
X0173475Y0056800D03*
X0173625Y0056650D03*
X0173775Y0056500D03*
X0152175Y0069550D03*
X0152175Y0069700D03*
X0152175Y0069850D03*
X0152325Y0070300D03*
X0152325Y0070450D03*
X0152475Y0070750D03*
X0152475Y0070900D03*
X0152625Y0071200D03*
X0152625Y0071350D03*
X0152625Y0071500D03*
X0152775Y0071650D03*
X0152775Y0071800D03*
X0152925Y0072100D03*
X0152925Y0072250D03*
X0153075Y0072400D03*
X0153075Y0072550D03*
X0153225Y0072700D03*
X0153225Y0072850D03*
X0153225Y0073000D03*
X0153375Y0073150D03*
X0152025Y0069100D03*
X0152025Y0068950D03*
X0152025Y0068800D03*
X0150825Y0078700D03*
X0151125Y0078850D03*
X0158025Y0080500D03*
X0158325Y0080650D03*
X0199125Y0063550D03*
X0200775Y0066250D03*
X0204075Y0057100D03*
X0213375Y0066550D03*
X0174225Y0040450D03*
X0174225Y0040300D03*
X0174225Y0040150D03*
X0174375Y0040000D03*
X0174375Y0039850D03*
X0174375Y0039700D03*
X0174525Y0039400D03*
X0174525Y0039250D03*
X0174525Y0039100D03*
X0175425Y0030550D03*
X0175275Y0030400D03*
X0175275Y0030250D03*
X0175275Y0030100D03*
D26*
X0175350Y0029800D03*
X0168000Y0034150D03*
X0164250Y0036850D03*
X0163500Y0035650D03*
X0160350Y0033100D03*
X0152100Y0039700D03*
X0149850Y0038650D03*
X0147300Y0037150D03*
X0154500Y0042850D03*
X0155100Y0043600D03*
X0156150Y0043900D03*
X0157350Y0045550D03*
X0169500Y0045700D03*
X0174600Y0038050D03*
X0183900Y0023650D03*
X0180900Y0021700D03*
X0175350Y0014350D03*
X0163500Y0013900D03*
X0151650Y0007600D03*
X0145050Y0017200D03*
X0140550Y0020950D03*
X0152850Y0025450D03*
X0153150Y0025300D03*
X0153600Y0025150D03*
X0154350Y0024850D03*
X0174600Y0055900D03*
X0172350Y0057850D03*
X0174900Y0064150D03*
X0174900Y0064300D03*
X0174900Y0064450D03*
X0160800Y0065200D03*
X0152550Y0061900D03*
X0155250Y0056950D03*
X0155100Y0056800D03*
X0155550Y0057100D03*
X0160650Y0057700D03*
X0151950Y0079150D03*
X0159150Y0080950D03*
X0168150Y0080350D03*
X0168600Y0080200D03*
X0210600Y0068500D03*
X0212550Y0067000D03*
D27*
X0210600Y0068350D03*
X0173700Y0041650D03*
X0173700Y0041500D03*
X0173700Y0041350D03*
X0165150Y0042400D03*
X0163650Y0039400D03*
X0154500Y0043150D03*
X0150000Y0038800D03*
X0175350Y0031150D03*
X0175350Y0029650D03*
X0193950Y0026800D03*
X0196350Y0026050D03*
X0195600Y0037000D03*
X0170250Y0059050D03*
X0156300Y0057550D03*
X0156000Y0057400D03*
X0150900Y0059500D03*
X0172350Y0077500D03*
X0167700Y0080500D03*
X0140700Y0020800D03*
X0152100Y0009400D03*
X0151500Y0007750D03*
D28*
X0151425Y0007900D03*
X0152175Y0009850D03*
X0147975Y0017500D03*
X0140925Y0020650D03*
X0150675Y0028150D03*
X0154575Y0043450D03*
X0158025Y0045250D03*
X0156675Y0057700D03*
X0158775Y0058750D03*
X0150975Y0059800D03*
X0150825Y0062800D03*
X0170325Y0065050D03*
X0170325Y0065200D03*
X0170325Y0065350D03*
X0152625Y0079300D03*
X0166275Y0080950D03*
X0166725Y0080800D03*
X0193275Y0036250D03*
D29*
X0196275Y0026200D03*
X0173925Y0038500D03*
X0168675Y0040150D03*
X0167775Y0034600D03*
X0159375Y0044950D03*
X0158925Y0059950D03*
X0154275Y0062800D03*
X0175275Y0062050D03*
X0175275Y0061900D03*
X0175425Y0062350D03*
X0159975Y0081100D03*
X0162525Y0081850D03*
X0150525Y0028000D03*
X0149925Y0026350D03*
X0145575Y0018700D03*
X0151275Y0008050D03*
X0159975Y0012550D03*
D30*
X0162600Y0013450D03*
X0152100Y0009700D03*
X0149550Y0008350D03*
X0174900Y0014200D03*
X0175350Y0029500D03*
X0175350Y0031300D03*
X0167850Y0034450D03*
X0164400Y0036400D03*
X0160350Y0033250D03*
X0151950Y0039550D03*
X0150150Y0038950D03*
X0154500Y0043300D03*
X0169050Y0052150D03*
X0169950Y0060400D03*
X0157350Y0064900D03*
X0157350Y0065050D03*
X0154350Y0062500D03*
X0152250Y0065650D03*
X0150900Y0059650D03*
X0173700Y0040600D03*
X0197850Y0036250D03*
D31*
X0199650Y0035500D03*
X0200100Y0035200D03*
X0200250Y0035050D03*
X0195900Y0037150D03*
X0192750Y0032950D03*
X0192150Y0029500D03*
X0192150Y0029350D03*
X0193200Y0027400D03*
X0185100Y0025150D03*
X0184950Y0025000D03*
X0184950Y0023050D03*
X0185100Y0022900D03*
X0185250Y0022750D03*
X0185400Y0022600D03*
X0186150Y0021850D03*
X0186000Y0021700D03*
X0185850Y0021550D03*
X0185700Y0021400D03*
X0181650Y0022000D03*
X0180600Y0020950D03*
X0179550Y0018100D03*
X0178500Y0016900D03*
X0178350Y0016750D03*
X0178200Y0016600D03*
X0178050Y0016450D03*
X0177900Y0016300D03*
X0180900Y0016900D03*
X0181050Y0016750D03*
X0181200Y0016600D03*
X0181350Y0016450D03*
X0181500Y0016300D03*
X0181950Y0016000D03*
X0182100Y0015850D03*
X0182250Y0015700D03*
X0182400Y0015550D03*
X0182550Y0015400D03*
X0183000Y0015100D03*
X0183150Y0014950D03*
X0183300Y0014800D03*
X0183450Y0014650D03*
X0183750Y0014500D03*
X0183900Y0014350D03*
X0184050Y0014200D03*
X0184200Y0014050D03*
X0184650Y0013750D03*
X0184800Y0013600D03*
X0184950Y0013450D03*
X0185100Y0013300D03*
X0185550Y0013000D03*
X0185700Y0012850D03*
X0186000Y0012700D03*
X0186150Y0012550D03*
X0192000Y0017650D03*
X0195000Y0017200D03*
X0183600Y0027550D03*
X0183450Y0027700D03*
X0183300Y0027850D03*
X0183150Y0028000D03*
X0181500Y0029800D03*
X0181350Y0029950D03*
X0181200Y0030100D03*
X0181050Y0030250D03*
X0180900Y0030400D03*
X0180750Y0030550D03*
X0180600Y0030700D03*
X0177600Y0027700D03*
X0177450Y0027850D03*
X0177300Y0028000D03*
X0177750Y0027550D03*
X0177900Y0027400D03*
X0176700Y0028750D03*
X0176550Y0028900D03*
X0176250Y0029350D03*
X0174150Y0028750D03*
X0174000Y0028600D03*
X0177900Y0034600D03*
X0175350Y0035500D03*
X0175350Y0035650D03*
X0175350Y0035800D03*
X0175200Y0036400D03*
X0168750Y0037000D03*
X0168150Y0038650D03*
X0166650Y0041350D03*
X0166500Y0041500D03*
X0166350Y0041650D03*
X0166200Y0041800D03*
X0164550Y0040750D03*
X0164550Y0040600D03*
X0162900Y0039550D03*
X0162750Y0039700D03*
X0163800Y0038650D03*
X0165300Y0036250D03*
X0165450Y0035950D03*
X0162600Y0035050D03*
X0162450Y0034900D03*
X0162300Y0034750D03*
X0162300Y0034600D03*
X0162150Y0034450D03*
X0161400Y0033700D03*
X0161400Y0033550D03*
X0157950Y0034600D03*
X0155100Y0034600D03*
X0155100Y0034450D03*
X0153750Y0031150D03*
X0153600Y0031000D03*
X0153600Y0030850D03*
X0153450Y0030700D03*
X0153300Y0030550D03*
X0153150Y0030400D03*
X0153000Y0030250D03*
X0157050Y0030100D03*
X0157050Y0029950D03*
X0157050Y0029800D03*
X0156600Y0023650D03*
X0157050Y0020650D03*
X0157050Y0020500D03*
X0157050Y0020350D03*
X0157050Y0020200D03*
X0156300Y0018400D03*
X0156300Y0018250D03*
X0156300Y0018100D03*
X0150150Y0012700D03*
X0149250Y0008950D03*
X0140550Y0014350D03*
X0140400Y0014200D03*
X0140850Y0014500D03*
X0141000Y0014650D03*
X0141450Y0014950D03*
X0141600Y0015100D03*
X0142050Y0015400D03*
X0142500Y0015700D03*
X0143100Y0016150D03*
X0143550Y0016450D03*
X0144000Y0016750D03*
X0144450Y0017050D03*
X0145500Y0017800D03*
X0145500Y0017950D03*
X0144450Y0018850D03*
X0144300Y0019000D03*
X0146250Y0019450D03*
X0146250Y0019600D03*
X0147150Y0018250D03*
X0147300Y0018100D03*
X0140700Y0019600D03*
X0148500Y0025600D03*
X0146700Y0036250D03*
X0147900Y0037300D03*
X0148050Y0037450D03*
X0148200Y0037600D03*
X0152100Y0040300D03*
X0152100Y0040450D03*
X0152100Y0040600D03*
X0155700Y0040000D03*
X0155850Y0039850D03*
X0155850Y0039700D03*
X0157050Y0043600D03*
X0153300Y0047950D03*
X0158700Y0048700D03*
X0158700Y0048850D03*
X0158850Y0048550D03*
X0154050Y0055750D03*
X0154650Y0058000D03*
X0151800Y0059950D03*
X0151800Y0060100D03*
X0151050Y0059350D03*
X0150150Y0059950D03*
X0150000Y0061900D03*
X0153150Y0062050D03*
X0153300Y0062200D03*
X0153450Y0062350D03*
X0154350Y0063100D03*
X0152700Y0064450D03*
X0152700Y0064600D03*
X0153750Y0067000D03*
X0158400Y0068800D03*
X0158400Y0068950D03*
X0162150Y0069100D03*
X0162150Y0069250D03*
X0162450Y0064300D03*
X0158550Y0063250D03*
X0158400Y0063100D03*
X0160950Y0059200D03*
X0161100Y0059050D03*
X0168300Y0057550D03*
X0173250Y0058900D03*
X0173850Y0058450D03*
X0174450Y0062500D03*
X0172050Y0062800D03*
X0172050Y0062950D03*
X0168450Y0063550D03*
X0168450Y0063700D03*
X0167850Y0064600D03*
X0167850Y0065050D03*
X0167850Y0065200D03*
X0169950Y0069250D03*
X0169950Y0069400D03*
X0169950Y0069550D03*
X0173550Y0066850D03*
X0173550Y0066700D03*
X0173550Y0066550D03*
X0173550Y0066400D03*
X0164250Y0073900D03*
X0164250Y0074050D03*
X0164100Y0074200D03*
X0164100Y0074350D03*
X0171900Y0078400D03*
X0172050Y0078250D03*
X0172350Y0078100D03*
X0172500Y0077950D03*
X0172650Y0077800D03*
X0172800Y0077650D03*
X0149850Y0078100D03*
X0149700Y0077950D03*
X0149250Y0077650D03*
X0149100Y0077500D03*
X0148950Y0077350D03*
X0148800Y0055750D03*
X0148800Y0055600D03*
X0148800Y0055450D03*
X0148800Y0055300D03*
X0148950Y0055000D03*
X0148950Y0054850D03*
X0148950Y0054700D03*
X0149400Y0042100D03*
X0168300Y0033850D03*
X0170100Y0041050D03*
X0170100Y0041200D03*
X0170250Y0041650D03*
X0170250Y0041800D03*
X0170250Y0041950D03*
X0170250Y0042100D03*
X0170250Y0042250D03*
X0170250Y0042400D03*
X0170250Y0042550D03*
X0170250Y0042700D03*
X0170250Y0043300D03*
X0170250Y0043450D03*
X0173250Y0042550D03*
X0173250Y0042400D03*
X0173250Y0042250D03*
X0173250Y0042100D03*
X0177300Y0046600D03*
X0177300Y0046750D03*
X0174150Y0048550D03*
X0174000Y0048400D03*
X0173850Y0048250D03*
X0168900Y0048700D03*
X0168750Y0048550D03*
X0204000Y0056500D03*
X0165600Y0015700D03*
D32*
X0159825Y0012400D03*
X0152175Y0009550D03*
X0183825Y0023350D03*
X0187875Y0011800D03*
X0167925Y0034300D03*
X0164325Y0036550D03*
X0158775Y0033700D03*
X0165225Y0042250D03*
X0169275Y0045550D03*
X0173775Y0041200D03*
X0173775Y0041050D03*
X0173775Y0040900D03*
X0173775Y0040750D03*
X0174225Y0038350D03*
X0158925Y0060100D03*
X0154425Y0062650D03*
X0157425Y0065200D03*
X0157425Y0065350D03*
X0162075Y0064900D03*
X0167325Y0080650D03*
X0212625Y0066850D03*
D33*
X0171750Y0061600D03*
X0168300Y0059350D03*
X0161550Y0058300D03*
X0162000Y0062800D03*
X0167400Y0064450D03*
X0158850Y0070600D03*
X0148500Y0065500D03*
X0152850Y0062650D03*
X0149850Y0059350D03*
X0192750Y0016150D03*
X0194250Y0015700D03*
X0156300Y0010300D03*
X0139950Y0013450D03*
D34*
X0146700Y0010600D03*
X0152850Y0029800D03*
X0174000Y0032350D03*
X0194250Y0015850D03*
X0174300Y0055450D03*
X0177300Y0060700D03*
X0155100Y0061750D03*
X0151800Y0063250D03*
X0149700Y0062950D03*
X0156450Y0079300D03*
X0200850Y0067300D03*
D35*
X0170025Y0060100D03*
X0166875Y0044950D03*
X0170925Y0039400D03*
X0150375Y0027550D03*
X0150375Y0027400D03*
X0160275Y0012700D03*
X0153375Y0079450D03*
D36*
X0158850Y0059650D03*
X0158850Y0058450D03*
X0173250Y0038950D03*
X0150450Y0026200D03*
X0160500Y0012850D03*
X0193800Y0016750D03*
D37*
X0160650Y0013000D03*
X0148800Y0017200D03*
X0150450Y0026050D03*
X0151050Y0039400D03*
X0155100Y0043750D03*
X0170250Y0058450D03*
D38*
X0173700Y0063400D03*
X0173700Y0063550D03*
X0173700Y0063700D03*
X0158850Y0058300D03*
X0155250Y0079900D03*
X0150450Y0025900D03*
X0160800Y0013150D03*
X0173250Y0013300D03*
D39*
X0162150Y0013300D03*
X0145950Y0018400D03*
X0145800Y0018550D03*
X0141150Y0020500D03*
X0160350Y0033400D03*
X0171750Y0039100D03*
X0168150Y0045250D03*
X0159150Y0052150D03*
X0170250Y0058900D03*
X0175200Y0061750D03*
X0175350Y0062200D03*
X0150750Y0062200D03*
X0150750Y0062350D03*
X0150750Y0062500D03*
X0150750Y0062650D03*
X0194250Y0026650D03*
X0193050Y0016450D03*
D40*
X0172950Y0013450D03*
X0150600Y0025750D03*
D41*
X0172500Y0013600D03*
X0163800Y0046900D03*
X0162600Y0081550D03*
D42*
X0172350Y0013750D03*
D43*
X0172425Y0013900D03*
D44*
X0172500Y0014050D03*
X0195450Y0036550D03*
X0162600Y0081400D03*
D45*
X0158325Y0045100D03*
X0167625Y0045100D03*
X0168525Y0040450D03*
X0173775Y0038650D03*
X0153975Y0016300D03*
X0148275Y0017350D03*
D46*
X0153225Y0016450D03*
X0164175Y0051100D03*
X0158775Y0058150D03*
D47*
X0158625Y0057850D03*
X0152775Y0016600D03*
D48*
X0169425Y0039700D03*
X0196125Y0026500D03*
X0193425Y0017050D03*
X0193575Y0016900D03*
X0193725Y0016600D03*
X0155775Y0080050D03*
D49*
X0152100Y0016900D03*
X0152100Y0016750D03*
D50*
X0151725Y0017050D03*
X0163275Y0044800D03*
D51*
X0168900Y0040000D03*
X0150450Y0027850D03*
X0150450Y0027700D03*
X0141450Y0020200D03*
X0158850Y0058600D03*
X0158850Y0059800D03*
X0170250Y0058750D03*
X0165450Y0081100D03*
D52*
X0156450Y0080200D03*
X0169950Y0060250D03*
X0169050Y0045400D03*
X0168600Y0040300D03*
X0171300Y0039250D03*
X0141300Y0020350D03*
D53*
X0173400Y0038800D03*
X0163350Y0044050D03*
X0164100Y0046600D03*
X0161550Y0065050D03*
X0196200Y0026350D03*
D54*
X0195375Y0036400D03*
D55*
X0195675Y0036700D03*
D56*
X0195075Y0036850D03*
X0167925Y0052000D03*
X0170325Y0058300D03*
D57*
X0173775Y0063250D03*
X0162525Y0081700D03*
X0151125Y0039250D03*
X0151125Y0039100D03*
D58*
X0169275Y0039850D03*
X0170775Y0039550D03*
X0170325Y0058600D03*
X0170175Y0059950D03*
D59*
X0163125Y0044200D03*
D60*
X0163050Y0044350D03*
X0163800Y0047050D03*
D61*
X0163200Y0044500D03*
D62*
X0163200Y0044650D03*
D63*
X0163800Y0046750D03*
X0170400Y0058150D03*
X0154800Y0079750D03*
X0154500Y0079600D03*
D64*
X0163800Y0047200D03*
D65*
X0163800Y0047350D03*
D66*
X0164025Y0051250D03*
D67*
X0164550Y0051400D03*
D68*
X0163950Y0051550D03*
X0163950Y0051700D03*
D69*
X0164025Y0051850D03*
D70*
X0160425Y0052000D03*
D71*
X0158700Y0058000D03*
D72*
X0162675Y0081250D03*
M02*
