G75*
%MOIN*%
%OFA0B0*%
%FSLAX25Y25*%
%IPPOS*%
%LPD*%
%AMOC8*
5,1,8,0,0,1.08239X$1,22.5*
%
%ADD10C,0.00000*%
%ADD11C,0.06300*%
%ADD12C,0.05600*%
%ADD13C,0.05937*%
%ADD14C,0.05200*%
%ADD15C,0.01600*%
%ADD16C,0.04356*%
D10*
X0016500Y0005500D02*
X0217500Y0005500D01*
X0217790Y0005504D01*
X0218080Y0005514D01*
X0218369Y0005532D01*
X0218658Y0005556D01*
X0218946Y0005587D01*
X0219234Y0005626D01*
X0219520Y0005671D01*
X0219806Y0005724D01*
X0220089Y0005783D01*
X0220372Y0005849D01*
X0220652Y0005921D01*
X0220931Y0006001D01*
X0221208Y0006087D01*
X0221483Y0006180D01*
X0221755Y0006280D01*
X0222025Y0006386D01*
X0222292Y0006498D01*
X0222557Y0006618D01*
X0222818Y0006743D01*
X0223077Y0006875D01*
X0223332Y0007012D01*
X0223584Y0007156D01*
X0223832Y0007306D01*
X0224076Y0007462D01*
X0224317Y0007624D01*
X0224553Y0007792D01*
X0224786Y0007965D01*
X0225014Y0008144D01*
X0225238Y0008328D01*
X0225457Y0008518D01*
X0225672Y0008713D01*
X0225882Y0008913D01*
X0226087Y0009118D01*
X0226287Y0009328D01*
X0226482Y0009543D01*
X0226672Y0009762D01*
X0226856Y0009986D01*
X0227035Y0010214D01*
X0227208Y0010447D01*
X0227376Y0010683D01*
X0227538Y0010924D01*
X0227694Y0011168D01*
X0227844Y0011416D01*
X0227988Y0011668D01*
X0228125Y0011923D01*
X0228257Y0012182D01*
X0228382Y0012443D01*
X0228502Y0012708D01*
X0228614Y0012975D01*
X0228720Y0013245D01*
X0228820Y0013517D01*
X0228913Y0013792D01*
X0228999Y0014069D01*
X0229079Y0014348D01*
X0229151Y0014628D01*
X0229217Y0014911D01*
X0229276Y0015194D01*
X0229329Y0015480D01*
X0229374Y0015766D01*
X0229413Y0016054D01*
X0229444Y0016342D01*
X0229468Y0016631D01*
X0229486Y0016920D01*
X0229496Y0017210D01*
X0229500Y0017500D01*
X0229500Y0143500D01*
X0229496Y0143790D01*
X0229486Y0144080D01*
X0229468Y0144369D01*
X0229444Y0144658D01*
X0229413Y0144946D01*
X0229374Y0145234D01*
X0229329Y0145520D01*
X0229276Y0145806D01*
X0229217Y0146089D01*
X0229151Y0146372D01*
X0229079Y0146652D01*
X0228999Y0146931D01*
X0228913Y0147208D01*
X0228820Y0147483D01*
X0228720Y0147755D01*
X0228614Y0148025D01*
X0228502Y0148292D01*
X0228382Y0148557D01*
X0228257Y0148818D01*
X0228125Y0149077D01*
X0227988Y0149332D01*
X0227844Y0149584D01*
X0227694Y0149832D01*
X0227538Y0150076D01*
X0227376Y0150317D01*
X0227208Y0150553D01*
X0227035Y0150786D01*
X0226856Y0151014D01*
X0226672Y0151238D01*
X0226482Y0151457D01*
X0226287Y0151672D01*
X0226087Y0151882D01*
X0225882Y0152087D01*
X0225672Y0152287D01*
X0225457Y0152482D01*
X0225238Y0152672D01*
X0225014Y0152856D01*
X0224786Y0153035D01*
X0224553Y0153208D01*
X0224317Y0153376D01*
X0224076Y0153538D01*
X0223832Y0153694D01*
X0223584Y0153844D01*
X0223332Y0153988D01*
X0223077Y0154125D01*
X0222818Y0154257D01*
X0222557Y0154382D01*
X0222292Y0154502D01*
X0222025Y0154614D01*
X0221755Y0154720D01*
X0221483Y0154820D01*
X0221208Y0154913D01*
X0220931Y0154999D01*
X0220652Y0155079D01*
X0220372Y0155151D01*
X0220089Y0155217D01*
X0219806Y0155276D01*
X0219520Y0155329D01*
X0219234Y0155374D01*
X0218946Y0155413D01*
X0218658Y0155444D01*
X0218369Y0155468D01*
X0218080Y0155486D01*
X0217790Y0155496D01*
X0217500Y0155500D01*
X0016500Y0155500D01*
X0016210Y0155496D01*
X0015920Y0155486D01*
X0015631Y0155468D01*
X0015342Y0155444D01*
X0015054Y0155413D01*
X0014766Y0155374D01*
X0014480Y0155329D01*
X0014194Y0155276D01*
X0013911Y0155217D01*
X0013628Y0155151D01*
X0013348Y0155079D01*
X0013069Y0154999D01*
X0012792Y0154913D01*
X0012517Y0154820D01*
X0012245Y0154720D01*
X0011975Y0154614D01*
X0011708Y0154502D01*
X0011443Y0154382D01*
X0011182Y0154257D01*
X0010923Y0154125D01*
X0010668Y0153988D01*
X0010416Y0153844D01*
X0010168Y0153694D01*
X0009924Y0153538D01*
X0009683Y0153376D01*
X0009447Y0153208D01*
X0009214Y0153035D01*
X0008986Y0152856D01*
X0008762Y0152672D01*
X0008543Y0152482D01*
X0008328Y0152287D01*
X0008118Y0152087D01*
X0007913Y0151882D01*
X0007713Y0151672D01*
X0007518Y0151457D01*
X0007328Y0151238D01*
X0007144Y0151014D01*
X0006965Y0150786D01*
X0006792Y0150553D01*
X0006624Y0150317D01*
X0006462Y0150076D01*
X0006306Y0149832D01*
X0006156Y0149584D01*
X0006012Y0149332D01*
X0005875Y0149077D01*
X0005743Y0148818D01*
X0005618Y0148557D01*
X0005498Y0148292D01*
X0005386Y0148025D01*
X0005280Y0147755D01*
X0005180Y0147483D01*
X0005087Y0147208D01*
X0005001Y0146931D01*
X0004921Y0146652D01*
X0004849Y0146372D01*
X0004783Y0146089D01*
X0004724Y0145806D01*
X0004671Y0145520D01*
X0004626Y0145234D01*
X0004587Y0144946D01*
X0004556Y0144658D01*
X0004532Y0144369D01*
X0004514Y0144080D01*
X0004504Y0143790D01*
X0004500Y0143500D01*
X0004500Y0017500D01*
X0004504Y0017210D01*
X0004514Y0016920D01*
X0004532Y0016631D01*
X0004556Y0016342D01*
X0004587Y0016054D01*
X0004626Y0015766D01*
X0004671Y0015480D01*
X0004724Y0015194D01*
X0004783Y0014911D01*
X0004849Y0014628D01*
X0004921Y0014348D01*
X0005001Y0014069D01*
X0005087Y0013792D01*
X0005180Y0013517D01*
X0005280Y0013245D01*
X0005386Y0012975D01*
X0005498Y0012708D01*
X0005618Y0012443D01*
X0005743Y0012182D01*
X0005875Y0011923D01*
X0006012Y0011668D01*
X0006156Y0011416D01*
X0006306Y0011168D01*
X0006462Y0010924D01*
X0006624Y0010683D01*
X0006792Y0010447D01*
X0006965Y0010214D01*
X0007144Y0009986D01*
X0007328Y0009762D01*
X0007518Y0009543D01*
X0007713Y0009328D01*
X0007913Y0009118D01*
X0008118Y0008913D01*
X0008328Y0008713D01*
X0008543Y0008518D01*
X0008762Y0008328D01*
X0008986Y0008144D01*
X0009214Y0007965D01*
X0009447Y0007792D01*
X0009683Y0007624D01*
X0009924Y0007462D01*
X0010168Y0007306D01*
X0010416Y0007156D01*
X0010668Y0007012D01*
X0010923Y0006875D01*
X0011182Y0006743D01*
X0011443Y0006618D01*
X0011708Y0006498D01*
X0011975Y0006386D01*
X0012245Y0006280D01*
X0012517Y0006180D01*
X0012792Y0006087D01*
X0013069Y0006001D01*
X0013348Y0005921D01*
X0013628Y0005849D01*
X0013911Y0005783D01*
X0014194Y0005724D01*
X0014480Y0005671D01*
X0014766Y0005626D01*
X0015054Y0005587D01*
X0015342Y0005556D01*
X0015631Y0005532D01*
X0015920Y0005514D01*
X0016210Y0005504D01*
X0016500Y0005500D01*
X0011094Y0018000D02*
X0011096Y0018153D01*
X0011102Y0018307D01*
X0011112Y0018460D01*
X0011126Y0018612D01*
X0011144Y0018765D01*
X0011166Y0018916D01*
X0011191Y0019067D01*
X0011221Y0019218D01*
X0011255Y0019368D01*
X0011292Y0019516D01*
X0011333Y0019664D01*
X0011378Y0019810D01*
X0011427Y0019956D01*
X0011480Y0020100D01*
X0011536Y0020242D01*
X0011596Y0020383D01*
X0011660Y0020523D01*
X0011727Y0020661D01*
X0011798Y0020797D01*
X0011873Y0020931D01*
X0011950Y0021063D01*
X0012032Y0021193D01*
X0012116Y0021321D01*
X0012204Y0021447D01*
X0012295Y0021570D01*
X0012389Y0021691D01*
X0012487Y0021809D01*
X0012587Y0021925D01*
X0012691Y0022038D01*
X0012797Y0022149D01*
X0012906Y0022257D01*
X0013018Y0022362D01*
X0013132Y0022463D01*
X0013250Y0022562D01*
X0013369Y0022658D01*
X0013491Y0022751D01*
X0013616Y0022840D01*
X0013743Y0022927D01*
X0013872Y0023009D01*
X0014003Y0023089D01*
X0014136Y0023165D01*
X0014271Y0023238D01*
X0014408Y0023307D01*
X0014547Y0023372D01*
X0014687Y0023434D01*
X0014829Y0023492D01*
X0014972Y0023547D01*
X0015117Y0023598D01*
X0015263Y0023645D01*
X0015410Y0023688D01*
X0015558Y0023727D01*
X0015707Y0023763D01*
X0015857Y0023794D01*
X0016008Y0023822D01*
X0016159Y0023846D01*
X0016312Y0023866D01*
X0016464Y0023882D01*
X0016617Y0023894D01*
X0016770Y0023902D01*
X0016923Y0023906D01*
X0017077Y0023906D01*
X0017230Y0023902D01*
X0017383Y0023894D01*
X0017536Y0023882D01*
X0017688Y0023866D01*
X0017841Y0023846D01*
X0017992Y0023822D01*
X0018143Y0023794D01*
X0018293Y0023763D01*
X0018442Y0023727D01*
X0018590Y0023688D01*
X0018737Y0023645D01*
X0018883Y0023598D01*
X0019028Y0023547D01*
X0019171Y0023492D01*
X0019313Y0023434D01*
X0019453Y0023372D01*
X0019592Y0023307D01*
X0019729Y0023238D01*
X0019864Y0023165D01*
X0019997Y0023089D01*
X0020128Y0023009D01*
X0020257Y0022927D01*
X0020384Y0022840D01*
X0020509Y0022751D01*
X0020631Y0022658D01*
X0020750Y0022562D01*
X0020868Y0022463D01*
X0020982Y0022362D01*
X0021094Y0022257D01*
X0021203Y0022149D01*
X0021309Y0022038D01*
X0021413Y0021925D01*
X0021513Y0021809D01*
X0021611Y0021691D01*
X0021705Y0021570D01*
X0021796Y0021447D01*
X0021884Y0021321D01*
X0021968Y0021193D01*
X0022050Y0021063D01*
X0022127Y0020931D01*
X0022202Y0020797D01*
X0022273Y0020661D01*
X0022340Y0020523D01*
X0022404Y0020383D01*
X0022464Y0020242D01*
X0022520Y0020100D01*
X0022573Y0019956D01*
X0022622Y0019810D01*
X0022667Y0019664D01*
X0022708Y0019516D01*
X0022745Y0019368D01*
X0022779Y0019218D01*
X0022809Y0019067D01*
X0022834Y0018916D01*
X0022856Y0018765D01*
X0022874Y0018612D01*
X0022888Y0018460D01*
X0022898Y0018307D01*
X0022904Y0018153D01*
X0022906Y0018000D01*
X0022904Y0017847D01*
X0022898Y0017693D01*
X0022888Y0017540D01*
X0022874Y0017388D01*
X0022856Y0017235D01*
X0022834Y0017084D01*
X0022809Y0016933D01*
X0022779Y0016782D01*
X0022745Y0016632D01*
X0022708Y0016484D01*
X0022667Y0016336D01*
X0022622Y0016190D01*
X0022573Y0016044D01*
X0022520Y0015900D01*
X0022464Y0015758D01*
X0022404Y0015617D01*
X0022340Y0015477D01*
X0022273Y0015339D01*
X0022202Y0015203D01*
X0022127Y0015069D01*
X0022050Y0014937D01*
X0021968Y0014807D01*
X0021884Y0014679D01*
X0021796Y0014553D01*
X0021705Y0014430D01*
X0021611Y0014309D01*
X0021513Y0014191D01*
X0021413Y0014075D01*
X0021309Y0013962D01*
X0021203Y0013851D01*
X0021094Y0013743D01*
X0020982Y0013638D01*
X0020868Y0013537D01*
X0020750Y0013438D01*
X0020631Y0013342D01*
X0020509Y0013249D01*
X0020384Y0013160D01*
X0020257Y0013073D01*
X0020128Y0012991D01*
X0019997Y0012911D01*
X0019864Y0012835D01*
X0019729Y0012762D01*
X0019592Y0012693D01*
X0019453Y0012628D01*
X0019313Y0012566D01*
X0019171Y0012508D01*
X0019028Y0012453D01*
X0018883Y0012402D01*
X0018737Y0012355D01*
X0018590Y0012312D01*
X0018442Y0012273D01*
X0018293Y0012237D01*
X0018143Y0012206D01*
X0017992Y0012178D01*
X0017841Y0012154D01*
X0017688Y0012134D01*
X0017536Y0012118D01*
X0017383Y0012106D01*
X0017230Y0012098D01*
X0017077Y0012094D01*
X0016923Y0012094D01*
X0016770Y0012098D01*
X0016617Y0012106D01*
X0016464Y0012118D01*
X0016312Y0012134D01*
X0016159Y0012154D01*
X0016008Y0012178D01*
X0015857Y0012206D01*
X0015707Y0012237D01*
X0015558Y0012273D01*
X0015410Y0012312D01*
X0015263Y0012355D01*
X0015117Y0012402D01*
X0014972Y0012453D01*
X0014829Y0012508D01*
X0014687Y0012566D01*
X0014547Y0012628D01*
X0014408Y0012693D01*
X0014271Y0012762D01*
X0014136Y0012835D01*
X0014003Y0012911D01*
X0013872Y0012991D01*
X0013743Y0013073D01*
X0013616Y0013160D01*
X0013491Y0013249D01*
X0013369Y0013342D01*
X0013250Y0013438D01*
X0013132Y0013537D01*
X0013018Y0013638D01*
X0012906Y0013743D01*
X0012797Y0013851D01*
X0012691Y0013962D01*
X0012587Y0014075D01*
X0012487Y0014191D01*
X0012389Y0014309D01*
X0012295Y0014430D01*
X0012204Y0014553D01*
X0012116Y0014679D01*
X0012032Y0014807D01*
X0011950Y0014937D01*
X0011873Y0015069D01*
X0011798Y0015203D01*
X0011727Y0015339D01*
X0011660Y0015477D01*
X0011596Y0015617D01*
X0011536Y0015758D01*
X0011480Y0015900D01*
X0011427Y0016044D01*
X0011378Y0016190D01*
X0011333Y0016336D01*
X0011292Y0016484D01*
X0011255Y0016632D01*
X0011221Y0016782D01*
X0011191Y0016933D01*
X0011166Y0017084D01*
X0011144Y0017235D01*
X0011126Y0017388D01*
X0011112Y0017540D01*
X0011102Y0017693D01*
X0011096Y0017847D01*
X0011094Y0018000D01*
X0211094Y0143000D02*
X0211096Y0143153D01*
X0211102Y0143307D01*
X0211112Y0143460D01*
X0211126Y0143612D01*
X0211144Y0143765D01*
X0211166Y0143916D01*
X0211191Y0144067D01*
X0211221Y0144218D01*
X0211255Y0144368D01*
X0211292Y0144516D01*
X0211333Y0144664D01*
X0211378Y0144810D01*
X0211427Y0144956D01*
X0211480Y0145100D01*
X0211536Y0145242D01*
X0211596Y0145383D01*
X0211660Y0145523D01*
X0211727Y0145661D01*
X0211798Y0145797D01*
X0211873Y0145931D01*
X0211950Y0146063D01*
X0212032Y0146193D01*
X0212116Y0146321D01*
X0212204Y0146447D01*
X0212295Y0146570D01*
X0212389Y0146691D01*
X0212487Y0146809D01*
X0212587Y0146925D01*
X0212691Y0147038D01*
X0212797Y0147149D01*
X0212906Y0147257D01*
X0213018Y0147362D01*
X0213132Y0147463D01*
X0213250Y0147562D01*
X0213369Y0147658D01*
X0213491Y0147751D01*
X0213616Y0147840D01*
X0213743Y0147927D01*
X0213872Y0148009D01*
X0214003Y0148089D01*
X0214136Y0148165D01*
X0214271Y0148238D01*
X0214408Y0148307D01*
X0214547Y0148372D01*
X0214687Y0148434D01*
X0214829Y0148492D01*
X0214972Y0148547D01*
X0215117Y0148598D01*
X0215263Y0148645D01*
X0215410Y0148688D01*
X0215558Y0148727D01*
X0215707Y0148763D01*
X0215857Y0148794D01*
X0216008Y0148822D01*
X0216159Y0148846D01*
X0216312Y0148866D01*
X0216464Y0148882D01*
X0216617Y0148894D01*
X0216770Y0148902D01*
X0216923Y0148906D01*
X0217077Y0148906D01*
X0217230Y0148902D01*
X0217383Y0148894D01*
X0217536Y0148882D01*
X0217688Y0148866D01*
X0217841Y0148846D01*
X0217992Y0148822D01*
X0218143Y0148794D01*
X0218293Y0148763D01*
X0218442Y0148727D01*
X0218590Y0148688D01*
X0218737Y0148645D01*
X0218883Y0148598D01*
X0219028Y0148547D01*
X0219171Y0148492D01*
X0219313Y0148434D01*
X0219453Y0148372D01*
X0219592Y0148307D01*
X0219729Y0148238D01*
X0219864Y0148165D01*
X0219997Y0148089D01*
X0220128Y0148009D01*
X0220257Y0147927D01*
X0220384Y0147840D01*
X0220509Y0147751D01*
X0220631Y0147658D01*
X0220750Y0147562D01*
X0220868Y0147463D01*
X0220982Y0147362D01*
X0221094Y0147257D01*
X0221203Y0147149D01*
X0221309Y0147038D01*
X0221413Y0146925D01*
X0221513Y0146809D01*
X0221611Y0146691D01*
X0221705Y0146570D01*
X0221796Y0146447D01*
X0221884Y0146321D01*
X0221968Y0146193D01*
X0222050Y0146063D01*
X0222127Y0145931D01*
X0222202Y0145797D01*
X0222273Y0145661D01*
X0222340Y0145523D01*
X0222404Y0145383D01*
X0222464Y0145242D01*
X0222520Y0145100D01*
X0222573Y0144956D01*
X0222622Y0144810D01*
X0222667Y0144664D01*
X0222708Y0144516D01*
X0222745Y0144368D01*
X0222779Y0144218D01*
X0222809Y0144067D01*
X0222834Y0143916D01*
X0222856Y0143765D01*
X0222874Y0143612D01*
X0222888Y0143460D01*
X0222898Y0143307D01*
X0222904Y0143153D01*
X0222906Y0143000D01*
X0222904Y0142847D01*
X0222898Y0142693D01*
X0222888Y0142540D01*
X0222874Y0142388D01*
X0222856Y0142235D01*
X0222834Y0142084D01*
X0222809Y0141933D01*
X0222779Y0141782D01*
X0222745Y0141632D01*
X0222708Y0141484D01*
X0222667Y0141336D01*
X0222622Y0141190D01*
X0222573Y0141044D01*
X0222520Y0140900D01*
X0222464Y0140758D01*
X0222404Y0140617D01*
X0222340Y0140477D01*
X0222273Y0140339D01*
X0222202Y0140203D01*
X0222127Y0140069D01*
X0222050Y0139937D01*
X0221968Y0139807D01*
X0221884Y0139679D01*
X0221796Y0139553D01*
X0221705Y0139430D01*
X0221611Y0139309D01*
X0221513Y0139191D01*
X0221413Y0139075D01*
X0221309Y0138962D01*
X0221203Y0138851D01*
X0221094Y0138743D01*
X0220982Y0138638D01*
X0220868Y0138537D01*
X0220750Y0138438D01*
X0220631Y0138342D01*
X0220509Y0138249D01*
X0220384Y0138160D01*
X0220257Y0138073D01*
X0220128Y0137991D01*
X0219997Y0137911D01*
X0219864Y0137835D01*
X0219729Y0137762D01*
X0219592Y0137693D01*
X0219453Y0137628D01*
X0219313Y0137566D01*
X0219171Y0137508D01*
X0219028Y0137453D01*
X0218883Y0137402D01*
X0218737Y0137355D01*
X0218590Y0137312D01*
X0218442Y0137273D01*
X0218293Y0137237D01*
X0218143Y0137206D01*
X0217992Y0137178D01*
X0217841Y0137154D01*
X0217688Y0137134D01*
X0217536Y0137118D01*
X0217383Y0137106D01*
X0217230Y0137098D01*
X0217077Y0137094D01*
X0216923Y0137094D01*
X0216770Y0137098D01*
X0216617Y0137106D01*
X0216464Y0137118D01*
X0216312Y0137134D01*
X0216159Y0137154D01*
X0216008Y0137178D01*
X0215857Y0137206D01*
X0215707Y0137237D01*
X0215558Y0137273D01*
X0215410Y0137312D01*
X0215263Y0137355D01*
X0215117Y0137402D01*
X0214972Y0137453D01*
X0214829Y0137508D01*
X0214687Y0137566D01*
X0214547Y0137628D01*
X0214408Y0137693D01*
X0214271Y0137762D01*
X0214136Y0137835D01*
X0214003Y0137911D01*
X0213872Y0137991D01*
X0213743Y0138073D01*
X0213616Y0138160D01*
X0213491Y0138249D01*
X0213369Y0138342D01*
X0213250Y0138438D01*
X0213132Y0138537D01*
X0213018Y0138638D01*
X0212906Y0138743D01*
X0212797Y0138851D01*
X0212691Y0138962D01*
X0212587Y0139075D01*
X0212487Y0139191D01*
X0212389Y0139309D01*
X0212295Y0139430D01*
X0212204Y0139553D01*
X0212116Y0139679D01*
X0212032Y0139807D01*
X0211950Y0139937D01*
X0211873Y0140069D01*
X0211798Y0140203D01*
X0211727Y0140339D01*
X0211660Y0140477D01*
X0211596Y0140617D01*
X0211536Y0140758D01*
X0211480Y0140900D01*
X0211427Y0141044D01*
X0211378Y0141190D01*
X0211333Y0141336D01*
X0211292Y0141484D01*
X0211255Y0141632D01*
X0211221Y0141782D01*
X0211191Y0141933D01*
X0211166Y0142084D01*
X0211144Y0142235D01*
X0211126Y0142388D01*
X0211112Y0142540D01*
X0211102Y0142693D01*
X0211096Y0142847D01*
X0211094Y0143000D01*
D11*
X0132000Y0102500D03*
X0132000Y0088500D03*
X0054500Y0053750D03*
X0054500Y0039750D03*
X0132000Y0032500D03*
X0132000Y0018500D03*
D12*
X0092000Y0070500D03*
X0082000Y0070500D03*
X0072000Y0070500D03*
X0062000Y0070500D03*
X0062000Y0100500D03*
X0072000Y0100500D03*
X0082000Y0100500D03*
X0092000Y0100500D03*
D13*
X0022469Y0113000D02*
X0016531Y0113000D01*
X0016531Y0123000D02*
X0022469Y0123000D01*
X0022469Y0133000D02*
X0016531Y0133000D01*
X0016531Y0143000D02*
X0022469Y0143000D01*
X0022469Y0075500D02*
X0016531Y0075500D01*
X0016531Y0065500D02*
X0022469Y0065500D01*
X0022469Y0050500D02*
X0016531Y0050500D01*
X0016531Y0040500D02*
X0022469Y0040500D01*
X0211531Y0038000D02*
X0217469Y0038000D01*
X0217469Y0048000D02*
X0211531Y0048000D01*
X0211531Y0100500D02*
X0217469Y0100500D01*
X0217469Y0110500D02*
X0211531Y0110500D01*
D14*
X0089700Y0115500D02*
X0084500Y0115500D01*
X0084500Y0125500D02*
X0089700Y0125500D01*
X0089700Y0135500D02*
X0084500Y0135500D01*
X0084500Y0145500D02*
X0089700Y0145500D01*
X0054500Y0145500D02*
X0049300Y0145500D01*
X0049300Y0135500D02*
X0054500Y0135500D01*
X0054500Y0125500D02*
X0049300Y0125500D01*
X0049300Y0115500D02*
X0054500Y0115500D01*
D15*
X0039500Y0115500D01*
X0032000Y0123000D01*
X0019500Y0123000D01*
X0039500Y0135500D02*
X0032000Y0143000D01*
X0019500Y0143000D01*
X0039500Y0135500D02*
X0054500Y0135500D01*
X0069500Y0134979D02*
X0080128Y0134979D01*
X0080100Y0135154D02*
X0080208Y0134470D01*
X0080422Y0133811D01*
X0080737Y0133194D01*
X0081144Y0132634D01*
X0081634Y0132144D01*
X0082194Y0131737D01*
X0082811Y0131422D01*
X0083470Y0131208D01*
X0084154Y0131100D01*
X0084500Y0131100D01*
X0090046Y0131100D01*
X0090730Y0131208D01*
X0091389Y0131422D01*
X0092006Y0131737D01*
X0092566Y0132144D01*
X0093056Y0132634D01*
X0093463Y0133194D01*
X0093778Y0133811D01*
X0093992Y0134470D01*
X0094100Y0135154D01*
X0094100Y0135500D01*
X0094100Y0135846D01*
X0093992Y0136530D01*
X0093778Y0137189D01*
X0093463Y0137806D01*
X0093056Y0138366D01*
X0092566Y0138856D01*
X0092006Y0139263D01*
X0091389Y0139578D01*
X0090730Y0139792D01*
X0090046Y0139900D01*
X0084500Y0139900D01*
X0084500Y0135500D01*
X0084500Y0135500D01*
X0094100Y0135500D01*
X0084500Y0135500D01*
X0084500Y0135500D01*
X0084500Y0131100D01*
X0084500Y0135500D01*
X0084500Y0135500D01*
X0084500Y0135500D01*
X0080100Y0135500D01*
X0080100Y0135846D01*
X0080208Y0136530D01*
X0080422Y0137189D01*
X0080737Y0137806D01*
X0081144Y0138366D01*
X0081634Y0138856D01*
X0082194Y0139263D01*
X0082811Y0139578D01*
X0083470Y0139792D01*
X0084154Y0139900D01*
X0084500Y0139900D01*
X0084500Y0135500D01*
X0080100Y0135500D01*
X0080100Y0135154D01*
X0080224Y0136578D02*
X0069500Y0136578D01*
X0069500Y0138176D02*
X0081006Y0138176D01*
X0083418Y0139775D02*
X0069500Y0139775D01*
X0069500Y0141373D02*
X0083487Y0141373D01*
X0083665Y0141300D02*
X0090535Y0141300D01*
X0092079Y0141939D01*
X0093261Y0143121D01*
X0093900Y0144665D01*
X0093900Y0146335D01*
X0093261Y0147879D01*
X0092079Y0149061D01*
X0090535Y0149700D01*
X0083665Y0149700D01*
X0082121Y0149061D01*
X0080939Y0147879D01*
X0080300Y0146335D01*
X0080300Y0144665D01*
X0080939Y0143121D01*
X0082121Y0141939D01*
X0083665Y0141300D01*
X0084500Y0139775D02*
X0084500Y0139775D01*
X0084500Y0138176D02*
X0084500Y0138176D01*
X0084500Y0136578D02*
X0084500Y0136578D01*
X0084500Y0134979D02*
X0084500Y0134979D01*
X0084500Y0133381D02*
X0084500Y0133381D01*
X0084500Y0131782D02*
X0084500Y0131782D01*
X0083665Y0129700D02*
X0082121Y0129061D01*
X0080939Y0127879D01*
X0080300Y0126335D01*
X0080300Y0124665D01*
X0080939Y0123121D01*
X0082121Y0121939D01*
X0083665Y0121300D01*
X0090535Y0121300D01*
X0092079Y0121939D01*
X0093261Y0123121D01*
X0093900Y0124665D01*
X0093900Y0126335D01*
X0093261Y0127879D01*
X0092079Y0129061D01*
X0090535Y0129700D01*
X0083665Y0129700D01*
X0081646Y0128585D02*
X0069500Y0128585D01*
X0069500Y0126987D02*
X0080570Y0126987D01*
X0080300Y0125388D02*
X0069500Y0125388D01*
X0069500Y0123790D02*
X0080662Y0123790D01*
X0081869Y0122191D02*
X0069500Y0122191D01*
X0069500Y0120593D02*
X0162000Y0120593D01*
X0162000Y0122191D02*
X0092331Y0122191D01*
X0093538Y0123790D02*
X0162000Y0123790D01*
X0162000Y0125388D02*
X0093900Y0125388D01*
X0093630Y0126987D02*
X0162000Y0126987D01*
X0162000Y0128585D02*
X0092554Y0128585D01*
X0092069Y0131782D02*
X0162000Y0131782D01*
X0162000Y0130184D02*
X0069500Y0130184D01*
X0069500Y0131782D02*
X0082131Y0131782D01*
X0080641Y0133381D02*
X0069500Y0133381D01*
X0069500Y0142972D02*
X0081088Y0142972D01*
X0080339Y0144570D02*
X0069500Y0144570D01*
X0069500Y0146169D02*
X0080300Y0146169D01*
X0080893Y0147768D02*
X0069500Y0147768D01*
X0069500Y0149366D02*
X0082858Y0149366D01*
X0091342Y0149366D02*
X0162000Y0149366D01*
X0162000Y0150700D02*
X0162000Y0010300D01*
X0034500Y0010300D01*
X0034500Y0055500D01*
X0029500Y0060500D01*
X0009300Y0060500D01*
X0009300Y0103000D01*
X0042000Y0103000D01*
X0044500Y0105500D01*
X0059500Y0105500D01*
X0069500Y0115500D01*
X0069500Y0150700D01*
X0162000Y0150700D01*
X0162000Y0147768D02*
X0093307Y0147768D01*
X0093900Y0146169D02*
X0162000Y0146169D01*
X0162000Y0144570D02*
X0093861Y0144570D01*
X0093112Y0142972D02*
X0162000Y0142972D01*
X0162000Y0141373D02*
X0090713Y0141373D01*
X0090782Y0139775D02*
X0162000Y0139775D01*
X0162000Y0138176D02*
X0093194Y0138176D01*
X0093976Y0136578D02*
X0162000Y0136578D01*
X0162000Y0134979D02*
X0094072Y0134979D01*
X0093558Y0133381D02*
X0162000Y0133381D01*
X0162000Y0118994D02*
X0092376Y0118994D01*
X0092566Y0118856D02*
X0092006Y0119263D01*
X0091389Y0119578D01*
X0090730Y0119792D01*
X0090046Y0119900D01*
X0084500Y0119900D01*
X0084500Y0115500D01*
X0084500Y0115500D01*
X0094100Y0115500D01*
X0094100Y0115846D01*
X0093992Y0116530D01*
X0093778Y0117189D01*
X0093463Y0117806D01*
X0093056Y0118366D01*
X0092566Y0118856D01*
X0093672Y0117396D02*
X0162000Y0117396D01*
X0162000Y0115797D02*
X0094100Y0115797D01*
X0094100Y0115500D02*
X0084500Y0115500D01*
X0084500Y0115500D01*
X0084500Y0111100D01*
X0090046Y0111100D01*
X0090730Y0111208D01*
X0091389Y0111422D01*
X0092006Y0111737D01*
X0092566Y0112144D01*
X0093056Y0112634D01*
X0093463Y0113194D01*
X0093778Y0113811D01*
X0093992Y0114470D01*
X0094100Y0115154D01*
X0094100Y0115500D01*
X0093904Y0114199D02*
X0162000Y0114199D01*
X0162000Y0112600D02*
X0093023Y0112600D01*
X0084500Y0112600D02*
X0084500Y0112600D01*
X0084500Y0111100D02*
X0084154Y0111100D01*
X0083470Y0111208D01*
X0082811Y0111422D01*
X0082194Y0111737D01*
X0081634Y0112144D01*
X0081144Y0112634D01*
X0080737Y0113194D01*
X0080422Y0113811D01*
X0080208Y0114470D01*
X0080100Y0115154D01*
X0080100Y0115500D01*
X0084500Y0115500D01*
X0084500Y0115500D01*
X0084500Y0115500D01*
X0084500Y0119900D01*
X0084154Y0119900D01*
X0083470Y0119792D01*
X0082811Y0119578D01*
X0082194Y0119263D01*
X0081634Y0118856D01*
X0081144Y0118366D01*
X0080737Y0117806D01*
X0080422Y0117189D01*
X0080208Y0116530D01*
X0080100Y0115846D01*
X0080100Y0115500D01*
X0084500Y0115500D01*
X0084500Y0111100D01*
X0084500Y0114199D02*
X0084500Y0114199D01*
X0084500Y0115797D02*
X0084500Y0115797D01*
X0084500Y0117396D02*
X0084500Y0117396D01*
X0084500Y0118994D02*
X0084500Y0118994D01*
X0081824Y0118994D02*
X0069500Y0118994D01*
X0069500Y0117396D02*
X0080528Y0117396D01*
X0080100Y0115797D02*
X0069500Y0115797D01*
X0068199Y0114199D02*
X0080296Y0114199D01*
X0081177Y0112600D02*
X0066600Y0112600D01*
X0065002Y0111002D02*
X0162000Y0111002D01*
X0162000Y0109403D02*
X0063403Y0109403D01*
X0061805Y0107805D02*
X0162000Y0107805D01*
X0162000Y0106206D02*
X0135011Y0106206D01*
X0134691Y0106527D02*
X0132945Y0107250D01*
X0131055Y0107250D01*
X0129309Y0106527D01*
X0127973Y0105191D01*
X0127250Y0103445D01*
X0127250Y0101555D01*
X0127973Y0099809D01*
X0129309Y0098473D01*
X0131055Y0097750D01*
X0132945Y0097750D01*
X0134691Y0098473D01*
X0136027Y0099809D01*
X0136750Y0101555D01*
X0136750Y0103445D01*
X0136027Y0105191D01*
X0134691Y0106527D01*
X0136268Y0104608D02*
X0162000Y0104608D01*
X0162000Y0103009D02*
X0136750Y0103009D01*
X0136690Y0101411D02*
X0162000Y0101411D01*
X0162000Y0099812D02*
X0136028Y0099812D01*
X0134064Y0098214D02*
X0162000Y0098214D01*
X0162000Y0096615D02*
X0094119Y0096615D01*
X0094492Y0096770D02*
X0095730Y0098008D01*
X0096400Y0099625D01*
X0096400Y0101375D01*
X0095730Y0102992D01*
X0094492Y0104230D01*
X0092875Y0104900D01*
X0091125Y0104900D01*
X0089508Y0104230D01*
X0088270Y0102992D01*
X0087600Y0101375D01*
X0087600Y0099625D01*
X0088270Y0098008D01*
X0089508Y0096770D01*
X0091125Y0096100D01*
X0092875Y0096100D01*
X0094492Y0096770D01*
X0095815Y0098214D02*
X0129936Y0098214D01*
X0127972Y0099812D02*
X0096400Y0099812D01*
X0096385Y0101411D02*
X0127310Y0101411D01*
X0127250Y0103009D02*
X0095713Y0103009D01*
X0093581Y0104608D02*
X0127732Y0104608D01*
X0128989Y0106206D02*
X0060206Y0106206D01*
X0060923Y0104987D02*
X0060234Y0104763D01*
X0059589Y0104434D01*
X0059003Y0104009D01*
X0058491Y0103497D01*
X0058066Y0102911D01*
X0057737Y0102266D01*
X0057513Y0101577D01*
X0057400Y0100862D01*
X0057400Y0100500D01*
X0062000Y0100500D01*
X0062000Y0100500D01*
X0062000Y0105100D01*
X0062362Y0105100D01*
X0063077Y0104987D01*
X0063766Y0104763D01*
X0064411Y0104434D01*
X0064997Y0104009D01*
X0065509Y0103497D01*
X0065934Y0102911D01*
X0066263Y0102266D01*
X0066487Y0101577D01*
X0066600Y0100862D01*
X0066600Y0100500D01*
X0062000Y0100500D01*
X0062000Y0100500D01*
X0062000Y0100500D01*
X0062000Y0105100D01*
X0061638Y0105100D01*
X0060923Y0104987D01*
X0059929Y0104608D02*
X0043608Y0104608D01*
X0042009Y0103009D02*
X0058137Y0103009D01*
X0057487Y0101411D02*
X0009300Y0101411D01*
X0009300Y0099812D02*
X0057452Y0099812D01*
X0057400Y0100138D02*
X0057513Y0099423D01*
X0057737Y0098734D01*
X0058066Y0098089D01*
X0058491Y0097503D01*
X0059003Y0096991D01*
X0059589Y0096566D01*
X0060234Y0096237D01*
X0060923Y0096013D01*
X0061638Y0095900D01*
X0062000Y0095900D01*
X0062362Y0095900D01*
X0063077Y0096013D01*
X0063766Y0096237D01*
X0064411Y0096566D01*
X0064997Y0096991D01*
X0065509Y0097503D01*
X0065934Y0098089D01*
X0066263Y0098734D01*
X0066487Y0099423D01*
X0066600Y0100138D01*
X0066600Y0100500D01*
X0062000Y0100500D01*
X0062000Y0095900D01*
X0062000Y0100500D01*
X0062000Y0100500D01*
X0057400Y0100500D01*
X0057400Y0100138D01*
X0058002Y0098214D02*
X0009300Y0098214D01*
X0009300Y0096615D02*
X0059521Y0096615D01*
X0062000Y0096615D02*
X0062000Y0096615D01*
X0062000Y0098214D02*
X0062000Y0098214D01*
X0062000Y0099812D02*
X0062000Y0099812D01*
X0062000Y0101411D02*
X0062000Y0101411D01*
X0062000Y0103009D02*
X0062000Y0103009D01*
X0062000Y0104608D02*
X0062000Y0104608D01*
X0064071Y0104608D02*
X0070419Y0104608D01*
X0071125Y0104900D02*
X0069508Y0104230D01*
X0068270Y0102992D01*
X0067600Y0101375D01*
X0067600Y0099625D01*
X0068270Y0098008D01*
X0069508Y0096770D01*
X0071125Y0096100D01*
X0072875Y0096100D01*
X0074492Y0096770D01*
X0075730Y0098008D01*
X0076400Y0099625D01*
X0076400Y0101375D01*
X0075730Y0102992D01*
X0074492Y0104230D01*
X0072875Y0104900D01*
X0071125Y0104900D01*
X0073581Y0104608D02*
X0080419Y0104608D01*
X0081125Y0104900D02*
X0079508Y0104230D01*
X0078270Y0102992D01*
X0077600Y0101375D01*
X0077600Y0099625D01*
X0078270Y0098008D01*
X0079508Y0096770D01*
X0081125Y0096100D01*
X0082875Y0096100D01*
X0084492Y0096770D01*
X0085730Y0098008D01*
X0086400Y0099625D01*
X0086400Y0101375D01*
X0085730Y0102992D01*
X0084492Y0104230D01*
X0082875Y0104900D01*
X0081125Y0104900D01*
X0083581Y0104608D02*
X0090419Y0104608D01*
X0088287Y0103009D02*
X0085713Y0103009D01*
X0086385Y0101411D02*
X0087615Y0101411D01*
X0087600Y0099812D02*
X0086400Y0099812D01*
X0085815Y0098214D02*
X0088184Y0098214D01*
X0089881Y0096615D02*
X0084119Y0096615D01*
X0079881Y0096615D02*
X0074119Y0096615D01*
X0075815Y0098214D02*
X0078184Y0098214D01*
X0077600Y0099812D02*
X0076400Y0099812D01*
X0076385Y0101411D02*
X0077615Y0101411D01*
X0078287Y0103009D02*
X0075713Y0103009D01*
X0068287Y0103009D02*
X0065863Y0103009D01*
X0066513Y0101411D02*
X0067615Y0101411D01*
X0067600Y0099812D02*
X0066548Y0099812D01*
X0065998Y0098214D02*
X0068184Y0098214D01*
X0069881Y0096615D02*
X0064479Y0096615D01*
X0062875Y0074900D02*
X0061125Y0074900D01*
X0059508Y0074230D01*
X0058270Y0072992D01*
X0057600Y0071375D01*
X0057600Y0069625D01*
X0058270Y0068008D01*
X0059508Y0066770D01*
X0061125Y0066100D01*
X0062875Y0066100D01*
X0064492Y0066770D01*
X0065730Y0068008D01*
X0066400Y0069625D01*
X0066400Y0071375D01*
X0065730Y0072992D01*
X0064492Y0074230D01*
X0062875Y0074900D01*
X0064478Y0074236D02*
X0069522Y0074236D01*
X0069508Y0074230D02*
X0068270Y0072992D01*
X0067600Y0071375D01*
X0067600Y0069625D01*
X0068270Y0068008D01*
X0069508Y0066770D01*
X0071125Y0066100D01*
X0072875Y0066100D01*
X0074492Y0066770D01*
X0075730Y0068008D01*
X0076400Y0069625D01*
X0076400Y0071375D01*
X0075730Y0072992D01*
X0074492Y0074230D01*
X0072875Y0074900D01*
X0071125Y0074900D01*
X0069508Y0074230D01*
X0068123Y0072637D02*
X0065877Y0072637D01*
X0066400Y0071039D02*
X0067600Y0071039D01*
X0067676Y0069440D02*
X0066324Y0069440D01*
X0065564Y0067842D02*
X0068436Y0067842D01*
X0070778Y0066243D02*
X0063221Y0066243D01*
X0060778Y0066243D02*
X0027037Y0066243D01*
X0027037Y0066409D02*
X0026341Y0068088D01*
X0025056Y0069373D01*
X0023377Y0070068D01*
X0015623Y0070068D01*
X0013944Y0069373D01*
X0012659Y0068088D01*
X0011963Y0066409D01*
X0011963Y0064591D01*
X0012659Y0062912D01*
X0013944Y0061627D01*
X0015623Y0060931D01*
X0023377Y0060931D01*
X0025056Y0061627D01*
X0026341Y0062912D01*
X0027037Y0064591D01*
X0027037Y0066409D01*
X0026443Y0067842D02*
X0058436Y0067842D01*
X0057676Y0069440D02*
X0024893Y0069440D01*
X0024299Y0071081D02*
X0024968Y0071422D01*
X0025575Y0071863D01*
X0026106Y0072394D01*
X0026547Y0073001D01*
X0026888Y0073670D01*
X0027120Y0074383D01*
X0027237Y0075125D01*
X0027237Y0075316D01*
X0019684Y0075316D01*
X0019684Y0070731D01*
X0022844Y0070731D01*
X0023585Y0070849D01*
X0024299Y0071081D01*
X0024170Y0071039D02*
X0057600Y0071039D01*
X0058123Y0072637D02*
X0026283Y0072637D01*
X0027072Y0074236D02*
X0059522Y0074236D01*
X0074478Y0074236D02*
X0079522Y0074236D01*
X0079508Y0074230D02*
X0078270Y0072992D01*
X0077600Y0071375D01*
X0077600Y0069625D01*
X0078270Y0068008D01*
X0079508Y0066770D01*
X0079600Y0066732D01*
X0079600Y0043773D01*
X0079965Y0042891D01*
X0085722Y0037134D01*
X0085722Y0036366D01*
X0070474Y0021118D01*
X0070390Y0021203D01*
X0069001Y0021778D01*
X0067499Y0021778D01*
X0066110Y0021203D01*
X0065047Y0020140D01*
X0064472Y0018751D01*
X0064472Y0017249D01*
X0065047Y0015860D01*
X0066110Y0014797D01*
X0067499Y0014222D01*
X0069001Y0014222D01*
X0070390Y0014797D01*
X0071193Y0015600D01*
X0071227Y0015600D01*
X0072109Y0015965D01*
X0089116Y0032972D01*
X0090251Y0032972D01*
X0091640Y0033547D01*
X0092703Y0034610D01*
X0093278Y0035999D01*
X0093278Y0037501D01*
X0092703Y0038890D01*
X0091640Y0039953D01*
X0090251Y0040528D01*
X0089116Y0040528D01*
X0084400Y0045244D01*
X0084400Y0066732D01*
X0084492Y0066770D01*
X0085730Y0068008D01*
X0086400Y0069625D01*
X0086400Y0071375D01*
X0085730Y0072992D01*
X0084492Y0074230D01*
X0082875Y0074900D01*
X0081125Y0074900D01*
X0079508Y0074230D01*
X0078123Y0072637D02*
X0075877Y0072637D01*
X0076400Y0071039D02*
X0077600Y0071039D01*
X0077676Y0069440D02*
X0076324Y0069440D01*
X0075564Y0067842D02*
X0078436Y0067842D01*
X0079600Y0066243D02*
X0073221Y0066243D01*
X0079600Y0064645D02*
X0027037Y0064645D01*
X0026397Y0063046D02*
X0079600Y0063046D01*
X0079600Y0061448D02*
X0024624Y0061448D01*
X0030151Y0059849D02*
X0079600Y0059849D01*
X0079600Y0058251D02*
X0056046Y0058251D01*
X0055445Y0058500D02*
X0053555Y0058500D01*
X0051809Y0057777D01*
X0050473Y0056441D01*
X0049750Y0054695D01*
X0049750Y0052805D01*
X0050473Y0051059D01*
X0051809Y0049723D01*
X0053555Y0049000D01*
X0055445Y0049000D01*
X0057191Y0049723D01*
X0058527Y0051059D01*
X0059250Y0052805D01*
X0059250Y0054695D01*
X0058527Y0056441D01*
X0057191Y0057777D01*
X0055445Y0058500D01*
X0052954Y0058251D02*
X0031749Y0058251D01*
X0033348Y0056652D02*
X0050685Y0056652D01*
X0049899Y0055054D02*
X0034500Y0055054D01*
X0034500Y0053455D02*
X0049750Y0053455D01*
X0050143Y0051857D02*
X0034500Y0051857D01*
X0034500Y0050258D02*
X0051274Y0050258D01*
X0057726Y0050258D02*
X0079600Y0050258D01*
X0079600Y0048660D02*
X0034500Y0048660D01*
X0034500Y0047061D02*
X0079600Y0047061D01*
X0079600Y0045463D02*
X0034500Y0045463D01*
X0034500Y0043864D02*
X0051741Y0043864D01*
X0051906Y0043984D02*
X0051275Y0043526D01*
X0050724Y0042975D01*
X0050266Y0042344D01*
X0049913Y0041650D01*
X0049672Y0040909D01*
X0049550Y0040140D01*
X0049550Y0039750D01*
X0054500Y0039750D01*
X0054500Y0039750D01*
X0054500Y0044700D01*
X0054890Y0044700D01*
X0055659Y0044578D01*
X0056400Y0044337D01*
X0057094Y0043984D01*
X0057725Y0043526D01*
X0058276Y0042975D01*
X0058734Y0042344D01*
X0059087Y0041650D01*
X0059328Y0040909D01*
X0059450Y0040140D01*
X0059450Y0039750D01*
X0054500Y0039750D01*
X0054500Y0039750D01*
X0054500Y0039750D01*
X0054500Y0044700D01*
X0054110Y0044700D01*
X0053341Y0044578D01*
X0052600Y0044337D01*
X0051906Y0043984D01*
X0050226Y0042266D02*
X0034500Y0042266D01*
X0034500Y0040667D02*
X0049634Y0040667D01*
X0049550Y0039750D02*
X0049550Y0039360D01*
X0049672Y0038591D01*
X0049913Y0037850D01*
X0050266Y0037156D01*
X0050724Y0036525D01*
X0051275Y0035974D01*
X0051906Y0035516D01*
X0052600Y0035163D01*
X0053341Y0034922D01*
X0054110Y0034800D01*
X0054500Y0034800D01*
X0054890Y0034800D01*
X0055659Y0034922D01*
X0056400Y0035163D01*
X0057094Y0035516D01*
X0057725Y0035974D01*
X0058276Y0036525D01*
X0058734Y0037156D01*
X0059087Y0037850D01*
X0059328Y0038591D01*
X0059450Y0039360D01*
X0059450Y0039750D01*
X0054500Y0039750D01*
X0054500Y0034800D01*
X0054500Y0039750D01*
X0054500Y0039750D01*
X0049550Y0039750D01*
X0049596Y0039069D02*
X0034500Y0039069D01*
X0034500Y0037470D02*
X0050106Y0037470D01*
X0051417Y0035872D02*
X0034500Y0035872D01*
X0034500Y0034273D02*
X0083629Y0034273D01*
X0082031Y0032675D02*
X0034500Y0032675D01*
X0034500Y0031076D02*
X0080432Y0031076D01*
X0078834Y0029478D02*
X0034500Y0029478D01*
X0034500Y0027879D02*
X0077235Y0027879D01*
X0075637Y0026281D02*
X0034500Y0026281D01*
X0034500Y0024682D02*
X0074038Y0024682D01*
X0072440Y0023084D02*
X0034500Y0023084D01*
X0034500Y0021485D02*
X0066792Y0021485D01*
X0064942Y0019887D02*
X0034500Y0019887D01*
X0034500Y0018288D02*
X0064472Y0018288D01*
X0064704Y0016690D02*
X0034500Y0016690D01*
X0034500Y0015091D02*
X0065816Y0015091D01*
X0068250Y0018000D02*
X0070750Y0018000D01*
X0089500Y0036750D01*
X0082000Y0044250D01*
X0082000Y0070500D01*
X0085877Y0072637D02*
X0088123Y0072637D01*
X0088270Y0072992D02*
X0087600Y0071375D01*
X0087600Y0069625D01*
X0088270Y0068008D01*
X0089508Y0066770D01*
X0091125Y0066100D01*
X0092875Y0066100D01*
X0094492Y0066770D01*
X0095730Y0068008D01*
X0096400Y0069625D01*
X0096400Y0071375D01*
X0095730Y0072992D01*
X0094492Y0074230D01*
X0092875Y0074900D01*
X0091125Y0074900D01*
X0089508Y0074230D01*
X0088270Y0072992D01*
X0089522Y0074236D02*
X0084478Y0074236D01*
X0086400Y0071039D02*
X0087600Y0071039D01*
X0087676Y0069440D02*
X0086324Y0069440D01*
X0085564Y0067842D02*
X0088436Y0067842D01*
X0090778Y0066243D02*
X0084400Y0066243D01*
X0084400Y0064645D02*
X0162000Y0064645D01*
X0162000Y0066243D02*
X0093221Y0066243D01*
X0095564Y0067842D02*
X0162000Y0067842D01*
X0162000Y0069440D02*
X0096324Y0069440D01*
X0096400Y0071039D02*
X0162000Y0071039D01*
X0162000Y0072637D02*
X0095877Y0072637D01*
X0094478Y0074236D02*
X0162000Y0074236D01*
X0162000Y0075834D02*
X0027237Y0075834D01*
X0027237Y0075875D02*
X0027120Y0076617D01*
X0026888Y0077330D01*
X0026547Y0077999D01*
X0026106Y0078606D01*
X0025575Y0079137D01*
X0024968Y0079578D01*
X0024299Y0079919D01*
X0023585Y0080151D01*
X0022844Y0080268D01*
X0019684Y0080268D01*
X0019684Y0075684D01*
X0019316Y0075684D01*
X0019316Y0075316D01*
X0019684Y0075316D01*
X0019684Y0075684D01*
X0027237Y0075684D01*
X0027237Y0075875D01*
X0026835Y0077433D02*
X0162000Y0077433D01*
X0162000Y0079032D02*
X0025681Y0079032D01*
X0019684Y0079032D02*
X0019316Y0079032D01*
X0019316Y0080268D02*
X0016156Y0080268D01*
X0015415Y0080151D01*
X0014701Y0079919D01*
X0014032Y0079578D01*
X0013425Y0079137D01*
X0012894Y0078606D01*
X0012453Y0077999D01*
X0012112Y0077330D01*
X0011880Y0076617D01*
X0011763Y0075875D01*
X0011763Y0075684D01*
X0019316Y0075684D01*
X0019316Y0080268D01*
X0019316Y0077433D02*
X0019684Y0077433D01*
X0019684Y0075834D02*
X0019316Y0075834D01*
X0019316Y0075316D02*
X0011763Y0075316D01*
X0011763Y0075125D01*
X0011880Y0074383D01*
X0012112Y0073670D01*
X0012453Y0073001D01*
X0012894Y0072394D01*
X0013425Y0071863D01*
X0014032Y0071422D01*
X0014701Y0071081D01*
X0015415Y0070849D01*
X0016156Y0070731D01*
X0019316Y0070731D01*
X0019316Y0075316D01*
X0019316Y0074236D02*
X0019684Y0074236D01*
X0019684Y0072637D02*
X0019316Y0072637D01*
X0019316Y0071039D02*
X0019684Y0071039D01*
X0014830Y0071039D02*
X0009300Y0071039D01*
X0009300Y0072637D02*
X0012717Y0072637D01*
X0011928Y0074236D02*
X0009300Y0074236D01*
X0009300Y0075834D02*
X0011763Y0075834D01*
X0012165Y0077433D02*
X0009300Y0077433D01*
X0009300Y0079032D02*
X0013319Y0079032D01*
X0009300Y0080630D02*
X0162000Y0080630D01*
X0162000Y0082229D02*
X0009300Y0082229D01*
X0009300Y0083827D02*
X0130363Y0083827D01*
X0130100Y0083913D02*
X0130841Y0083672D01*
X0131610Y0083550D01*
X0132000Y0083550D01*
X0132390Y0083550D01*
X0133159Y0083672D01*
X0133900Y0083913D01*
X0134594Y0084266D01*
X0135225Y0084724D01*
X0135776Y0085275D01*
X0136234Y0085906D01*
X0136587Y0086600D01*
X0136828Y0087341D01*
X0136950Y0088110D01*
X0136950Y0088500D01*
X0136950Y0088890D01*
X0136828Y0089659D01*
X0136587Y0090400D01*
X0136234Y0091094D01*
X0135776Y0091725D01*
X0135225Y0092276D01*
X0134594Y0092734D01*
X0133900Y0093087D01*
X0133159Y0093328D01*
X0132390Y0093450D01*
X0132000Y0093450D01*
X0132000Y0088500D01*
X0132000Y0088500D01*
X0136950Y0088500D01*
X0132000Y0088500D01*
X0132000Y0088500D01*
X0132000Y0088500D01*
X0127050Y0088500D01*
X0127050Y0088890D01*
X0127172Y0089659D01*
X0127413Y0090400D01*
X0127766Y0091094D01*
X0128224Y0091725D01*
X0128775Y0092276D01*
X0129406Y0092734D01*
X0130100Y0093087D01*
X0130841Y0093328D01*
X0131610Y0093450D01*
X0132000Y0093450D01*
X0132000Y0088500D01*
X0132000Y0083550D01*
X0132000Y0088500D01*
X0132000Y0088500D01*
X0127050Y0088500D01*
X0127050Y0088110D01*
X0127172Y0087341D01*
X0127413Y0086600D01*
X0127766Y0085906D01*
X0128224Y0085275D01*
X0128775Y0084724D01*
X0129406Y0084266D01*
X0130100Y0083913D01*
X0132000Y0083827D02*
X0132000Y0083827D01*
X0132000Y0085426D02*
X0132000Y0085426D01*
X0132000Y0087024D02*
X0132000Y0087024D01*
X0132000Y0088623D02*
X0132000Y0088623D01*
X0132000Y0090221D02*
X0132000Y0090221D01*
X0132000Y0091820D02*
X0132000Y0091820D01*
X0132000Y0093418D02*
X0132000Y0093418D01*
X0132591Y0093418D02*
X0162000Y0093418D01*
X0162000Y0091820D02*
X0135681Y0091820D01*
X0136646Y0090221D02*
X0162000Y0090221D01*
X0162000Y0088623D02*
X0136950Y0088623D01*
X0136725Y0087024D02*
X0162000Y0087024D01*
X0162000Y0085426D02*
X0135885Y0085426D01*
X0133637Y0083827D02*
X0162000Y0083827D01*
X0162000Y0095017D02*
X0009300Y0095017D01*
X0009300Y0093418D02*
X0131409Y0093418D01*
X0128319Y0091820D02*
X0009300Y0091820D01*
X0009300Y0090221D02*
X0127354Y0090221D01*
X0127050Y0088623D02*
X0009300Y0088623D01*
X0009300Y0087024D02*
X0127275Y0087024D01*
X0128115Y0085426D02*
X0009300Y0085426D01*
X0009300Y0069440D02*
X0014107Y0069440D01*
X0012557Y0067842D02*
X0009300Y0067842D01*
X0009300Y0066243D02*
X0011963Y0066243D01*
X0011963Y0064645D02*
X0009300Y0064645D01*
X0009300Y0063046D02*
X0012603Y0063046D01*
X0014376Y0061448D02*
X0009300Y0061448D01*
X0054500Y0043864D02*
X0054500Y0043864D01*
X0054500Y0042266D02*
X0054500Y0042266D01*
X0054500Y0040667D02*
X0054500Y0040667D01*
X0054500Y0039069D02*
X0054500Y0039069D01*
X0054500Y0037470D02*
X0054500Y0037470D01*
X0054500Y0035872D02*
X0054500Y0035872D01*
X0057583Y0035872D02*
X0085228Y0035872D01*
X0085386Y0037470D02*
X0058894Y0037470D01*
X0059404Y0039069D02*
X0083787Y0039069D01*
X0082189Y0040667D02*
X0059366Y0040667D01*
X0058774Y0042266D02*
X0080590Y0042266D01*
X0079600Y0043864D02*
X0057259Y0043864D01*
X0058857Y0051857D02*
X0079600Y0051857D01*
X0079600Y0053455D02*
X0059250Y0053455D01*
X0059101Y0055054D02*
X0079600Y0055054D01*
X0079600Y0056652D02*
X0058315Y0056652D01*
X0084400Y0056652D02*
X0162000Y0056652D01*
X0162000Y0055054D02*
X0084400Y0055054D01*
X0084400Y0053455D02*
X0162000Y0053455D01*
X0162000Y0051857D02*
X0084400Y0051857D01*
X0084400Y0050258D02*
X0162000Y0050258D01*
X0162000Y0048660D02*
X0084400Y0048660D01*
X0084400Y0047061D02*
X0162000Y0047061D01*
X0162000Y0045463D02*
X0084400Y0045463D01*
X0085780Y0043864D02*
X0162000Y0043864D01*
X0162000Y0042266D02*
X0087378Y0042266D01*
X0088977Y0040667D02*
X0162000Y0040667D01*
X0162000Y0039069D02*
X0092524Y0039069D01*
X0093278Y0037470D02*
X0162000Y0037470D01*
X0162000Y0035872D02*
X0135346Y0035872D01*
X0134691Y0036527D02*
X0132945Y0037250D01*
X0131055Y0037250D01*
X0129309Y0036527D01*
X0127973Y0035191D01*
X0127250Y0033445D01*
X0127250Y0031555D01*
X0127973Y0029809D01*
X0129309Y0028473D01*
X0131055Y0027750D01*
X0132945Y0027750D01*
X0134691Y0028473D01*
X0136027Y0029809D01*
X0136750Y0031555D01*
X0136750Y0033445D01*
X0136027Y0035191D01*
X0134691Y0036527D01*
X0136407Y0034273D02*
X0162000Y0034273D01*
X0162000Y0032675D02*
X0136750Y0032675D01*
X0136552Y0031076D02*
X0162000Y0031076D01*
X0162000Y0029478D02*
X0135695Y0029478D01*
X0133257Y0027879D02*
X0162000Y0027879D01*
X0162000Y0026281D02*
X0082425Y0026281D01*
X0084023Y0027879D02*
X0130743Y0027879D01*
X0128305Y0029478D02*
X0085622Y0029478D01*
X0087220Y0031076D02*
X0127448Y0031076D01*
X0127250Y0032675D02*
X0088819Y0032675D01*
X0092366Y0034273D02*
X0127593Y0034273D01*
X0128654Y0035872D02*
X0093225Y0035872D01*
X0080826Y0024682D02*
X0162000Y0024682D01*
X0162000Y0023084D02*
X0133907Y0023084D01*
X0133900Y0023087D02*
X0133159Y0023328D01*
X0132390Y0023450D01*
X0132000Y0023450D01*
X0132000Y0018500D01*
X0132000Y0018500D01*
X0136950Y0018500D01*
X0136950Y0018890D01*
X0136828Y0019659D01*
X0136587Y0020400D01*
X0136234Y0021094D01*
X0135776Y0021725D01*
X0135225Y0022276D01*
X0134594Y0022734D01*
X0133900Y0023087D01*
X0132000Y0023084D02*
X0132000Y0023084D01*
X0132000Y0023450D02*
X0131610Y0023450D01*
X0130841Y0023328D01*
X0130100Y0023087D01*
X0129406Y0022734D01*
X0128775Y0022276D01*
X0128224Y0021725D01*
X0127766Y0021094D01*
X0127413Y0020400D01*
X0127172Y0019659D01*
X0127050Y0018890D01*
X0127050Y0018500D01*
X0132000Y0018500D01*
X0132000Y0018500D01*
X0132000Y0018500D01*
X0132000Y0023450D01*
X0130093Y0023084D02*
X0079228Y0023084D01*
X0077629Y0021485D02*
X0128050Y0021485D01*
X0127246Y0019887D02*
X0076031Y0019887D01*
X0074432Y0018288D02*
X0127050Y0018288D01*
X0127050Y0018110D02*
X0127172Y0017341D01*
X0127413Y0016600D01*
X0127766Y0015906D01*
X0128224Y0015275D01*
X0128775Y0014724D01*
X0129406Y0014266D01*
X0130100Y0013913D01*
X0130841Y0013672D01*
X0131610Y0013550D01*
X0132000Y0013550D01*
X0132390Y0013550D01*
X0133159Y0013672D01*
X0133900Y0013913D01*
X0134594Y0014266D01*
X0135225Y0014724D01*
X0135776Y0015275D01*
X0136234Y0015906D01*
X0136587Y0016600D01*
X0136828Y0017341D01*
X0136950Y0018110D01*
X0136950Y0018500D01*
X0132000Y0018500D01*
X0132000Y0013550D01*
X0132000Y0018500D01*
X0132000Y0018500D01*
X0127050Y0018500D01*
X0127050Y0018110D01*
X0127384Y0016690D02*
X0072834Y0016690D01*
X0070684Y0015091D02*
X0128409Y0015091D01*
X0132000Y0015091D02*
X0132000Y0015091D01*
X0132000Y0016690D02*
X0132000Y0016690D01*
X0132000Y0018288D02*
X0132000Y0018288D01*
X0132000Y0019887D02*
X0132000Y0019887D01*
X0132000Y0021485D02*
X0132000Y0021485D01*
X0135950Y0021485D02*
X0162000Y0021485D01*
X0162000Y0019887D02*
X0136754Y0019887D01*
X0136950Y0018288D02*
X0162000Y0018288D01*
X0162000Y0016690D02*
X0136616Y0016690D01*
X0135591Y0015091D02*
X0162000Y0015091D01*
X0162000Y0013493D02*
X0034500Y0013493D01*
X0034500Y0011894D02*
X0162000Y0011894D01*
X0162000Y0058251D02*
X0084400Y0058251D01*
X0084400Y0059849D02*
X0162000Y0059849D01*
X0162000Y0061448D02*
X0084400Y0061448D01*
X0084400Y0063046D02*
X0162000Y0063046D01*
X0070841Y0021485D02*
X0069708Y0021485D01*
D16*
X0068250Y0018000D03*
X0089500Y0036750D03*
X0119500Y0066750D03*
X0117000Y0138000D03*
M02*
